M48
; DRILL file {KiCad (5.1.4)-1} date 8/21/2019 8:44:32 PM
; FORMAT={-:-/ absolute / inch / decimal}
; #@! TF.CreationDate,2019-08-21T20:44:32-04:00
; #@! TF.GenerationSoftware,Kicad,Pcbnew,(5.1.4)-1
; #@! TF.FileFunction,Plated,1,2,PTH
FMAT,2
INCH
T1C0.0157
T2C0.0394
T3C0.0433
T4C0.1772
%
G90
G05
T1
X5.55Y-3.8825
X5.9Y-3.13
X5.92Y-3.66
X5.93Y-3.31
X5.95Y-3.17
X5.955Y-3.225
X5.99Y-3.3614
X6.08Y-3.73
X6.1Y-3.23
X6.1483Y-3.0383
T2
X5.78Y-3.47
X5.78Y-3.57
X5.88Y-3.47
X5.88Y-3.57
X5.98Y-3.47
X5.98Y-3.57
X5.575Y-3.275
X5.575Y-3.375
X5.56Y-3.04
X5.66Y-3.04
X5.76Y-3.04
T3
X5.5475Y-2.8825
X5.6475Y-2.8825
X5.7475Y-2.8825
T4
X5.7297Y-2.56
X6.025Y-2.56
X5.72Y-4.22
X6.0153Y-4.22
T0
M30
