G04 #@! TF.GenerationSoftware,KiCad,Pcbnew,(5.1.4)-1*
G04 #@! TF.CreationDate,2019-08-21T20:44:27-04:00*
G04 #@! TF.ProjectId,CABR_Schematic,43414252-5f53-4636-9865-6d617469632e,rev?*
G04 #@! TF.SameCoordinates,Original*
G04 #@! TF.FileFunction,Soldermask,Top*
G04 #@! TF.FilePolarity,Negative*
%FSLAX46Y46*%
G04 Gerber Fmt 4.6, Leading zero omitted, Abs format (unit mm)*
G04 Created by KiCad (PCBNEW (5.1.4)-1) date 2019-08-21 20:44:27*
%MOMM*%
%LPD*%
G04 APERTURE LIST*
%ADD10C,0.100000*%
G04 APERTURE END LIST*
D10*
G36*
X153677943Y-104254248D02*
G01*
X154233189Y-104484238D01*
X154233190Y-104484239D01*
X154732899Y-104818134D01*
X155157866Y-105243101D01*
X155157867Y-105243103D01*
X155491762Y-105742811D01*
X155721752Y-106298057D01*
X155839000Y-106887501D01*
X155839000Y-107488499D01*
X155721752Y-108077943D01*
X155491762Y-108633189D01*
X155491761Y-108633190D01*
X155157866Y-109132899D01*
X154732899Y-109557866D01*
X154481347Y-109725948D01*
X154233189Y-109891762D01*
X153677943Y-110121752D01*
X153088499Y-110239000D01*
X152487501Y-110239000D01*
X151898057Y-110121752D01*
X151342811Y-109891762D01*
X151094653Y-109725948D01*
X150843101Y-109557866D01*
X150418134Y-109132899D01*
X150084239Y-108633190D01*
X150084238Y-108633189D01*
X149854248Y-108077943D01*
X149737000Y-107488499D01*
X149737000Y-106887501D01*
X149854248Y-106298057D01*
X150084238Y-105742811D01*
X150418133Y-105243103D01*
X150418134Y-105243101D01*
X150843101Y-104818134D01*
X151342810Y-104484239D01*
X151342811Y-104484238D01*
X151898057Y-104254248D01*
X152487501Y-104137000D01*
X153088499Y-104137000D01*
X153677943Y-104254248D01*
X153677943Y-104254248D01*
G37*
G36*
X146177943Y-104254248D02*
G01*
X146733189Y-104484238D01*
X146733190Y-104484239D01*
X147232899Y-104818134D01*
X147657866Y-105243101D01*
X147657867Y-105243103D01*
X147991762Y-105742811D01*
X148221752Y-106298057D01*
X148339000Y-106887501D01*
X148339000Y-107488499D01*
X148221752Y-108077943D01*
X147991762Y-108633189D01*
X147991761Y-108633190D01*
X147657866Y-109132899D01*
X147232899Y-109557866D01*
X146981347Y-109725948D01*
X146733189Y-109891762D01*
X146177943Y-110121752D01*
X145588499Y-110239000D01*
X144987501Y-110239000D01*
X144398057Y-110121752D01*
X143842811Y-109891762D01*
X143594653Y-109725948D01*
X143343101Y-109557866D01*
X142918134Y-109132899D01*
X142584239Y-108633190D01*
X142584238Y-108633189D01*
X142354248Y-108077943D01*
X142237000Y-107488499D01*
X142237000Y-106887501D01*
X142354248Y-106298057D01*
X142584238Y-105742811D01*
X142918133Y-105243103D01*
X142918134Y-105243101D01*
X143343101Y-104818134D01*
X143842810Y-104484239D01*
X143842811Y-104484238D01*
X144398057Y-104254248D01*
X144987501Y-104137000D01*
X145588499Y-104137000D01*
X146177943Y-104254248D01*
X146177943Y-104254248D01*
G37*
G36*
X143840468Y-99971565D02*
G01*
X143879138Y-99983296D01*
X143914777Y-100002346D01*
X143946017Y-100027983D01*
X143971654Y-100059223D01*
X143990704Y-100094862D01*
X144002435Y-100133532D01*
X144007000Y-100179888D01*
X144007000Y-100831112D01*
X144002435Y-100877468D01*
X143990704Y-100916138D01*
X143971654Y-100951777D01*
X143946017Y-100983017D01*
X143914777Y-101008654D01*
X143879138Y-101027704D01*
X143840468Y-101039435D01*
X143794112Y-101044000D01*
X142717888Y-101044000D01*
X142671532Y-101039435D01*
X142632862Y-101027704D01*
X142597223Y-101008654D01*
X142565983Y-100983017D01*
X142540346Y-100951777D01*
X142521296Y-100916138D01*
X142509565Y-100877468D01*
X142505000Y-100831112D01*
X142505000Y-100179888D01*
X142509565Y-100133532D01*
X142521296Y-100094862D01*
X142540346Y-100059223D01*
X142565983Y-100027983D01*
X142597223Y-100002346D01*
X142632862Y-99983296D01*
X142671532Y-99971565D01*
X142717888Y-99967000D01*
X143794112Y-99967000D01*
X143840468Y-99971565D01*
X143840468Y-99971565D01*
G37*
G36*
X147126000Y-100891000D02*
G01*
X145024000Y-100891000D01*
X145024000Y-99289000D01*
X147126000Y-99289000D01*
X147126000Y-100891000D01*
X147126000Y-100891000D01*
G37*
G36*
X153426000Y-99741000D02*
G01*
X151324000Y-99741000D01*
X151324000Y-95839000D01*
X153426000Y-95839000D01*
X153426000Y-99741000D01*
X153426000Y-99741000D01*
G37*
G36*
X155778468Y-98193565D02*
G01*
X155817138Y-98205296D01*
X155852777Y-98224346D01*
X155884017Y-98249983D01*
X155909654Y-98281223D01*
X155928704Y-98316862D01*
X155940435Y-98355532D01*
X155945000Y-98401888D01*
X155945000Y-99053112D01*
X155940435Y-99099468D01*
X155928704Y-99138138D01*
X155909654Y-99173777D01*
X155884017Y-99205017D01*
X155852777Y-99230654D01*
X155817138Y-99249704D01*
X155778468Y-99261435D01*
X155732112Y-99266000D01*
X154655888Y-99266000D01*
X154609532Y-99261435D01*
X154570862Y-99249704D01*
X154535223Y-99230654D01*
X154503983Y-99205017D01*
X154478346Y-99173777D01*
X154459296Y-99138138D01*
X154447565Y-99099468D01*
X154443000Y-99053112D01*
X154443000Y-98401888D01*
X154447565Y-98355532D01*
X154459296Y-98316862D01*
X154478346Y-98281223D01*
X154503983Y-98249983D01*
X154535223Y-98224346D01*
X154570862Y-98205296D01*
X154609532Y-98193565D01*
X154655888Y-98189000D01*
X155732112Y-98189000D01*
X155778468Y-98193565D01*
X155778468Y-98193565D01*
G37*
G36*
X143840468Y-98096565D02*
G01*
X143879138Y-98108296D01*
X143914777Y-98127346D01*
X143946017Y-98152983D01*
X143971654Y-98184223D01*
X143990704Y-98219862D01*
X144002435Y-98258532D01*
X144007000Y-98304888D01*
X144007000Y-98956112D01*
X144002435Y-99002468D01*
X143990704Y-99041138D01*
X143971654Y-99076777D01*
X143946017Y-99108017D01*
X143914777Y-99133654D01*
X143879138Y-99152704D01*
X143840468Y-99164435D01*
X143794112Y-99169000D01*
X142717888Y-99169000D01*
X142671532Y-99164435D01*
X142632862Y-99152704D01*
X142597223Y-99133654D01*
X142565983Y-99108017D01*
X142540346Y-99076777D01*
X142521296Y-99041138D01*
X142509565Y-99002468D01*
X142505000Y-98956112D01*
X142505000Y-98304888D01*
X142509565Y-98258532D01*
X142521296Y-98219862D01*
X142540346Y-98184223D01*
X142565983Y-98152983D01*
X142597223Y-98127346D01*
X142632862Y-98108296D01*
X142671532Y-98096565D01*
X142717888Y-98092000D01*
X143794112Y-98092000D01*
X143840468Y-98096565D01*
X143840468Y-98096565D01*
G37*
G36*
X147126000Y-98591000D02*
G01*
X145024000Y-98591000D01*
X145024000Y-96989000D01*
X147126000Y-96989000D01*
X147126000Y-98591000D01*
X147126000Y-98591000D01*
G37*
G36*
X155778468Y-96318565D02*
G01*
X155817138Y-96330296D01*
X155852777Y-96349346D01*
X155884017Y-96374983D01*
X155909654Y-96406223D01*
X155928704Y-96441862D01*
X155940435Y-96480532D01*
X155945000Y-96526888D01*
X155945000Y-97178112D01*
X155940435Y-97224468D01*
X155928704Y-97263138D01*
X155909654Y-97298777D01*
X155884017Y-97330017D01*
X155852777Y-97355654D01*
X155817138Y-97374704D01*
X155778468Y-97386435D01*
X155732112Y-97391000D01*
X154655888Y-97391000D01*
X154609532Y-97386435D01*
X154570862Y-97374704D01*
X154535223Y-97355654D01*
X154503983Y-97330017D01*
X154478346Y-97298777D01*
X154459296Y-97263138D01*
X154447565Y-97224468D01*
X154443000Y-97178112D01*
X154443000Y-96526888D01*
X154447565Y-96480532D01*
X154459296Y-96441862D01*
X154478346Y-96406223D01*
X154503983Y-96374983D01*
X154535223Y-96349346D01*
X154570862Y-96330296D01*
X154609532Y-96318565D01*
X154655888Y-96314000D01*
X155732112Y-96314000D01*
X155778468Y-96318565D01*
X155778468Y-96318565D01*
G37*
G36*
X143840468Y-95907565D02*
G01*
X143879138Y-95919296D01*
X143914777Y-95938346D01*
X143946017Y-95963983D01*
X143971654Y-95995223D01*
X143990704Y-96030862D01*
X144002435Y-96069532D01*
X144007000Y-96115888D01*
X144007000Y-96767112D01*
X144002435Y-96813468D01*
X143990704Y-96852138D01*
X143971654Y-96887777D01*
X143946017Y-96919017D01*
X143914777Y-96944654D01*
X143879138Y-96963704D01*
X143840468Y-96975435D01*
X143794112Y-96980000D01*
X142717888Y-96980000D01*
X142671532Y-96975435D01*
X142632862Y-96963704D01*
X142597223Y-96944654D01*
X142565983Y-96919017D01*
X142540346Y-96887777D01*
X142521296Y-96852138D01*
X142509565Y-96813468D01*
X142505000Y-96767112D01*
X142505000Y-96115888D01*
X142509565Y-96069532D01*
X142521296Y-96030862D01*
X142540346Y-95995223D01*
X142565983Y-95963983D01*
X142597223Y-95938346D01*
X142632862Y-95919296D01*
X142671532Y-95907565D01*
X142717888Y-95903000D01*
X143794112Y-95903000D01*
X143840468Y-95907565D01*
X143840468Y-95907565D01*
G37*
G36*
X147126000Y-96291000D02*
G01*
X145024000Y-96291000D01*
X145024000Y-94689000D01*
X147126000Y-94689000D01*
X147126000Y-96291000D01*
X147126000Y-96291000D01*
G37*
G36*
X143840468Y-94032565D02*
G01*
X143879138Y-94044296D01*
X143914777Y-94063346D01*
X143946017Y-94088983D01*
X143971654Y-94120223D01*
X143990704Y-94155862D01*
X144002435Y-94194532D01*
X144007000Y-94240888D01*
X144007000Y-94892112D01*
X144002435Y-94938468D01*
X143990704Y-94977138D01*
X143971654Y-95012777D01*
X143946017Y-95044017D01*
X143914777Y-95069654D01*
X143879138Y-95088704D01*
X143840468Y-95100435D01*
X143794112Y-95105000D01*
X142717888Y-95105000D01*
X142671532Y-95100435D01*
X142632862Y-95088704D01*
X142597223Y-95069654D01*
X142565983Y-95044017D01*
X142540346Y-95012777D01*
X142521296Y-94977138D01*
X142509565Y-94938468D01*
X142505000Y-94892112D01*
X142505000Y-94240888D01*
X142509565Y-94194532D01*
X142521296Y-94155862D01*
X142540346Y-94120223D01*
X142565983Y-94088983D01*
X142597223Y-94063346D01*
X142632862Y-94044296D01*
X142671532Y-94032565D01*
X142717888Y-94028000D01*
X143794112Y-94028000D01*
X143840468Y-94032565D01*
X143840468Y-94032565D01*
G37*
G36*
X157265468Y-91709565D02*
G01*
X157304138Y-91721296D01*
X157339777Y-91740346D01*
X157371017Y-91765983D01*
X157396654Y-91797223D01*
X157415704Y-91832862D01*
X157427435Y-91871532D01*
X157432000Y-91917888D01*
X157432000Y-92994112D01*
X157427435Y-93040468D01*
X157415704Y-93079138D01*
X157396654Y-93114777D01*
X157371017Y-93146017D01*
X157339777Y-93171654D01*
X157304138Y-93190704D01*
X157265468Y-93202435D01*
X157219112Y-93207000D01*
X156567888Y-93207000D01*
X156521532Y-93202435D01*
X156482862Y-93190704D01*
X156447223Y-93171654D01*
X156415983Y-93146017D01*
X156390346Y-93114777D01*
X156371296Y-93079138D01*
X156359565Y-93040468D01*
X156355000Y-92994112D01*
X156355000Y-91917888D01*
X156359565Y-91871532D01*
X156371296Y-91832862D01*
X156390346Y-91797223D01*
X156415983Y-91765983D01*
X156447223Y-91740346D01*
X156482862Y-91721296D01*
X156521532Y-91709565D01*
X156567888Y-91705000D01*
X157219112Y-91705000D01*
X157265468Y-91709565D01*
X157265468Y-91709565D01*
G37*
G36*
X155390468Y-91709565D02*
G01*
X155429138Y-91721296D01*
X155464777Y-91740346D01*
X155496017Y-91765983D01*
X155521654Y-91797223D01*
X155540704Y-91832862D01*
X155552435Y-91871532D01*
X155557000Y-91917888D01*
X155557000Y-92994112D01*
X155552435Y-93040468D01*
X155540704Y-93079138D01*
X155521654Y-93114777D01*
X155496017Y-93146017D01*
X155464777Y-93171654D01*
X155429138Y-93190704D01*
X155390468Y-93202435D01*
X155344112Y-93207000D01*
X154692888Y-93207000D01*
X154646532Y-93202435D01*
X154607862Y-93190704D01*
X154572223Y-93171654D01*
X154540983Y-93146017D01*
X154515346Y-93114777D01*
X154496296Y-93079138D01*
X154484565Y-93040468D01*
X154480000Y-92994112D01*
X154480000Y-91917888D01*
X154484565Y-91871532D01*
X154496296Y-91832862D01*
X154515346Y-91797223D01*
X154540983Y-91765983D01*
X154572223Y-91740346D01*
X154607862Y-91721296D01*
X154646532Y-91709565D01*
X154692888Y-91705000D01*
X155344112Y-91705000D01*
X155390468Y-91709565D01*
X155390468Y-91709565D01*
G37*
G36*
X143840468Y-91765065D02*
G01*
X143879138Y-91776796D01*
X143914777Y-91795846D01*
X143946017Y-91821483D01*
X143971654Y-91852723D01*
X143990704Y-91888362D01*
X144002435Y-91927032D01*
X144007000Y-91973388D01*
X144007000Y-92624612D01*
X144002435Y-92670968D01*
X143990704Y-92709638D01*
X143971654Y-92745277D01*
X143946017Y-92776517D01*
X143914777Y-92802154D01*
X143879138Y-92821204D01*
X143840468Y-92832935D01*
X143794112Y-92837500D01*
X142717888Y-92837500D01*
X142671532Y-92832935D01*
X142632862Y-92821204D01*
X142597223Y-92802154D01*
X142565983Y-92776517D01*
X142540346Y-92745277D01*
X142521296Y-92709638D01*
X142509565Y-92670968D01*
X142505000Y-92624612D01*
X142505000Y-91973388D01*
X142509565Y-91927032D01*
X142521296Y-91888362D01*
X142540346Y-91852723D01*
X142565983Y-91821483D01*
X142597223Y-91795846D01*
X142632862Y-91776796D01*
X142671532Y-91765065D01*
X142717888Y-91760500D01*
X143794112Y-91760500D01*
X143840468Y-91765065D01*
X143840468Y-91765065D01*
G37*
G36*
X146922443Y-89783519D02*
G01*
X146988627Y-89790037D01*
X147158466Y-89841557D01*
X147314991Y-89925222D01*
X147340897Y-89946483D01*
X147452186Y-90037814D01*
X147505043Y-90102222D01*
X147564778Y-90175009D01*
X147648443Y-90331534D01*
X147699963Y-90501373D01*
X147717359Y-90678000D01*
X147699963Y-90854627D01*
X147648443Y-91024466D01*
X147564778Y-91180991D01*
X147535448Y-91216729D01*
X147452186Y-91318186D01*
X147350729Y-91401448D01*
X147314991Y-91430778D01*
X147158466Y-91514443D01*
X146988627Y-91565963D01*
X146922443Y-91572481D01*
X146856260Y-91579000D01*
X146767740Y-91579000D01*
X146701557Y-91572481D01*
X146635373Y-91565963D01*
X146465534Y-91514443D01*
X146309009Y-91430778D01*
X146273271Y-91401448D01*
X146171814Y-91318186D01*
X146088552Y-91216729D01*
X146059222Y-91180991D01*
X145975557Y-91024466D01*
X145924037Y-90854627D01*
X145906641Y-90678000D01*
X145924037Y-90501373D01*
X145975557Y-90331534D01*
X146059222Y-90175009D01*
X146118957Y-90102222D01*
X146171814Y-90037814D01*
X146283103Y-89946483D01*
X146309009Y-89925222D01*
X146465534Y-89841557D01*
X146635373Y-89790037D01*
X146701557Y-89783519D01*
X146767740Y-89777000D01*
X146856260Y-89777000D01*
X146922443Y-89783519D01*
X146922443Y-89783519D01*
G37*
G36*
X149462443Y-89783519D02*
G01*
X149528627Y-89790037D01*
X149698466Y-89841557D01*
X149854991Y-89925222D01*
X149880897Y-89946483D01*
X149992186Y-90037814D01*
X150045043Y-90102222D01*
X150104778Y-90175009D01*
X150188443Y-90331534D01*
X150239963Y-90501373D01*
X150257359Y-90678000D01*
X150239963Y-90854627D01*
X150188443Y-91024466D01*
X150104778Y-91180991D01*
X150075448Y-91216729D01*
X149992186Y-91318186D01*
X149890729Y-91401448D01*
X149854991Y-91430778D01*
X149698466Y-91514443D01*
X149528627Y-91565963D01*
X149462443Y-91572481D01*
X149396260Y-91579000D01*
X149307740Y-91579000D01*
X149241557Y-91572481D01*
X149175373Y-91565963D01*
X149005534Y-91514443D01*
X148849009Y-91430778D01*
X148813271Y-91401448D01*
X148711814Y-91318186D01*
X148628552Y-91216729D01*
X148599222Y-91180991D01*
X148515557Y-91024466D01*
X148464037Y-90854627D01*
X148446641Y-90678000D01*
X148464037Y-90501373D01*
X148515557Y-90331534D01*
X148599222Y-90175009D01*
X148658957Y-90102222D01*
X148711814Y-90037814D01*
X148823103Y-89946483D01*
X148849009Y-89925222D01*
X149005534Y-89841557D01*
X149175373Y-89790037D01*
X149241557Y-89783519D01*
X149307740Y-89777000D01*
X149396260Y-89777000D01*
X149462443Y-89783519D01*
X149462443Y-89783519D01*
G37*
G36*
X152002443Y-89783519D02*
G01*
X152068627Y-89790037D01*
X152238466Y-89841557D01*
X152394991Y-89925222D01*
X152420897Y-89946483D01*
X152532186Y-90037814D01*
X152585043Y-90102222D01*
X152644778Y-90175009D01*
X152728443Y-90331534D01*
X152779963Y-90501373D01*
X152797359Y-90678000D01*
X152779963Y-90854627D01*
X152728443Y-91024466D01*
X152644778Y-91180991D01*
X152615448Y-91216729D01*
X152532186Y-91318186D01*
X152430729Y-91401448D01*
X152394991Y-91430778D01*
X152238466Y-91514443D01*
X152068627Y-91565963D01*
X152002443Y-91572481D01*
X151936260Y-91579000D01*
X151847740Y-91579000D01*
X151781557Y-91572481D01*
X151715373Y-91565963D01*
X151545534Y-91514443D01*
X151389009Y-91430778D01*
X151353271Y-91401448D01*
X151251814Y-91318186D01*
X151168552Y-91216729D01*
X151139222Y-91180991D01*
X151055557Y-91024466D01*
X151004037Y-90854627D01*
X150986641Y-90678000D01*
X151004037Y-90501373D01*
X151055557Y-90331534D01*
X151139222Y-90175009D01*
X151198957Y-90102222D01*
X151251814Y-90037814D01*
X151363103Y-89946483D01*
X151389009Y-89925222D01*
X151545534Y-89841557D01*
X151715373Y-89790037D01*
X151781557Y-89783519D01*
X151847740Y-89777000D01*
X151936260Y-89777000D01*
X152002443Y-89783519D01*
X152002443Y-89783519D01*
G37*
G36*
X143840468Y-89890065D02*
G01*
X143879138Y-89901796D01*
X143914777Y-89920846D01*
X143946017Y-89946483D01*
X143971654Y-89977723D01*
X143990704Y-90013362D01*
X144002435Y-90052032D01*
X144007000Y-90098388D01*
X144007000Y-90749612D01*
X144002435Y-90795968D01*
X143990704Y-90834638D01*
X143971654Y-90870277D01*
X143946017Y-90901517D01*
X143914777Y-90927154D01*
X143879138Y-90946204D01*
X143840468Y-90957935D01*
X143794112Y-90962500D01*
X142717888Y-90962500D01*
X142671532Y-90957935D01*
X142632862Y-90946204D01*
X142597223Y-90927154D01*
X142565983Y-90901517D01*
X142540346Y-90870277D01*
X142521296Y-90834638D01*
X142509565Y-90795968D01*
X142505000Y-90749612D01*
X142505000Y-90098388D01*
X142509565Y-90052032D01*
X142521296Y-90013362D01*
X142540346Y-89977723D01*
X142565983Y-89946483D01*
X142597223Y-89920846D01*
X142632862Y-89901796D01*
X142671532Y-89890065D01*
X142717888Y-89885500D01*
X143794112Y-89885500D01*
X143840468Y-89890065D01*
X143840468Y-89890065D01*
G37*
G36*
X157186968Y-89423565D02*
G01*
X157225638Y-89435296D01*
X157261277Y-89454346D01*
X157292517Y-89479983D01*
X157318154Y-89511223D01*
X157337204Y-89546862D01*
X157348935Y-89585532D01*
X157353500Y-89631888D01*
X157353500Y-90708112D01*
X157348935Y-90754468D01*
X157337204Y-90793138D01*
X157318154Y-90828777D01*
X157292517Y-90860017D01*
X157261277Y-90885654D01*
X157225638Y-90904704D01*
X157186968Y-90916435D01*
X157140612Y-90921000D01*
X156489388Y-90921000D01*
X156443032Y-90916435D01*
X156404362Y-90904704D01*
X156368723Y-90885654D01*
X156337483Y-90860017D01*
X156311846Y-90828777D01*
X156292796Y-90793138D01*
X156281065Y-90754468D01*
X156276500Y-90708112D01*
X156276500Y-89631888D01*
X156281065Y-89585532D01*
X156292796Y-89546862D01*
X156311846Y-89511223D01*
X156337483Y-89479983D01*
X156368723Y-89454346D01*
X156404362Y-89435296D01*
X156443032Y-89423565D01*
X156489388Y-89419000D01*
X157140612Y-89419000D01*
X157186968Y-89423565D01*
X157186968Y-89423565D01*
G37*
G36*
X155311968Y-89423565D02*
G01*
X155350638Y-89435296D01*
X155386277Y-89454346D01*
X155417517Y-89479983D01*
X155443154Y-89511223D01*
X155462204Y-89546862D01*
X155473935Y-89585532D01*
X155478500Y-89631888D01*
X155478500Y-90708112D01*
X155473935Y-90754468D01*
X155462204Y-90793138D01*
X155443154Y-90828777D01*
X155417517Y-90860017D01*
X155386277Y-90885654D01*
X155350638Y-90904704D01*
X155311968Y-90916435D01*
X155265612Y-90921000D01*
X154614388Y-90921000D01*
X154568032Y-90916435D01*
X154529362Y-90904704D01*
X154493723Y-90885654D01*
X154462483Y-90860017D01*
X154436846Y-90828777D01*
X154417796Y-90793138D01*
X154406065Y-90754468D01*
X154401500Y-90708112D01*
X154401500Y-89631888D01*
X154406065Y-89585532D01*
X154417796Y-89546862D01*
X154436846Y-89511223D01*
X154462483Y-89479983D01*
X154493723Y-89454346D01*
X154529362Y-89435296D01*
X154568032Y-89423565D01*
X154614388Y-89419000D01*
X155265612Y-89419000D01*
X155311968Y-89423565D01*
X155311968Y-89423565D01*
G37*
G36*
X152793000Y-89039000D02*
G01*
X150991000Y-89039000D01*
X150991000Y-87237000D01*
X152793000Y-87237000D01*
X152793000Y-89039000D01*
X152793000Y-89039000D01*
G37*
G36*
X149462442Y-87243518D02*
G01*
X149528627Y-87250037D01*
X149698466Y-87301557D01*
X149854991Y-87385222D01*
X149890729Y-87414552D01*
X149992186Y-87497814D01*
X150075448Y-87599271D01*
X150104778Y-87635009D01*
X150188443Y-87791534D01*
X150239963Y-87961373D01*
X150257359Y-88138000D01*
X150239963Y-88314627D01*
X150188443Y-88484466D01*
X150104778Y-88640991D01*
X150075448Y-88676729D01*
X149992186Y-88778186D01*
X149890729Y-88861448D01*
X149854991Y-88890778D01*
X149698466Y-88974443D01*
X149528627Y-89025963D01*
X149462443Y-89032481D01*
X149396260Y-89039000D01*
X149307740Y-89039000D01*
X149241557Y-89032481D01*
X149175373Y-89025963D01*
X149005534Y-88974443D01*
X148849009Y-88890778D01*
X148813271Y-88861448D01*
X148711814Y-88778186D01*
X148628552Y-88676729D01*
X148599222Y-88640991D01*
X148515557Y-88484466D01*
X148464037Y-88314627D01*
X148446641Y-88138000D01*
X148464037Y-87961373D01*
X148515557Y-87791534D01*
X148599222Y-87635009D01*
X148628552Y-87599271D01*
X148711814Y-87497814D01*
X148813271Y-87414552D01*
X148849009Y-87385222D01*
X149005534Y-87301557D01*
X149175373Y-87250037D01*
X149241558Y-87243518D01*
X149307740Y-87237000D01*
X149396260Y-87237000D01*
X149462442Y-87243518D01*
X149462442Y-87243518D01*
G37*
G36*
X146922442Y-87243518D02*
G01*
X146988627Y-87250037D01*
X147158466Y-87301557D01*
X147314991Y-87385222D01*
X147350729Y-87414552D01*
X147452186Y-87497814D01*
X147535448Y-87599271D01*
X147564778Y-87635009D01*
X147648443Y-87791534D01*
X147699963Y-87961373D01*
X147717359Y-88138000D01*
X147699963Y-88314627D01*
X147648443Y-88484466D01*
X147564778Y-88640991D01*
X147535448Y-88676729D01*
X147452186Y-88778186D01*
X147350729Y-88861448D01*
X147314991Y-88890778D01*
X147158466Y-88974443D01*
X146988627Y-89025963D01*
X146922443Y-89032481D01*
X146856260Y-89039000D01*
X146767740Y-89039000D01*
X146701557Y-89032481D01*
X146635373Y-89025963D01*
X146465534Y-88974443D01*
X146309009Y-88890778D01*
X146273271Y-88861448D01*
X146171814Y-88778186D01*
X146088552Y-88676729D01*
X146059222Y-88640991D01*
X145975557Y-88484466D01*
X145924037Y-88314627D01*
X145906641Y-88138000D01*
X145924037Y-87961373D01*
X145975557Y-87791534D01*
X146059222Y-87635009D01*
X146088552Y-87599271D01*
X146171814Y-87497814D01*
X146273271Y-87414552D01*
X146309009Y-87385222D01*
X146465534Y-87301557D01*
X146635373Y-87250037D01*
X146701558Y-87243518D01*
X146767740Y-87237000D01*
X146856260Y-87237000D01*
X146922442Y-87243518D01*
X146922442Y-87243518D01*
G37*
G36*
X142506000Y-86626000D02*
G01*
X140704000Y-86626000D01*
X140704000Y-84824000D01*
X142506000Y-84824000D01*
X142506000Y-86626000D01*
X142506000Y-86626000D01*
G37*
G36*
X155468968Y-85105565D02*
G01*
X155507638Y-85117296D01*
X155543277Y-85136346D01*
X155574517Y-85161983D01*
X155600154Y-85193223D01*
X155619204Y-85228862D01*
X155630935Y-85267532D01*
X155635500Y-85313888D01*
X155635500Y-86390112D01*
X155630935Y-86436468D01*
X155619204Y-86475138D01*
X155600154Y-86510777D01*
X155574517Y-86542017D01*
X155543277Y-86567654D01*
X155507638Y-86586704D01*
X155468968Y-86598435D01*
X155422612Y-86603000D01*
X154771388Y-86603000D01*
X154725032Y-86598435D01*
X154686362Y-86586704D01*
X154650723Y-86567654D01*
X154619483Y-86542017D01*
X154593846Y-86510777D01*
X154574796Y-86475138D01*
X154563065Y-86436468D01*
X154558500Y-86390112D01*
X154558500Y-85313888D01*
X154563065Y-85267532D01*
X154574796Y-85228862D01*
X154593846Y-85193223D01*
X154619483Y-85161983D01*
X154650723Y-85136346D01*
X154686362Y-85117296D01*
X154725032Y-85105565D01*
X154771388Y-85101000D01*
X155422612Y-85101000D01*
X155468968Y-85105565D01*
X155468968Y-85105565D01*
G37*
G36*
X157343968Y-85105565D02*
G01*
X157382638Y-85117296D01*
X157418277Y-85136346D01*
X157449517Y-85161983D01*
X157475154Y-85193223D01*
X157494204Y-85228862D01*
X157505935Y-85267532D01*
X157510500Y-85313888D01*
X157510500Y-86390112D01*
X157505935Y-86436468D01*
X157494204Y-86475138D01*
X157475154Y-86510777D01*
X157449517Y-86542017D01*
X157418277Y-86567654D01*
X157382638Y-86586704D01*
X157343968Y-86598435D01*
X157297612Y-86603000D01*
X156646388Y-86603000D01*
X156600032Y-86598435D01*
X156561362Y-86586704D01*
X156525723Y-86567654D01*
X156494483Y-86542017D01*
X156468846Y-86510777D01*
X156449796Y-86475138D01*
X156438065Y-86436468D01*
X156433500Y-86390112D01*
X156433500Y-85313888D01*
X156438065Y-85267532D01*
X156449796Y-85228862D01*
X156468846Y-85193223D01*
X156494483Y-85161983D01*
X156525723Y-85136346D01*
X156561362Y-85117296D01*
X156600032Y-85105565D01*
X156646388Y-85101000D01*
X157297612Y-85101000D01*
X157343968Y-85105565D01*
X157343968Y-85105565D01*
G37*
G36*
X153776000Y-84831000D02*
G01*
X151974000Y-84831000D01*
X151974000Y-84079000D01*
X153776000Y-84079000D01*
X153776000Y-84831000D01*
X153776000Y-84831000D01*
G37*
G36*
X146476000Y-84831000D02*
G01*
X144674000Y-84831000D01*
X144674000Y-84079000D01*
X146476000Y-84079000D01*
X146476000Y-84831000D01*
X146476000Y-84831000D01*
G37*
G36*
X155468968Y-82819565D02*
G01*
X155507638Y-82831296D01*
X155543277Y-82850346D01*
X155574517Y-82875983D01*
X155600154Y-82907223D01*
X155619204Y-82942862D01*
X155630935Y-82981532D01*
X155635500Y-83027888D01*
X155635500Y-84104112D01*
X155630935Y-84150468D01*
X155619204Y-84189138D01*
X155600154Y-84224777D01*
X155574517Y-84256017D01*
X155543277Y-84281654D01*
X155507638Y-84300704D01*
X155468968Y-84312435D01*
X155422612Y-84317000D01*
X154771388Y-84317000D01*
X154725032Y-84312435D01*
X154686362Y-84300704D01*
X154650723Y-84281654D01*
X154619483Y-84256017D01*
X154593846Y-84224777D01*
X154574796Y-84189138D01*
X154563065Y-84150468D01*
X154558500Y-84104112D01*
X154558500Y-83027888D01*
X154563065Y-82981532D01*
X154574796Y-82942862D01*
X154593846Y-82907223D01*
X154619483Y-82875983D01*
X154650723Y-82850346D01*
X154686362Y-82831296D01*
X154725032Y-82819565D01*
X154771388Y-82815000D01*
X155422612Y-82815000D01*
X155468968Y-82819565D01*
X155468968Y-82819565D01*
G37*
G36*
X157343968Y-82819565D02*
G01*
X157382638Y-82831296D01*
X157418277Y-82850346D01*
X157449517Y-82875983D01*
X157475154Y-82907223D01*
X157494204Y-82942862D01*
X157505935Y-82981532D01*
X157510500Y-83027888D01*
X157510500Y-84104112D01*
X157505935Y-84150468D01*
X157494204Y-84189138D01*
X157475154Y-84224777D01*
X157449517Y-84256017D01*
X157418277Y-84281654D01*
X157382638Y-84300704D01*
X157343968Y-84312435D01*
X157297612Y-84317000D01*
X156646388Y-84317000D01*
X156600032Y-84312435D01*
X156561362Y-84300704D01*
X156525723Y-84281654D01*
X156494483Y-84256017D01*
X156468846Y-84224777D01*
X156449796Y-84189138D01*
X156438065Y-84150468D01*
X156433500Y-84104112D01*
X156433500Y-83027888D01*
X156438065Y-82981532D01*
X156449796Y-82942862D01*
X156468846Y-82907223D01*
X156494483Y-82875983D01*
X156525723Y-82850346D01*
X156561362Y-82831296D01*
X156600032Y-82819565D01*
X156646388Y-82815000D01*
X157297612Y-82815000D01*
X157343968Y-82819565D01*
X157343968Y-82819565D01*
G37*
G36*
X141715443Y-82290519D02*
G01*
X141781627Y-82297037D01*
X141951466Y-82348557D01*
X142107991Y-82432222D01*
X142143729Y-82461552D01*
X142245186Y-82544814D01*
X142328448Y-82646271D01*
X142357778Y-82682009D01*
X142441443Y-82838534D01*
X142492963Y-83008373D01*
X142510359Y-83185000D01*
X142492963Y-83361627D01*
X142441443Y-83531466D01*
X142357778Y-83687991D01*
X142328448Y-83723729D01*
X142245186Y-83825186D01*
X142143729Y-83908448D01*
X142107991Y-83937778D01*
X141951466Y-84021443D01*
X141781627Y-84072963D01*
X141720331Y-84079000D01*
X141649260Y-84086000D01*
X141560740Y-84086000D01*
X141489669Y-84079000D01*
X141428373Y-84072963D01*
X141258534Y-84021443D01*
X141102009Y-83937778D01*
X141066271Y-83908448D01*
X140964814Y-83825186D01*
X140881552Y-83723729D01*
X140852222Y-83687991D01*
X140768557Y-83531466D01*
X140717037Y-83361627D01*
X140699641Y-83185000D01*
X140717037Y-83008373D01*
X140768557Y-82838534D01*
X140852222Y-82682009D01*
X140881552Y-82646271D01*
X140964814Y-82544814D01*
X141066271Y-82461552D01*
X141102009Y-82432222D01*
X141258534Y-82348557D01*
X141428373Y-82297037D01*
X141494557Y-82290519D01*
X141560740Y-82284000D01*
X141649260Y-82284000D01*
X141715443Y-82290519D01*
X141715443Y-82290519D01*
G37*
G36*
X153776000Y-83561000D02*
G01*
X151974000Y-83561000D01*
X151974000Y-82809000D01*
X153776000Y-82809000D01*
X153776000Y-83561000D01*
X153776000Y-83561000D01*
G37*
G36*
X146476000Y-83561000D02*
G01*
X144674000Y-83561000D01*
X144674000Y-82809000D01*
X146476000Y-82809000D01*
X146476000Y-83561000D01*
X146476000Y-83561000D01*
G37*
G36*
X146476000Y-82291000D02*
G01*
X144674000Y-82291000D01*
X144674000Y-81539000D01*
X146476000Y-81539000D01*
X146476000Y-82291000D01*
X146476000Y-82291000D01*
G37*
G36*
X153776000Y-82291000D02*
G01*
X151974000Y-82291000D01*
X151974000Y-81539000D01*
X153776000Y-81539000D01*
X153776000Y-82291000D01*
X153776000Y-82291000D01*
G37*
G36*
X155468968Y-79771565D02*
G01*
X155507638Y-79783296D01*
X155543277Y-79802346D01*
X155574517Y-79827983D01*
X155600154Y-79859223D01*
X155619204Y-79894862D01*
X155630935Y-79933532D01*
X155635500Y-79979888D01*
X155635500Y-81056112D01*
X155630935Y-81102468D01*
X155619204Y-81141138D01*
X155600154Y-81176777D01*
X155574517Y-81208017D01*
X155543277Y-81233654D01*
X155507638Y-81252704D01*
X155468968Y-81264435D01*
X155422612Y-81269000D01*
X154771388Y-81269000D01*
X154725032Y-81264435D01*
X154686362Y-81252704D01*
X154650723Y-81233654D01*
X154619483Y-81208017D01*
X154593846Y-81176777D01*
X154574796Y-81141138D01*
X154563065Y-81102468D01*
X154558500Y-81056112D01*
X154558500Y-79979888D01*
X154563065Y-79933532D01*
X154574796Y-79894862D01*
X154593846Y-79859223D01*
X154619483Y-79827983D01*
X154650723Y-79802346D01*
X154686362Y-79783296D01*
X154725032Y-79771565D01*
X154771388Y-79767000D01*
X155422612Y-79767000D01*
X155468968Y-79771565D01*
X155468968Y-79771565D01*
G37*
G36*
X157343968Y-79771565D02*
G01*
X157382638Y-79783296D01*
X157418277Y-79802346D01*
X157449517Y-79827983D01*
X157475154Y-79859223D01*
X157494204Y-79894862D01*
X157505935Y-79933532D01*
X157510500Y-79979888D01*
X157510500Y-81056112D01*
X157505935Y-81102468D01*
X157494204Y-81141138D01*
X157475154Y-81176777D01*
X157449517Y-81208017D01*
X157418277Y-81233654D01*
X157382638Y-81252704D01*
X157343968Y-81264435D01*
X157297612Y-81269000D01*
X156646388Y-81269000D01*
X156600032Y-81264435D01*
X156561362Y-81252704D01*
X156525723Y-81233654D01*
X156494483Y-81208017D01*
X156468846Y-81176777D01*
X156449796Y-81141138D01*
X156438065Y-81102468D01*
X156433500Y-81056112D01*
X156433500Y-79979888D01*
X156438065Y-79933532D01*
X156449796Y-79894862D01*
X156468846Y-79859223D01*
X156494483Y-79827983D01*
X156525723Y-79802346D01*
X156561362Y-79783296D01*
X156600032Y-79771565D01*
X156646388Y-79767000D01*
X157297612Y-79767000D01*
X157343968Y-79771565D01*
X157343968Y-79771565D01*
G37*
G36*
X153776000Y-81021000D02*
G01*
X151974000Y-81021000D01*
X151974000Y-80269000D01*
X153776000Y-80269000D01*
X153776000Y-81021000D01*
X153776000Y-81021000D01*
G37*
G36*
X146476000Y-81021000D02*
G01*
X144674000Y-81021000D01*
X144674000Y-80269000D01*
X146476000Y-80269000D01*
X146476000Y-81021000D01*
X146476000Y-81021000D01*
G37*
G36*
X150444468Y-77619565D02*
G01*
X150483138Y-77631296D01*
X150518777Y-77650346D01*
X150550017Y-77675983D01*
X150575654Y-77707223D01*
X150594704Y-77742862D01*
X150606435Y-77781532D01*
X150611000Y-77827888D01*
X150611000Y-78479112D01*
X150606435Y-78525468D01*
X150594704Y-78564138D01*
X150575654Y-78599777D01*
X150550017Y-78631017D01*
X150518777Y-78656654D01*
X150483138Y-78675704D01*
X150444468Y-78687435D01*
X150398112Y-78692000D01*
X149321888Y-78692000D01*
X149275532Y-78687435D01*
X149236862Y-78675704D01*
X149201223Y-78656654D01*
X149169983Y-78631017D01*
X149144346Y-78599777D01*
X149125296Y-78564138D01*
X149113565Y-78525468D01*
X149109000Y-78479112D01*
X149109000Y-77827888D01*
X149113565Y-77781532D01*
X149125296Y-77742862D01*
X149144346Y-77707223D01*
X149169983Y-77675983D01*
X149201223Y-77650346D01*
X149236862Y-77631296D01*
X149275532Y-77619565D01*
X149321888Y-77615000D01*
X150398112Y-77615000D01*
X150444468Y-77619565D01*
X150444468Y-77619565D01*
G37*
G36*
X142125000Y-78117000D02*
G01*
X140323000Y-78117000D01*
X140323000Y-76315000D01*
X142125000Y-76315000D01*
X142125000Y-78117000D01*
X142125000Y-78117000D01*
G37*
G36*
X143874442Y-76321518D02*
G01*
X143940627Y-76328037D01*
X144110466Y-76379557D01*
X144266991Y-76463222D01*
X144302729Y-76492552D01*
X144404186Y-76575814D01*
X144487448Y-76677271D01*
X144516778Y-76713009D01*
X144600443Y-76869534D01*
X144651963Y-77039373D01*
X144669359Y-77216000D01*
X144651963Y-77392627D01*
X144600443Y-77562466D01*
X144516778Y-77718991D01*
X144503916Y-77734663D01*
X144404186Y-77856186D01*
X144302729Y-77939448D01*
X144266991Y-77968778D01*
X144110466Y-78052443D01*
X143940627Y-78103963D01*
X143874442Y-78110482D01*
X143808260Y-78117000D01*
X143719740Y-78117000D01*
X143653558Y-78110482D01*
X143587373Y-78103963D01*
X143417534Y-78052443D01*
X143261009Y-77968778D01*
X143225271Y-77939448D01*
X143123814Y-77856186D01*
X143024084Y-77734663D01*
X143011222Y-77718991D01*
X142927557Y-77562466D01*
X142876037Y-77392627D01*
X142858641Y-77216000D01*
X142876037Y-77039373D01*
X142927557Y-76869534D01*
X143011222Y-76713009D01*
X143040552Y-76677271D01*
X143123814Y-76575814D01*
X143225271Y-76492552D01*
X143261009Y-76463222D01*
X143417534Y-76379557D01*
X143587373Y-76328037D01*
X143653558Y-76321518D01*
X143719740Y-76315000D01*
X143808260Y-76315000D01*
X143874442Y-76321518D01*
X143874442Y-76321518D01*
G37*
G36*
X146414442Y-76321518D02*
G01*
X146480627Y-76328037D01*
X146650466Y-76379557D01*
X146806991Y-76463222D01*
X146842729Y-76492552D01*
X146944186Y-76575814D01*
X147027448Y-76677271D01*
X147056778Y-76713009D01*
X147140443Y-76869534D01*
X147191963Y-77039373D01*
X147209359Y-77216000D01*
X147191963Y-77392627D01*
X147140443Y-77562466D01*
X147056778Y-77718991D01*
X147043916Y-77734663D01*
X146944186Y-77856186D01*
X146842729Y-77939448D01*
X146806991Y-77968778D01*
X146650466Y-78052443D01*
X146480627Y-78103963D01*
X146414442Y-78110482D01*
X146348260Y-78117000D01*
X146259740Y-78117000D01*
X146193558Y-78110482D01*
X146127373Y-78103963D01*
X145957534Y-78052443D01*
X145801009Y-77968778D01*
X145765271Y-77939448D01*
X145663814Y-77856186D01*
X145564084Y-77734663D01*
X145551222Y-77718991D01*
X145467557Y-77562466D01*
X145416037Y-77392627D01*
X145398641Y-77216000D01*
X145416037Y-77039373D01*
X145467557Y-76869534D01*
X145551222Y-76713009D01*
X145580552Y-76677271D01*
X145663814Y-76575814D01*
X145765271Y-76492552D01*
X145801009Y-76463222D01*
X145957534Y-76379557D01*
X146127373Y-76328037D01*
X146193558Y-76321518D01*
X146259740Y-76315000D01*
X146348260Y-76315000D01*
X146414442Y-76321518D01*
X146414442Y-76321518D01*
G37*
G36*
X150444468Y-75744565D02*
G01*
X150483138Y-75756296D01*
X150518777Y-75775346D01*
X150550017Y-75800983D01*
X150575654Y-75832223D01*
X150594704Y-75867862D01*
X150606435Y-75906532D01*
X150611000Y-75952888D01*
X150611000Y-76604112D01*
X150606435Y-76650468D01*
X150594704Y-76689138D01*
X150575654Y-76724777D01*
X150550017Y-76756017D01*
X150518777Y-76781654D01*
X150483138Y-76800704D01*
X150444468Y-76812435D01*
X150398112Y-76817000D01*
X149321888Y-76817000D01*
X149275532Y-76812435D01*
X149236862Y-76800704D01*
X149201223Y-76781654D01*
X149169983Y-76756017D01*
X149144346Y-76724777D01*
X149125296Y-76689138D01*
X149113565Y-76650468D01*
X149109000Y-76604112D01*
X149109000Y-75952888D01*
X149113565Y-75906532D01*
X149125296Y-75867862D01*
X149144346Y-75832223D01*
X149169983Y-75800983D01*
X149201223Y-75775346D01*
X149236862Y-75756296D01*
X149275532Y-75744565D01*
X149321888Y-75740000D01*
X150398112Y-75740000D01*
X150444468Y-75744565D01*
X150444468Y-75744565D01*
G37*
G36*
X146183219Y-72179020D02*
G01*
X146372380Y-72236401D01*
X146372383Y-72236402D01*
X146464833Y-72285818D01*
X146546712Y-72329583D01*
X146699515Y-72454985D01*
X146824917Y-72607788D01*
X146918099Y-72782119D01*
X146975480Y-72971280D01*
X146990000Y-73118706D01*
X146990000Y-73312293D01*
X146975480Y-73459719D01*
X146918099Y-73648880D01*
X146918098Y-73648883D01*
X146868682Y-73741333D01*
X146824917Y-73823212D01*
X146699515Y-73976015D01*
X146546712Y-74101417D01*
X146372381Y-74194599D01*
X146183220Y-74251980D01*
X145986500Y-74271355D01*
X145789781Y-74251980D01*
X145600620Y-74194599D01*
X145426288Y-74101417D01*
X145273485Y-73976015D01*
X145148083Y-73823212D01*
X145054901Y-73648881D01*
X144997520Y-73459720D01*
X144983000Y-73312294D01*
X144983000Y-73118707D01*
X144997520Y-72971281D01*
X145054901Y-72782120D01*
X145054902Y-72782117D01*
X145104318Y-72689667D01*
X145148083Y-72607788D01*
X145273485Y-72454985D01*
X145426288Y-72329583D01*
X145600619Y-72236401D01*
X145789780Y-72179020D01*
X145986500Y-72159645D01*
X146183219Y-72179020D01*
X146183219Y-72179020D01*
G37*
G36*
X143643219Y-72179020D02*
G01*
X143832380Y-72236401D01*
X143832383Y-72236402D01*
X143924833Y-72285818D01*
X144006712Y-72329583D01*
X144159515Y-72454985D01*
X144284917Y-72607788D01*
X144378099Y-72782119D01*
X144435480Y-72971280D01*
X144450000Y-73118706D01*
X144450000Y-73312293D01*
X144435480Y-73459719D01*
X144378099Y-73648880D01*
X144378098Y-73648883D01*
X144328682Y-73741333D01*
X144284917Y-73823212D01*
X144159515Y-73976015D01*
X144006712Y-74101417D01*
X143832381Y-74194599D01*
X143643220Y-74251980D01*
X143446500Y-74271355D01*
X143249781Y-74251980D01*
X143060620Y-74194599D01*
X142886288Y-74101417D01*
X142733485Y-73976015D01*
X142608083Y-73823212D01*
X142514901Y-73648881D01*
X142457520Y-73459720D01*
X142443000Y-73312294D01*
X142443000Y-73118707D01*
X142457520Y-72971281D01*
X142514901Y-72782120D01*
X142514902Y-72782117D01*
X142564318Y-72689667D01*
X142608083Y-72607788D01*
X142733485Y-72454985D01*
X142886288Y-72329583D01*
X143060619Y-72236401D01*
X143249780Y-72179020D01*
X143446500Y-72159645D01*
X143643219Y-72179020D01*
X143643219Y-72179020D01*
G37*
G36*
X141910000Y-74266500D02*
G01*
X139903000Y-74266500D01*
X139903000Y-72164500D01*
X141910000Y-72164500D01*
X141910000Y-74266500D01*
X141910000Y-74266500D01*
G37*
G36*
X154805000Y-71263000D02*
G01*
X153803000Y-71263000D01*
X153803000Y-69961000D01*
X154805000Y-69961000D01*
X154805000Y-71263000D01*
X154805000Y-71263000D01*
G37*
G36*
X151505000Y-71263000D02*
G01*
X150503000Y-71263000D01*
X150503000Y-69961000D01*
X151505000Y-69961000D01*
X151505000Y-71263000D01*
X151505000Y-71263000D01*
G37*
G36*
X146424943Y-62090248D02*
G01*
X146980189Y-62320238D01*
X146980190Y-62320239D01*
X147479899Y-62654134D01*
X147904866Y-63079101D01*
X147904867Y-63079103D01*
X148238762Y-63578811D01*
X148468752Y-64134057D01*
X148586000Y-64723501D01*
X148586000Y-65324499D01*
X148468752Y-65913943D01*
X148238762Y-66469189D01*
X148238761Y-66469190D01*
X147904866Y-66968899D01*
X147479899Y-67393866D01*
X147228347Y-67561948D01*
X146980189Y-67727762D01*
X146424943Y-67957752D01*
X145835499Y-68075000D01*
X145234501Y-68075000D01*
X144645057Y-67957752D01*
X144089811Y-67727762D01*
X143841653Y-67561948D01*
X143590101Y-67393866D01*
X143165134Y-66968899D01*
X142831239Y-66469190D01*
X142831238Y-66469189D01*
X142601248Y-65913943D01*
X142484000Y-65324499D01*
X142484000Y-64723501D01*
X142601248Y-64134057D01*
X142831238Y-63578811D01*
X143165133Y-63079103D01*
X143165134Y-63079101D01*
X143590101Y-62654134D01*
X144089810Y-62320239D01*
X144089811Y-62320238D01*
X144645057Y-62090248D01*
X145234501Y-61973000D01*
X145835499Y-61973000D01*
X146424943Y-62090248D01*
X146424943Y-62090248D01*
G37*
G36*
X153924943Y-62090248D02*
G01*
X154480189Y-62320238D01*
X154480190Y-62320239D01*
X154979899Y-62654134D01*
X155404866Y-63079101D01*
X155404867Y-63079103D01*
X155738762Y-63578811D01*
X155968752Y-64134057D01*
X156086000Y-64723501D01*
X156086000Y-65324499D01*
X155968752Y-65913943D01*
X155738762Y-66469189D01*
X155738761Y-66469190D01*
X155404866Y-66968899D01*
X154979899Y-67393866D01*
X154728347Y-67561948D01*
X154480189Y-67727762D01*
X153924943Y-67957752D01*
X153335499Y-68075000D01*
X152734501Y-68075000D01*
X152145057Y-67957752D01*
X151589811Y-67727762D01*
X151341653Y-67561948D01*
X151090101Y-67393866D01*
X150665134Y-66968899D01*
X150331239Y-66469190D01*
X150331238Y-66469189D01*
X150101248Y-65913943D01*
X149984000Y-65324499D01*
X149984000Y-64723501D01*
X150101248Y-64134057D01*
X150331238Y-63578811D01*
X150665133Y-63079103D01*
X150665134Y-63079101D01*
X151090101Y-62654134D01*
X151589810Y-62320239D01*
X151589811Y-62320238D01*
X152145057Y-62090248D01*
X152734501Y-61973000D01*
X153335499Y-61973000D01*
X153924943Y-62090248D01*
X153924943Y-62090248D01*
G37*
M02*
