M48
; DRILL file {KiCad (5.1.2)-2} date 7/26/2019 9:10:20 PM
; FORMAT={-:-/ absolute / inch / decimal}
; #@! TF.CreationDate,2019-07-26T21:10:20-04:00
; #@! TF.GenerationSoftware,Kicad,Pcbnew,(5.1.2)-2
; #@! TF.FileFunction,Plated,1,2,PTH
FMAT,2
INCH
T1C0.0157
T2C0.0394
T3C0.1772
%
G90
G05
T1
X5.54Y-3.86
X5.6Y-3.5
X5.67Y-3.32
X5.68Y-3.57
X5.73Y-3.41
X5.76Y-2.94
X5.7998Y-3.3402
X5.8Y-3.3
X5.86Y-3.94
X5.87Y-3.28
X5.88Y-3.38
X5.94Y-2.85
X5.95Y-3.275
X5.95Y-3.375
X5.97Y-3.66
X6.05Y-3.4
X6.0795Y-3.4401
X6.08Y-3.23
X6.1484Y-3.74
X6.2Y-3.0
X6.27Y-3.26
T2
X5.56Y-3.04
X5.66Y-3.04
X5.76Y-3.04
X5.775Y-3.475
X5.775Y-3.575
X5.875Y-3.475
X5.875Y-3.575
X5.975Y-3.475
X5.975Y-3.575
X5.575Y-3.275
X5.575Y-3.375
T3
X5.7297Y-2.56
X6.025Y-2.56
X5.72Y-4.22
X6.0153Y-4.22
T0
M30
