G04 #@! TF.GenerationSoftware,KiCad,Pcbnew,(5.1.2)-2*
G04 #@! TF.CreationDate,2019-07-25T16:59:57-04:00*
G04 #@! TF.ProjectId,CABR_Schematic,43414252-5f53-4636-9865-6d617469632e,rev?*
G04 #@! TF.SameCoordinates,Original*
G04 #@! TF.FileFunction,Legend,Top*
G04 #@! TF.FilePolarity,Positive*
%FSLAX46Y46*%
G04 Gerber Fmt 4.6, Leading zero omitted, Abs format (unit mm)*
G04 Created by KiCad (PCBNEW (5.1.2)-2) date 2019-07-25 16:59:57*
%MOMM*%
%LPD*%
G04 APERTURE LIST*
%ADD10C,0.150000*%
%ADD11C,0.010000*%
%ADD12C,0.120000*%
%ADD13C,0.100000*%
G04 APERTURE END LIST*
D10*
X151693809Y-117292380D02*
X151693809Y-116292380D01*
X152074761Y-116292380D01*
X152170000Y-116340000D01*
X152217619Y-116387619D01*
X152265238Y-116482857D01*
X152265238Y-116625714D01*
X152217619Y-116720952D01*
X152170000Y-116768571D01*
X152074761Y-116816190D01*
X151693809Y-116816190D01*
X152836666Y-117292380D02*
X152741428Y-117244761D01*
X152693809Y-117197142D01*
X152646190Y-117101904D01*
X152646190Y-116816190D01*
X152693809Y-116720952D01*
X152741428Y-116673333D01*
X152836666Y-116625714D01*
X152979523Y-116625714D01*
X153074761Y-116673333D01*
X153122380Y-116720952D01*
X153170000Y-116816190D01*
X153170000Y-117101904D01*
X153122380Y-117197142D01*
X153074761Y-117244761D01*
X152979523Y-117292380D01*
X152836666Y-117292380D01*
X153503333Y-116625714D02*
X153693809Y-117292380D01*
X153884285Y-116816190D01*
X154074761Y-117292380D01*
X154265238Y-116625714D01*
X155027142Y-117244761D02*
X154931904Y-117292380D01*
X154741428Y-117292380D01*
X154646190Y-117244761D01*
X154598571Y-117149523D01*
X154598571Y-116768571D01*
X154646190Y-116673333D01*
X154741428Y-116625714D01*
X154931904Y-116625714D01*
X155027142Y-116673333D01*
X155074761Y-116768571D01*
X155074761Y-116863809D01*
X154598571Y-116959047D01*
X155503333Y-117292380D02*
X155503333Y-116625714D01*
X155503333Y-116816190D02*
X155550952Y-116720952D01*
X155598571Y-116673333D01*
X155693809Y-116625714D01*
X155789047Y-116625714D01*
D11*
G36*
X142597910Y-69886348D02*
G01*
X142676454Y-69886778D01*
X142733298Y-69887942D01*
X142772105Y-69890207D01*
X142796538Y-69893940D01*
X142810262Y-69899506D01*
X142816940Y-69907273D01*
X142820236Y-69917605D01*
X142820556Y-69918943D01*
X142825562Y-69943079D01*
X142834829Y-69990701D01*
X142847392Y-70056741D01*
X142862287Y-70136128D01*
X142878551Y-70223796D01*
X142879119Y-70226875D01*
X142895410Y-70312789D01*
X142910652Y-70388696D01*
X142923861Y-70450045D01*
X142934054Y-70492282D01*
X142940248Y-70510855D01*
X142940543Y-70511184D01*
X142958788Y-70520253D01*
X142996405Y-70535367D01*
X143045271Y-70553262D01*
X143045543Y-70553358D01*
X143107093Y-70576493D01*
X143179657Y-70605965D01*
X143248057Y-70635597D01*
X143251294Y-70637062D01*
X143362702Y-70687626D01*
X143609399Y-70519160D01*
X143685077Y-70467803D01*
X143753631Y-70421889D01*
X143811088Y-70384030D01*
X143853476Y-70356837D01*
X143876825Y-70342921D01*
X143879042Y-70341889D01*
X143896010Y-70346484D01*
X143927701Y-70368655D01*
X143975352Y-70409447D01*
X144040198Y-70469905D01*
X144106397Y-70534227D01*
X144170214Y-70597612D01*
X144227329Y-70655451D01*
X144274305Y-70704175D01*
X144307703Y-70740210D01*
X144324085Y-70759984D01*
X144324694Y-70761002D01*
X144326505Y-70774572D01*
X144319683Y-70796733D01*
X144302540Y-70830478D01*
X144273393Y-70878800D01*
X144230555Y-70944692D01*
X144173448Y-71029517D01*
X144122766Y-71104177D01*
X144077461Y-71171140D01*
X144040150Y-71226516D01*
X144013452Y-71266420D01*
X143999985Y-71286962D01*
X143999137Y-71288356D01*
X144000781Y-71308038D01*
X144013245Y-71346293D01*
X144034048Y-71395889D01*
X144041462Y-71411728D01*
X144073814Y-71482290D01*
X144108328Y-71562353D01*
X144136365Y-71631629D01*
X144156568Y-71683045D01*
X144172615Y-71722119D01*
X144181888Y-71742541D01*
X144183041Y-71744114D01*
X144200096Y-71746721D01*
X144240298Y-71753863D01*
X144298302Y-71764523D01*
X144368763Y-71777685D01*
X144446335Y-71792333D01*
X144525672Y-71807449D01*
X144601431Y-71822018D01*
X144668264Y-71835022D01*
X144720828Y-71845445D01*
X144753776Y-71852270D01*
X144761857Y-71854199D01*
X144770205Y-71858962D01*
X144776506Y-71869718D01*
X144781045Y-71890098D01*
X144784104Y-71923734D01*
X144785967Y-71974255D01*
X144786918Y-72045292D01*
X144787240Y-72140476D01*
X144787257Y-72179492D01*
X144787257Y-72496799D01*
X144711057Y-72511839D01*
X144668663Y-72519995D01*
X144605400Y-72531899D01*
X144528962Y-72546116D01*
X144447043Y-72561210D01*
X144424400Y-72565355D01*
X144348806Y-72580053D01*
X144282953Y-72594505D01*
X144232366Y-72607375D01*
X144202574Y-72617322D01*
X144197612Y-72620287D01*
X144185426Y-72641283D01*
X144167953Y-72681967D01*
X144148577Y-72734322D01*
X144144734Y-72745600D01*
X144119339Y-72815523D01*
X144087817Y-72894418D01*
X144056969Y-72965266D01*
X144056817Y-72965595D01*
X144005447Y-73076733D01*
X144174399Y-73325253D01*
X144343352Y-73573772D01*
X144126429Y-73791058D01*
X144060819Y-73855726D01*
X144000979Y-73912733D01*
X143950267Y-73959033D01*
X143912046Y-73991584D01*
X143889675Y-74007343D01*
X143886466Y-74008343D01*
X143867626Y-74000469D01*
X143829180Y-73978578D01*
X143775330Y-73945267D01*
X143710276Y-73903131D01*
X143639940Y-73855943D01*
X143568555Y-73807810D01*
X143504908Y-73765928D01*
X143453041Y-73732871D01*
X143416995Y-73711218D01*
X143400867Y-73703543D01*
X143381189Y-73710037D01*
X143343875Y-73727150D01*
X143296621Y-73751326D01*
X143291612Y-73754013D01*
X143227977Y-73785927D01*
X143184341Y-73801579D01*
X143157202Y-73801745D01*
X143143057Y-73787204D01*
X143142975Y-73787000D01*
X143135905Y-73769779D01*
X143119042Y-73728899D01*
X143093695Y-73667525D01*
X143061171Y-73588819D01*
X143022778Y-73495947D01*
X142979822Y-73392072D01*
X142938222Y-73291502D01*
X142892504Y-73180516D01*
X142850526Y-73077703D01*
X142813548Y-72986215D01*
X142782827Y-72909201D01*
X142759622Y-72849815D01*
X142745190Y-72811209D01*
X142740743Y-72796800D01*
X142751896Y-72780272D01*
X142781069Y-72753930D01*
X142819971Y-72724887D01*
X142930757Y-72633039D01*
X143017351Y-72527759D01*
X143078716Y-72411266D01*
X143113815Y-72285776D01*
X143121608Y-72153507D01*
X143115943Y-72092457D01*
X143085078Y-71965795D01*
X143031920Y-71853941D01*
X142959767Y-71758001D01*
X142871917Y-71679076D01*
X142771665Y-71618270D01*
X142662310Y-71576687D01*
X142547147Y-71555428D01*
X142429475Y-71555599D01*
X142312590Y-71578301D01*
X142199789Y-71624638D01*
X142094369Y-71695713D01*
X142050368Y-71735911D01*
X141965979Y-71839129D01*
X141907222Y-71951925D01*
X141873704Y-72071010D01*
X141865035Y-72193095D01*
X141880823Y-72314893D01*
X141920678Y-72433116D01*
X141984207Y-72544475D01*
X142071021Y-72645684D01*
X142168029Y-72724887D01*
X142208437Y-72755162D01*
X142236982Y-72781219D01*
X142247257Y-72796825D01*
X142241877Y-72813843D01*
X142226575Y-72854500D01*
X142202612Y-72915642D01*
X142171244Y-72994119D01*
X142133732Y-73086780D01*
X142091333Y-73190472D01*
X142049663Y-73291526D01*
X142003690Y-73402607D01*
X141961107Y-73505541D01*
X141923221Y-73597165D01*
X141891340Y-73674316D01*
X141866771Y-73733831D01*
X141850820Y-73772544D01*
X141844910Y-73787000D01*
X141830948Y-73801685D01*
X141803940Y-73801642D01*
X141760413Y-73786099D01*
X141696890Y-73754284D01*
X141696388Y-73754013D01*
X141648560Y-73729323D01*
X141609897Y-73711338D01*
X141588095Y-73703614D01*
X141587133Y-73703543D01*
X141570721Y-73711378D01*
X141534487Y-73733165D01*
X141482474Y-73766328D01*
X141418725Y-73808291D01*
X141348060Y-73855943D01*
X141276116Y-73904191D01*
X141211274Y-73946151D01*
X141157735Y-73979227D01*
X141119697Y-74000821D01*
X141101533Y-74008343D01*
X141084808Y-73998457D01*
X141051180Y-73970826D01*
X141004010Y-73928495D01*
X140946658Y-73874505D01*
X140882484Y-73811899D01*
X140861497Y-73790983D01*
X140644499Y-73573623D01*
X140809668Y-73331220D01*
X140859864Y-73256781D01*
X140903919Y-73189972D01*
X140939362Y-73134665D01*
X140963719Y-73094729D01*
X140974522Y-73074036D01*
X140974838Y-73072563D01*
X140969143Y-73053058D01*
X140953826Y-73013822D01*
X140931537Y-72961430D01*
X140915893Y-72926355D01*
X140886641Y-72859201D01*
X140859094Y-72791358D01*
X140837737Y-72734034D01*
X140831935Y-72716572D01*
X140815452Y-72669938D01*
X140799340Y-72633905D01*
X140790490Y-72620287D01*
X140770960Y-72611952D01*
X140728334Y-72600137D01*
X140668145Y-72586181D01*
X140595922Y-72571422D01*
X140563600Y-72565355D01*
X140481522Y-72550273D01*
X140402795Y-72535669D01*
X140335109Y-72522980D01*
X140286160Y-72513642D01*
X140276943Y-72511839D01*
X140200743Y-72496799D01*
X140200743Y-72179492D01*
X140200914Y-72075154D01*
X140201616Y-71996213D01*
X140203134Y-71939038D01*
X140205749Y-71899999D01*
X140209746Y-71875465D01*
X140215409Y-71861805D01*
X140223020Y-71855389D01*
X140226143Y-71854199D01*
X140244978Y-71849980D01*
X140286588Y-71841562D01*
X140345630Y-71829961D01*
X140416757Y-71816195D01*
X140494625Y-71801280D01*
X140573887Y-71786232D01*
X140649198Y-71772069D01*
X140715213Y-71759806D01*
X140766587Y-71750461D01*
X140797975Y-71745050D01*
X140804959Y-71744114D01*
X140811285Y-71731596D01*
X140825290Y-71698246D01*
X140844355Y-71650377D01*
X140851634Y-71631629D01*
X140880996Y-71559195D01*
X140915571Y-71479170D01*
X140946537Y-71411728D01*
X140969323Y-71360159D01*
X140984482Y-71317785D01*
X140989542Y-71291834D01*
X140988736Y-71288356D01*
X140978041Y-71271936D01*
X140953620Y-71235417D01*
X140918095Y-71182687D01*
X140874087Y-71117635D01*
X140824217Y-71044151D01*
X140814356Y-71029645D01*
X140756492Y-70943704D01*
X140713956Y-70878261D01*
X140685054Y-70830304D01*
X140668090Y-70796820D01*
X140661367Y-70774795D01*
X140663190Y-70761217D01*
X140663236Y-70761131D01*
X140677586Y-70743297D01*
X140709323Y-70708817D01*
X140755010Y-70661268D01*
X140811204Y-70604222D01*
X140874468Y-70541255D01*
X140881602Y-70534227D01*
X140961330Y-70457020D01*
X141022857Y-70400330D01*
X141067421Y-70363110D01*
X141096257Y-70344315D01*
X141108958Y-70341889D01*
X141127494Y-70352471D01*
X141165961Y-70376916D01*
X141220386Y-70412612D01*
X141286798Y-70456947D01*
X141361225Y-70507311D01*
X141378601Y-70519160D01*
X141625297Y-70687626D01*
X141736706Y-70637062D01*
X141804457Y-70607595D01*
X141877183Y-70577959D01*
X141939703Y-70554330D01*
X141942457Y-70553358D01*
X141991360Y-70535457D01*
X142029057Y-70520320D01*
X142047425Y-70511210D01*
X142047456Y-70511184D01*
X142053285Y-70494717D01*
X142063192Y-70454219D01*
X142076195Y-70394242D01*
X142091309Y-70319340D01*
X142107552Y-70234064D01*
X142108881Y-70226875D01*
X142125175Y-70139014D01*
X142140133Y-70059260D01*
X142152791Y-69992681D01*
X142162186Y-69944347D01*
X142167354Y-69919325D01*
X142167444Y-69918943D01*
X142170589Y-69908299D01*
X142176704Y-69900262D01*
X142189453Y-69894467D01*
X142212500Y-69890547D01*
X142249509Y-69888135D01*
X142304144Y-69886865D01*
X142380067Y-69886371D01*
X142480944Y-69886286D01*
X142494000Y-69886286D01*
X142597910Y-69886348D01*
X142597910Y-69886348D01*
G37*
X142597910Y-69886348D02*
X142676454Y-69886778D01*
X142733298Y-69887942D01*
X142772105Y-69890207D01*
X142796538Y-69893940D01*
X142810262Y-69899506D01*
X142816940Y-69907273D01*
X142820236Y-69917605D01*
X142820556Y-69918943D01*
X142825562Y-69943079D01*
X142834829Y-69990701D01*
X142847392Y-70056741D01*
X142862287Y-70136128D01*
X142878551Y-70223796D01*
X142879119Y-70226875D01*
X142895410Y-70312789D01*
X142910652Y-70388696D01*
X142923861Y-70450045D01*
X142934054Y-70492282D01*
X142940248Y-70510855D01*
X142940543Y-70511184D01*
X142958788Y-70520253D01*
X142996405Y-70535367D01*
X143045271Y-70553262D01*
X143045543Y-70553358D01*
X143107093Y-70576493D01*
X143179657Y-70605965D01*
X143248057Y-70635597D01*
X143251294Y-70637062D01*
X143362702Y-70687626D01*
X143609399Y-70519160D01*
X143685077Y-70467803D01*
X143753631Y-70421889D01*
X143811088Y-70384030D01*
X143853476Y-70356837D01*
X143876825Y-70342921D01*
X143879042Y-70341889D01*
X143896010Y-70346484D01*
X143927701Y-70368655D01*
X143975352Y-70409447D01*
X144040198Y-70469905D01*
X144106397Y-70534227D01*
X144170214Y-70597612D01*
X144227329Y-70655451D01*
X144274305Y-70704175D01*
X144307703Y-70740210D01*
X144324085Y-70759984D01*
X144324694Y-70761002D01*
X144326505Y-70774572D01*
X144319683Y-70796733D01*
X144302540Y-70830478D01*
X144273393Y-70878800D01*
X144230555Y-70944692D01*
X144173448Y-71029517D01*
X144122766Y-71104177D01*
X144077461Y-71171140D01*
X144040150Y-71226516D01*
X144013452Y-71266420D01*
X143999985Y-71286962D01*
X143999137Y-71288356D01*
X144000781Y-71308038D01*
X144013245Y-71346293D01*
X144034048Y-71395889D01*
X144041462Y-71411728D01*
X144073814Y-71482290D01*
X144108328Y-71562353D01*
X144136365Y-71631629D01*
X144156568Y-71683045D01*
X144172615Y-71722119D01*
X144181888Y-71742541D01*
X144183041Y-71744114D01*
X144200096Y-71746721D01*
X144240298Y-71753863D01*
X144298302Y-71764523D01*
X144368763Y-71777685D01*
X144446335Y-71792333D01*
X144525672Y-71807449D01*
X144601431Y-71822018D01*
X144668264Y-71835022D01*
X144720828Y-71845445D01*
X144753776Y-71852270D01*
X144761857Y-71854199D01*
X144770205Y-71858962D01*
X144776506Y-71869718D01*
X144781045Y-71890098D01*
X144784104Y-71923734D01*
X144785967Y-71974255D01*
X144786918Y-72045292D01*
X144787240Y-72140476D01*
X144787257Y-72179492D01*
X144787257Y-72496799D01*
X144711057Y-72511839D01*
X144668663Y-72519995D01*
X144605400Y-72531899D01*
X144528962Y-72546116D01*
X144447043Y-72561210D01*
X144424400Y-72565355D01*
X144348806Y-72580053D01*
X144282953Y-72594505D01*
X144232366Y-72607375D01*
X144202574Y-72617322D01*
X144197612Y-72620287D01*
X144185426Y-72641283D01*
X144167953Y-72681967D01*
X144148577Y-72734322D01*
X144144734Y-72745600D01*
X144119339Y-72815523D01*
X144087817Y-72894418D01*
X144056969Y-72965266D01*
X144056817Y-72965595D01*
X144005447Y-73076733D01*
X144174399Y-73325253D01*
X144343352Y-73573772D01*
X144126429Y-73791058D01*
X144060819Y-73855726D01*
X144000979Y-73912733D01*
X143950267Y-73959033D01*
X143912046Y-73991584D01*
X143889675Y-74007343D01*
X143886466Y-74008343D01*
X143867626Y-74000469D01*
X143829180Y-73978578D01*
X143775330Y-73945267D01*
X143710276Y-73903131D01*
X143639940Y-73855943D01*
X143568555Y-73807810D01*
X143504908Y-73765928D01*
X143453041Y-73732871D01*
X143416995Y-73711218D01*
X143400867Y-73703543D01*
X143381189Y-73710037D01*
X143343875Y-73727150D01*
X143296621Y-73751326D01*
X143291612Y-73754013D01*
X143227977Y-73785927D01*
X143184341Y-73801579D01*
X143157202Y-73801745D01*
X143143057Y-73787204D01*
X143142975Y-73787000D01*
X143135905Y-73769779D01*
X143119042Y-73728899D01*
X143093695Y-73667525D01*
X143061171Y-73588819D01*
X143022778Y-73495947D01*
X142979822Y-73392072D01*
X142938222Y-73291502D01*
X142892504Y-73180516D01*
X142850526Y-73077703D01*
X142813548Y-72986215D01*
X142782827Y-72909201D01*
X142759622Y-72849815D01*
X142745190Y-72811209D01*
X142740743Y-72796800D01*
X142751896Y-72780272D01*
X142781069Y-72753930D01*
X142819971Y-72724887D01*
X142930757Y-72633039D01*
X143017351Y-72527759D01*
X143078716Y-72411266D01*
X143113815Y-72285776D01*
X143121608Y-72153507D01*
X143115943Y-72092457D01*
X143085078Y-71965795D01*
X143031920Y-71853941D01*
X142959767Y-71758001D01*
X142871917Y-71679076D01*
X142771665Y-71618270D01*
X142662310Y-71576687D01*
X142547147Y-71555428D01*
X142429475Y-71555599D01*
X142312590Y-71578301D01*
X142199789Y-71624638D01*
X142094369Y-71695713D01*
X142050368Y-71735911D01*
X141965979Y-71839129D01*
X141907222Y-71951925D01*
X141873704Y-72071010D01*
X141865035Y-72193095D01*
X141880823Y-72314893D01*
X141920678Y-72433116D01*
X141984207Y-72544475D01*
X142071021Y-72645684D01*
X142168029Y-72724887D01*
X142208437Y-72755162D01*
X142236982Y-72781219D01*
X142247257Y-72796825D01*
X142241877Y-72813843D01*
X142226575Y-72854500D01*
X142202612Y-72915642D01*
X142171244Y-72994119D01*
X142133732Y-73086780D01*
X142091333Y-73190472D01*
X142049663Y-73291526D01*
X142003690Y-73402607D01*
X141961107Y-73505541D01*
X141923221Y-73597165D01*
X141891340Y-73674316D01*
X141866771Y-73733831D01*
X141850820Y-73772544D01*
X141844910Y-73787000D01*
X141830948Y-73801685D01*
X141803940Y-73801642D01*
X141760413Y-73786099D01*
X141696890Y-73754284D01*
X141696388Y-73754013D01*
X141648560Y-73729323D01*
X141609897Y-73711338D01*
X141588095Y-73703614D01*
X141587133Y-73703543D01*
X141570721Y-73711378D01*
X141534487Y-73733165D01*
X141482474Y-73766328D01*
X141418725Y-73808291D01*
X141348060Y-73855943D01*
X141276116Y-73904191D01*
X141211274Y-73946151D01*
X141157735Y-73979227D01*
X141119697Y-74000821D01*
X141101533Y-74008343D01*
X141084808Y-73998457D01*
X141051180Y-73970826D01*
X141004010Y-73928495D01*
X140946658Y-73874505D01*
X140882484Y-73811899D01*
X140861497Y-73790983D01*
X140644499Y-73573623D01*
X140809668Y-73331220D01*
X140859864Y-73256781D01*
X140903919Y-73189972D01*
X140939362Y-73134665D01*
X140963719Y-73094729D01*
X140974522Y-73074036D01*
X140974838Y-73072563D01*
X140969143Y-73053058D01*
X140953826Y-73013822D01*
X140931537Y-72961430D01*
X140915893Y-72926355D01*
X140886641Y-72859201D01*
X140859094Y-72791358D01*
X140837737Y-72734034D01*
X140831935Y-72716572D01*
X140815452Y-72669938D01*
X140799340Y-72633905D01*
X140790490Y-72620287D01*
X140770960Y-72611952D01*
X140728334Y-72600137D01*
X140668145Y-72586181D01*
X140595922Y-72571422D01*
X140563600Y-72565355D01*
X140481522Y-72550273D01*
X140402795Y-72535669D01*
X140335109Y-72522980D01*
X140286160Y-72513642D01*
X140276943Y-72511839D01*
X140200743Y-72496799D01*
X140200743Y-72179492D01*
X140200914Y-72075154D01*
X140201616Y-71996213D01*
X140203134Y-71939038D01*
X140205749Y-71899999D01*
X140209746Y-71875465D01*
X140215409Y-71861805D01*
X140223020Y-71855389D01*
X140226143Y-71854199D01*
X140244978Y-71849980D01*
X140286588Y-71841562D01*
X140345630Y-71829961D01*
X140416757Y-71816195D01*
X140494625Y-71801280D01*
X140573887Y-71786232D01*
X140649198Y-71772069D01*
X140715213Y-71759806D01*
X140766587Y-71750461D01*
X140797975Y-71745050D01*
X140804959Y-71744114D01*
X140811285Y-71731596D01*
X140825290Y-71698246D01*
X140844355Y-71650377D01*
X140851634Y-71631629D01*
X140880996Y-71559195D01*
X140915571Y-71479170D01*
X140946537Y-71411728D01*
X140969323Y-71360159D01*
X140984482Y-71317785D01*
X140989542Y-71291834D01*
X140988736Y-71288356D01*
X140978041Y-71271936D01*
X140953620Y-71235417D01*
X140918095Y-71182687D01*
X140874087Y-71117635D01*
X140824217Y-71044151D01*
X140814356Y-71029645D01*
X140756492Y-70943704D01*
X140713956Y-70878261D01*
X140685054Y-70830304D01*
X140668090Y-70796820D01*
X140661367Y-70774795D01*
X140663190Y-70761217D01*
X140663236Y-70761131D01*
X140677586Y-70743297D01*
X140709323Y-70708817D01*
X140755010Y-70661268D01*
X140811204Y-70604222D01*
X140874468Y-70541255D01*
X140881602Y-70534227D01*
X140961330Y-70457020D01*
X141022857Y-70400330D01*
X141067421Y-70363110D01*
X141096257Y-70344315D01*
X141108958Y-70341889D01*
X141127494Y-70352471D01*
X141165961Y-70376916D01*
X141220386Y-70412612D01*
X141286798Y-70456947D01*
X141361225Y-70507311D01*
X141378601Y-70519160D01*
X141625297Y-70687626D01*
X141736706Y-70637062D01*
X141804457Y-70607595D01*
X141877183Y-70577959D01*
X141939703Y-70554330D01*
X141942457Y-70553358D01*
X141991360Y-70535457D01*
X142029057Y-70520320D01*
X142047425Y-70511210D01*
X142047456Y-70511184D01*
X142053285Y-70494717D01*
X142063192Y-70454219D01*
X142076195Y-70394242D01*
X142091309Y-70319340D01*
X142107552Y-70234064D01*
X142108881Y-70226875D01*
X142125175Y-70139014D01*
X142140133Y-70059260D01*
X142152791Y-69992681D01*
X142162186Y-69944347D01*
X142167354Y-69919325D01*
X142167444Y-69918943D01*
X142170589Y-69908299D01*
X142176704Y-69900262D01*
X142189453Y-69894467D01*
X142212500Y-69890547D01*
X142249509Y-69888135D01*
X142304144Y-69886865D01*
X142380067Y-69886371D01*
X142480944Y-69886286D01*
X142494000Y-69886286D01*
X142597910Y-69886348D01*
G36*
X145647595Y-74610966D02*
G01*
X145705021Y-74648497D01*
X145732719Y-74682096D01*
X145754662Y-74743064D01*
X145756405Y-74791308D01*
X145752457Y-74855816D01*
X145603686Y-74920934D01*
X145531349Y-74954202D01*
X145484084Y-74980964D01*
X145459507Y-75004144D01*
X145455237Y-75026667D01*
X145468889Y-75051455D01*
X145483943Y-75067886D01*
X145527746Y-75094235D01*
X145575389Y-75096081D01*
X145619145Y-75075546D01*
X145651289Y-75034752D01*
X145657038Y-75020347D01*
X145684576Y-74975356D01*
X145716258Y-74956182D01*
X145759714Y-74939779D01*
X145759714Y-75001966D01*
X145755872Y-75044283D01*
X145740823Y-75079969D01*
X145709280Y-75120943D01*
X145704592Y-75126267D01*
X145669506Y-75162720D01*
X145639347Y-75182283D01*
X145601615Y-75191283D01*
X145570335Y-75194230D01*
X145514385Y-75194965D01*
X145474555Y-75185660D01*
X145449708Y-75171846D01*
X145410656Y-75141467D01*
X145383625Y-75108613D01*
X145366517Y-75067294D01*
X145357238Y-75011521D01*
X145353693Y-74935305D01*
X145353410Y-74896622D01*
X145354372Y-74850247D01*
X145442007Y-74850247D01*
X145443023Y-74875126D01*
X145445556Y-74879200D01*
X145462274Y-74873665D01*
X145498249Y-74859017D01*
X145546331Y-74838190D01*
X145556386Y-74833714D01*
X145617152Y-74802814D01*
X145650632Y-74775657D01*
X145657990Y-74750220D01*
X145640391Y-74724481D01*
X145625856Y-74713109D01*
X145573410Y-74690364D01*
X145524322Y-74694122D01*
X145483227Y-74721884D01*
X145454758Y-74771152D01*
X145445631Y-74810257D01*
X145442007Y-74850247D01*
X145354372Y-74850247D01*
X145355285Y-74806249D01*
X145362196Y-74739384D01*
X145375884Y-74690695D01*
X145398096Y-74654849D01*
X145430574Y-74626513D01*
X145444733Y-74617355D01*
X145509053Y-74593507D01*
X145579473Y-74592006D01*
X145647595Y-74610966D01*
X145647595Y-74610966D01*
G37*
X145647595Y-74610966D02*
X145705021Y-74648497D01*
X145732719Y-74682096D01*
X145754662Y-74743064D01*
X145756405Y-74791308D01*
X145752457Y-74855816D01*
X145603686Y-74920934D01*
X145531349Y-74954202D01*
X145484084Y-74980964D01*
X145459507Y-75004144D01*
X145455237Y-75026667D01*
X145468889Y-75051455D01*
X145483943Y-75067886D01*
X145527746Y-75094235D01*
X145575389Y-75096081D01*
X145619145Y-75075546D01*
X145651289Y-75034752D01*
X145657038Y-75020347D01*
X145684576Y-74975356D01*
X145716258Y-74956182D01*
X145759714Y-74939779D01*
X145759714Y-75001966D01*
X145755872Y-75044283D01*
X145740823Y-75079969D01*
X145709280Y-75120943D01*
X145704592Y-75126267D01*
X145669506Y-75162720D01*
X145639347Y-75182283D01*
X145601615Y-75191283D01*
X145570335Y-75194230D01*
X145514385Y-75194965D01*
X145474555Y-75185660D01*
X145449708Y-75171846D01*
X145410656Y-75141467D01*
X145383625Y-75108613D01*
X145366517Y-75067294D01*
X145357238Y-75011521D01*
X145353693Y-74935305D01*
X145353410Y-74896622D01*
X145354372Y-74850247D01*
X145442007Y-74850247D01*
X145443023Y-74875126D01*
X145445556Y-74879200D01*
X145462274Y-74873665D01*
X145498249Y-74859017D01*
X145546331Y-74838190D01*
X145556386Y-74833714D01*
X145617152Y-74802814D01*
X145650632Y-74775657D01*
X145657990Y-74750220D01*
X145640391Y-74724481D01*
X145625856Y-74713109D01*
X145573410Y-74690364D01*
X145524322Y-74694122D01*
X145483227Y-74721884D01*
X145454758Y-74771152D01*
X145445631Y-74810257D01*
X145442007Y-74850247D01*
X145354372Y-74850247D01*
X145355285Y-74806249D01*
X145362196Y-74739384D01*
X145375884Y-74690695D01*
X145398096Y-74654849D01*
X145430574Y-74626513D01*
X145444733Y-74617355D01*
X145509053Y-74593507D01*
X145579473Y-74592006D01*
X145647595Y-74610966D01*
G36*
X145146600Y-74602752D02*
G01*
X145163948Y-74610334D01*
X145205356Y-74643128D01*
X145240765Y-74690547D01*
X145262664Y-74741151D01*
X145266229Y-74766098D01*
X145254279Y-74800927D01*
X145228067Y-74819357D01*
X145199964Y-74830516D01*
X145187095Y-74832572D01*
X145180829Y-74817649D01*
X145168456Y-74785175D01*
X145163028Y-74770502D01*
X145132590Y-74719744D01*
X145088520Y-74694427D01*
X145032010Y-74695206D01*
X145027825Y-74696203D01*
X144997655Y-74710507D01*
X144975476Y-74738393D01*
X144960327Y-74783287D01*
X144951250Y-74848615D01*
X144947286Y-74937804D01*
X144946914Y-74985261D01*
X144946730Y-75060071D01*
X144945522Y-75111069D01*
X144942309Y-75143471D01*
X144936109Y-75162495D01*
X144925940Y-75173356D01*
X144910819Y-75181272D01*
X144909946Y-75181670D01*
X144880828Y-75193981D01*
X144866403Y-75198514D01*
X144864186Y-75184809D01*
X144862289Y-75146925D01*
X144860847Y-75089715D01*
X144859998Y-75018027D01*
X144859829Y-74965565D01*
X144860692Y-74864047D01*
X144864070Y-74787032D01*
X144871142Y-74730023D01*
X144883088Y-74688526D01*
X144901090Y-74658043D01*
X144926327Y-74634080D01*
X144951247Y-74617355D01*
X145011171Y-74595097D01*
X145080911Y-74590076D01*
X145146600Y-74602752D01*
X145146600Y-74602752D01*
G37*
X145146600Y-74602752D02*
X145163948Y-74610334D01*
X145205356Y-74643128D01*
X145240765Y-74690547D01*
X145262664Y-74741151D01*
X145266229Y-74766098D01*
X145254279Y-74800927D01*
X145228067Y-74819357D01*
X145199964Y-74830516D01*
X145187095Y-74832572D01*
X145180829Y-74817649D01*
X145168456Y-74785175D01*
X145163028Y-74770502D01*
X145132590Y-74719744D01*
X145088520Y-74694427D01*
X145032010Y-74695206D01*
X145027825Y-74696203D01*
X144997655Y-74710507D01*
X144975476Y-74738393D01*
X144960327Y-74783287D01*
X144951250Y-74848615D01*
X144947286Y-74937804D01*
X144946914Y-74985261D01*
X144946730Y-75060071D01*
X144945522Y-75111069D01*
X144942309Y-75143471D01*
X144936109Y-75162495D01*
X144925940Y-75173356D01*
X144910819Y-75181272D01*
X144909946Y-75181670D01*
X144880828Y-75193981D01*
X144866403Y-75198514D01*
X144864186Y-75184809D01*
X144862289Y-75146925D01*
X144860847Y-75089715D01*
X144859998Y-75018027D01*
X144859829Y-74965565D01*
X144860692Y-74864047D01*
X144864070Y-74787032D01*
X144871142Y-74730023D01*
X144883088Y-74688526D01*
X144901090Y-74658043D01*
X144926327Y-74634080D01*
X144951247Y-74617355D01*
X145011171Y-74595097D01*
X145080911Y-74590076D01*
X145146600Y-74602752D01*
G36*
X144638876Y-74600335D02*
G01*
X144680667Y-74619344D01*
X144713469Y-74642378D01*
X144737503Y-74668133D01*
X144754097Y-74701358D01*
X144764577Y-74746800D01*
X144770271Y-74809207D01*
X144772507Y-74893327D01*
X144772743Y-74948721D01*
X144772743Y-75164826D01*
X144735774Y-75181670D01*
X144706656Y-75193981D01*
X144692231Y-75198514D01*
X144689472Y-75185025D01*
X144687282Y-75148653D01*
X144685942Y-75095542D01*
X144685657Y-75053372D01*
X144684434Y-74992447D01*
X144681136Y-74944115D01*
X144676321Y-74914518D01*
X144672496Y-74908229D01*
X144646783Y-74914652D01*
X144606418Y-74931125D01*
X144559679Y-74953458D01*
X144514845Y-74977457D01*
X144480193Y-74998930D01*
X144464002Y-75013685D01*
X144463938Y-75013845D01*
X144465330Y-75041152D01*
X144477818Y-75067219D01*
X144499743Y-75088392D01*
X144531743Y-75095474D01*
X144559092Y-75094649D01*
X144597826Y-75094042D01*
X144618158Y-75103116D01*
X144630369Y-75127092D01*
X144631909Y-75131613D01*
X144637203Y-75165806D01*
X144623047Y-75186568D01*
X144586148Y-75196462D01*
X144546289Y-75198292D01*
X144474562Y-75184727D01*
X144437432Y-75165355D01*
X144391576Y-75119845D01*
X144367256Y-75063983D01*
X144365073Y-75004957D01*
X144385629Y-74949953D01*
X144416549Y-74915486D01*
X144447420Y-74896189D01*
X144495942Y-74871759D01*
X144552485Y-74846985D01*
X144561910Y-74843199D01*
X144624019Y-74815791D01*
X144659822Y-74791634D01*
X144671337Y-74767619D01*
X144660580Y-74740635D01*
X144642114Y-74719543D01*
X144598469Y-74693572D01*
X144550446Y-74691624D01*
X144506406Y-74711637D01*
X144474709Y-74751551D01*
X144470549Y-74761848D01*
X144446327Y-74799724D01*
X144410965Y-74827842D01*
X144366343Y-74850917D01*
X144366343Y-74785485D01*
X144368969Y-74745506D01*
X144380230Y-74713997D01*
X144405199Y-74680378D01*
X144429169Y-74654484D01*
X144466441Y-74617817D01*
X144495401Y-74598121D01*
X144526505Y-74590220D01*
X144561713Y-74588914D01*
X144638876Y-74600335D01*
X144638876Y-74600335D01*
G37*
X144638876Y-74600335D02*
X144680667Y-74619344D01*
X144713469Y-74642378D01*
X144737503Y-74668133D01*
X144754097Y-74701358D01*
X144764577Y-74746800D01*
X144770271Y-74809207D01*
X144772507Y-74893327D01*
X144772743Y-74948721D01*
X144772743Y-75164826D01*
X144735774Y-75181670D01*
X144706656Y-75193981D01*
X144692231Y-75198514D01*
X144689472Y-75185025D01*
X144687282Y-75148653D01*
X144685942Y-75095542D01*
X144685657Y-75053372D01*
X144684434Y-74992447D01*
X144681136Y-74944115D01*
X144676321Y-74914518D01*
X144672496Y-74908229D01*
X144646783Y-74914652D01*
X144606418Y-74931125D01*
X144559679Y-74953458D01*
X144514845Y-74977457D01*
X144480193Y-74998930D01*
X144464002Y-75013685D01*
X144463938Y-75013845D01*
X144465330Y-75041152D01*
X144477818Y-75067219D01*
X144499743Y-75088392D01*
X144531743Y-75095474D01*
X144559092Y-75094649D01*
X144597826Y-75094042D01*
X144618158Y-75103116D01*
X144630369Y-75127092D01*
X144631909Y-75131613D01*
X144637203Y-75165806D01*
X144623047Y-75186568D01*
X144586148Y-75196462D01*
X144546289Y-75198292D01*
X144474562Y-75184727D01*
X144437432Y-75165355D01*
X144391576Y-75119845D01*
X144367256Y-75063983D01*
X144365073Y-75004957D01*
X144385629Y-74949953D01*
X144416549Y-74915486D01*
X144447420Y-74896189D01*
X144495942Y-74871759D01*
X144552485Y-74846985D01*
X144561910Y-74843199D01*
X144624019Y-74815791D01*
X144659822Y-74791634D01*
X144671337Y-74767619D01*
X144660580Y-74740635D01*
X144642114Y-74719543D01*
X144598469Y-74693572D01*
X144550446Y-74691624D01*
X144506406Y-74711637D01*
X144474709Y-74751551D01*
X144470549Y-74761848D01*
X144446327Y-74799724D01*
X144410965Y-74827842D01*
X144366343Y-74850917D01*
X144366343Y-74785485D01*
X144368969Y-74745506D01*
X144380230Y-74713997D01*
X144405199Y-74680378D01*
X144429169Y-74654484D01*
X144466441Y-74617817D01*
X144495401Y-74598121D01*
X144526505Y-74590220D01*
X144561713Y-74588914D01*
X144638876Y-74600335D01*
G36*
X144273833Y-74602663D02*
G01*
X144276048Y-74640850D01*
X144277784Y-74698886D01*
X144278899Y-74772180D01*
X144279257Y-74849055D01*
X144279257Y-75109196D01*
X144233326Y-75155127D01*
X144201675Y-75183429D01*
X144173890Y-75194893D01*
X144135915Y-75194168D01*
X144120840Y-75192321D01*
X144073726Y-75186948D01*
X144034756Y-75183869D01*
X144025257Y-75183585D01*
X143993233Y-75185445D01*
X143947432Y-75190114D01*
X143929674Y-75192321D01*
X143886057Y-75195735D01*
X143856745Y-75188320D01*
X143827680Y-75165427D01*
X143817188Y-75155127D01*
X143771257Y-75109196D01*
X143771257Y-74622602D01*
X143808226Y-74605758D01*
X143840059Y-74593282D01*
X143858683Y-74588914D01*
X143863458Y-74602718D01*
X143867921Y-74641286D01*
X143871775Y-74700356D01*
X143874722Y-74775663D01*
X143876143Y-74839286D01*
X143880114Y-75089657D01*
X143914759Y-75094556D01*
X143946268Y-75091131D01*
X143961708Y-75080041D01*
X143966023Y-75059308D01*
X143969708Y-75015145D01*
X143972469Y-74953146D01*
X143974012Y-74878909D01*
X143974235Y-74840706D01*
X143974457Y-74620783D01*
X144020166Y-74604849D01*
X144052518Y-74594015D01*
X144070115Y-74588962D01*
X144070623Y-74588914D01*
X144072388Y-74602648D01*
X144074329Y-74640730D01*
X144076282Y-74698482D01*
X144078084Y-74771227D01*
X144079343Y-74839286D01*
X144083314Y-75089657D01*
X144170400Y-75089657D01*
X144174396Y-74861240D01*
X144178392Y-74632822D01*
X144220847Y-74610868D01*
X144252192Y-74595793D01*
X144270744Y-74588951D01*
X144271279Y-74588914D01*
X144273833Y-74602663D01*
X144273833Y-74602663D01*
G37*
X144273833Y-74602663D02*
X144276048Y-74640850D01*
X144277784Y-74698886D01*
X144278899Y-74772180D01*
X144279257Y-74849055D01*
X144279257Y-75109196D01*
X144233326Y-75155127D01*
X144201675Y-75183429D01*
X144173890Y-75194893D01*
X144135915Y-75194168D01*
X144120840Y-75192321D01*
X144073726Y-75186948D01*
X144034756Y-75183869D01*
X144025257Y-75183585D01*
X143993233Y-75185445D01*
X143947432Y-75190114D01*
X143929674Y-75192321D01*
X143886057Y-75195735D01*
X143856745Y-75188320D01*
X143827680Y-75165427D01*
X143817188Y-75155127D01*
X143771257Y-75109196D01*
X143771257Y-74622602D01*
X143808226Y-74605758D01*
X143840059Y-74593282D01*
X143858683Y-74588914D01*
X143863458Y-74602718D01*
X143867921Y-74641286D01*
X143871775Y-74700356D01*
X143874722Y-74775663D01*
X143876143Y-74839286D01*
X143880114Y-75089657D01*
X143914759Y-75094556D01*
X143946268Y-75091131D01*
X143961708Y-75080041D01*
X143966023Y-75059308D01*
X143969708Y-75015145D01*
X143972469Y-74953146D01*
X143974012Y-74878909D01*
X143974235Y-74840706D01*
X143974457Y-74620783D01*
X144020166Y-74604849D01*
X144052518Y-74594015D01*
X144070115Y-74588962D01*
X144070623Y-74588914D01*
X144072388Y-74602648D01*
X144074329Y-74640730D01*
X144076282Y-74698482D01*
X144078084Y-74771227D01*
X144079343Y-74839286D01*
X144083314Y-75089657D01*
X144170400Y-75089657D01*
X144174396Y-74861240D01*
X144178392Y-74632822D01*
X144220847Y-74610868D01*
X144252192Y-74595793D01*
X144270744Y-74588951D01*
X144271279Y-74588914D01*
X144273833Y-74602663D01*
G36*
X143684117Y-74709358D02*
G01*
X143683933Y-74817837D01*
X143683219Y-74901287D01*
X143681675Y-74963704D01*
X143679001Y-75009085D01*
X143674894Y-75041429D01*
X143669055Y-75064733D01*
X143661182Y-75082995D01*
X143655221Y-75093418D01*
X143605855Y-75149945D01*
X143543264Y-75185377D01*
X143474013Y-75198090D01*
X143404668Y-75186463D01*
X143363375Y-75165568D01*
X143320025Y-75129422D01*
X143290481Y-75085276D01*
X143272655Y-75027462D01*
X143264463Y-74950313D01*
X143263302Y-74893714D01*
X143263458Y-74889647D01*
X143364857Y-74889647D01*
X143365476Y-74954550D01*
X143368314Y-74997514D01*
X143374840Y-75025622D01*
X143386523Y-75045953D01*
X143400483Y-75061288D01*
X143447365Y-75090890D01*
X143497701Y-75093419D01*
X143545276Y-75068705D01*
X143548979Y-75065356D01*
X143564783Y-75047935D01*
X143574693Y-75027209D01*
X143580058Y-74996362D01*
X143582228Y-74948577D01*
X143582571Y-74895748D01*
X143581827Y-74829381D01*
X143578748Y-74785106D01*
X143572061Y-74756009D01*
X143560496Y-74735173D01*
X143551013Y-74724107D01*
X143506960Y-74696198D01*
X143456224Y-74692843D01*
X143407796Y-74714159D01*
X143398450Y-74722073D01*
X143382540Y-74739647D01*
X143372610Y-74760587D01*
X143367278Y-74791782D01*
X143365163Y-74840122D01*
X143364857Y-74889647D01*
X143263458Y-74889647D01*
X143266810Y-74802568D01*
X143278726Y-74734086D01*
X143301135Y-74682600D01*
X143336124Y-74642443D01*
X143363375Y-74621861D01*
X143412907Y-74599625D01*
X143470316Y-74589304D01*
X143523682Y-74592067D01*
X143553543Y-74603212D01*
X143565261Y-74606383D01*
X143573037Y-74594557D01*
X143578465Y-74562866D01*
X143582571Y-74514593D01*
X143587067Y-74460829D01*
X143593313Y-74428482D01*
X143604676Y-74409985D01*
X143624528Y-74397770D01*
X143637000Y-74392362D01*
X143684171Y-74372601D01*
X143684117Y-74709358D01*
X143684117Y-74709358D01*
G37*
X143684117Y-74709358D02*
X143683933Y-74817837D01*
X143683219Y-74901287D01*
X143681675Y-74963704D01*
X143679001Y-75009085D01*
X143674894Y-75041429D01*
X143669055Y-75064733D01*
X143661182Y-75082995D01*
X143655221Y-75093418D01*
X143605855Y-75149945D01*
X143543264Y-75185377D01*
X143474013Y-75198090D01*
X143404668Y-75186463D01*
X143363375Y-75165568D01*
X143320025Y-75129422D01*
X143290481Y-75085276D01*
X143272655Y-75027462D01*
X143264463Y-74950313D01*
X143263302Y-74893714D01*
X143263458Y-74889647D01*
X143364857Y-74889647D01*
X143365476Y-74954550D01*
X143368314Y-74997514D01*
X143374840Y-75025622D01*
X143386523Y-75045953D01*
X143400483Y-75061288D01*
X143447365Y-75090890D01*
X143497701Y-75093419D01*
X143545276Y-75068705D01*
X143548979Y-75065356D01*
X143564783Y-75047935D01*
X143574693Y-75027209D01*
X143580058Y-74996362D01*
X143582228Y-74948577D01*
X143582571Y-74895748D01*
X143581827Y-74829381D01*
X143578748Y-74785106D01*
X143572061Y-74756009D01*
X143560496Y-74735173D01*
X143551013Y-74724107D01*
X143506960Y-74696198D01*
X143456224Y-74692843D01*
X143407796Y-74714159D01*
X143398450Y-74722073D01*
X143382540Y-74739647D01*
X143372610Y-74760587D01*
X143367278Y-74791782D01*
X143365163Y-74840122D01*
X143364857Y-74889647D01*
X143263458Y-74889647D01*
X143266810Y-74802568D01*
X143278726Y-74734086D01*
X143301135Y-74682600D01*
X143336124Y-74642443D01*
X143363375Y-74621861D01*
X143412907Y-74599625D01*
X143470316Y-74589304D01*
X143523682Y-74592067D01*
X143553543Y-74603212D01*
X143565261Y-74606383D01*
X143573037Y-74594557D01*
X143578465Y-74562866D01*
X143582571Y-74514593D01*
X143587067Y-74460829D01*
X143593313Y-74428482D01*
X143604676Y-74409985D01*
X143624528Y-74397770D01*
X143637000Y-74392362D01*
X143684171Y-74372601D01*
X143684117Y-74709358D01*
G36*
X143023926Y-74593755D02*
G01*
X143089858Y-74618084D01*
X143143273Y-74661117D01*
X143164164Y-74691409D01*
X143186939Y-74746994D01*
X143186466Y-74787186D01*
X143162562Y-74814217D01*
X143153717Y-74818813D01*
X143115530Y-74833144D01*
X143096028Y-74829472D01*
X143089422Y-74805407D01*
X143089086Y-74792114D01*
X143076992Y-74743210D01*
X143045471Y-74708999D01*
X143001659Y-74692476D01*
X142952695Y-74696634D01*
X142912894Y-74718227D01*
X142899450Y-74730544D01*
X142889921Y-74745487D01*
X142883485Y-74768075D01*
X142879317Y-74803328D01*
X142876597Y-74856266D01*
X142874502Y-74931907D01*
X142873960Y-74955857D01*
X142871981Y-75037790D01*
X142869731Y-75095455D01*
X142866357Y-75133608D01*
X142861006Y-75157004D01*
X142852824Y-75170398D01*
X142840959Y-75178545D01*
X142833362Y-75182144D01*
X142801102Y-75194452D01*
X142782111Y-75198514D01*
X142775836Y-75184948D01*
X142772006Y-75143934D01*
X142770600Y-75074999D01*
X142771598Y-74977669D01*
X142771908Y-74962657D01*
X142774101Y-74873859D01*
X142776693Y-74809019D01*
X142780382Y-74763067D01*
X142785864Y-74730935D01*
X142793835Y-74707553D01*
X142804993Y-74687852D01*
X142810830Y-74679410D01*
X142844296Y-74642057D01*
X142881727Y-74613003D01*
X142886309Y-74610467D01*
X142953426Y-74590443D01*
X143023926Y-74593755D01*
X143023926Y-74593755D01*
G37*
X143023926Y-74593755D02*
X143089858Y-74618084D01*
X143143273Y-74661117D01*
X143164164Y-74691409D01*
X143186939Y-74746994D01*
X143186466Y-74787186D01*
X143162562Y-74814217D01*
X143153717Y-74818813D01*
X143115530Y-74833144D01*
X143096028Y-74829472D01*
X143089422Y-74805407D01*
X143089086Y-74792114D01*
X143076992Y-74743210D01*
X143045471Y-74708999D01*
X143001659Y-74692476D01*
X142952695Y-74696634D01*
X142912894Y-74718227D01*
X142899450Y-74730544D01*
X142889921Y-74745487D01*
X142883485Y-74768075D01*
X142879317Y-74803328D01*
X142876597Y-74856266D01*
X142874502Y-74931907D01*
X142873960Y-74955857D01*
X142871981Y-75037790D01*
X142869731Y-75095455D01*
X142866357Y-75133608D01*
X142861006Y-75157004D01*
X142852824Y-75170398D01*
X142840959Y-75178545D01*
X142833362Y-75182144D01*
X142801102Y-75194452D01*
X142782111Y-75198514D01*
X142775836Y-75184948D01*
X142772006Y-75143934D01*
X142770600Y-75074999D01*
X142771598Y-74977669D01*
X142771908Y-74962657D01*
X142774101Y-74873859D01*
X142776693Y-74809019D01*
X142780382Y-74763067D01*
X142785864Y-74730935D01*
X142793835Y-74707553D01*
X142804993Y-74687852D01*
X142810830Y-74679410D01*
X142844296Y-74642057D01*
X142881727Y-74613003D01*
X142886309Y-74610467D01*
X142953426Y-74590443D01*
X143023926Y-74593755D01*
G36*
X142533744Y-74594968D02*
G01*
X142590616Y-74616087D01*
X142591267Y-74616493D01*
X142626440Y-74642380D01*
X142652407Y-74672633D01*
X142670670Y-74712058D01*
X142682732Y-74765462D01*
X142690096Y-74837651D01*
X142694264Y-74933432D01*
X142694629Y-74947078D01*
X142699876Y-75152842D01*
X142655716Y-75175678D01*
X142623763Y-75191110D01*
X142604470Y-75198423D01*
X142603578Y-75198514D01*
X142600239Y-75185022D01*
X142597587Y-75148626D01*
X142595956Y-75095452D01*
X142595600Y-75052393D01*
X142595592Y-74982641D01*
X142592403Y-74938837D01*
X142581288Y-74917944D01*
X142557501Y-74916925D01*
X142516296Y-74932741D01*
X142454086Y-74961815D01*
X142408341Y-74985963D01*
X142384813Y-75006913D01*
X142377896Y-75029747D01*
X142377886Y-75030877D01*
X142389299Y-75070212D01*
X142423092Y-75091462D01*
X142474809Y-75094539D01*
X142512061Y-75094006D01*
X142531703Y-75104735D01*
X142543952Y-75130505D01*
X142551002Y-75163337D01*
X142540842Y-75181966D01*
X142537017Y-75184632D01*
X142501001Y-75195340D01*
X142450566Y-75196856D01*
X142398626Y-75189759D01*
X142361822Y-75176788D01*
X142310938Y-75133585D01*
X142282014Y-75073446D01*
X142276286Y-75026462D01*
X142280657Y-74984082D01*
X142296475Y-74949488D01*
X142327797Y-74918763D01*
X142378678Y-74887990D01*
X142453176Y-74853252D01*
X142457714Y-74851288D01*
X142524821Y-74820287D01*
X142566232Y-74794862D01*
X142583981Y-74772014D01*
X142580107Y-74748745D01*
X142556643Y-74722056D01*
X142549627Y-74715914D01*
X142502630Y-74692100D01*
X142453933Y-74693103D01*
X142411522Y-74716451D01*
X142383384Y-74759675D01*
X142380769Y-74768160D01*
X142355308Y-74809308D01*
X142323001Y-74829128D01*
X142276286Y-74848770D01*
X142276286Y-74797950D01*
X142290496Y-74724082D01*
X142332675Y-74656327D01*
X142354624Y-74633661D01*
X142404517Y-74604569D01*
X142467967Y-74591400D01*
X142533744Y-74594968D01*
X142533744Y-74594968D01*
G37*
X142533744Y-74594968D02*
X142590616Y-74616087D01*
X142591267Y-74616493D01*
X142626440Y-74642380D01*
X142652407Y-74672633D01*
X142670670Y-74712058D01*
X142682732Y-74765462D01*
X142690096Y-74837651D01*
X142694264Y-74933432D01*
X142694629Y-74947078D01*
X142699876Y-75152842D01*
X142655716Y-75175678D01*
X142623763Y-75191110D01*
X142604470Y-75198423D01*
X142603578Y-75198514D01*
X142600239Y-75185022D01*
X142597587Y-75148626D01*
X142595956Y-75095452D01*
X142595600Y-75052393D01*
X142595592Y-74982641D01*
X142592403Y-74938837D01*
X142581288Y-74917944D01*
X142557501Y-74916925D01*
X142516296Y-74932741D01*
X142454086Y-74961815D01*
X142408341Y-74985963D01*
X142384813Y-75006913D01*
X142377896Y-75029747D01*
X142377886Y-75030877D01*
X142389299Y-75070212D01*
X142423092Y-75091462D01*
X142474809Y-75094539D01*
X142512061Y-75094006D01*
X142531703Y-75104735D01*
X142543952Y-75130505D01*
X142551002Y-75163337D01*
X142540842Y-75181966D01*
X142537017Y-75184632D01*
X142501001Y-75195340D01*
X142450566Y-75196856D01*
X142398626Y-75189759D01*
X142361822Y-75176788D01*
X142310938Y-75133585D01*
X142282014Y-75073446D01*
X142276286Y-75026462D01*
X142280657Y-74984082D01*
X142296475Y-74949488D01*
X142327797Y-74918763D01*
X142378678Y-74887990D01*
X142453176Y-74853252D01*
X142457714Y-74851288D01*
X142524821Y-74820287D01*
X142566232Y-74794862D01*
X142583981Y-74772014D01*
X142580107Y-74748745D01*
X142556643Y-74722056D01*
X142549627Y-74715914D01*
X142502630Y-74692100D01*
X142453933Y-74693103D01*
X142411522Y-74716451D01*
X142383384Y-74759675D01*
X142380769Y-74768160D01*
X142355308Y-74809308D01*
X142323001Y-74829128D01*
X142276286Y-74848770D01*
X142276286Y-74797950D01*
X142290496Y-74724082D01*
X142332675Y-74656327D01*
X142354624Y-74633661D01*
X142404517Y-74604569D01*
X142467967Y-74591400D01*
X142533744Y-74594968D01*
G36*
X141869886Y-74495289D02*
G01*
X141874139Y-74554613D01*
X141879025Y-74589572D01*
X141885795Y-74604820D01*
X141895702Y-74605015D01*
X141898914Y-74603195D01*
X141941644Y-74590015D01*
X141997227Y-74590785D01*
X142053737Y-74604333D01*
X142089082Y-74621861D01*
X142125321Y-74649861D01*
X142151813Y-74681549D01*
X142169999Y-74721813D01*
X142181322Y-74775543D01*
X142187222Y-74847626D01*
X142189143Y-74942951D01*
X142189177Y-74961237D01*
X142189200Y-75166646D01*
X142143491Y-75182580D01*
X142111027Y-75193420D01*
X142093215Y-75198468D01*
X142092691Y-75198514D01*
X142090937Y-75184828D01*
X142089444Y-75147076D01*
X142088326Y-75090224D01*
X142087697Y-75019234D01*
X142087600Y-74976073D01*
X142087398Y-74890973D01*
X142086358Y-74829981D01*
X142083831Y-74788177D01*
X142079164Y-74760642D01*
X142071707Y-74742456D01*
X142060811Y-74728698D01*
X142054007Y-74722073D01*
X142007272Y-74695375D01*
X141956272Y-74693375D01*
X141910001Y-74715955D01*
X141901444Y-74724107D01*
X141888893Y-74739436D01*
X141880188Y-74757618D01*
X141874631Y-74783909D01*
X141871526Y-74823562D01*
X141870176Y-74881832D01*
X141869886Y-74962173D01*
X141869886Y-75166646D01*
X141824177Y-75182580D01*
X141791713Y-75193420D01*
X141773901Y-75198468D01*
X141773377Y-75198514D01*
X141772037Y-75184623D01*
X141770828Y-75145439D01*
X141769801Y-75084700D01*
X141769002Y-75006141D01*
X141768481Y-74913498D01*
X141768286Y-74810509D01*
X141768286Y-74413342D01*
X141815457Y-74393444D01*
X141862629Y-74373547D01*
X141869886Y-74495289D01*
X141869886Y-74495289D01*
G37*
X141869886Y-74495289D02*
X141874139Y-74554613D01*
X141879025Y-74589572D01*
X141885795Y-74604820D01*
X141895702Y-74605015D01*
X141898914Y-74603195D01*
X141941644Y-74590015D01*
X141997227Y-74590785D01*
X142053737Y-74604333D01*
X142089082Y-74621861D01*
X142125321Y-74649861D01*
X142151813Y-74681549D01*
X142169999Y-74721813D01*
X142181322Y-74775543D01*
X142187222Y-74847626D01*
X142189143Y-74942951D01*
X142189177Y-74961237D01*
X142189200Y-75166646D01*
X142143491Y-75182580D01*
X142111027Y-75193420D01*
X142093215Y-75198468D01*
X142092691Y-75198514D01*
X142090937Y-75184828D01*
X142089444Y-75147076D01*
X142088326Y-75090224D01*
X142087697Y-75019234D01*
X142087600Y-74976073D01*
X142087398Y-74890973D01*
X142086358Y-74829981D01*
X142083831Y-74788177D01*
X142079164Y-74760642D01*
X142071707Y-74742456D01*
X142060811Y-74728698D01*
X142054007Y-74722073D01*
X142007272Y-74695375D01*
X141956272Y-74693375D01*
X141910001Y-74715955D01*
X141901444Y-74724107D01*
X141888893Y-74739436D01*
X141880188Y-74757618D01*
X141874631Y-74783909D01*
X141871526Y-74823562D01*
X141870176Y-74881832D01*
X141869886Y-74962173D01*
X141869886Y-75166646D01*
X141824177Y-75182580D01*
X141791713Y-75193420D01*
X141773901Y-75198468D01*
X141773377Y-75198514D01*
X141772037Y-75184623D01*
X141770828Y-75145439D01*
X141769801Y-75084700D01*
X141769002Y-75006141D01*
X141768481Y-74913498D01*
X141768286Y-74810509D01*
X141768286Y-74413342D01*
X141815457Y-74393444D01*
X141862629Y-74373547D01*
X141869886Y-74495289D01*
G36*
X140662303Y-74575239D02*
G01*
X140719527Y-74613735D01*
X140763749Y-74669335D01*
X140790167Y-74740086D01*
X140795510Y-74792162D01*
X140794903Y-74813893D01*
X140789822Y-74830531D01*
X140775855Y-74845437D01*
X140748589Y-74861973D01*
X140703612Y-74883498D01*
X140636511Y-74913374D01*
X140636171Y-74913524D01*
X140574407Y-74941813D01*
X140523759Y-74966933D01*
X140489404Y-74986179D01*
X140476518Y-74996848D01*
X140476514Y-74996934D01*
X140487872Y-75020166D01*
X140514431Y-75045774D01*
X140544923Y-75064221D01*
X140560370Y-75067886D01*
X140602515Y-75055212D01*
X140638808Y-75023471D01*
X140656517Y-74988572D01*
X140673552Y-74962845D01*
X140706922Y-74933546D01*
X140746149Y-74908235D01*
X140780756Y-74894471D01*
X140787993Y-74893714D01*
X140796139Y-74906160D01*
X140796630Y-74937972D01*
X140790643Y-74980866D01*
X140779357Y-75026558D01*
X140763950Y-75066761D01*
X140763171Y-75068322D01*
X140716804Y-75133062D01*
X140656711Y-75177097D01*
X140588465Y-75198711D01*
X140517638Y-75196185D01*
X140449804Y-75167804D01*
X140446788Y-75165808D01*
X140393427Y-75117448D01*
X140358340Y-75054352D01*
X140338922Y-74971387D01*
X140336316Y-74948078D01*
X140331701Y-74838055D01*
X140337233Y-74786748D01*
X140476514Y-74786748D01*
X140478324Y-74818753D01*
X140488222Y-74828093D01*
X140512898Y-74821105D01*
X140551795Y-74804587D01*
X140595275Y-74783881D01*
X140596356Y-74783333D01*
X140633209Y-74763949D01*
X140648000Y-74751013D01*
X140644353Y-74737451D01*
X140628995Y-74719632D01*
X140589923Y-74693845D01*
X140547846Y-74691950D01*
X140510103Y-74710717D01*
X140484034Y-74746915D01*
X140476514Y-74786748D01*
X140337233Y-74786748D01*
X140341194Y-74750027D01*
X140365550Y-74680212D01*
X140399456Y-74631302D01*
X140460653Y-74581878D01*
X140528063Y-74557359D01*
X140596880Y-74555797D01*
X140662303Y-74575239D01*
X140662303Y-74575239D01*
G37*
X140662303Y-74575239D02*
X140719527Y-74613735D01*
X140763749Y-74669335D01*
X140790167Y-74740086D01*
X140795510Y-74792162D01*
X140794903Y-74813893D01*
X140789822Y-74830531D01*
X140775855Y-74845437D01*
X140748589Y-74861973D01*
X140703612Y-74883498D01*
X140636511Y-74913374D01*
X140636171Y-74913524D01*
X140574407Y-74941813D01*
X140523759Y-74966933D01*
X140489404Y-74986179D01*
X140476518Y-74996848D01*
X140476514Y-74996934D01*
X140487872Y-75020166D01*
X140514431Y-75045774D01*
X140544923Y-75064221D01*
X140560370Y-75067886D01*
X140602515Y-75055212D01*
X140638808Y-75023471D01*
X140656517Y-74988572D01*
X140673552Y-74962845D01*
X140706922Y-74933546D01*
X140746149Y-74908235D01*
X140780756Y-74894471D01*
X140787993Y-74893714D01*
X140796139Y-74906160D01*
X140796630Y-74937972D01*
X140790643Y-74980866D01*
X140779357Y-75026558D01*
X140763950Y-75066761D01*
X140763171Y-75068322D01*
X140716804Y-75133062D01*
X140656711Y-75177097D01*
X140588465Y-75198711D01*
X140517638Y-75196185D01*
X140449804Y-75167804D01*
X140446788Y-75165808D01*
X140393427Y-75117448D01*
X140358340Y-75054352D01*
X140338922Y-74971387D01*
X140336316Y-74948078D01*
X140331701Y-74838055D01*
X140337233Y-74786748D01*
X140476514Y-74786748D01*
X140478324Y-74818753D01*
X140488222Y-74828093D01*
X140512898Y-74821105D01*
X140551795Y-74804587D01*
X140595275Y-74783881D01*
X140596356Y-74783333D01*
X140633209Y-74763949D01*
X140648000Y-74751013D01*
X140644353Y-74737451D01*
X140628995Y-74719632D01*
X140589923Y-74693845D01*
X140547846Y-74691950D01*
X140510103Y-74710717D01*
X140484034Y-74746915D01*
X140476514Y-74786748D01*
X140337233Y-74786748D01*
X140341194Y-74750027D01*
X140365550Y-74680212D01*
X140399456Y-74631302D01*
X140460653Y-74581878D01*
X140528063Y-74557359D01*
X140596880Y-74555797D01*
X140662303Y-74575239D01*
G36*
X139535115Y-74565962D02*
G01*
X139603145Y-74601733D01*
X139653351Y-74659301D01*
X139671185Y-74696312D01*
X139685063Y-74751882D01*
X139692167Y-74822096D01*
X139692840Y-74898727D01*
X139687427Y-74973552D01*
X139676270Y-75038342D01*
X139659714Y-75084873D01*
X139654626Y-75092887D01*
X139594355Y-75152707D01*
X139522769Y-75188535D01*
X139445092Y-75199020D01*
X139366548Y-75182810D01*
X139344689Y-75173092D01*
X139302122Y-75143143D01*
X139264763Y-75103433D01*
X139261232Y-75098397D01*
X139246881Y-75074124D01*
X139237394Y-75048178D01*
X139231790Y-75014022D01*
X139229086Y-74965119D01*
X139228299Y-74894935D01*
X139228286Y-74879200D01*
X139228322Y-74874192D01*
X139373429Y-74874192D01*
X139374273Y-74940430D01*
X139377596Y-74984386D01*
X139384583Y-75012779D01*
X139396416Y-75032325D01*
X139402457Y-75038857D01*
X139437186Y-75063680D01*
X139470903Y-75062548D01*
X139504995Y-75041016D01*
X139525329Y-75018029D01*
X139537371Y-74984478D01*
X139544134Y-74931569D01*
X139544598Y-74925399D01*
X139545752Y-74829513D01*
X139533688Y-74758299D01*
X139508570Y-74712194D01*
X139470560Y-74691635D01*
X139456992Y-74690514D01*
X139421364Y-74696152D01*
X139396994Y-74715686D01*
X139382093Y-74753042D01*
X139374875Y-74812150D01*
X139373429Y-74874192D01*
X139228322Y-74874192D01*
X139228826Y-74804413D01*
X139231096Y-74752159D01*
X139236068Y-74715949D01*
X139244713Y-74689299D01*
X139258005Y-74665722D01*
X139260943Y-74661338D01*
X139310313Y-74602249D01*
X139364109Y-74567947D01*
X139429602Y-74554331D01*
X139451842Y-74553665D01*
X139535115Y-74565962D01*
X139535115Y-74565962D01*
G37*
X139535115Y-74565962D02*
X139603145Y-74601733D01*
X139653351Y-74659301D01*
X139671185Y-74696312D01*
X139685063Y-74751882D01*
X139692167Y-74822096D01*
X139692840Y-74898727D01*
X139687427Y-74973552D01*
X139676270Y-75038342D01*
X139659714Y-75084873D01*
X139654626Y-75092887D01*
X139594355Y-75152707D01*
X139522769Y-75188535D01*
X139445092Y-75199020D01*
X139366548Y-75182810D01*
X139344689Y-75173092D01*
X139302122Y-75143143D01*
X139264763Y-75103433D01*
X139261232Y-75098397D01*
X139246881Y-75074124D01*
X139237394Y-75048178D01*
X139231790Y-75014022D01*
X139229086Y-74965119D01*
X139228299Y-74894935D01*
X139228286Y-74879200D01*
X139228322Y-74874192D01*
X139373429Y-74874192D01*
X139374273Y-74940430D01*
X139377596Y-74984386D01*
X139384583Y-75012779D01*
X139396416Y-75032325D01*
X139402457Y-75038857D01*
X139437186Y-75063680D01*
X139470903Y-75062548D01*
X139504995Y-75041016D01*
X139525329Y-75018029D01*
X139537371Y-74984478D01*
X139544134Y-74931569D01*
X139544598Y-74925399D01*
X139545752Y-74829513D01*
X139533688Y-74758299D01*
X139508570Y-74712194D01*
X139470560Y-74691635D01*
X139456992Y-74690514D01*
X139421364Y-74696152D01*
X139396994Y-74715686D01*
X139382093Y-74753042D01*
X139374875Y-74812150D01*
X139373429Y-74874192D01*
X139228322Y-74874192D01*
X139228826Y-74804413D01*
X139231096Y-74752159D01*
X139236068Y-74715949D01*
X139244713Y-74689299D01*
X139258005Y-74665722D01*
X139260943Y-74661338D01*
X139310313Y-74602249D01*
X139364109Y-74567947D01*
X139429602Y-74554331D01*
X139451842Y-74553665D01*
X139535115Y-74565962D01*
G36*
X141210093Y-74571780D02*
G01*
X141256672Y-74598723D01*
X141289057Y-74625466D01*
X141312742Y-74653484D01*
X141329059Y-74687748D01*
X141339339Y-74733227D01*
X141344914Y-74794892D01*
X141347116Y-74877711D01*
X141347371Y-74937246D01*
X141347371Y-75156391D01*
X141285686Y-75184044D01*
X141224000Y-75211697D01*
X141216743Y-74971670D01*
X141213744Y-74882028D01*
X141210598Y-74816962D01*
X141206701Y-74772026D01*
X141201447Y-74742770D01*
X141194231Y-74724748D01*
X141184450Y-74713511D01*
X141181312Y-74711079D01*
X141133761Y-74692083D01*
X141085697Y-74699600D01*
X141057086Y-74719543D01*
X141045447Y-74733675D01*
X141037391Y-74752220D01*
X141032271Y-74780334D01*
X141029441Y-74823173D01*
X141028256Y-74885895D01*
X141028057Y-74951261D01*
X141028018Y-75033268D01*
X141026614Y-75091316D01*
X141021914Y-75130465D01*
X141011987Y-75155780D01*
X140994903Y-75172323D01*
X140968732Y-75185156D01*
X140933775Y-75198491D01*
X140895596Y-75213007D01*
X140900141Y-74955389D01*
X140901971Y-74862519D01*
X140904112Y-74793889D01*
X140907181Y-74744711D01*
X140911794Y-74710198D01*
X140918568Y-74685562D01*
X140928119Y-74666016D01*
X140939634Y-74648770D01*
X140995190Y-74593680D01*
X141062980Y-74561822D01*
X141136713Y-74554191D01*
X141210093Y-74571780D01*
X141210093Y-74571780D01*
G37*
X141210093Y-74571780D02*
X141256672Y-74598723D01*
X141289057Y-74625466D01*
X141312742Y-74653484D01*
X141329059Y-74687748D01*
X141339339Y-74733227D01*
X141344914Y-74794892D01*
X141347116Y-74877711D01*
X141347371Y-74937246D01*
X141347371Y-75156391D01*
X141285686Y-75184044D01*
X141224000Y-75211697D01*
X141216743Y-74971670D01*
X141213744Y-74882028D01*
X141210598Y-74816962D01*
X141206701Y-74772026D01*
X141201447Y-74742770D01*
X141194231Y-74724748D01*
X141184450Y-74713511D01*
X141181312Y-74711079D01*
X141133761Y-74692083D01*
X141085697Y-74699600D01*
X141057086Y-74719543D01*
X141045447Y-74733675D01*
X141037391Y-74752220D01*
X141032271Y-74780334D01*
X141029441Y-74823173D01*
X141028256Y-74885895D01*
X141028057Y-74951261D01*
X141028018Y-75033268D01*
X141026614Y-75091316D01*
X141021914Y-75130465D01*
X141011987Y-75155780D01*
X140994903Y-75172323D01*
X140968732Y-75185156D01*
X140933775Y-75198491D01*
X140895596Y-75213007D01*
X140900141Y-74955389D01*
X140901971Y-74862519D01*
X140904112Y-74793889D01*
X140907181Y-74744711D01*
X140911794Y-74710198D01*
X140918568Y-74685562D01*
X140928119Y-74666016D01*
X140939634Y-74648770D01*
X140995190Y-74593680D01*
X141062980Y-74561822D01*
X141136713Y-74554191D01*
X141210093Y-74571780D01*
G36*
X140093744Y-74563918D02*
G01*
X140149201Y-74591568D01*
X140198148Y-74642480D01*
X140211629Y-74661338D01*
X140226314Y-74686015D01*
X140235842Y-74712816D01*
X140241293Y-74748587D01*
X140243747Y-74800169D01*
X140244286Y-74868267D01*
X140241852Y-74961588D01*
X140233394Y-75031657D01*
X140217174Y-75083931D01*
X140191454Y-75123869D01*
X140154497Y-75156929D01*
X140151782Y-75158886D01*
X140115360Y-75178908D01*
X140071502Y-75188815D01*
X140015724Y-75191257D01*
X139925048Y-75191257D01*
X139925010Y-75279283D01*
X139924166Y-75328308D01*
X139919024Y-75357065D01*
X139905587Y-75374311D01*
X139879858Y-75388808D01*
X139873679Y-75391769D01*
X139844764Y-75405648D01*
X139822376Y-75414414D01*
X139805729Y-75415171D01*
X139794036Y-75405023D01*
X139786510Y-75381073D01*
X139782366Y-75340426D01*
X139780815Y-75280186D01*
X139781071Y-75197455D01*
X139782349Y-75089339D01*
X139782748Y-75057000D01*
X139784185Y-74945524D01*
X139785472Y-74872603D01*
X139924971Y-74872603D01*
X139925755Y-74934499D01*
X139929240Y-74974997D01*
X139937124Y-75001708D01*
X139951105Y-75022244D01*
X139960597Y-75032260D01*
X139999404Y-75061567D01*
X140033763Y-75063952D01*
X140069216Y-75039750D01*
X140070114Y-75038857D01*
X140084539Y-75020153D01*
X140093313Y-74994732D01*
X140097739Y-74955584D01*
X140099118Y-74895697D01*
X140099143Y-74882430D01*
X140095812Y-74799901D01*
X140084969Y-74742691D01*
X140065340Y-74707766D01*
X140035650Y-74692094D01*
X140018491Y-74690514D01*
X139977766Y-74697926D01*
X139949832Y-74722330D01*
X139933017Y-74766980D01*
X139925650Y-74835130D01*
X139924971Y-74872603D01*
X139785472Y-74872603D01*
X139785708Y-74859245D01*
X139787677Y-74794333D01*
X139790450Y-74746958D01*
X139794388Y-74713290D01*
X139799849Y-74689498D01*
X139807192Y-74671753D01*
X139816777Y-74656224D01*
X139820887Y-74650381D01*
X139875405Y-74595185D01*
X139944336Y-74563890D01*
X140024072Y-74555165D01*
X140093744Y-74563918D01*
X140093744Y-74563918D01*
G37*
X140093744Y-74563918D02*
X140149201Y-74591568D01*
X140198148Y-74642480D01*
X140211629Y-74661338D01*
X140226314Y-74686015D01*
X140235842Y-74712816D01*
X140241293Y-74748587D01*
X140243747Y-74800169D01*
X140244286Y-74868267D01*
X140241852Y-74961588D01*
X140233394Y-75031657D01*
X140217174Y-75083931D01*
X140191454Y-75123869D01*
X140154497Y-75156929D01*
X140151782Y-75158886D01*
X140115360Y-75178908D01*
X140071502Y-75188815D01*
X140015724Y-75191257D01*
X139925048Y-75191257D01*
X139925010Y-75279283D01*
X139924166Y-75328308D01*
X139919024Y-75357065D01*
X139905587Y-75374311D01*
X139879858Y-75388808D01*
X139873679Y-75391769D01*
X139844764Y-75405648D01*
X139822376Y-75414414D01*
X139805729Y-75415171D01*
X139794036Y-75405023D01*
X139786510Y-75381073D01*
X139782366Y-75340426D01*
X139780815Y-75280186D01*
X139781071Y-75197455D01*
X139782349Y-75089339D01*
X139782748Y-75057000D01*
X139784185Y-74945524D01*
X139785472Y-74872603D01*
X139924971Y-74872603D01*
X139925755Y-74934499D01*
X139929240Y-74974997D01*
X139937124Y-75001708D01*
X139951105Y-75022244D01*
X139960597Y-75032260D01*
X139999404Y-75061567D01*
X140033763Y-75063952D01*
X140069216Y-75039750D01*
X140070114Y-75038857D01*
X140084539Y-75020153D01*
X140093313Y-74994732D01*
X140097739Y-74955584D01*
X140099118Y-74895697D01*
X140099143Y-74882430D01*
X140095812Y-74799901D01*
X140084969Y-74742691D01*
X140065340Y-74707766D01*
X140035650Y-74692094D01*
X140018491Y-74690514D01*
X139977766Y-74697926D01*
X139949832Y-74722330D01*
X139933017Y-74766980D01*
X139925650Y-74835130D01*
X139924971Y-74872603D01*
X139785472Y-74872603D01*
X139785708Y-74859245D01*
X139787677Y-74794333D01*
X139790450Y-74746958D01*
X139794388Y-74713290D01*
X139799849Y-74689498D01*
X139807192Y-74671753D01*
X139816777Y-74656224D01*
X139820887Y-74650381D01*
X139875405Y-74595185D01*
X139944336Y-74563890D01*
X140024072Y-74555165D01*
X140093744Y-74563918D01*
D12*
X142546000Y-99826578D02*
X142546000Y-99309422D01*
X143966000Y-99826578D02*
X143966000Y-99309422D01*
X154484000Y-97531422D02*
X154484000Y-98048578D01*
X155904000Y-97531422D02*
X155904000Y-98048578D01*
X141280000Y-90361500D02*
X141280000Y-93046500D01*
X141280000Y-93046500D02*
X143200000Y-93046500D01*
X143200000Y-93046500D02*
X143200000Y-90361500D01*
X154904000Y-71612000D02*
X154904000Y-69612000D01*
X154904000Y-69612000D02*
X151004000Y-69612000D01*
X154904000Y-71612000D02*
X151004000Y-71612000D01*
D13*
X145835000Y-61024000D02*
X141135000Y-61024000D01*
X141135000Y-61024000D02*
X141135000Y-62624000D01*
X145535000Y-69024000D02*
X141335000Y-69024000D01*
X141335000Y-69024000D02*
X141235000Y-69024000D01*
X141235000Y-69024000D02*
X141135000Y-69024000D01*
X141135000Y-69024000D02*
X141135000Y-65024000D01*
X155435000Y-61024000D02*
X157435000Y-63724000D01*
X155435000Y-69024000D02*
X157435000Y-66324000D01*
X157435000Y-65024000D02*
X157435000Y-63774000D01*
X157435000Y-65024000D02*
X157435000Y-66274000D01*
X153035000Y-61024000D02*
X155435000Y-61024000D01*
X150035000Y-61024000D02*
X153035000Y-61024000D01*
X153035000Y-69024000D02*
X155435000Y-69024000D01*
X149935000Y-69024000D02*
X153035000Y-69024000D01*
X157435000Y-65124000D02*
X157435000Y-64824000D01*
X141135000Y-65024000D02*
X141135000Y-62624000D01*
X145535000Y-69024000D02*
X149935000Y-69024000D01*
X145835000Y-61024000D02*
X150035000Y-61024000D01*
D12*
X147634000Y-78546000D02*
X147634000Y-75886000D01*
X142494000Y-78546000D02*
X147634000Y-78546000D01*
X142494000Y-75886000D02*
X147634000Y-75886000D01*
X142494000Y-78546000D02*
X142494000Y-75886000D01*
X141224000Y-78546000D02*
X139894000Y-78546000D01*
X139894000Y-78546000D02*
X139894000Y-77216000D01*
X145355000Y-86935000D02*
X145355000Y-92135000D01*
X150495000Y-86935000D02*
X145355000Y-86935000D01*
X153095000Y-92135000D02*
X145355000Y-92135000D01*
X150495000Y-86935000D02*
X150495000Y-89535000D01*
X150495000Y-89535000D02*
X153095000Y-89535000D01*
X153095000Y-89535000D02*
X153095000Y-92135000D01*
X151765000Y-86935000D02*
X153095000Y-86935000D01*
X153095000Y-86935000D02*
X153095000Y-88265000D01*
X142935000Y-81855000D02*
X140275000Y-81855000D01*
X142935000Y-84455000D02*
X142935000Y-81855000D01*
X140275000Y-84455000D02*
X140275000Y-81855000D01*
X142935000Y-84455000D02*
X140275000Y-84455000D01*
X142935000Y-85725000D02*
X142935000Y-87055000D01*
X142935000Y-87055000D02*
X141605000Y-87055000D01*
D13*
X152615000Y-115125000D02*
X148415000Y-115125000D01*
X152915000Y-107125000D02*
X148515000Y-107125000D01*
X157315000Y-111125000D02*
X157315000Y-113525000D01*
X141015000Y-111025000D02*
X141015000Y-111325000D01*
X148515000Y-107125000D02*
X145415000Y-107125000D01*
X145415000Y-107125000D02*
X143015000Y-107125000D01*
X148415000Y-115125000D02*
X145415000Y-115125000D01*
X145415000Y-115125000D02*
X143015000Y-115125000D01*
X141015000Y-111125000D02*
X141015000Y-109875000D01*
X141015000Y-111125000D02*
X141015000Y-112375000D01*
X143015000Y-107125000D02*
X141015000Y-109825000D01*
X143015000Y-115125000D02*
X141015000Y-112425000D01*
X157315000Y-107125000D02*
X157315000Y-111125000D01*
X157215000Y-107125000D02*
X157315000Y-107125000D01*
X157115000Y-107125000D02*
X157215000Y-107125000D01*
X152915000Y-107125000D02*
X157115000Y-107125000D01*
X157315000Y-115125000D02*
X157315000Y-113525000D01*
X152615000Y-115125000D02*
X157315000Y-115125000D01*
D12*
X154180000Y-76765000D02*
X154180000Y-77965000D01*
X154180000Y-77965000D02*
X151480000Y-77965000D01*
X150180000Y-73165000D02*
X154180000Y-73165000D01*
X154180000Y-73165000D02*
X154180000Y-74365000D01*
X155648922Y-89610000D02*
X156166078Y-89610000D01*
X155648922Y-88190000D02*
X156166078Y-88190000D01*
X159460000Y-84831422D02*
X159460000Y-85348578D01*
X158040000Y-84831422D02*
X158040000Y-85348578D01*
X143966000Y-95245422D02*
X143966000Y-95762578D01*
X142546000Y-95245422D02*
X142546000Y-95762578D01*
X155697422Y-93166000D02*
X156214578Y-93166000D01*
X155697422Y-91746000D02*
X156214578Y-91746000D01*
X156285000Y-85983578D02*
X156285000Y-85466422D01*
X154865000Y-85983578D02*
X154865000Y-85466422D01*
X147578578Y-73608000D02*
X147061422Y-73608000D01*
X147578578Y-72188000D02*
X147061422Y-72188000D01*
X151135000Y-101200000D02*
X151135000Y-99940000D01*
X151135000Y-94380000D02*
X151135000Y-95640000D01*
X147375000Y-101200000D02*
X151135000Y-101200000D01*
X145125000Y-94380000D02*
X151135000Y-94380000D01*
D10*
X146475000Y-79795000D02*
X146475000Y-80000000D01*
X151975000Y-79795000D02*
X151975000Y-80095000D01*
X151975000Y-85305000D02*
X151975000Y-85005000D01*
X146475000Y-85305000D02*
X146475000Y-85005000D01*
X146475000Y-79795000D02*
X151975000Y-79795000D01*
X146475000Y-85305000D02*
X151975000Y-85305000D01*
X146475000Y-80000000D02*
X144725000Y-80000000D01*
D12*
X156586422Y-80570000D02*
X157103578Y-80570000D01*
X156586422Y-81990000D02*
X157103578Y-81990000D01*
D10*
X141963142Y-99734666D02*
X142010761Y-99782285D01*
X142058380Y-99925142D01*
X142058380Y-100020380D01*
X142010761Y-100163238D01*
X141915523Y-100258476D01*
X141820285Y-100306095D01*
X141629809Y-100353714D01*
X141486952Y-100353714D01*
X141296476Y-100306095D01*
X141201238Y-100258476D01*
X141106000Y-100163238D01*
X141058380Y-100020380D01*
X141058380Y-99925142D01*
X141106000Y-99782285D01*
X141153619Y-99734666D01*
X142058380Y-98782285D02*
X142058380Y-99353714D01*
X142058380Y-99068000D02*
X141058380Y-99068000D01*
X141201238Y-99163238D01*
X141296476Y-99258476D01*
X141344095Y-99353714D01*
X157329142Y-98718666D02*
X157376761Y-98766285D01*
X157424380Y-98909142D01*
X157424380Y-99004380D01*
X157376761Y-99147238D01*
X157281523Y-99242476D01*
X157186285Y-99290095D01*
X156995809Y-99337714D01*
X156852952Y-99337714D01*
X156662476Y-99290095D01*
X156567238Y-99242476D01*
X156472000Y-99147238D01*
X156424380Y-99004380D01*
X156424380Y-98909142D01*
X156472000Y-98766285D01*
X156519619Y-98718666D01*
X156519619Y-98337714D02*
X156472000Y-98290095D01*
X156424380Y-98194857D01*
X156424380Y-97956761D01*
X156472000Y-97861523D01*
X156519619Y-97813904D01*
X156614857Y-97766285D01*
X156710095Y-97766285D01*
X156852952Y-97813904D01*
X157424380Y-98385333D01*
X157424380Y-97766285D01*
X141042380Y-92099595D02*
X140042380Y-92099595D01*
X140042380Y-91861500D01*
X140090000Y-91718642D01*
X140185238Y-91623404D01*
X140280476Y-91575785D01*
X140470952Y-91528166D01*
X140613809Y-91528166D01*
X140804285Y-91575785D01*
X140899523Y-91623404D01*
X140994761Y-91718642D01*
X141042380Y-91861500D01*
X141042380Y-92099595D01*
X141042380Y-90575785D02*
X141042380Y-91147214D01*
X141042380Y-90861500D02*
X140042380Y-90861500D01*
X140185238Y-90956738D01*
X140280476Y-91051976D01*
X140328095Y-91147214D01*
X155471904Y-72334380D02*
X155471904Y-71334380D01*
X155710000Y-71334380D01*
X155852857Y-71382000D01*
X155948095Y-71477238D01*
X155995714Y-71572476D01*
X156043333Y-71762952D01*
X156043333Y-71905809D01*
X155995714Y-72096285D01*
X155948095Y-72191523D01*
X155852857Y-72286761D01*
X155710000Y-72334380D01*
X155471904Y-72334380D01*
X156424285Y-71429619D02*
X156471904Y-71382000D01*
X156567142Y-71334380D01*
X156805238Y-71334380D01*
X156900476Y-71382000D01*
X156948095Y-71429619D01*
X156995714Y-71524857D01*
X156995714Y-71620095D01*
X156948095Y-71762952D01*
X156376666Y-72334380D01*
X156995714Y-72334380D01*
X146351666Y-69937380D02*
X146351666Y-70651666D01*
X146304047Y-70794523D01*
X146208809Y-70889761D01*
X146065952Y-70937380D01*
X145970714Y-70937380D01*
X147351666Y-70937380D02*
X146780238Y-70937380D01*
X147065952Y-70937380D02*
X147065952Y-69937380D01*
X146970714Y-70080238D01*
X146875476Y-70175476D01*
X146780238Y-70223095D01*
X138346380Y-77549333D02*
X139060666Y-77549333D01*
X139203523Y-77596952D01*
X139298761Y-77692190D01*
X139346380Y-77835047D01*
X139346380Y-77930285D01*
X138441619Y-77120761D02*
X138394000Y-77073142D01*
X138346380Y-76977904D01*
X138346380Y-76739809D01*
X138394000Y-76644571D01*
X138441619Y-76596952D01*
X138536857Y-76549333D01*
X138632095Y-76549333D01*
X138774952Y-76596952D01*
X139346380Y-77168380D01*
X139346380Y-76549333D01*
X152868380Y-93805333D02*
X153582666Y-93805333D01*
X153725523Y-93852952D01*
X153820761Y-93948190D01*
X153868380Y-94091047D01*
X153868380Y-94186285D01*
X152868380Y-93424380D02*
X152868380Y-92805333D01*
X153249333Y-93138666D01*
X153249333Y-92995809D01*
X153296952Y-92900571D01*
X153344571Y-92852952D01*
X153439809Y-92805333D01*
X153677904Y-92805333D01*
X153773142Y-92852952D01*
X153820761Y-92900571D01*
X153868380Y-92995809D01*
X153868380Y-93281523D01*
X153820761Y-93376761D01*
X153773142Y-93424380D01*
X141271666Y-87507380D02*
X141271666Y-88221666D01*
X141224047Y-88364523D01*
X141128809Y-88459761D01*
X140985952Y-88507380D01*
X140890714Y-88507380D01*
X142176428Y-87840714D02*
X142176428Y-88507380D01*
X141938333Y-87459761D02*
X141700238Y-88174047D01*
X142319285Y-88174047D01*
X148637666Y-116673380D02*
X148637666Y-117387666D01*
X148590047Y-117530523D01*
X148494809Y-117625761D01*
X148351952Y-117673380D01*
X148256714Y-117673380D01*
X149590047Y-116673380D02*
X149113857Y-116673380D01*
X149066238Y-117149571D01*
X149113857Y-117101952D01*
X149209095Y-117054333D01*
X149447190Y-117054333D01*
X149542428Y-117101952D01*
X149590047Y-117149571D01*
X149637666Y-117244809D01*
X149637666Y-117482904D01*
X149590047Y-117578142D01*
X149542428Y-117625761D01*
X149447190Y-117673380D01*
X149209095Y-117673380D01*
X149113857Y-117625761D01*
X149066238Y-117578142D01*
X156876761Y-74715619D02*
X156781523Y-74668000D01*
X156686285Y-74572761D01*
X156543428Y-74429904D01*
X156448190Y-74382285D01*
X156352952Y-74382285D01*
X156400571Y-74620380D02*
X156305333Y-74572761D01*
X156210095Y-74477523D01*
X156162476Y-74287047D01*
X156162476Y-73953714D01*
X156210095Y-73763238D01*
X156305333Y-73668000D01*
X156400571Y-73620380D01*
X156591047Y-73620380D01*
X156686285Y-73668000D01*
X156781523Y-73763238D01*
X156829142Y-73953714D01*
X156829142Y-74287047D01*
X156781523Y-74477523D01*
X156686285Y-74572761D01*
X156591047Y-74620380D01*
X156400571Y-74620380D01*
X157781523Y-74620380D02*
X157210095Y-74620380D01*
X157495809Y-74620380D02*
X157495809Y-73620380D01*
X157400571Y-73763238D01*
X157305333Y-73858476D01*
X157210095Y-73906095D01*
X158329333Y-90368380D02*
X157996000Y-89892190D01*
X157757904Y-90368380D02*
X157757904Y-89368380D01*
X158138857Y-89368380D01*
X158234095Y-89416000D01*
X158281714Y-89463619D01*
X158329333Y-89558857D01*
X158329333Y-89701714D01*
X158281714Y-89796952D01*
X158234095Y-89844571D01*
X158138857Y-89892190D01*
X157757904Y-89892190D01*
X159281714Y-90368380D02*
X158710285Y-90368380D01*
X158996000Y-90368380D02*
X158996000Y-89368380D01*
X158900761Y-89511238D01*
X158805523Y-89606476D01*
X158710285Y-89654095D01*
X159964380Y-88558666D02*
X159488190Y-88892000D01*
X159964380Y-89130095D02*
X158964380Y-89130095D01*
X158964380Y-88749142D01*
X159012000Y-88653904D01*
X159059619Y-88606285D01*
X159154857Y-88558666D01*
X159297714Y-88558666D01*
X159392952Y-88606285D01*
X159440571Y-88653904D01*
X159488190Y-88749142D01*
X159488190Y-89130095D01*
X159059619Y-88177714D02*
X159012000Y-88130095D01*
X158964380Y-88034857D01*
X158964380Y-87796761D01*
X159012000Y-87701523D01*
X159059619Y-87653904D01*
X159154857Y-87606285D01*
X159250095Y-87606285D01*
X159392952Y-87653904D01*
X159964380Y-88225333D01*
X159964380Y-87606285D01*
X141930380Y-96432666D02*
X141454190Y-96766000D01*
X141930380Y-97004095D02*
X140930380Y-97004095D01*
X140930380Y-96623142D01*
X140978000Y-96527904D01*
X141025619Y-96480285D01*
X141120857Y-96432666D01*
X141263714Y-96432666D01*
X141358952Y-96480285D01*
X141406571Y-96527904D01*
X141454190Y-96623142D01*
X141454190Y-97004095D01*
X140930380Y-96099333D02*
X140930380Y-95480285D01*
X141311333Y-95813619D01*
X141311333Y-95670761D01*
X141358952Y-95575523D01*
X141406571Y-95527904D01*
X141501809Y-95480285D01*
X141739904Y-95480285D01*
X141835142Y-95527904D01*
X141882761Y-95575523D01*
X141930380Y-95670761D01*
X141930380Y-95956476D01*
X141882761Y-96051714D01*
X141835142Y-96099333D01*
X155789333Y-91258380D02*
X155456000Y-90782190D01*
X155217904Y-91258380D02*
X155217904Y-90258380D01*
X155598857Y-90258380D01*
X155694095Y-90306000D01*
X155741714Y-90353619D01*
X155789333Y-90448857D01*
X155789333Y-90591714D01*
X155741714Y-90686952D01*
X155694095Y-90734571D01*
X155598857Y-90782190D01*
X155217904Y-90782190D01*
X156646476Y-90591714D02*
X156646476Y-91258380D01*
X156408380Y-90210761D02*
X156170285Y-90925047D01*
X156789333Y-90925047D01*
X155281333Y-83764380D02*
X154948000Y-83288190D01*
X154709904Y-83764380D02*
X154709904Y-82764380D01*
X155090857Y-82764380D01*
X155186095Y-82812000D01*
X155233714Y-82859619D01*
X155281333Y-82954857D01*
X155281333Y-83097714D01*
X155233714Y-83192952D01*
X155186095Y-83240571D01*
X155090857Y-83288190D01*
X154709904Y-83288190D01*
X156186095Y-82764380D02*
X155709904Y-82764380D01*
X155662285Y-83240571D01*
X155709904Y-83192952D01*
X155805142Y-83145333D01*
X156043238Y-83145333D01*
X156138476Y-83192952D01*
X156186095Y-83240571D01*
X156233714Y-83335809D01*
X156233714Y-83573904D01*
X156186095Y-83669142D01*
X156138476Y-83716761D01*
X156043238Y-83764380D01*
X155805142Y-83764380D01*
X155709904Y-83716761D01*
X155662285Y-83669142D01*
X147661333Y-75000380D02*
X147328000Y-74524190D01*
X147089904Y-75000380D02*
X147089904Y-74000380D01*
X147470857Y-74000380D01*
X147566095Y-74048000D01*
X147613714Y-74095619D01*
X147661333Y-74190857D01*
X147661333Y-74333714D01*
X147613714Y-74428952D01*
X147566095Y-74476571D01*
X147470857Y-74524190D01*
X147089904Y-74524190D01*
X148518476Y-74000380D02*
X148328000Y-74000380D01*
X148232761Y-74048000D01*
X148185142Y-74095619D01*
X148089904Y-74238476D01*
X148042285Y-74428952D01*
X148042285Y-74809904D01*
X148089904Y-74905142D01*
X148137523Y-74952761D01*
X148232761Y-75000380D01*
X148423238Y-75000380D01*
X148518476Y-74952761D01*
X148566095Y-74905142D01*
X148613714Y-74809904D01*
X148613714Y-74571809D01*
X148566095Y-74476571D01*
X148518476Y-74428952D01*
X148423238Y-74381333D01*
X148232761Y-74381333D01*
X148137523Y-74428952D01*
X148089904Y-74476571D01*
X148042285Y-74571809D01*
X148463095Y-92742380D02*
X148463095Y-93551904D01*
X148510714Y-93647142D01*
X148558333Y-93694761D01*
X148653571Y-93742380D01*
X148844047Y-93742380D01*
X148939285Y-93694761D01*
X148986904Y-93647142D01*
X149034523Y-93551904D01*
X149034523Y-92742380D01*
X150034523Y-93742380D02*
X149463095Y-93742380D01*
X149748809Y-93742380D02*
X149748809Y-92742380D01*
X149653571Y-92885238D01*
X149558333Y-92980476D01*
X149463095Y-93028095D01*
X148463095Y-78322380D02*
X148463095Y-79131904D01*
X148510714Y-79227142D01*
X148558333Y-79274761D01*
X148653571Y-79322380D01*
X148844047Y-79322380D01*
X148939285Y-79274761D01*
X148986904Y-79227142D01*
X149034523Y-79131904D01*
X149034523Y-78322380D01*
X149463095Y-78417619D02*
X149510714Y-78370000D01*
X149605952Y-78322380D01*
X149844047Y-78322380D01*
X149939285Y-78370000D01*
X149986904Y-78417619D01*
X150034523Y-78512857D01*
X150034523Y-78608095D01*
X149986904Y-78750952D01*
X149415476Y-79322380D01*
X150034523Y-79322380D01*
X156678333Y-79987142D02*
X156630714Y-80034761D01*
X156487857Y-80082380D01*
X156392619Y-80082380D01*
X156249761Y-80034761D01*
X156154523Y-79939523D01*
X156106904Y-79844285D01*
X156059285Y-79653809D01*
X156059285Y-79510952D01*
X156106904Y-79320476D01*
X156154523Y-79225238D01*
X156249761Y-79130000D01*
X156392619Y-79082380D01*
X156487857Y-79082380D01*
X156630714Y-79130000D01*
X156678333Y-79177619D01*
X157011666Y-79082380D02*
X157630714Y-79082380D01*
X157297380Y-79463333D01*
X157440238Y-79463333D01*
X157535476Y-79510952D01*
X157583095Y-79558571D01*
X157630714Y-79653809D01*
X157630714Y-79891904D01*
X157583095Y-79987142D01*
X157535476Y-80034761D01*
X157440238Y-80082380D01*
X157154523Y-80082380D01*
X157059285Y-80034761D01*
X157011666Y-79987142D01*
M02*
