G04 #@! TF.GenerationSoftware,KiCad,Pcbnew,(5.1.2)-2*
G04 #@! TF.CreationDate,2019-07-25T18:25:58-04:00*
G04 #@! TF.ProjectId,CABR_Schematic,43414252-5f53-4636-9865-6d617469632e,rev?*
G04 #@! TF.SameCoordinates,Original*
G04 #@! TF.FileFunction,Soldermask,Bot*
G04 #@! TF.FilePolarity,Negative*
%FSLAX46Y46*%
G04 Gerber Fmt 4.6, Leading zero omitted, Abs format (unit mm)*
G04 Created by KiCad (PCBNEW (5.1.2)-2) date 2019-07-25 18:25:58*
%MOMM*%
%LPD*%
G04 APERTURE LIST*
%ADD10C,0.100000*%
G04 APERTURE END LIST*
D10*
G36*
X146177943Y-104254248D02*
G01*
X146733189Y-104484238D01*
X146733190Y-104484239D01*
X147232899Y-104818134D01*
X147657866Y-105243101D01*
X147657867Y-105243103D01*
X147991762Y-105742811D01*
X148221752Y-106298057D01*
X148339000Y-106887501D01*
X148339000Y-107488499D01*
X148221752Y-108077943D01*
X147991762Y-108633189D01*
X147991761Y-108633190D01*
X147657866Y-109132899D01*
X147232899Y-109557866D01*
X146981347Y-109725948D01*
X146733189Y-109891762D01*
X146177943Y-110121752D01*
X145588499Y-110239000D01*
X144987501Y-110239000D01*
X144398057Y-110121752D01*
X143842811Y-109891762D01*
X143594653Y-109725948D01*
X143343101Y-109557866D01*
X142918134Y-109132899D01*
X142584239Y-108633190D01*
X142584238Y-108633189D01*
X142354248Y-108077943D01*
X142237000Y-107488499D01*
X142237000Y-106887501D01*
X142354248Y-106298057D01*
X142584238Y-105742811D01*
X142918133Y-105243103D01*
X142918134Y-105243101D01*
X143343101Y-104818134D01*
X143842810Y-104484239D01*
X143842811Y-104484238D01*
X144398057Y-104254248D01*
X144987501Y-104137000D01*
X145588499Y-104137000D01*
X146177943Y-104254248D01*
X146177943Y-104254248D01*
G37*
G36*
X153677943Y-104254248D02*
G01*
X154233189Y-104484238D01*
X154233190Y-104484239D01*
X154732899Y-104818134D01*
X155157866Y-105243101D01*
X155157867Y-105243103D01*
X155491762Y-105742811D01*
X155721752Y-106298057D01*
X155839000Y-106887501D01*
X155839000Y-107488499D01*
X155721752Y-108077943D01*
X155491762Y-108633189D01*
X155491761Y-108633190D01*
X155157866Y-109132899D01*
X154732899Y-109557866D01*
X154481347Y-109725948D01*
X154233189Y-109891762D01*
X153677943Y-110121752D01*
X153088499Y-110239000D01*
X152487501Y-110239000D01*
X151898057Y-110121752D01*
X151342811Y-109891762D01*
X151094653Y-109725948D01*
X150843101Y-109557866D01*
X150418134Y-109132899D01*
X150084239Y-108633190D01*
X150084238Y-108633189D01*
X149854248Y-108077943D01*
X149737000Y-107488499D01*
X149737000Y-106887501D01*
X149854248Y-106298057D01*
X150084238Y-105742811D01*
X150418133Y-105243103D01*
X150418134Y-105243101D01*
X150843101Y-104818134D01*
X151342810Y-104484239D01*
X151342811Y-104484238D01*
X151898057Y-104254248D01*
X152487501Y-104137000D01*
X153088499Y-104137000D01*
X153677943Y-104254248D01*
X153677943Y-104254248D01*
G37*
G36*
X146795442Y-89910518D02*
G01*
X146861627Y-89917037D01*
X147031466Y-89968557D01*
X147187991Y-90052222D01*
X147223729Y-90081552D01*
X147325186Y-90164814D01*
X147408448Y-90266271D01*
X147437778Y-90302009D01*
X147521443Y-90458534D01*
X147572963Y-90628373D01*
X147590359Y-90805000D01*
X147572963Y-90981627D01*
X147521443Y-91151466D01*
X147437778Y-91307991D01*
X147408448Y-91343729D01*
X147325186Y-91445186D01*
X147223729Y-91528448D01*
X147187991Y-91557778D01*
X147031466Y-91641443D01*
X146861627Y-91692963D01*
X146795442Y-91699482D01*
X146729260Y-91706000D01*
X146640740Y-91706000D01*
X146574558Y-91699482D01*
X146508373Y-91692963D01*
X146338534Y-91641443D01*
X146182009Y-91557778D01*
X146146271Y-91528448D01*
X146044814Y-91445186D01*
X145961552Y-91343729D01*
X145932222Y-91307991D01*
X145848557Y-91151466D01*
X145797037Y-90981627D01*
X145779641Y-90805000D01*
X145797037Y-90628373D01*
X145848557Y-90458534D01*
X145932222Y-90302009D01*
X145961552Y-90266271D01*
X146044814Y-90164814D01*
X146146271Y-90081552D01*
X146182009Y-90052222D01*
X146338534Y-89968557D01*
X146508373Y-89917037D01*
X146574558Y-89910518D01*
X146640740Y-89904000D01*
X146729260Y-89904000D01*
X146795442Y-89910518D01*
X146795442Y-89910518D01*
G37*
G36*
X151875442Y-89910518D02*
G01*
X151941627Y-89917037D01*
X152111466Y-89968557D01*
X152267991Y-90052222D01*
X152303729Y-90081552D01*
X152405186Y-90164814D01*
X152488448Y-90266271D01*
X152517778Y-90302009D01*
X152601443Y-90458534D01*
X152652963Y-90628373D01*
X152670359Y-90805000D01*
X152652963Y-90981627D01*
X152601443Y-91151466D01*
X152517778Y-91307991D01*
X152488448Y-91343729D01*
X152405186Y-91445186D01*
X152303729Y-91528448D01*
X152267991Y-91557778D01*
X152111466Y-91641443D01*
X151941627Y-91692963D01*
X151875442Y-91699482D01*
X151809260Y-91706000D01*
X151720740Y-91706000D01*
X151654558Y-91699482D01*
X151588373Y-91692963D01*
X151418534Y-91641443D01*
X151262009Y-91557778D01*
X151226271Y-91528448D01*
X151124814Y-91445186D01*
X151041552Y-91343729D01*
X151012222Y-91307991D01*
X150928557Y-91151466D01*
X150877037Y-90981627D01*
X150859641Y-90805000D01*
X150877037Y-90628373D01*
X150928557Y-90458534D01*
X151012222Y-90302009D01*
X151041552Y-90266271D01*
X151124814Y-90164814D01*
X151226271Y-90081552D01*
X151262009Y-90052222D01*
X151418534Y-89968557D01*
X151588373Y-89917037D01*
X151654558Y-89910518D01*
X151720740Y-89904000D01*
X151809260Y-89904000D01*
X151875442Y-89910518D01*
X151875442Y-89910518D01*
G37*
G36*
X149335442Y-89910518D02*
G01*
X149401627Y-89917037D01*
X149571466Y-89968557D01*
X149727991Y-90052222D01*
X149763729Y-90081552D01*
X149865186Y-90164814D01*
X149948448Y-90266271D01*
X149977778Y-90302009D01*
X150061443Y-90458534D01*
X150112963Y-90628373D01*
X150130359Y-90805000D01*
X150112963Y-90981627D01*
X150061443Y-91151466D01*
X149977778Y-91307991D01*
X149948448Y-91343729D01*
X149865186Y-91445186D01*
X149763729Y-91528448D01*
X149727991Y-91557778D01*
X149571466Y-91641443D01*
X149401627Y-91692963D01*
X149335442Y-91699482D01*
X149269260Y-91706000D01*
X149180740Y-91706000D01*
X149114558Y-91699482D01*
X149048373Y-91692963D01*
X148878534Y-91641443D01*
X148722009Y-91557778D01*
X148686271Y-91528448D01*
X148584814Y-91445186D01*
X148501552Y-91343729D01*
X148472222Y-91307991D01*
X148388557Y-91151466D01*
X148337037Y-90981627D01*
X148319641Y-90805000D01*
X148337037Y-90628373D01*
X148388557Y-90458534D01*
X148472222Y-90302009D01*
X148501552Y-90266271D01*
X148584814Y-90164814D01*
X148686271Y-90081552D01*
X148722009Y-90052222D01*
X148878534Y-89968557D01*
X149048373Y-89917037D01*
X149114558Y-89910518D01*
X149180740Y-89904000D01*
X149269260Y-89904000D01*
X149335442Y-89910518D01*
X149335442Y-89910518D01*
G37*
G36*
X152666000Y-89166000D02*
G01*
X150864000Y-89166000D01*
X150864000Y-87364000D01*
X152666000Y-87364000D01*
X152666000Y-89166000D01*
X152666000Y-89166000D01*
G37*
G36*
X149335443Y-87370519D02*
G01*
X149401627Y-87377037D01*
X149571466Y-87428557D01*
X149727991Y-87512222D01*
X149763729Y-87541552D01*
X149865186Y-87624814D01*
X149948448Y-87726271D01*
X149977778Y-87762009D01*
X150061443Y-87918534D01*
X150112963Y-88088373D01*
X150130359Y-88265000D01*
X150112963Y-88441627D01*
X150061443Y-88611466D01*
X149977778Y-88767991D01*
X149948448Y-88803729D01*
X149865186Y-88905186D01*
X149763729Y-88988448D01*
X149727991Y-89017778D01*
X149571466Y-89101443D01*
X149401627Y-89152963D01*
X149335443Y-89159481D01*
X149269260Y-89166000D01*
X149180740Y-89166000D01*
X149114557Y-89159481D01*
X149048373Y-89152963D01*
X148878534Y-89101443D01*
X148722009Y-89017778D01*
X148686271Y-88988448D01*
X148584814Y-88905186D01*
X148501552Y-88803729D01*
X148472222Y-88767991D01*
X148388557Y-88611466D01*
X148337037Y-88441627D01*
X148319641Y-88265000D01*
X148337037Y-88088373D01*
X148388557Y-87918534D01*
X148472222Y-87762009D01*
X148501552Y-87726271D01*
X148584814Y-87624814D01*
X148686271Y-87541552D01*
X148722009Y-87512222D01*
X148878534Y-87428557D01*
X149048373Y-87377037D01*
X149114557Y-87370519D01*
X149180740Y-87364000D01*
X149269260Y-87364000D01*
X149335443Y-87370519D01*
X149335443Y-87370519D01*
G37*
G36*
X146795443Y-87370519D02*
G01*
X146861627Y-87377037D01*
X147031466Y-87428557D01*
X147187991Y-87512222D01*
X147223729Y-87541552D01*
X147325186Y-87624814D01*
X147408448Y-87726271D01*
X147437778Y-87762009D01*
X147521443Y-87918534D01*
X147572963Y-88088373D01*
X147590359Y-88265000D01*
X147572963Y-88441627D01*
X147521443Y-88611466D01*
X147437778Y-88767991D01*
X147408448Y-88803729D01*
X147325186Y-88905186D01*
X147223729Y-88988448D01*
X147187991Y-89017778D01*
X147031466Y-89101443D01*
X146861627Y-89152963D01*
X146795443Y-89159481D01*
X146729260Y-89166000D01*
X146640740Y-89166000D01*
X146574557Y-89159481D01*
X146508373Y-89152963D01*
X146338534Y-89101443D01*
X146182009Y-89017778D01*
X146146271Y-88988448D01*
X146044814Y-88905186D01*
X145961552Y-88803729D01*
X145932222Y-88767991D01*
X145848557Y-88611466D01*
X145797037Y-88441627D01*
X145779641Y-88265000D01*
X145797037Y-88088373D01*
X145848557Y-87918534D01*
X145932222Y-87762009D01*
X145961552Y-87726271D01*
X146044814Y-87624814D01*
X146146271Y-87541552D01*
X146182009Y-87512222D01*
X146338534Y-87428557D01*
X146508373Y-87377037D01*
X146574557Y-87370519D01*
X146640740Y-87364000D01*
X146729260Y-87364000D01*
X146795443Y-87370519D01*
X146795443Y-87370519D01*
G37*
G36*
X142506000Y-86626000D02*
G01*
X140704000Y-86626000D01*
X140704000Y-84824000D01*
X142506000Y-84824000D01*
X142506000Y-86626000D01*
X142506000Y-86626000D01*
G37*
G36*
X141715443Y-82290519D02*
G01*
X141781627Y-82297037D01*
X141951466Y-82348557D01*
X142107991Y-82432222D01*
X142143729Y-82461552D01*
X142245186Y-82544814D01*
X142328448Y-82646271D01*
X142357778Y-82682009D01*
X142441443Y-82838534D01*
X142492963Y-83008373D01*
X142510359Y-83185000D01*
X142492963Y-83361627D01*
X142441443Y-83531466D01*
X142357778Y-83687991D01*
X142328448Y-83723729D01*
X142245186Y-83825186D01*
X142143729Y-83908448D01*
X142107991Y-83937778D01*
X141951466Y-84021443D01*
X141781627Y-84072963D01*
X141715443Y-84079481D01*
X141649260Y-84086000D01*
X141560740Y-84086000D01*
X141494557Y-84079481D01*
X141428373Y-84072963D01*
X141258534Y-84021443D01*
X141102009Y-83937778D01*
X141066271Y-83908448D01*
X140964814Y-83825186D01*
X140881552Y-83723729D01*
X140852222Y-83687991D01*
X140768557Y-83531466D01*
X140717037Y-83361627D01*
X140699641Y-83185000D01*
X140717037Y-83008373D01*
X140768557Y-82838534D01*
X140852222Y-82682009D01*
X140881552Y-82646271D01*
X140964814Y-82544814D01*
X141066271Y-82461552D01*
X141102009Y-82432222D01*
X141258534Y-82348557D01*
X141428373Y-82297037D01*
X141494557Y-82290519D01*
X141560740Y-82284000D01*
X141649260Y-82284000D01*
X141715443Y-82290519D01*
X141715443Y-82290519D01*
G37*
G36*
X146414442Y-76321518D02*
G01*
X146480627Y-76328037D01*
X146650466Y-76379557D01*
X146806991Y-76463222D01*
X146842729Y-76492552D01*
X146944186Y-76575814D01*
X147027448Y-76677271D01*
X147056778Y-76713009D01*
X147140443Y-76869534D01*
X147191963Y-77039373D01*
X147209359Y-77216000D01*
X147191963Y-77392627D01*
X147140443Y-77562466D01*
X147056778Y-77718991D01*
X147027448Y-77754729D01*
X146944186Y-77856186D01*
X146842729Y-77939448D01*
X146806991Y-77968778D01*
X146650466Y-78052443D01*
X146480627Y-78103963D01*
X146414442Y-78110482D01*
X146348260Y-78117000D01*
X146259740Y-78117000D01*
X146193558Y-78110482D01*
X146127373Y-78103963D01*
X145957534Y-78052443D01*
X145801009Y-77968778D01*
X145765271Y-77939448D01*
X145663814Y-77856186D01*
X145580552Y-77754729D01*
X145551222Y-77718991D01*
X145467557Y-77562466D01*
X145416037Y-77392627D01*
X145398641Y-77216000D01*
X145416037Y-77039373D01*
X145467557Y-76869534D01*
X145551222Y-76713009D01*
X145580552Y-76677271D01*
X145663814Y-76575814D01*
X145765271Y-76492552D01*
X145801009Y-76463222D01*
X145957534Y-76379557D01*
X146127373Y-76328037D01*
X146193558Y-76321518D01*
X146259740Y-76315000D01*
X146348260Y-76315000D01*
X146414442Y-76321518D01*
X146414442Y-76321518D01*
G37*
G36*
X143874442Y-76321518D02*
G01*
X143940627Y-76328037D01*
X144110466Y-76379557D01*
X144266991Y-76463222D01*
X144302729Y-76492552D01*
X144404186Y-76575814D01*
X144487448Y-76677271D01*
X144516778Y-76713009D01*
X144600443Y-76869534D01*
X144651963Y-77039373D01*
X144669359Y-77216000D01*
X144651963Y-77392627D01*
X144600443Y-77562466D01*
X144516778Y-77718991D01*
X144487448Y-77754729D01*
X144404186Y-77856186D01*
X144302729Y-77939448D01*
X144266991Y-77968778D01*
X144110466Y-78052443D01*
X143940627Y-78103963D01*
X143874442Y-78110482D01*
X143808260Y-78117000D01*
X143719740Y-78117000D01*
X143653558Y-78110482D01*
X143587373Y-78103963D01*
X143417534Y-78052443D01*
X143261009Y-77968778D01*
X143225271Y-77939448D01*
X143123814Y-77856186D01*
X143040552Y-77754729D01*
X143011222Y-77718991D01*
X142927557Y-77562466D01*
X142876037Y-77392627D01*
X142858641Y-77216000D01*
X142876037Y-77039373D01*
X142927557Y-76869534D01*
X143011222Y-76713009D01*
X143040552Y-76677271D01*
X143123814Y-76575814D01*
X143225271Y-76492552D01*
X143261009Y-76463222D01*
X143417534Y-76379557D01*
X143587373Y-76328037D01*
X143653558Y-76321518D01*
X143719740Y-76315000D01*
X143808260Y-76315000D01*
X143874442Y-76321518D01*
X143874442Y-76321518D01*
G37*
G36*
X142125000Y-78117000D02*
G01*
X140323000Y-78117000D01*
X140323000Y-76315000D01*
X142125000Y-76315000D01*
X142125000Y-78117000D01*
X142125000Y-78117000D01*
G37*
G36*
X146424943Y-62090248D02*
G01*
X146980189Y-62320238D01*
X146980190Y-62320239D01*
X147479899Y-62654134D01*
X147904866Y-63079101D01*
X147904867Y-63079103D01*
X148238762Y-63578811D01*
X148468752Y-64134057D01*
X148586000Y-64723501D01*
X148586000Y-65324499D01*
X148468752Y-65913943D01*
X148238762Y-66469189D01*
X148238761Y-66469190D01*
X147904866Y-66968899D01*
X147479899Y-67393866D01*
X147228347Y-67561948D01*
X146980189Y-67727762D01*
X146424943Y-67957752D01*
X145835499Y-68075000D01*
X145234501Y-68075000D01*
X144645057Y-67957752D01*
X144089811Y-67727762D01*
X143841653Y-67561948D01*
X143590101Y-67393866D01*
X143165134Y-66968899D01*
X142831239Y-66469190D01*
X142831238Y-66469189D01*
X142601248Y-65913943D01*
X142484000Y-65324499D01*
X142484000Y-64723501D01*
X142601248Y-64134057D01*
X142831238Y-63578811D01*
X143165133Y-63079103D01*
X143165134Y-63079101D01*
X143590101Y-62654134D01*
X144089810Y-62320239D01*
X144089811Y-62320238D01*
X144645057Y-62090248D01*
X145234501Y-61973000D01*
X145835499Y-61973000D01*
X146424943Y-62090248D01*
X146424943Y-62090248D01*
G37*
G36*
X153924943Y-62090248D02*
G01*
X154480189Y-62320238D01*
X154480190Y-62320239D01*
X154979899Y-62654134D01*
X155404866Y-63079101D01*
X155404867Y-63079103D01*
X155738762Y-63578811D01*
X155968752Y-64134057D01*
X156086000Y-64723501D01*
X156086000Y-65324499D01*
X155968752Y-65913943D01*
X155738762Y-66469189D01*
X155738761Y-66469190D01*
X155404866Y-66968899D01*
X154979899Y-67393866D01*
X154728347Y-67561948D01*
X154480189Y-67727762D01*
X153924943Y-67957752D01*
X153335499Y-68075000D01*
X152734501Y-68075000D01*
X152145057Y-67957752D01*
X151589811Y-67727762D01*
X151341653Y-67561948D01*
X151090101Y-67393866D01*
X150665134Y-66968899D01*
X150331239Y-66469190D01*
X150331238Y-66469189D01*
X150101248Y-65913943D01*
X149984000Y-65324499D01*
X149984000Y-64723501D01*
X150101248Y-64134057D01*
X150331238Y-63578811D01*
X150665133Y-63079103D01*
X150665134Y-63079101D01*
X151090101Y-62654134D01*
X151589810Y-62320239D01*
X151589811Y-62320238D01*
X152145057Y-62090248D01*
X152734501Y-61973000D01*
X153335499Y-61973000D01*
X153924943Y-62090248D01*
X153924943Y-62090248D01*
G37*
M02*
