G04 #@! TF.GenerationSoftware,KiCad,Pcbnew,(5.1.2)-2*
G04 #@! TF.CreationDate,2019-07-25T16:59:57-04:00*
G04 #@! TF.ProjectId,CABR_Schematic,43414252-5f53-4636-9865-6d617469632e,rev?*
G04 #@! TF.SameCoordinates,Original*
G04 #@! TF.FileFunction,Soldermask,Top*
G04 #@! TF.FilePolarity,Negative*
%FSLAX46Y46*%
G04 Gerber Fmt 4.6, Leading zero omitted, Abs format (unit mm)*
G04 Created by KiCad (PCBNEW (5.1.2)-2) date 2019-07-25 16:59:57*
%MOMM*%
%LPD*%
G04 APERTURE LIST*
%ADD10C,0.100000*%
G04 APERTURE END LIST*
D10*
G36*
X153804943Y-108191248D02*
G01*
X154360189Y-108421238D01*
X154360190Y-108421239D01*
X154859899Y-108755134D01*
X155284866Y-109180101D01*
X155284867Y-109180103D01*
X155618762Y-109679811D01*
X155848752Y-110235057D01*
X155966000Y-110824501D01*
X155966000Y-111425499D01*
X155848752Y-112014943D01*
X155618762Y-112570189D01*
X155618761Y-112570190D01*
X155284866Y-113069899D01*
X154859899Y-113494866D01*
X154608347Y-113662948D01*
X154360189Y-113828762D01*
X153804943Y-114058752D01*
X153215499Y-114176000D01*
X152614501Y-114176000D01*
X152025057Y-114058752D01*
X151469811Y-113828762D01*
X151221653Y-113662948D01*
X150970101Y-113494866D01*
X150545134Y-113069899D01*
X150211239Y-112570190D01*
X150211238Y-112570189D01*
X149981248Y-112014943D01*
X149864000Y-111425499D01*
X149864000Y-110824501D01*
X149981248Y-110235057D01*
X150211238Y-109679811D01*
X150545133Y-109180103D01*
X150545134Y-109180101D01*
X150970101Y-108755134D01*
X151469810Y-108421239D01*
X151469811Y-108421238D01*
X152025057Y-108191248D01*
X152614501Y-108074000D01*
X153215499Y-108074000D01*
X153804943Y-108191248D01*
X153804943Y-108191248D01*
G37*
G36*
X146304943Y-108191248D02*
G01*
X146860189Y-108421238D01*
X146860190Y-108421239D01*
X147359899Y-108755134D01*
X147784866Y-109180101D01*
X147784867Y-109180103D01*
X148118762Y-109679811D01*
X148348752Y-110235057D01*
X148466000Y-110824501D01*
X148466000Y-111425499D01*
X148348752Y-112014943D01*
X148118762Y-112570189D01*
X148118761Y-112570190D01*
X147784866Y-113069899D01*
X147359899Y-113494866D01*
X147108347Y-113662948D01*
X146860189Y-113828762D01*
X146304943Y-114058752D01*
X145715499Y-114176000D01*
X145114501Y-114176000D01*
X144525057Y-114058752D01*
X143969811Y-113828762D01*
X143721653Y-113662948D01*
X143470101Y-113494866D01*
X143045134Y-113069899D01*
X142711239Y-112570190D01*
X142711238Y-112570189D01*
X142481248Y-112014943D01*
X142364000Y-111425499D01*
X142364000Y-110824501D01*
X142481248Y-110235057D01*
X142711238Y-109679811D01*
X143045133Y-109180103D01*
X143045134Y-109180101D01*
X143470101Y-108755134D01*
X143969810Y-108421239D01*
X143969811Y-108421238D01*
X144525057Y-108191248D01*
X145114501Y-108074000D01*
X145715499Y-108074000D01*
X146304943Y-108191248D01*
X146304943Y-108191248D01*
G37*
G36*
X143840468Y-99971565D02*
G01*
X143879138Y-99983296D01*
X143914777Y-100002346D01*
X143946017Y-100027983D01*
X143971654Y-100059223D01*
X143990704Y-100094862D01*
X144002435Y-100133532D01*
X144007000Y-100179888D01*
X144007000Y-100831112D01*
X144002435Y-100877468D01*
X143990704Y-100916138D01*
X143971654Y-100951777D01*
X143946017Y-100983017D01*
X143914777Y-101008654D01*
X143879138Y-101027704D01*
X143840468Y-101039435D01*
X143794112Y-101044000D01*
X142717888Y-101044000D01*
X142671532Y-101039435D01*
X142632862Y-101027704D01*
X142597223Y-101008654D01*
X142565983Y-100983017D01*
X142540346Y-100951777D01*
X142521296Y-100916138D01*
X142509565Y-100877468D01*
X142505000Y-100831112D01*
X142505000Y-100179888D01*
X142509565Y-100133532D01*
X142521296Y-100094862D01*
X142540346Y-100059223D01*
X142565983Y-100027983D01*
X142597223Y-100002346D01*
X142632862Y-99983296D01*
X142671532Y-99971565D01*
X142717888Y-99967000D01*
X143794112Y-99967000D01*
X143840468Y-99971565D01*
X143840468Y-99971565D01*
G37*
G36*
X147126000Y-100891000D02*
G01*
X145024000Y-100891000D01*
X145024000Y-99289000D01*
X147126000Y-99289000D01*
X147126000Y-100891000D01*
X147126000Y-100891000D01*
G37*
G36*
X153426000Y-99741000D02*
G01*
X151324000Y-99741000D01*
X151324000Y-95839000D01*
X153426000Y-95839000D01*
X153426000Y-99741000D01*
X153426000Y-99741000D01*
G37*
G36*
X155778468Y-98193565D02*
G01*
X155817138Y-98205296D01*
X155852777Y-98224346D01*
X155884017Y-98249983D01*
X155909654Y-98281223D01*
X155928704Y-98316862D01*
X155940435Y-98355532D01*
X155945000Y-98401888D01*
X155945000Y-99053112D01*
X155940435Y-99099468D01*
X155928704Y-99138138D01*
X155909654Y-99173777D01*
X155884017Y-99205017D01*
X155852777Y-99230654D01*
X155817138Y-99249704D01*
X155778468Y-99261435D01*
X155732112Y-99266000D01*
X154655888Y-99266000D01*
X154609532Y-99261435D01*
X154570862Y-99249704D01*
X154535223Y-99230654D01*
X154503983Y-99205017D01*
X154478346Y-99173777D01*
X154459296Y-99138138D01*
X154447565Y-99099468D01*
X154443000Y-99053112D01*
X154443000Y-98401888D01*
X154447565Y-98355532D01*
X154459296Y-98316862D01*
X154478346Y-98281223D01*
X154503983Y-98249983D01*
X154535223Y-98224346D01*
X154570862Y-98205296D01*
X154609532Y-98193565D01*
X154655888Y-98189000D01*
X155732112Y-98189000D01*
X155778468Y-98193565D01*
X155778468Y-98193565D01*
G37*
G36*
X143840468Y-98096565D02*
G01*
X143879138Y-98108296D01*
X143914777Y-98127346D01*
X143946017Y-98152983D01*
X143971654Y-98184223D01*
X143990704Y-98219862D01*
X144002435Y-98258532D01*
X144007000Y-98304888D01*
X144007000Y-98956112D01*
X144002435Y-99002468D01*
X143990704Y-99041138D01*
X143971654Y-99076777D01*
X143946017Y-99108017D01*
X143914777Y-99133654D01*
X143879138Y-99152704D01*
X143840468Y-99164435D01*
X143794112Y-99169000D01*
X142717888Y-99169000D01*
X142671532Y-99164435D01*
X142632862Y-99152704D01*
X142597223Y-99133654D01*
X142565983Y-99108017D01*
X142540346Y-99076777D01*
X142521296Y-99041138D01*
X142509565Y-99002468D01*
X142505000Y-98956112D01*
X142505000Y-98304888D01*
X142509565Y-98258532D01*
X142521296Y-98219862D01*
X142540346Y-98184223D01*
X142565983Y-98152983D01*
X142597223Y-98127346D01*
X142632862Y-98108296D01*
X142671532Y-98096565D01*
X142717888Y-98092000D01*
X143794112Y-98092000D01*
X143840468Y-98096565D01*
X143840468Y-98096565D01*
G37*
G36*
X147126000Y-98591000D02*
G01*
X145024000Y-98591000D01*
X145024000Y-96989000D01*
X147126000Y-96989000D01*
X147126000Y-98591000D01*
X147126000Y-98591000D01*
G37*
G36*
X155778468Y-96318565D02*
G01*
X155817138Y-96330296D01*
X155852777Y-96349346D01*
X155884017Y-96374983D01*
X155909654Y-96406223D01*
X155928704Y-96441862D01*
X155940435Y-96480532D01*
X155945000Y-96526888D01*
X155945000Y-97178112D01*
X155940435Y-97224468D01*
X155928704Y-97263138D01*
X155909654Y-97298777D01*
X155884017Y-97330017D01*
X155852777Y-97355654D01*
X155817138Y-97374704D01*
X155778468Y-97386435D01*
X155732112Y-97391000D01*
X154655888Y-97391000D01*
X154609532Y-97386435D01*
X154570862Y-97374704D01*
X154535223Y-97355654D01*
X154503983Y-97330017D01*
X154478346Y-97298777D01*
X154459296Y-97263138D01*
X154447565Y-97224468D01*
X154443000Y-97178112D01*
X154443000Y-96526888D01*
X154447565Y-96480532D01*
X154459296Y-96441862D01*
X154478346Y-96406223D01*
X154503983Y-96374983D01*
X154535223Y-96349346D01*
X154570862Y-96330296D01*
X154609532Y-96318565D01*
X154655888Y-96314000D01*
X155732112Y-96314000D01*
X155778468Y-96318565D01*
X155778468Y-96318565D01*
G37*
G36*
X143840468Y-95907565D02*
G01*
X143879138Y-95919296D01*
X143914777Y-95938346D01*
X143946017Y-95963983D01*
X143971654Y-95995223D01*
X143990704Y-96030862D01*
X144002435Y-96069532D01*
X144007000Y-96115888D01*
X144007000Y-96767112D01*
X144002435Y-96813468D01*
X143990704Y-96852138D01*
X143971654Y-96887777D01*
X143946017Y-96919017D01*
X143914777Y-96944654D01*
X143879138Y-96963704D01*
X143840468Y-96975435D01*
X143794112Y-96980000D01*
X142717888Y-96980000D01*
X142671532Y-96975435D01*
X142632862Y-96963704D01*
X142597223Y-96944654D01*
X142565983Y-96919017D01*
X142540346Y-96887777D01*
X142521296Y-96852138D01*
X142509565Y-96813468D01*
X142505000Y-96767112D01*
X142505000Y-96115888D01*
X142509565Y-96069532D01*
X142521296Y-96030862D01*
X142540346Y-95995223D01*
X142565983Y-95963983D01*
X142597223Y-95938346D01*
X142632862Y-95919296D01*
X142671532Y-95907565D01*
X142717888Y-95903000D01*
X143794112Y-95903000D01*
X143840468Y-95907565D01*
X143840468Y-95907565D01*
G37*
G36*
X147126000Y-96291000D02*
G01*
X145024000Y-96291000D01*
X145024000Y-94689000D01*
X147126000Y-94689000D01*
X147126000Y-96291000D01*
X147126000Y-96291000D01*
G37*
G36*
X143840468Y-94032565D02*
G01*
X143879138Y-94044296D01*
X143914777Y-94063346D01*
X143946017Y-94088983D01*
X143971654Y-94120223D01*
X143990704Y-94155862D01*
X144002435Y-94194532D01*
X144007000Y-94240888D01*
X144007000Y-94892112D01*
X144002435Y-94938468D01*
X143990704Y-94977138D01*
X143971654Y-95012777D01*
X143946017Y-95044017D01*
X143914777Y-95069654D01*
X143879138Y-95088704D01*
X143840468Y-95100435D01*
X143794112Y-95105000D01*
X142717888Y-95105000D01*
X142671532Y-95100435D01*
X142632862Y-95088704D01*
X142597223Y-95069654D01*
X142565983Y-95044017D01*
X142540346Y-95012777D01*
X142521296Y-94977138D01*
X142509565Y-94938468D01*
X142505000Y-94892112D01*
X142505000Y-94240888D01*
X142509565Y-94194532D01*
X142521296Y-94155862D01*
X142540346Y-94120223D01*
X142565983Y-94088983D01*
X142597223Y-94063346D01*
X142632862Y-94044296D01*
X142671532Y-94032565D01*
X142717888Y-94028000D01*
X143794112Y-94028000D01*
X143840468Y-94032565D01*
X143840468Y-94032565D01*
G37*
G36*
X157265468Y-91709565D02*
G01*
X157304138Y-91721296D01*
X157339777Y-91740346D01*
X157371017Y-91765983D01*
X157396654Y-91797223D01*
X157415704Y-91832862D01*
X157427435Y-91871532D01*
X157432000Y-91917888D01*
X157432000Y-92994112D01*
X157427435Y-93040468D01*
X157415704Y-93079138D01*
X157396654Y-93114777D01*
X157371017Y-93146017D01*
X157339777Y-93171654D01*
X157304138Y-93190704D01*
X157265468Y-93202435D01*
X157219112Y-93207000D01*
X156567888Y-93207000D01*
X156521532Y-93202435D01*
X156482862Y-93190704D01*
X156447223Y-93171654D01*
X156415983Y-93146017D01*
X156390346Y-93114777D01*
X156371296Y-93079138D01*
X156359565Y-93040468D01*
X156355000Y-92994112D01*
X156355000Y-91917888D01*
X156359565Y-91871532D01*
X156371296Y-91832862D01*
X156390346Y-91797223D01*
X156415983Y-91765983D01*
X156447223Y-91740346D01*
X156482862Y-91721296D01*
X156521532Y-91709565D01*
X156567888Y-91705000D01*
X157219112Y-91705000D01*
X157265468Y-91709565D01*
X157265468Y-91709565D01*
G37*
G36*
X155390468Y-91709565D02*
G01*
X155429138Y-91721296D01*
X155464777Y-91740346D01*
X155496017Y-91765983D01*
X155521654Y-91797223D01*
X155540704Y-91832862D01*
X155552435Y-91871532D01*
X155557000Y-91917888D01*
X155557000Y-92994112D01*
X155552435Y-93040468D01*
X155540704Y-93079138D01*
X155521654Y-93114777D01*
X155496017Y-93146017D01*
X155464777Y-93171654D01*
X155429138Y-93190704D01*
X155390468Y-93202435D01*
X155344112Y-93207000D01*
X154692888Y-93207000D01*
X154646532Y-93202435D01*
X154607862Y-93190704D01*
X154572223Y-93171654D01*
X154540983Y-93146017D01*
X154515346Y-93114777D01*
X154496296Y-93079138D01*
X154484565Y-93040468D01*
X154480000Y-92994112D01*
X154480000Y-91917888D01*
X154484565Y-91871532D01*
X154496296Y-91832862D01*
X154515346Y-91797223D01*
X154540983Y-91765983D01*
X154572223Y-91740346D01*
X154607862Y-91721296D01*
X154646532Y-91709565D01*
X154692888Y-91705000D01*
X155344112Y-91705000D01*
X155390468Y-91709565D01*
X155390468Y-91709565D01*
G37*
G36*
X142824468Y-91765065D02*
G01*
X142863138Y-91776796D01*
X142898777Y-91795846D01*
X142930017Y-91821483D01*
X142955654Y-91852723D01*
X142974704Y-91888362D01*
X142986435Y-91927032D01*
X142991000Y-91973388D01*
X142991000Y-92624612D01*
X142986435Y-92670968D01*
X142974704Y-92709638D01*
X142955654Y-92745277D01*
X142930017Y-92776517D01*
X142898777Y-92802154D01*
X142863138Y-92821204D01*
X142824468Y-92832935D01*
X142778112Y-92837500D01*
X141701888Y-92837500D01*
X141655532Y-92832935D01*
X141616862Y-92821204D01*
X141581223Y-92802154D01*
X141549983Y-92776517D01*
X141524346Y-92745277D01*
X141505296Y-92709638D01*
X141493565Y-92670968D01*
X141489000Y-92624612D01*
X141489000Y-91973388D01*
X141493565Y-91927032D01*
X141505296Y-91888362D01*
X141524346Y-91852723D01*
X141549983Y-91821483D01*
X141581223Y-91795846D01*
X141616862Y-91776796D01*
X141655532Y-91765065D01*
X141701888Y-91760500D01*
X142778112Y-91760500D01*
X142824468Y-91765065D01*
X142824468Y-91765065D01*
G37*
G36*
X151875442Y-89910518D02*
G01*
X151941627Y-89917037D01*
X152111466Y-89968557D01*
X152267991Y-90052222D01*
X152303729Y-90081552D01*
X152405186Y-90164814D01*
X152488448Y-90266271D01*
X152517778Y-90302009D01*
X152601443Y-90458534D01*
X152652963Y-90628373D01*
X152670359Y-90805000D01*
X152652963Y-90981627D01*
X152601443Y-91151466D01*
X152517778Y-91307991D01*
X152488448Y-91343729D01*
X152405186Y-91445186D01*
X152303729Y-91528448D01*
X152267991Y-91557778D01*
X152111466Y-91641443D01*
X151941627Y-91692963D01*
X151875442Y-91699482D01*
X151809260Y-91706000D01*
X151720740Y-91706000D01*
X151654558Y-91699482D01*
X151588373Y-91692963D01*
X151418534Y-91641443D01*
X151262009Y-91557778D01*
X151226271Y-91528448D01*
X151124814Y-91445186D01*
X151041552Y-91343729D01*
X151012222Y-91307991D01*
X150928557Y-91151466D01*
X150877037Y-90981627D01*
X150859641Y-90805000D01*
X150877037Y-90628373D01*
X150928557Y-90458534D01*
X151012222Y-90302009D01*
X151041552Y-90266271D01*
X151124814Y-90164814D01*
X151226271Y-90081552D01*
X151262009Y-90052222D01*
X151418534Y-89968557D01*
X151588373Y-89917037D01*
X151654558Y-89910518D01*
X151720740Y-89904000D01*
X151809260Y-89904000D01*
X151875442Y-89910518D01*
X151875442Y-89910518D01*
G37*
G36*
X149335442Y-89910518D02*
G01*
X149401627Y-89917037D01*
X149571466Y-89968557D01*
X149727991Y-90052222D01*
X149763729Y-90081552D01*
X149865186Y-90164814D01*
X149948448Y-90266271D01*
X149977778Y-90302009D01*
X150061443Y-90458534D01*
X150112963Y-90628373D01*
X150130359Y-90805000D01*
X150112963Y-90981627D01*
X150061443Y-91151466D01*
X149977778Y-91307991D01*
X149948448Y-91343729D01*
X149865186Y-91445186D01*
X149763729Y-91528448D01*
X149727991Y-91557778D01*
X149571466Y-91641443D01*
X149401627Y-91692963D01*
X149335442Y-91699482D01*
X149269260Y-91706000D01*
X149180740Y-91706000D01*
X149114558Y-91699482D01*
X149048373Y-91692963D01*
X148878534Y-91641443D01*
X148722009Y-91557778D01*
X148686271Y-91528448D01*
X148584814Y-91445186D01*
X148501552Y-91343729D01*
X148472222Y-91307991D01*
X148388557Y-91151466D01*
X148337037Y-90981627D01*
X148319641Y-90805000D01*
X148337037Y-90628373D01*
X148388557Y-90458534D01*
X148472222Y-90302009D01*
X148501552Y-90266271D01*
X148584814Y-90164814D01*
X148686271Y-90081552D01*
X148722009Y-90052222D01*
X148878534Y-89968557D01*
X149048373Y-89917037D01*
X149114558Y-89910518D01*
X149180740Y-89904000D01*
X149269260Y-89904000D01*
X149335442Y-89910518D01*
X149335442Y-89910518D01*
G37*
G36*
X146795442Y-89910518D02*
G01*
X146861627Y-89917037D01*
X147031466Y-89968557D01*
X147187991Y-90052222D01*
X147223729Y-90081552D01*
X147325186Y-90164814D01*
X147408448Y-90266271D01*
X147437778Y-90302009D01*
X147521443Y-90458534D01*
X147572963Y-90628373D01*
X147590359Y-90805000D01*
X147572963Y-90981627D01*
X147521443Y-91151466D01*
X147437778Y-91307991D01*
X147408448Y-91343729D01*
X147325186Y-91445186D01*
X147223729Y-91528448D01*
X147187991Y-91557778D01*
X147031466Y-91641443D01*
X146861627Y-91692963D01*
X146795442Y-91699482D01*
X146729260Y-91706000D01*
X146640740Y-91706000D01*
X146574558Y-91699482D01*
X146508373Y-91692963D01*
X146338534Y-91641443D01*
X146182009Y-91557778D01*
X146146271Y-91528448D01*
X146044814Y-91445186D01*
X145961552Y-91343729D01*
X145932222Y-91307991D01*
X145848557Y-91151466D01*
X145797037Y-90981627D01*
X145779641Y-90805000D01*
X145797037Y-90628373D01*
X145848557Y-90458534D01*
X145932222Y-90302009D01*
X145961552Y-90266271D01*
X146044814Y-90164814D01*
X146146271Y-90081552D01*
X146182009Y-90052222D01*
X146338534Y-89968557D01*
X146508373Y-89917037D01*
X146574558Y-89910518D01*
X146640740Y-89904000D01*
X146729260Y-89904000D01*
X146795442Y-89910518D01*
X146795442Y-89910518D01*
G37*
G36*
X142824468Y-89890065D02*
G01*
X142863138Y-89901796D01*
X142898777Y-89920846D01*
X142930017Y-89946483D01*
X142955654Y-89977723D01*
X142974704Y-90013362D01*
X142986435Y-90052032D01*
X142991000Y-90098388D01*
X142991000Y-90749612D01*
X142986435Y-90795968D01*
X142974704Y-90834638D01*
X142955654Y-90870277D01*
X142930017Y-90901517D01*
X142898777Y-90927154D01*
X142863138Y-90946204D01*
X142824468Y-90957935D01*
X142778112Y-90962500D01*
X141701888Y-90962500D01*
X141655532Y-90957935D01*
X141616862Y-90946204D01*
X141581223Y-90927154D01*
X141549983Y-90901517D01*
X141524346Y-90870277D01*
X141505296Y-90834638D01*
X141493565Y-90795968D01*
X141489000Y-90749612D01*
X141489000Y-90098388D01*
X141493565Y-90052032D01*
X141505296Y-90013362D01*
X141524346Y-89977723D01*
X141549983Y-89946483D01*
X141581223Y-89920846D01*
X141616862Y-89901796D01*
X141655532Y-89890065D01*
X141701888Y-89885500D01*
X142778112Y-89885500D01*
X142824468Y-89890065D01*
X142824468Y-89890065D01*
G37*
G36*
X157216968Y-88153565D02*
G01*
X157255638Y-88165296D01*
X157291277Y-88184346D01*
X157322517Y-88209983D01*
X157348154Y-88241223D01*
X157367204Y-88276862D01*
X157378935Y-88315532D01*
X157383500Y-88361888D01*
X157383500Y-89438112D01*
X157378935Y-89484468D01*
X157367204Y-89523138D01*
X157348154Y-89558777D01*
X157322517Y-89590017D01*
X157291277Y-89615654D01*
X157255638Y-89634704D01*
X157216968Y-89646435D01*
X157170612Y-89651000D01*
X156519388Y-89651000D01*
X156473032Y-89646435D01*
X156434362Y-89634704D01*
X156398723Y-89615654D01*
X156367483Y-89590017D01*
X156341846Y-89558777D01*
X156322796Y-89523138D01*
X156311065Y-89484468D01*
X156306500Y-89438112D01*
X156306500Y-88361888D01*
X156311065Y-88315532D01*
X156322796Y-88276862D01*
X156341846Y-88241223D01*
X156367483Y-88209983D01*
X156398723Y-88184346D01*
X156434362Y-88165296D01*
X156473032Y-88153565D01*
X156519388Y-88149000D01*
X157170612Y-88149000D01*
X157216968Y-88153565D01*
X157216968Y-88153565D01*
G37*
G36*
X155341968Y-88153565D02*
G01*
X155380638Y-88165296D01*
X155416277Y-88184346D01*
X155447517Y-88209983D01*
X155473154Y-88241223D01*
X155492204Y-88276862D01*
X155503935Y-88315532D01*
X155508500Y-88361888D01*
X155508500Y-89438112D01*
X155503935Y-89484468D01*
X155492204Y-89523138D01*
X155473154Y-89558777D01*
X155447517Y-89590017D01*
X155416277Y-89615654D01*
X155380638Y-89634704D01*
X155341968Y-89646435D01*
X155295612Y-89651000D01*
X154644388Y-89651000D01*
X154598032Y-89646435D01*
X154559362Y-89634704D01*
X154523723Y-89615654D01*
X154492483Y-89590017D01*
X154466846Y-89558777D01*
X154447796Y-89523138D01*
X154436065Y-89484468D01*
X154431500Y-89438112D01*
X154431500Y-88361888D01*
X154436065Y-88315532D01*
X154447796Y-88276862D01*
X154466846Y-88241223D01*
X154492483Y-88209983D01*
X154523723Y-88184346D01*
X154559362Y-88165296D01*
X154598032Y-88153565D01*
X154644388Y-88149000D01*
X155295612Y-88149000D01*
X155341968Y-88153565D01*
X155341968Y-88153565D01*
G37*
G36*
X146795443Y-87370519D02*
G01*
X146861627Y-87377037D01*
X147031466Y-87428557D01*
X147187991Y-87512222D01*
X147223729Y-87541552D01*
X147325186Y-87624814D01*
X147408448Y-87726271D01*
X147437778Y-87762009D01*
X147521443Y-87918534D01*
X147572963Y-88088373D01*
X147590359Y-88265000D01*
X147572963Y-88441627D01*
X147521443Y-88611466D01*
X147437778Y-88767991D01*
X147408448Y-88803729D01*
X147325186Y-88905186D01*
X147223729Y-88988448D01*
X147187991Y-89017778D01*
X147031466Y-89101443D01*
X146861627Y-89152963D01*
X146795443Y-89159481D01*
X146729260Y-89166000D01*
X146640740Y-89166000D01*
X146574557Y-89159481D01*
X146508373Y-89152963D01*
X146338534Y-89101443D01*
X146182009Y-89017778D01*
X146146271Y-88988448D01*
X146044814Y-88905186D01*
X145961552Y-88803729D01*
X145932222Y-88767991D01*
X145848557Y-88611466D01*
X145797037Y-88441627D01*
X145779641Y-88265000D01*
X145797037Y-88088373D01*
X145848557Y-87918534D01*
X145932222Y-87762009D01*
X145961552Y-87726271D01*
X146044814Y-87624814D01*
X146146271Y-87541552D01*
X146182009Y-87512222D01*
X146338534Y-87428557D01*
X146508373Y-87377037D01*
X146574557Y-87370519D01*
X146640740Y-87364000D01*
X146729260Y-87364000D01*
X146795443Y-87370519D01*
X146795443Y-87370519D01*
G37*
G36*
X149335443Y-87370519D02*
G01*
X149401627Y-87377037D01*
X149571466Y-87428557D01*
X149727991Y-87512222D01*
X149763729Y-87541552D01*
X149865186Y-87624814D01*
X149948448Y-87726271D01*
X149977778Y-87762009D01*
X150061443Y-87918534D01*
X150112963Y-88088373D01*
X150130359Y-88265000D01*
X150112963Y-88441627D01*
X150061443Y-88611466D01*
X149977778Y-88767991D01*
X149948448Y-88803729D01*
X149865186Y-88905186D01*
X149763729Y-88988448D01*
X149727991Y-89017778D01*
X149571466Y-89101443D01*
X149401627Y-89152963D01*
X149335443Y-89159481D01*
X149269260Y-89166000D01*
X149180740Y-89166000D01*
X149114557Y-89159481D01*
X149048373Y-89152963D01*
X148878534Y-89101443D01*
X148722009Y-89017778D01*
X148686271Y-88988448D01*
X148584814Y-88905186D01*
X148501552Y-88803729D01*
X148472222Y-88767991D01*
X148388557Y-88611466D01*
X148337037Y-88441627D01*
X148319641Y-88265000D01*
X148337037Y-88088373D01*
X148388557Y-87918534D01*
X148472222Y-87762009D01*
X148501552Y-87726271D01*
X148584814Y-87624814D01*
X148686271Y-87541552D01*
X148722009Y-87512222D01*
X148878534Y-87428557D01*
X149048373Y-87377037D01*
X149114557Y-87370519D01*
X149180740Y-87364000D01*
X149269260Y-87364000D01*
X149335443Y-87370519D01*
X149335443Y-87370519D01*
G37*
G36*
X152666000Y-89166000D02*
G01*
X150864000Y-89166000D01*
X150864000Y-87364000D01*
X152666000Y-87364000D01*
X152666000Y-89166000D01*
X152666000Y-89166000D01*
G37*
G36*
X156159468Y-86128565D02*
G01*
X156198138Y-86140296D01*
X156233777Y-86159346D01*
X156265017Y-86184983D01*
X156290654Y-86216223D01*
X156309704Y-86251862D01*
X156321435Y-86290532D01*
X156326000Y-86336888D01*
X156326000Y-86988112D01*
X156321435Y-87034468D01*
X156309704Y-87073138D01*
X156290654Y-87108777D01*
X156265017Y-87140017D01*
X156233777Y-87165654D01*
X156198138Y-87184704D01*
X156159468Y-87196435D01*
X156113112Y-87201000D01*
X155036888Y-87201000D01*
X154990532Y-87196435D01*
X154951862Y-87184704D01*
X154916223Y-87165654D01*
X154884983Y-87140017D01*
X154859346Y-87108777D01*
X154840296Y-87073138D01*
X154828565Y-87034468D01*
X154824000Y-86988112D01*
X154824000Y-86336888D01*
X154828565Y-86290532D01*
X154840296Y-86251862D01*
X154859346Y-86216223D01*
X154884983Y-86184983D01*
X154916223Y-86159346D01*
X154951862Y-86140296D01*
X154990532Y-86128565D01*
X155036888Y-86124000D01*
X156113112Y-86124000D01*
X156159468Y-86128565D01*
X156159468Y-86128565D01*
G37*
G36*
X142506000Y-86626000D02*
G01*
X140704000Y-86626000D01*
X140704000Y-84824000D01*
X142506000Y-84824000D01*
X142506000Y-86626000D01*
X142506000Y-86626000D01*
G37*
G36*
X159334468Y-85493565D02*
G01*
X159373138Y-85505296D01*
X159408777Y-85524346D01*
X159440017Y-85549983D01*
X159465654Y-85581223D01*
X159484704Y-85616862D01*
X159496435Y-85655532D01*
X159501000Y-85701888D01*
X159501000Y-86353112D01*
X159496435Y-86399468D01*
X159484704Y-86438138D01*
X159465654Y-86473777D01*
X159440017Y-86505017D01*
X159408777Y-86530654D01*
X159373138Y-86549704D01*
X159334468Y-86561435D01*
X159288112Y-86566000D01*
X158211888Y-86566000D01*
X158165532Y-86561435D01*
X158126862Y-86549704D01*
X158091223Y-86530654D01*
X158059983Y-86505017D01*
X158034346Y-86473777D01*
X158015296Y-86438138D01*
X158003565Y-86399468D01*
X157999000Y-86353112D01*
X157999000Y-85701888D01*
X158003565Y-85655532D01*
X158015296Y-85616862D01*
X158034346Y-85581223D01*
X158059983Y-85549983D01*
X158091223Y-85524346D01*
X158126862Y-85505296D01*
X158165532Y-85493565D01*
X158211888Y-85489000D01*
X159288112Y-85489000D01*
X159334468Y-85493565D01*
X159334468Y-85493565D01*
G37*
G36*
X156159468Y-84253565D02*
G01*
X156198138Y-84265296D01*
X156233777Y-84284346D01*
X156265017Y-84309983D01*
X156290654Y-84341223D01*
X156309704Y-84376862D01*
X156321435Y-84415532D01*
X156326000Y-84461888D01*
X156326000Y-85113112D01*
X156321435Y-85159468D01*
X156309704Y-85198138D01*
X156290654Y-85233777D01*
X156265017Y-85265017D01*
X156233777Y-85290654D01*
X156198138Y-85309704D01*
X156159468Y-85321435D01*
X156113112Y-85326000D01*
X155036888Y-85326000D01*
X154990532Y-85321435D01*
X154951862Y-85309704D01*
X154916223Y-85290654D01*
X154884983Y-85265017D01*
X154859346Y-85233777D01*
X154840296Y-85198138D01*
X154828565Y-85159468D01*
X154824000Y-85113112D01*
X154824000Y-84461888D01*
X154828565Y-84415532D01*
X154840296Y-84376862D01*
X154859346Y-84341223D01*
X154884983Y-84309983D01*
X154916223Y-84284346D01*
X154951862Y-84265296D01*
X154990532Y-84253565D01*
X155036888Y-84249000D01*
X156113112Y-84249000D01*
X156159468Y-84253565D01*
X156159468Y-84253565D01*
G37*
G36*
X146476000Y-84831000D02*
G01*
X144674000Y-84831000D01*
X144674000Y-84079000D01*
X146476000Y-84079000D01*
X146476000Y-84831000D01*
X146476000Y-84831000D01*
G37*
G36*
X153776000Y-84831000D02*
G01*
X151974000Y-84831000D01*
X151974000Y-84079000D01*
X153776000Y-84079000D01*
X153776000Y-84831000D01*
X153776000Y-84831000D01*
G37*
G36*
X159334468Y-83618565D02*
G01*
X159373138Y-83630296D01*
X159408777Y-83649346D01*
X159440017Y-83674983D01*
X159465654Y-83706223D01*
X159484704Y-83741862D01*
X159496435Y-83780532D01*
X159501000Y-83826888D01*
X159501000Y-84478112D01*
X159496435Y-84524468D01*
X159484704Y-84563138D01*
X159465654Y-84598777D01*
X159440017Y-84630017D01*
X159408777Y-84655654D01*
X159373138Y-84674704D01*
X159334468Y-84686435D01*
X159288112Y-84691000D01*
X158211888Y-84691000D01*
X158165532Y-84686435D01*
X158126862Y-84674704D01*
X158091223Y-84655654D01*
X158059983Y-84630017D01*
X158034346Y-84598777D01*
X158015296Y-84563138D01*
X158003565Y-84524468D01*
X157999000Y-84478112D01*
X157999000Y-83826888D01*
X158003565Y-83780532D01*
X158015296Y-83741862D01*
X158034346Y-83706223D01*
X158059983Y-83674983D01*
X158091223Y-83649346D01*
X158126862Y-83630296D01*
X158165532Y-83618565D01*
X158211888Y-83614000D01*
X159288112Y-83614000D01*
X159334468Y-83618565D01*
X159334468Y-83618565D01*
G37*
G36*
X141715443Y-82290519D02*
G01*
X141781627Y-82297037D01*
X141951466Y-82348557D01*
X142107991Y-82432222D01*
X142143729Y-82461552D01*
X142245186Y-82544814D01*
X142328448Y-82646271D01*
X142357778Y-82682009D01*
X142441443Y-82838534D01*
X142492963Y-83008373D01*
X142510359Y-83185000D01*
X142492963Y-83361627D01*
X142441443Y-83531466D01*
X142357778Y-83687991D01*
X142353781Y-83692861D01*
X142245186Y-83825186D01*
X142143729Y-83908448D01*
X142107991Y-83937778D01*
X141951466Y-84021443D01*
X141781627Y-84072963D01*
X141720331Y-84079000D01*
X141649260Y-84086000D01*
X141560740Y-84086000D01*
X141489669Y-84079000D01*
X141428373Y-84072963D01*
X141258534Y-84021443D01*
X141102009Y-83937778D01*
X141066271Y-83908448D01*
X140964814Y-83825186D01*
X140856219Y-83692861D01*
X140852222Y-83687991D01*
X140768557Y-83531466D01*
X140717037Y-83361627D01*
X140699641Y-83185000D01*
X140717037Y-83008373D01*
X140768557Y-82838534D01*
X140852222Y-82682009D01*
X140881552Y-82646271D01*
X140964814Y-82544814D01*
X141066271Y-82461552D01*
X141102009Y-82432222D01*
X141258534Y-82348557D01*
X141428373Y-82297037D01*
X141494557Y-82290519D01*
X141560740Y-82284000D01*
X141649260Y-82284000D01*
X141715443Y-82290519D01*
X141715443Y-82290519D01*
G37*
G36*
X153776000Y-83561000D02*
G01*
X151974000Y-83561000D01*
X151974000Y-82809000D01*
X153776000Y-82809000D01*
X153776000Y-83561000D01*
X153776000Y-83561000D01*
G37*
G36*
X146476000Y-83561000D02*
G01*
X144674000Y-83561000D01*
X144674000Y-82809000D01*
X146476000Y-82809000D01*
X146476000Y-83561000D01*
X146476000Y-83561000D01*
G37*
G36*
X146476000Y-82291000D02*
G01*
X144674000Y-82291000D01*
X144674000Y-81539000D01*
X146476000Y-81539000D01*
X146476000Y-82291000D01*
X146476000Y-82291000D01*
G37*
G36*
X153776000Y-82291000D02*
G01*
X151974000Y-82291000D01*
X151974000Y-81539000D01*
X153776000Y-81539000D01*
X153776000Y-82291000D01*
X153776000Y-82291000D01*
G37*
G36*
X156279468Y-80533565D02*
G01*
X156318138Y-80545296D01*
X156353777Y-80564346D01*
X156385017Y-80589983D01*
X156410654Y-80621223D01*
X156429704Y-80656862D01*
X156441435Y-80695532D01*
X156446000Y-80741888D01*
X156446000Y-81818112D01*
X156441435Y-81864468D01*
X156429704Y-81903138D01*
X156410654Y-81938777D01*
X156385017Y-81970017D01*
X156353777Y-81995654D01*
X156318138Y-82014704D01*
X156279468Y-82026435D01*
X156233112Y-82031000D01*
X155581888Y-82031000D01*
X155535532Y-82026435D01*
X155496862Y-82014704D01*
X155461223Y-81995654D01*
X155429983Y-81970017D01*
X155404346Y-81938777D01*
X155385296Y-81903138D01*
X155373565Y-81864468D01*
X155369000Y-81818112D01*
X155369000Y-80741888D01*
X155373565Y-80695532D01*
X155385296Y-80656862D01*
X155404346Y-80621223D01*
X155429983Y-80589983D01*
X155461223Y-80564346D01*
X155496862Y-80545296D01*
X155535532Y-80533565D01*
X155581888Y-80529000D01*
X156233112Y-80529000D01*
X156279468Y-80533565D01*
X156279468Y-80533565D01*
G37*
G36*
X158154468Y-80533565D02*
G01*
X158193138Y-80545296D01*
X158228777Y-80564346D01*
X158260017Y-80589983D01*
X158285654Y-80621223D01*
X158304704Y-80656862D01*
X158316435Y-80695532D01*
X158321000Y-80741888D01*
X158321000Y-81818112D01*
X158316435Y-81864468D01*
X158304704Y-81903138D01*
X158285654Y-81938777D01*
X158260017Y-81970017D01*
X158228777Y-81995654D01*
X158193138Y-82014704D01*
X158154468Y-82026435D01*
X158108112Y-82031000D01*
X157456888Y-82031000D01*
X157410532Y-82026435D01*
X157371862Y-82014704D01*
X157336223Y-81995654D01*
X157304983Y-81970017D01*
X157279346Y-81938777D01*
X157260296Y-81903138D01*
X157248565Y-81864468D01*
X157244000Y-81818112D01*
X157244000Y-80741888D01*
X157248565Y-80695532D01*
X157260296Y-80656862D01*
X157279346Y-80621223D01*
X157304983Y-80589983D01*
X157336223Y-80564346D01*
X157371862Y-80545296D01*
X157410532Y-80533565D01*
X157456888Y-80529000D01*
X158108112Y-80529000D01*
X158154468Y-80533565D01*
X158154468Y-80533565D01*
G37*
G36*
X153776000Y-81021000D02*
G01*
X151974000Y-81021000D01*
X151974000Y-80269000D01*
X153776000Y-80269000D01*
X153776000Y-81021000D01*
X153776000Y-81021000D01*
G37*
G36*
X146476000Y-81021000D02*
G01*
X144674000Y-81021000D01*
X144674000Y-80269000D01*
X146476000Y-80269000D01*
X146476000Y-81021000D01*
X146476000Y-81021000D01*
G37*
G36*
X146414442Y-76321518D02*
G01*
X146480627Y-76328037D01*
X146650466Y-76379557D01*
X146806991Y-76463222D01*
X146842729Y-76492552D01*
X146944186Y-76575814D01*
X147014902Y-76661983D01*
X147056778Y-76713009D01*
X147140443Y-76869534D01*
X147191963Y-77039373D01*
X147209359Y-77216000D01*
X147191963Y-77392627D01*
X147140443Y-77562466D01*
X147056778Y-77718991D01*
X147027448Y-77754729D01*
X146944186Y-77856186D01*
X146842729Y-77939448D01*
X146806991Y-77968778D01*
X146650466Y-78052443D01*
X146480627Y-78103963D01*
X146414442Y-78110482D01*
X146348260Y-78117000D01*
X146259740Y-78117000D01*
X146193558Y-78110482D01*
X146127373Y-78103963D01*
X145957534Y-78052443D01*
X145801009Y-77968778D01*
X145765271Y-77939448D01*
X145663814Y-77856186D01*
X145580552Y-77754729D01*
X145551222Y-77718991D01*
X145467557Y-77562466D01*
X145416037Y-77392627D01*
X145398641Y-77216000D01*
X145416037Y-77039373D01*
X145467557Y-76869534D01*
X145551222Y-76713009D01*
X145593098Y-76661983D01*
X145663814Y-76575814D01*
X145765271Y-76492552D01*
X145801009Y-76463222D01*
X145957534Y-76379557D01*
X146127373Y-76328037D01*
X146193558Y-76321518D01*
X146259740Y-76315000D01*
X146348260Y-76315000D01*
X146414442Y-76321518D01*
X146414442Y-76321518D01*
G37*
G36*
X142125000Y-78117000D02*
G01*
X140323000Y-78117000D01*
X140323000Y-76315000D01*
X142125000Y-76315000D01*
X142125000Y-78117000D01*
X142125000Y-78117000D01*
G37*
G36*
X143874442Y-76321518D02*
G01*
X143940627Y-76328037D01*
X144110466Y-76379557D01*
X144266991Y-76463222D01*
X144302729Y-76492552D01*
X144404186Y-76575814D01*
X144474902Y-76661983D01*
X144516778Y-76713009D01*
X144600443Y-76869534D01*
X144651963Y-77039373D01*
X144669359Y-77216000D01*
X144651963Y-77392627D01*
X144600443Y-77562466D01*
X144516778Y-77718991D01*
X144487448Y-77754729D01*
X144404186Y-77856186D01*
X144302729Y-77939448D01*
X144266991Y-77968778D01*
X144110466Y-78052443D01*
X143940627Y-78103963D01*
X143874442Y-78110482D01*
X143808260Y-78117000D01*
X143719740Y-78117000D01*
X143653558Y-78110482D01*
X143587373Y-78103963D01*
X143417534Y-78052443D01*
X143261009Y-77968778D01*
X143225271Y-77939448D01*
X143123814Y-77856186D01*
X143040552Y-77754729D01*
X143011222Y-77718991D01*
X142927557Y-77562466D01*
X142876037Y-77392627D01*
X142858641Y-77216000D01*
X142876037Y-77039373D01*
X142927557Y-76869534D01*
X143011222Y-76713009D01*
X143053098Y-76661983D01*
X143123814Y-76575814D01*
X143225271Y-76492552D01*
X143261009Y-76463222D01*
X143417534Y-76379557D01*
X143587373Y-76328037D01*
X143653558Y-76321518D01*
X143719740Y-76315000D01*
X143808260Y-76315000D01*
X143874442Y-76321518D01*
X143874442Y-76321518D01*
G37*
G36*
X151721000Y-77616000D02*
G01*
X150119000Y-77616000D01*
X150119000Y-76514000D01*
X151721000Y-76514000D01*
X151721000Y-77616000D01*
X151721000Y-77616000D01*
G37*
G36*
X154625776Y-74391121D02*
G01*
X154647084Y-74403222D01*
X154670343Y-74410933D01*
X154697861Y-74414000D01*
X154709235Y-74414000D01*
X154714015Y-74429757D01*
X154725566Y-74451368D01*
X154741111Y-74470310D01*
X154757414Y-74484042D01*
X155543000Y-75038574D01*
X155543000Y-76091426D01*
X154757414Y-76645958D01*
X154738877Y-76661983D01*
X154723822Y-76681317D01*
X154712828Y-76703216D01*
X154709305Y-76716000D01*
X154697861Y-76716000D01*
X154673475Y-76718402D01*
X154650026Y-76725515D01*
X154625776Y-76738879D01*
X154572551Y-76776450D01*
X154569934Y-76771553D01*
X154554389Y-76752611D01*
X154535447Y-76737066D01*
X154513836Y-76725515D01*
X154490387Y-76718402D01*
X154466001Y-76716000D01*
X152999799Y-76716000D01*
X152975413Y-76718402D01*
X152951964Y-76725515D01*
X152930353Y-76737066D01*
X152911411Y-76752611D01*
X152895866Y-76771553D01*
X152893475Y-76776026D01*
X152840004Y-76738596D01*
X152818649Y-76726579D01*
X152795360Y-76718959D01*
X152768322Y-76716000D01*
X152757356Y-76716000D01*
X152752985Y-76701590D01*
X152741434Y-76679979D01*
X152725889Y-76661037D01*
X152709183Y-76647022D01*
X151982860Y-76138596D01*
X151961505Y-76126579D01*
X151938216Y-76118959D01*
X151911178Y-76116000D01*
X150115500Y-76116000D01*
X150115500Y-75014000D01*
X151911178Y-75014000D01*
X151935564Y-75011598D01*
X151959013Y-75004485D01*
X151982860Y-74991404D01*
X152709183Y-74482978D01*
X152727784Y-74467026D01*
X152742915Y-74447752D01*
X152753995Y-74425896D01*
X152757324Y-74414000D01*
X152768322Y-74414000D01*
X152792708Y-74411598D01*
X152816157Y-74404485D01*
X152840004Y-74391404D01*
X152893475Y-74353974D01*
X152895866Y-74358447D01*
X152911411Y-74377389D01*
X152930353Y-74392934D01*
X152951964Y-74404485D01*
X152975413Y-74411598D01*
X152999799Y-74414000D01*
X154466001Y-74414000D01*
X154490387Y-74411598D01*
X154513836Y-74404485D01*
X154535447Y-74392934D01*
X154554389Y-74377389D01*
X154569934Y-74358447D01*
X154572551Y-74353550D01*
X154625776Y-74391121D01*
X154625776Y-74391121D01*
G37*
G36*
X151721000Y-74616000D02*
G01*
X150119000Y-74616000D01*
X150119000Y-73514000D01*
X151721000Y-73514000D01*
X151721000Y-74616000D01*
X151721000Y-74616000D01*
G37*
G36*
X146754468Y-72151565D02*
G01*
X146793138Y-72163296D01*
X146828777Y-72182346D01*
X146860017Y-72207983D01*
X146885654Y-72239223D01*
X146904704Y-72274862D01*
X146916435Y-72313532D01*
X146921000Y-72359888D01*
X146921000Y-73436112D01*
X146916435Y-73482468D01*
X146904704Y-73521138D01*
X146885654Y-73556777D01*
X146860017Y-73588017D01*
X146828777Y-73613654D01*
X146793138Y-73632704D01*
X146754468Y-73644435D01*
X146708112Y-73649000D01*
X146056888Y-73649000D01*
X146010532Y-73644435D01*
X145971862Y-73632704D01*
X145936223Y-73613654D01*
X145904983Y-73588017D01*
X145879346Y-73556777D01*
X145860296Y-73521138D01*
X145848565Y-73482468D01*
X145844000Y-73436112D01*
X145844000Y-72359888D01*
X145848565Y-72313532D01*
X145860296Y-72274862D01*
X145879346Y-72239223D01*
X145904983Y-72207983D01*
X145936223Y-72182346D01*
X145971862Y-72163296D01*
X146010532Y-72151565D01*
X146056888Y-72147000D01*
X146708112Y-72147000D01*
X146754468Y-72151565D01*
X146754468Y-72151565D01*
G37*
G36*
X148629468Y-72151565D02*
G01*
X148668138Y-72163296D01*
X148703777Y-72182346D01*
X148735017Y-72207983D01*
X148760654Y-72239223D01*
X148779704Y-72274862D01*
X148791435Y-72313532D01*
X148796000Y-72359888D01*
X148796000Y-73436112D01*
X148791435Y-73482468D01*
X148779704Y-73521138D01*
X148760654Y-73556777D01*
X148735017Y-73588017D01*
X148703777Y-73613654D01*
X148668138Y-73632704D01*
X148629468Y-73644435D01*
X148583112Y-73649000D01*
X147931888Y-73649000D01*
X147885532Y-73644435D01*
X147846862Y-73632704D01*
X147811223Y-73613654D01*
X147779983Y-73588017D01*
X147754346Y-73556777D01*
X147735296Y-73521138D01*
X147723565Y-73482468D01*
X147719000Y-73436112D01*
X147719000Y-72359888D01*
X147723565Y-72313532D01*
X147735296Y-72274862D01*
X147754346Y-72239223D01*
X147779983Y-72207983D01*
X147811223Y-72182346D01*
X147846862Y-72163296D01*
X147885532Y-72151565D01*
X147931888Y-72147000D01*
X148583112Y-72147000D01*
X148629468Y-72151565D01*
X148629468Y-72151565D01*
G37*
G36*
X154805000Y-71263000D02*
G01*
X153803000Y-71263000D01*
X153803000Y-69961000D01*
X154805000Y-69961000D01*
X154805000Y-71263000D01*
X154805000Y-71263000D01*
G37*
G36*
X151505000Y-71263000D02*
G01*
X150503000Y-71263000D01*
X150503000Y-69961000D01*
X151505000Y-69961000D01*
X151505000Y-71263000D01*
X151505000Y-71263000D01*
G37*
G36*
X153924943Y-62090248D02*
G01*
X154480189Y-62320238D01*
X154480190Y-62320239D01*
X154979899Y-62654134D01*
X155404866Y-63079101D01*
X155404867Y-63079103D01*
X155738762Y-63578811D01*
X155968752Y-64134057D01*
X156086000Y-64723501D01*
X156086000Y-65324499D01*
X155968752Y-65913943D01*
X155738762Y-66469189D01*
X155738761Y-66469190D01*
X155404866Y-66968899D01*
X154979899Y-67393866D01*
X154728347Y-67561948D01*
X154480189Y-67727762D01*
X153924943Y-67957752D01*
X153335499Y-68075000D01*
X152734501Y-68075000D01*
X152145057Y-67957752D01*
X151589811Y-67727762D01*
X151341653Y-67561948D01*
X151090101Y-67393866D01*
X150665134Y-66968899D01*
X150331239Y-66469190D01*
X150331238Y-66469189D01*
X150101248Y-65913943D01*
X149984000Y-65324499D01*
X149984000Y-64723501D01*
X150101248Y-64134057D01*
X150331238Y-63578811D01*
X150665133Y-63079103D01*
X150665134Y-63079101D01*
X151090101Y-62654134D01*
X151589810Y-62320239D01*
X151589811Y-62320238D01*
X152145057Y-62090248D01*
X152734501Y-61973000D01*
X153335499Y-61973000D01*
X153924943Y-62090248D01*
X153924943Y-62090248D01*
G37*
G36*
X146424943Y-62090248D02*
G01*
X146980189Y-62320238D01*
X146980190Y-62320239D01*
X147479899Y-62654134D01*
X147904866Y-63079101D01*
X147904867Y-63079103D01*
X148238762Y-63578811D01*
X148468752Y-64134057D01*
X148586000Y-64723501D01*
X148586000Y-65324499D01*
X148468752Y-65913943D01*
X148238762Y-66469189D01*
X148238761Y-66469190D01*
X147904866Y-66968899D01*
X147479899Y-67393866D01*
X147228347Y-67561948D01*
X146980189Y-67727762D01*
X146424943Y-67957752D01*
X145835499Y-68075000D01*
X145234501Y-68075000D01*
X144645057Y-67957752D01*
X144089811Y-67727762D01*
X143841653Y-67561948D01*
X143590101Y-67393866D01*
X143165134Y-66968899D01*
X142831239Y-66469190D01*
X142831238Y-66469189D01*
X142601248Y-65913943D01*
X142484000Y-65324499D01*
X142484000Y-64723501D01*
X142601248Y-64134057D01*
X142831238Y-63578811D01*
X143165133Y-63079103D01*
X143165134Y-63079101D01*
X143590101Y-62654134D01*
X144089810Y-62320239D01*
X144089811Y-62320238D01*
X144645057Y-62090248D01*
X145234501Y-61973000D01*
X145835499Y-61973000D01*
X146424943Y-62090248D01*
X146424943Y-62090248D01*
G37*
M02*
