G04 #@! TF.GenerationSoftware,KiCad,Pcbnew,(5.1.4)-1*
G04 #@! TF.CreationDate,2019-08-21T20:44:27-04:00*
G04 #@! TF.ProjectId,CABR_Schematic,43414252-5f53-4636-9865-6d617469632e,rev?*
G04 #@! TF.SameCoordinates,Original*
G04 #@! TF.FileFunction,Legend,Top*
G04 #@! TF.FilePolarity,Positive*
%FSLAX46Y46*%
G04 Gerber Fmt 4.6, Leading zero omitted, Abs format (unit mm)*
G04 Created by KiCad (PCBNEW (5.1.4)-1) date 2019-08-21 20:44:27*
%MOMM*%
%LPD*%
G04 APERTURE LIST*
%ADD10C,0.300000*%
%ADD11C,0.150000*%
%ADD12C,0.120000*%
%ADD13C,0.100000*%
G04 APERTURE END LIST*
D10*
X139152571Y-113454571D02*
X138652571Y-112740285D01*
X138295428Y-113454571D02*
X138295428Y-111954571D01*
X138866857Y-111954571D01*
X139009714Y-112026000D01*
X139081142Y-112097428D01*
X139152571Y-112240285D01*
X139152571Y-112454571D01*
X139081142Y-112597428D01*
X139009714Y-112668857D01*
X138866857Y-112740285D01*
X138295428Y-112740285D01*
X140366857Y-113383142D02*
X140224000Y-113454571D01*
X139938285Y-113454571D01*
X139795428Y-113383142D01*
X139724000Y-113240285D01*
X139724000Y-112668857D01*
X139795428Y-112526000D01*
X139938285Y-112454571D01*
X140224000Y-112454571D01*
X140366857Y-112526000D01*
X140438285Y-112668857D01*
X140438285Y-112811714D01*
X139724000Y-112954571D01*
X140938285Y-112454571D02*
X141295428Y-113454571D01*
X141652571Y-112454571D01*
X143866857Y-112668857D02*
X144081142Y-112740285D01*
X144152571Y-112811714D01*
X144224000Y-112954571D01*
X144224000Y-113168857D01*
X144152571Y-113311714D01*
X144081142Y-113383142D01*
X143938285Y-113454571D01*
X143366857Y-113454571D01*
X143366857Y-111954571D01*
X143866857Y-111954571D01*
X144009714Y-112026000D01*
X144081142Y-112097428D01*
X144152571Y-112240285D01*
X144152571Y-112383142D01*
X144081142Y-112526000D01*
X144009714Y-112597428D01*
X143866857Y-112668857D01*
X143366857Y-112668857D01*
D11*
X152455809Y-113228380D02*
X152455809Y-112228380D01*
X152836761Y-112228380D01*
X152932000Y-112276000D01*
X152979619Y-112323619D01*
X153027238Y-112418857D01*
X153027238Y-112561714D01*
X152979619Y-112656952D01*
X152932000Y-112704571D01*
X152836761Y-112752190D01*
X152455809Y-112752190D01*
X153598666Y-113228380D02*
X153503428Y-113180761D01*
X153455809Y-113133142D01*
X153408190Y-113037904D01*
X153408190Y-112752190D01*
X153455809Y-112656952D01*
X153503428Y-112609333D01*
X153598666Y-112561714D01*
X153741523Y-112561714D01*
X153836761Y-112609333D01*
X153884380Y-112656952D01*
X153932000Y-112752190D01*
X153932000Y-113037904D01*
X153884380Y-113133142D01*
X153836761Y-113180761D01*
X153741523Y-113228380D01*
X153598666Y-113228380D01*
X154265333Y-112561714D02*
X154455809Y-113228380D01*
X154646285Y-112752190D01*
X154836761Y-113228380D01*
X155027238Y-112561714D01*
X155789142Y-113180761D02*
X155693904Y-113228380D01*
X155503428Y-113228380D01*
X155408190Y-113180761D01*
X155360571Y-113085523D01*
X155360571Y-112704571D01*
X155408190Y-112609333D01*
X155503428Y-112561714D01*
X155693904Y-112561714D01*
X155789142Y-112609333D01*
X155836761Y-112704571D01*
X155836761Y-112799809D01*
X155360571Y-112895047D01*
X156265333Y-113228380D02*
X156265333Y-112561714D01*
X156265333Y-112752190D02*
X156312952Y-112656952D01*
X156360571Y-112609333D01*
X156455809Y-112561714D01*
X156551047Y-112561714D01*
D12*
X145297500Y-69945500D02*
X145297500Y-71455500D01*
X141596500Y-69945500D02*
X141596500Y-71455500D01*
X138326500Y-71455500D02*
X148566500Y-71455500D01*
X148566500Y-69945500D02*
X148566500Y-74586500D01*
X138326500Y-69945500D02*
X138326500Y-74586500D01*
X138326500Y-74586500D02*
X148566500Y-74586500D01*
X138326500Y-69945500D02*
X148566500Y-69945500D01*
X153222000Y-86808000D02*
X153222000Y-88138000D01*
X151892000Y-86808000D02*
X153222000Y-86808000D01*
X153222000Y-89408000D02*
X153222000Y-92008000D01*
X150622000Y-89408000D02*
X153222000Y-89408000D01*
X150622000Y-86808000D02*
X150622000Y-89408000D01*
X153222000Y-92008000D02*
X145482000Y-92008000D01*
X150622000Y-86808000D02*
X145482000Y-86808000D01*
X145482000Y-86808000D02*
X145482000Y-92008000D01*
D11*
X146475000Y-79795000D02*
X146475000Y-80000000D01*
X151975000Y-79795000D02*
X151975000Y-80095000D01*
X151975000Y-85305000D02*
X151975000Y-85005000D01*
X146475000Y-85305000D02*
X146475000Y-85005000D01*
X146475000Y-79795000D02*
X151975000Y-79795000D01*
X146475000Y-85305000D02*
X151975000Y-85305000D01*
X146475000Y-80000000D02*
X144725000Y-80000000D01*
D12*
X155775922Y-81228000D02*
X156293078Y-81228000D01*
X155775922Y-79808000D02*
X156293078Y-79808000D01*
X142546000Y-99826578D02*
X142546000Y-99309422D01*
X143966000Y-99826578D02*
X143966000Y-99309422D01*
X154484000Y-97531422D02*
X154484000Y-98048578D01*
X155904000Y-97531422D02*
X155904000Y-98048578D01*
X142296000Y-90361500D02*
X142296000Y-93046500D01*
X142296000Y-93046500D02*
X144216000Y-93046500D01*
X144216000Y-93046500D02*
X144216000Y-90361500D01*
X154904000Y-71612000D02*
X154904000Y-69612000D01*
X154904000Y-69612000D02*
X151004000Y-69612000D01*
X154904000Y-71612000D02*
X151004000Y-71612000D01*
D13*
X145835000Y-61024000D02*
X141135000Y-61024000D01*
X141135000Y-61024000D02*
X141135000Y-62624000D01*
X145535000Y-69024000D02*
X141335000Y-69024000D01*
X141335000Y-69024000D02*
X141235000Y-69024000D01*
X141235000Y-69024000D02*
X141135000Y-69024000D01*
X141135000Y-69024000D02*
X141135000Y-65024000D01*
X155435000Y-61024000D02*
X157435000Y-63724000D01*
X155435000Y-69024000D02*
X157435000Y-66324000D01*
X157435000Y-65024000D02*
X157435000Y-63774000D01*
X157435000Y-65024000D02*
X157435000Y-66274000D01*
X153035000Y-61024000D02*
X155435000Y-61024000D01*
X150035000Y-61024000D02*
X153035000Y-61024000D01*
X153035000Y-69024000D02*
X155435000Y-69024000D01*
X149935000Y-69024000D02*
X153035000Y-69024000D01*
X157435000Y-65124000D02*
X157435000Y-64824000D01*
X141135000Y-65024000D02*
X141135000Y-62624000D01*
X145535000Y-69024000D02*
X149935000Y-69024000D01*
X145835000Y-61024000D02*
X150035000Y-61024000D01*
D12*
X147634000Y-78546000D02*
X147634000Y-75886000D01*
X142494000Y-78546000D02*
X147634000Y-78546000D01*
X142494000Y-75886000D02*
X147634000Y-75886000D01*
X142494000Y-78546000D02*
X142494000Y-75886000D01*
X141224000Y-78546000D02*
X139894000Y-78546000D01*
X139894000Y-78546000D02*
X139894000Y-77216000D01*
X142935000Y-81855000D02*
X140275000Y-81855000D01*
X142935000Y-84455000D02*
X142935000Y-81855000D01*
X140275000Y-84455000D02*
X140275000Y-81855000D01*
X142935000Y-84455000D02*
X140275000Y-84455000D01*
X142935000Y-85725000D02*
X142935000Y-87055000D01*
X142935000Y-87055000D02*
X141605000Y-87055000D01*
D13*
X152488000Y-111188000D02*
X148288000Y-111188000D01*
X152788000Y-103188000D02*
X148388000Y-103188000D01*
X157188000Y-107188000D02*
X157188000Y-109588000D01*
X140888000Y-107088000D02*
X140888000Y-107388000D01*
X148388000Y-103188000D02*
X145288000Y-103188000D01*
X145288000Y-103188000D02*
X142888000Y-103188000D01*
X148288000Y-111188000D02*
X145288000Y-111188000D01*
X145288000Y-111188000D02*
X142888000Y-111188000D01*
X140888000Y-107188000D02*
X140888000Y-105938000D01*
X140888000Y-107188000D02*
X140888000Y-108438000D01*
X142888000Y-103188000D02*
X140888000Y-105888000D01*
X142888000Y-111188000D02*
X140888000Y-108488000D01*
X157188000Y-103188000D02*
X157188000Y-107188000D01*
X157088000Y-103188000D02*
X157188000Y-103188000D01*
X156988000Y-103188000D02*
X157088000Y-103188000D01*
X152788000Y-103188000D02*
X156988000Y-103188000D01*
X157188000Y-111188000D02*
X157188000Y-109588000D01*
X152488000Y-111188000D02*
X157188000Y-111188000D01*
D12*
X156136078Y-89460000D02*
X155618922Y-89460000D01*
X156136078Y-90880000D02*
X155618922Y-90880000D01*
X155775922Y-82856000D02*
X156293078Y-82856000D01*
X155775922Y-84276000D02*
X156293078Y-84276000D01*
X143966000Y-95245422D02*
X143966000Y-95762578D01*
X142546000Y-95245422D02*
X142546000Y-95762578D01*
X155697422Y-93166000D02*
X156214578Y-93166000D01*
X155697422Y-91746000D02*
X156214578Y-91746000D01*
X156293078Y-85142000D02*
X155775922Y-85142000D01*
X156293078Y-86562000D02*
X155775922Y-86562000D01*
X150570000Y-76957422D02*
X150570000Y-77474578D01*
X149150000Y-76957422D02*
X149150000Y-77474578D01*
X151135000Y-101200000D02*
X151135000Y-99940000D01*
X151135000Y-94380000D02*
X151135000Y-95640000D01*
X147375000Y-101200000D02*
X151135000Y-101200000D01*
X145125000Y-94380000D02*
X151135000Y-94380000D01*
D11*
X150145761Y-74461619D02*
X150050523Y-74414000D01*
X149955285Y-74318761D01*
X149812428Y-74175904D01*
X149717190Y-74128285D01*
X149621952Y-74128285D01*
X149669571Y-74366380D02*
X149574333Y-74318761D01*
X149479095Y-74223523D01*
X149431476Y-74033047D01*
X149431476Y-73699714D01*
X149479095Y-73509238D01*
X149574333Y-73414000D01*
X149669571Y-73366380D01*
X149860047Y-73366380D01*
X149955285Y-73414000D01*
X150050523Y-73509238D01*
X150098142Y-73699714D01*
X150098142Y-74033047D01*
X150050523Y-74223523D01*
X149955285Y-74318761D01*
X149860047Y-74366380D01*
X149669571Y-74366380D01*
X151050523Y-74366380D02*
X150479095Y-74366380D01*
X150764809Y-74366380D02*
X150764809Y-73366380D01*
X150669571Y-73509238D01*
X150574333Y-73604476D01*
X150479095Y-73652095D01*
X154352666Y-87590380D02*
X154352666Y-88304666D01*
X154305047Y-88447523D01*
X154209809Y-88542761D01*
X154066952Y-88590380D01*
X153971714Y-88590380D01*
X154733619Y-87590380D02*
X155352666Y-87590380D01*
X155019333Y-87971333D01*
X155162190Y-87971333D01*
X155257428Y-88018952D01*
X155305047Y-88066571D01*
X155352666Y-88161809D01*
X155352666Y-88399904D01*
X155305047Y-88495142D01*
X155257428Y-88542761D01*
X155162190Y-88590380D01*
X154876476Y-88590380D01*
X154781238Y-88542761D01*
X154733619Y-88495142D01*
X146558095Y-85558380D02*
X146558095Y-86367904D01*
X146605714Y-86463142D01*
X146653333Y-86510761D01*
X146748571Y-86558380D01*
X146939047Y-86558380D01*
X147034285Y-86510761D01*
X147081904Y-86463142D01*
X147129523Y-86367904D01*
X147129523Y-85558380D01*
X147558095Y-85653619D02*
X147605714Y-85606000D01*
X147700952Y-85558380D01*
X147939047Y-85558380D01*
X148034285Y-85606000D01*
X148081904Y-85653619D01*
X148129523Y-85748857D01*
X148129523Y-85844095D01*
X148081904Y-85986952D01*
X147510476Y-86558380D01*
X148129523Y-86558380D01*
X155867833Y-79225142D02*
X155820214Y-79272761D01*
X155677357Y-79320380D01*
X155582119Y-79320380D01*
X155439261Y-79272761D01*
X155344023Y-79177523D01*
X155296404Y-79082285D01*
X155248785Y-78891809D01*
X155248785Y-78748952D01*
X155296404Y-78558476D01*
X155344023Y-78463238D01*
X155439261Y-78368000D01*
X155582119Y-78320380D01*
X155677357Y-78320380D01*
X155820214Y-78368000D01*
X155867833Y-78415619D01*
X156201166Y-78320380D02*
X156820214Y-78320380D01*
X156486880Y-78701333D01*
X156629738Y-78701333D01*
X156724976Y-78748952D01*
X156772595Y-78796571D01*
X156820214Y-78891809D01*
X156820214Y-79129904D01*
X156772595Y-79225142D01*
X156724976Y-79272761D01*
X156629738Y-79320380D01*
X156344023Y-79320380D01*
X156248785Y-79272761D01*
X156201166Y-79225142D01*
X141963142Y-99734666D02*
X142010761Y-99782285D01*
X142058380Y-99925142D01*
X142058380Y-100020380D01*
X142010761Y-100163238D01*
X141915523Y-100258476D01*
X141820285Y-100306095D01*
X141629809Y-100353714D01*
X141486952Y-100353714D01*
X141296476Y-100306095D01*
X141201238Y-100258476D01*
X141106000Y-100163238D01*
X141058380Y-100020380D01*
X141058380Y-99925142D01*
X141106000Y-99782285D01*
X141153619Y-99734666D01*
X142058380Y-98782285D02*
X142058380Y-99353714D01*
X142058380Y-99068000D02*
X141058380Y-99068000D01*
X141201238Y-99163238D01*
X141296476Y-99258476D01*
X141344095Y-99353714D01*
X157329142Y-98718666D02*
X157376761Y-98766285D01*
X157424380Y-98909142D01*
X157424380Y-99004380D01*
X157376761Y-99147238D01*
X157281523Y-99242476D01*
X157186285Y-99290095D01*
X156995809Y-99337714D01*
X156852952Y-99337714D01*
X156662476Y-99290095D01*
X156567238Y-99242476D01*
X156472000Y-99147238D01*
X156424380Y-99004380D01*
X156424380Y-98909142D01*
X156472000Y-98766285D01*
X156519619Y-98718666D01*
X156519619Y-98337714D02*
X156472000Y-98290095D01*
X156424380Y-98194857D01*
X156424380Y-97956761D01*
X156472000Y-97861523D01*
X156519619Y-97813904D01*
X156614857Y-97766285D01*
X156710095Y-97766285D01*
X156852952Y-97813904D01*
X157424380Y-98385333D01*
X157424380Y-97766285D01*
X142058380Y-92099595D02*
X141058380Y-92099595D01*
X141058380Y-91861500D01*
X141106000Y-91718642D01*
X141201238Y-91623404D01*
X141296476Y-91575785D01*
X141486952Y-91528166D01*
X141629809Y-91528166D01*
X141820285Y-91575785D01*
X141915523Y-91623404D01*
X142010761Y-91718642D01*
X142058380Y-91861500D01*
X142058380Y-92099595D01*
X142058380Y-90575785D02*
X142058380Y-91147214D01*
X142058380Y-90861500D02*
X141058380Y-90861500D01*
X141201238Y-90956738D01*
X141296476Y-91051976D01*
X141344095Y-91147214D01*
X155471904Y-72334380D02*
X155471904Y-71334380D01*
X155710000Y-71334380D01*
X155852857Y-71382000D01*
X155948095Y-71477238D01*
X155995714Y-71572476D01*
X156043333Y-71762952D01*
X156043333Y-71905809D01*
X155995714Y-72096285D01*
X155948095Y-72191523D01*
X155852857Y-72286761D01*
X155710000Y-72334380D01*
X155471904Y-72334380D01*
X156424285Y-71429619D02*
X156471904Y-71382000D01*
X156567142Y-71334380D01*
X156805238Y-71334380D01*
X156900476Y-71382000D01*
X156948095Y-71429619D01*
X156995714Y-71524857D01*
X156995714Y-71620095D01*
X156948095Y-71762952D01*
X156376666Y-72334380D01*
X156995714Y-72334380D01*
X139557166Y-65809880D02*
X139557166Y-66524166D01*
X139509547Y-66667023D01*
X139414309Y-66762261D01*
X139271452Y-66809880D01*
X139176214Y-66809880D01*
X140557166Y-66809880D02*
X139985738Y-66809880D01*
X140271452Y-66809880D02*
X140271452Y-65809880D01*
X140176214Y-65952738D01*
X140080976Y-66047976D01*
X139985738Y-66095595D01*
X138346380Y-77549333D02*
X139060666Y-77549333D01*
X139203523Y-77596952D01*
X139298761Y-77692190D01*
X139346380Y-77835047D01*
X139346380Y-77930285D01*
X138441619Y-77120761D02*
X138394000Y-77073142D01*
X138346380Y-76977904D01*
X138346380Y-76739809D01*
X138394000Y-76644571D01*
X138441619Y-76596952D01*
X138536857Y-76549333D01*
X138632095Y-76549333D01*
X138774952Y-76596952D01*
X139346380Y-77168380D01*
X139346380Y-76549333D01*
X141271666Y-87507380D02*
X141271666Y-88221666D01*
X141224047Y-88364523D01*
X141128809Y-88459761D01*
X140985952Y-88507380D01*
X140890714Y-88507380D01*
X142176428Y-87840714D02*
X142176428Y-88507380D01*
X141938333Y-87459761D02*
X141700238Y-88174047D01*
X142319285Y-88174047D01*
X148510666Y-112736380D02*
X148510666Y-113450666D01*
X148463047Y-113593523D01*
X148367809Y-113688761D01*
X148224952Y-113736380D01*
X148129714Y-113736380D01*
X149463047Y-112736380D02*
X148986857Y-112736380D01*
X148939238Y-113212571D01*
X148986857Y-113164952D01*
X149082095Y-113117333D01*
X149320190Y-113117333D01*
X149415428Y-113164952D01*
X149463047Y-113212571D01*
X149510666Y-113307809D01*
X149510666Y-113545904D01*
X149463047Y-113641142D01*
X149415428Y-113688761D01*
X149320190Y-113736380D01*
X149082095Y-113736380D01*
X148986857Y-113688761D01*
X148939238Y-113641142D01*
X158329333Y-90622380D02*
X157996000Y-90146190D01*
X157757904Y-90622380D02*
X157757904Y-89622380D01*
X158138857Y-89622380D01*
X158234095Y-89670000D01*
X158281714Y-89717619D01*
X158329333Y-89812857D01*
X158329333Y-89955714D01*
X158281714Y-90050952D01*
X158234095Y-90098571D01*
X158138857Y-90146190D01*
X157757904Y-90146190D01*
X159281714Y-90622380D02*
X158710285Y-90622380D01*
X158996000Y-90622380D02*
X158996000Y-89622380D01*
X158900761Y-89765238D01*
X158805523Y-89860476D01*
X158710285Y-89908095D01*
X158583333Y-84018380D02*
X158250000Y-83542190D01*
X158011904Y-84018380D02*
X158011904Y-83018380D01*
X158392857Y-83018380D01*
X158488095Y-83066000D01*
X158535714Y-83113619D01*
X158583333Y-83208857D01*
X158583333Y-83351714D01*
X158535714Y-83446952D01*
X158488095Y-83494571D01*
X158392857Y-83542190D01*
X158011904Y-83542190D01*
X158964285Y-83113619D02*
X159011904Y-83066000D01*
X159107142Y-83018380D01*
X159345238Y-83018380D01*
X159440476Y-83066000D01*
X159488095Y-83113619D01*
X159535714Y-83208857D01*
X159535714Y-83304095D01*
X159488095Y-83446952D01*
X158916666Y-84018380D01*
X159535714Y-84018380D01*
X141930380Y-96432666D02*
X141454190Y-96766000D01*
X141930380Y-97004095D02*
X140930380Y-97004095D01*
X140930380Y-96623142D01*
X140978000Y-96527904D01*
X141025619Y-96480285D01*
X141120857Y-96432666D01*
X141263714Y-96432666D01*
X141358952Y-96480285D01*
X141406571Y-96527904D01*
X141454190Y-96623142D01*
X141454190Y-97004095D01*
X140930380Y-96099333D02*
X140930380Y-95480285D01*
X141311333Y-95813619D01*
X141311333Y-95670761D01*
X141358952Y-95575523D01*
X141406571Y-95527904D01*
X141501809Y-95480285D01*
X141739904Y-95480285D01*
X141835142Y-95527904D01*
X141882761Y-95575523D01*
X141930380Y-95670761D01*
X141930380Y-95956476D01*
X141882761Y-96051714D01*
X141835142Y-96099333D01*
X158329333Y-93162380D02*
X157996000Y-92686190D01*
X157757904Y-93162380D02*
X157757904Y-92162380D01*
X158138857Y-92162380D01*
X158234095Y-92210000D01*
X158281714Y-92257619D01*
X158329333Y-92352857D01*
X158329333Y-92495714D01*
X158281714Y-92590952D01*
X158234095Y-92638571D01*
X158138857Y-92686190D01*
X157757904Y-92686190D01*
X159186476Y-92495714D02*
X159186476Y-93162380D01*
X158948380Y-92114761D02*
X158710285Y-92829047D01*
X159329333Y-92829047D01*
X158583333Y-86304380D02*
X158250000Y-85828190D01*
X158011904Y-86304380D02*
X158011904Y-85304380D01*
X158392857Y-85304380D01*
X158488095Y-85352000D01*
X158535714Y-85399619D01*
X158583333Y-85494857D01*
X158583333Y-85637714D01*
X158535714Y-85732952D01*
X158488095Y-85780571D01*
X158392857Y-85828190D01*
X158011904Y-85828190D01*
X159488095Y-85304380D02*
X159011904Y-85304380D01*
X158964285Y-85780571D01*
X159011904Y-85732952D01*
X159107142Y-85685333D01*
X159345238Y-85685333D01*
X159440476Y-85732952D01*
X159488095Y-85780571D01*
X159535714Y-85875809D01*
X159535714Y-86113904D01*
X159488095Y-86209142D01*
X159440476Y-86256761D01*
X159345238Y-86304380D01*
X159107142Y-86304380D01*
X159011904Y-86256761D01*
X158964285Y-86209142D01*
X151962380Y-78906666D02*
X151486190Y-79240000D01*
X151962380Y-79478095D02*
X150962380Y-79478095D01*
X150962380Y-79097142D01*
X151010000Y-79001904D01*
X151057619Y-78954285D01*
X151152857Y-78906666D01*
X151295714Y-78906666D01*
X151390952Y-78954285D01*
X151438571Y-79001904D01*
X151486190Y-79097142D01*
X151486190Y-79478095D01*
X150962380Y-78049523D02*
X150962380Y-78240000D01*
X151010000Y-78335238D01*
X151057619Y-78382857D01*
X151200476Y-78478095D01*
X151390952Y-78525714D01*
X151771904Y-78525714D01*
X151867142Y-78478095D01*
X151914761Y-78430476D01*
X151962380Y-78335238D01*
X151962380Y-78144761D01*
X151914761Y-78049523D01*
X151867142Y-78001904D01*
X151771904Y-77954285D01*
X151533809Y-77954285D01*
X151438571Y-78001904D01*
X151390952Y-78049523D01*
X151343333Y-78144761D01*
X151343333Y-78335238D01*
X151390952Y-78430476D01*
X151438571Y-78478095D01*
X151533809Y-78525714D01*
X147828095Y-92742380D02*
X147828095Y-93551904D01*
X147875714Y-93647142D01*
X147923333Y-93694761D01*
X148018571Y-93742380D01*
X148209047Y-93742380D01*
X148304285Y-93694761D01*
X148351904Y-93647142D01*
X148399523Y-93551904D01*
X148399523Y-92742380D01*
X149399523Y-93742380D02*
X148828095Y-93742380D01*
X149113809Y-93742380D02*
X149113809Y-92742380D01*
X149018571Y-92885238D01*
X148923333Y-92980476D01*
X148828095Y-93028095D01*
M02*
