G04 #@! TF.GenerationSoftware,KiCad,Pcbnew,(5.1.2)-2*
G04 #@! TF.CreationDate,2019-07-24T11:52:09-04:00*
G04 #@! TF.ProjectId,CABR_Schematic,43414252-5f53-4636-9865-6d617469632e,rev?*
G04 #@! TF.SameCoordinates,Original*
G04 #@! TF.FileFunction,Copper,L1,Top*
G04 #@! TF.FilePolarity,Positive*
%FSLAX46Y46*%
G04 Gerber Fmt 4.6, Leading zero omitted, Abs format (unit mm)*
G04 Created by KiCad (PCBNEW (5.1.2)-2) date 2019-07-24 11:52:09*
%MOMM*%
%LPD*%
G04 APERTURE LIST*
%ADD10C,0.100000*%
%ADD11C,0.975000*%
%ADD12R,1.200000X0.900000*%
%ADD13C,6.000000*%
%ADD14R,1.700000X1.700000*%
%ADD15O,1.700000X1.700000*%
%ADD16C,0.850000*%
%ADD17R,1.500000X1.000000*%
%ADD18R,1.800000X1.000000*%
%ADD19R,1.840000X2.200000*%
%ADD20C,1.000000*%
%ADD21R,2.000000X3.800000*%
%ADD22R,2.000000X1.500000*%
%ADD23R,1.700000X0.650000*%
%ADD24C,0.800000*%
%ADD25C,0.250000*%
G04 APERTURE END LIST*
D10*
G36*
X150157642Y-102806174D02*
G01*
X150181303Y-102809684D01*
X150204507Y-102815496D01*
X150227029Y-102823554D01*
X150248653Y-102833782D01*
X150269170Y-102846079D01*
X150288383Y-102860329D01*
X150306107Y-102876393D01*
X150322171Y-102894117D01*
X150336421Y-102913330D01*
X150348718Y-102933847D01*
X150358946Y-102955471D01*
X150367004Y-102977993D01*
X150372816Y-103001197D01*
X150376326Y-103024858D01*
X150377500Y-103048750D01*
X150377500Y-103961250D01*
X150376326Y-103985142D01*
X150372816Y-104008803D01*
X150367004Y-104032007D01*
X150358946Y-104054529D01*
X150348718Y-104076153D01*
X150336421Y-104096670D01*
X150322171Y-104115883D01*
X150306107Y-104133607D01*
X150288383Y-104149671D01*
X150269170Y-104163921D01*
X150248653Y-104176218D01*
X150227029Y-104186446D01*
X150204507Y-104194504D01*
X150181303Y-104200316D01*
X150157642Y-104203826D01*
X150133750Y-104205000D01*
X149646250Y-104205000D01*
X149622358Y-104203826D01*
X149598697Y-104200316D01*
X149575493Y-104194504D01*
X149552971Y-104186446D01*
X149531347Y-104176218D01*
X149510830Y-104163921D01*
X149491617Y-104149671D01*
X149473893Y-104133607D01*
X149457829Y-104115883D01*
X149443579Y-104096670D01*
X149431282Y-104076153D01*
X149421054Y-104054529D01*
X149412996Y-104032007D01*
X149407184Y-104008803D01*
X149403674Y-103985142D01*
X149402500Y-103961250D01*
X149402500Y-103048750D01*
X149403674Y-103024858D01*
X149407184Y-103001197D01*
X149412996Y-102977993D01*
X149421054Y-102955471D01*
X149431282Y-102933847D01*
X149443579Y-102913330D01*
X149457829Y-102894117D01*
X149473893Y-102876393D01*
X149491617Y-102860329D01*
X149510830Y-102846079D01*
X149531347Y-102833782D01*
X149552971Y-102823554D01*
X149575493Y-102815496D01*
X149598697Y-102809684D01*
X149622358Y-102806174D01*
X149646250Y-102805000D01*
X150133750Y-102805000D01*
X150157642Y-102806174D01*
X150157642Y-102806174D01*
G37*
D11*
X149890000Y-103505000D03*
D10*
G36*
X152032642Y-102806174D02*
G01*
X152056303Y-102809684D01*
X152079507Y-102815496D01*
X152102029Y-102823554D01*
X152123653Y-102833782D01*
X152144170Y-102846079D01*
X152163383Y-102860329D01*
X152181107Y-102876393D01*
X152197171Y-102894117D01*
X152211421Y-102913330D01*
X152223718Y-102933847D01*
X152233946Y-102955471D01*
X152242004Y-102977993D01*
X152247816Y-103001197D01*
X152251326Y-103024858D01*
X152252500Y-103048750D01*
X152252500Y-103961250D01*
X152251326Y-103985142D01*
X152247816Y-104008803D01*
X152242004Y-104032007D01*
X152233946Y-104054529D01*
X152223718Y-104076153D01*
X152211421Y-104096670D01*
X152197171Y-104115883D01*
X152181107Y-104133607D01*
X152163383Y-104149671D01*
X152144170Y-104163921D01*
X152123653Y-104176218D01*
X152102029Y-104186446D01*
X152079507Y-104194504D01*
X152056303Y-104200316D01*
X152032642Y-104203826D01*
X152008750Y-104205000D01*
X151521250Y-104205000D01*
X151497358Y-104203826D01*
X151473697Y-104200316D01*
X151450493Y-104194504D01*
X151427971Y-104186446D01*
X151406347Y-104176218D01*
X151385830Y-104163921D01*
X151366617Y-104149671D01*
X151348893Y-104133607D01*
X151332829Y-104115883D01*
X151318579Y-104096670D01*
X151306282Y-104076153D01*
X151296054Y-104054529D01*
X151287996Y-104032007D01*
X151282184Y-104008803D01*
X151278674Y-103985142D01*
X151277500Y-103961250D01*
X151277500Y-103048750D01*
X151278674Y-103024858D01*
X151282184Y-103001197D01*
X151287996Y-102977993D01*
X151296054Y-102955471D01*
X151306282Y-102933847D01*
X151318579Y-102913330D01*
X151332829Y-102894117D01*
X151348893Y-102876393D01*
X151366617Y-102860329D01*
X151385830Y-102846079D01*
X151406347Y-102833782D01*
X151427971Y-102823554D01*
X151450493Y-102815496D01*
X151473697Y-102809684D01*
X151497358Y-102806174D01*
X151521250Y-102805000D01*
X152008750Y-102805000D01*
X152032642Y-102806174D01*
X152032642Y-102806174D01*
G37*
D11*
X151765000Y-103505000D03*
D10*
G36*
X147255142Y-102806174D02*
G01*
X147278803Y-102809684D01*
X147302007Y-102815496D01*
X147324529Y-102823554D01*
X147346153Y-102833782D01*
X147366670Y-102846079D01*
X147385883Y-102860329D01*
X147403607Y-102876393D01*
X147419671Y-102894117D01*
X147433921Y-102913330D01*
X147446218Y-102933847D01*
X147456446Y-102955471D01*
X147464504Y-102977993D01*
X147470316Y-103001197D01*
X147473826Y-103024858D01*
X147475000Y-103048750D01*
X147475000Y-103961250D01*
X147473826Y-103985142D01*
X147470316Y-104008803D01*
X147464504Y-104032007D01*
X147456446Y-104054529D01*
X147446218Y-104076153D01*
X147433921Y-104096670D01*
X147419671Y-104115883D01*
X147403607Y-104133607D01*
X147385883Y-104149671D01*
X147366670Y-104163921D01*
X147346153Y-104176218D01*
X147324529Y-104186446D01*
X147302007Y-104194504D01*
X147278803Y-104200316D01*
X147255142Y-104203826D01*
X147231250Y-104205000D01*
X146743750Y-104205000D01*
X146719858Y-104203826D01*
X146696197Y-104200316D01*
X146672993Y-104194504D01*
X146650471Y-104186446D01*
X146628847Y-104176218D01*
X146608330Y-104163921D01*
X146589117Y-104149671D01*
X146571393Y-104133607D01*
X146555329Y-104115883D01*
X146541079Y-104096670D01*
X146528782Y-104076153D01*
X146518554Y-104054529D01*
X146510496Y-104032007D01*
X146504684Y-104008803D01*
X146501174Y-103985142D01*
X146500000Y-103961250D01*
X146500000Y-103048750D01*
X146501174Y-103024858D01*
X146504684Y-103001197D01*
X146510496Y-102977993D01*
X146518554Y-102955471D01*
X146528782Y-102933847D01*
X146541079Y-102913330D01*
X146555329Y-102894117D01*
X146571393Y-102876393D01*
X146589117Y-102860329D01*
X146608330Y-102846079D01*
X146628847Y-102833782D01*
X146650471Y-102823554D01*
X146672993Y-102815496D01*
X146696197Y-102809684D01*
X146719858Y-102806174D01*
X146743750Y-102805000D01*
X147231250Y-102805000D01*
X147255142Y-102806174D01*
X147255142Y-102806174D01*
G37*
D11*
X146987500Y-103505000D03*
D10*
G36*
X145380142Y-102806174D02*
G01*
X145403803Y-102809684D01*
X145427007Y-102815496D01*
X145449529Y-102823554D01*
X145471153Y-102833782D01*
X145491670Y-102846079D01*
X145510883Y-102860329D01*
X145528607Y-102876393D01*
X145544671Y-102894117D01*
X145558921Y-102913330D01*
X145571218Y-102933847D01*
X145581446Y-102955471D01*
X145589504Y-102977993D01*
X145595316Y-103001197D01*
X145598826Y-103024858D01*
X145600000Y-103048750D01*
X145600000Y-103961250D01*
X145598826Y-103985142D01*
X145595316Y-104008803D01*
X145589504Y-104032007D01*
X145581446Y-104054529D01*
X145571218Y-104076153D01*
X145558921Y-104096670D01*
X145544671Y-104115883D01*
X145528607Y-104133607D01*
X145510883Y-104149671D01*
X145491670Y-104163921D01*
X145471153Y-104176218D01*
X145449529Y-104186446D01*
X145427007Y-104194504D01*
X145403803Y-104200316D01*
X145380142Y-104203826D01*
X145356250Y-104205000D01*
X144868750Y-104205000D01*
X144844858Y-104203826D01*
X144821197Y-104200316D01*
X144797993Y-104194504D01*
X144775471Y-104186446D01*
X144753847Y-104176218D01*
X144733330Y-104163921D01*
X144714117Y-104149671D01*
X144696393Y-104133607D01*
X144680329Y-104115883D01*
X144666079Y-104096670D01*
X144653782Y-104076153D01*
X144643554Y-104054529D01*
X144635496Y-104032007D01*
X144629684Y-104008803D01*
X144626174Y-103985142D01*
X144625000Y-103961250D01*
X144625000Y-103048750D01*
X144626174Y-103024858D01*
X144629684Y-103001197D01*
X144635496Y-102977993D01*
X144643554Y-102955471D01*
X144653782Y-102933847D01*
X144666079Y-102913330D01*
X144680329Y-102894117D01*
X144696393Y-102876393D01*
X144714117Y-102860329D01*
X144733330Y-102846079D01*
X144753847Y-102833782D01*
X144775471Y-102823554D01*
X144797993Y-102815496D01*
X144821197Y-102809684D01*
X144844858Y-102806174D01*
X144868750Y-102805000D01*
X145356250Y-102805000D01*
X145380142Y-102806174D01*
X145380142Y-102806174D01*
G37*
D11*
X145112500Y-103505000D03*
D10*
G36*
X142720142Y-91812674D02*
G01*
X142743803Y-91816184D01*
X142767007Y-91821996D01*
X142789529Y-91830054D01*
X142811153Y-91840282D01*
X142831670Y-91852579D01*
X142850883Y-91866829D01*
X142868607Y-91882893D01*
X142884671Y-91900617D01*
X142898921Y-91919830D01*
X142911218Y-91940347D01*
X142921446Y-91961971D01*
X142929504Y-91984493D01*
X142935316Y-92007697D01*
X142938826Y-92031358D01*
X142940000Y-92055250D01*
X142940000Y-92542750D01*
X142938826Y-92566642D01*
X142935316Y-92590303D01*
X142929504Y-92613507D01*
X142921446Y-92636029D01*
X142911218Y-92657653D01*
X142898921Y-92678170D01*
X142884671Y-92697383D01*
X142868607Y-92715107D01*
X142850883Y-92731171D01*
X142831670Y-92745421D01*
X142811153Y-92757718D01*
X142789529Y-92767946D01*
X142767007Y-92776004D01*
X142743803Y-92781816D01*
X142720142Y-92785326D01*
X142696250Y-92786500D01*
X141783750Y-92786500D01*
X141759858Y-92785326D01*
X141736197Y-92781816D01*
X141712993Y-92776004D01*
X141690471Y-92767946D01*
X141668847Y-92757718D01*
X141648330Y-92745421D01*
X141629117Y-92731171D01*
X141611393Y-92715107D01*
X141595329Y-92697383D01*
X141581079Y-92678170D01*
X141568782Y-92657653D01*
X141558554Y-92636029D01*
X141550496Y-92613507D01*
X141544684Y-92590303D01*
X141541174Y-92566642D01*
X141540000Y-92542750D01*
X141540000Y-92055250D01*
X141541174Y-92031358D01*
X141544684Y-92007697D01*
X141550496Y-91984493D01*
X141558554Y-91961971D01*
X141568782Y-91940347D01*
X141581079Y-91919830D01*
X141595329Y-91900617D01*
X141611393Y-91882893D01*
X141629117Y-91866829D01*
X141648330Y-91852579D01*
X141668847Y-91840282D01*
X141690471Y-91830054D01*
X141712993Y-91821996D01*
X141736197Y-91816184D01*
X141759858Y-91812674D01*
X141783750Y-91811500D01*
X142696250Y-91811500D01*
X142720142Y-91812674D01*
X142720142Y-91812674D01*
G37*
D11*
X142240000Y-92299000D03*
D10*
G36*
X142720142Y-89937674D02*
G01*
X142743803Y-89941184D01*
X142767007Y-89946996D01*
X142789529Y-89955054D01*
X142811153Y-89965282D01*
X142831670Y-89977579D01*
X142850883Y-89991829D01*
X142868607Y-90007893D01*
X142884671Y-90025617D01*
X142898921Y-90044830D01*
X142911218Y-90065347D01*
X142921446Y-90086971D01*
X142929504Y-90109493D01*
X142935316Y-90132697D01*
X142938826Y-90156358D01*
X142940000Y-90180250D01*
X142940000Y-90667750D01*
X142938826Y-90691642D01*
X142935316Y-90715303D01*
X142929504Y-90738507D01*
X142921446Y-90761029D01*
X142911218Y-90782653D01*
X142898921Y-90803170D01*
X142884671Y-90822383D01*
X142868607Y-90840107D01*
X142850883Y-90856171D01*
X142831670Y-90870421D01*
X142811153Y-90882718D01*
X142789529Y-90892946D01*
X142767007Y-90901004D01*
X142743803Y-90906816D01*
X142720142Y-90910326D01*
X142696250Y-90911500D01*
X141783750Y-90911500D01*
X141759858Y-90910326D01*
X141736197Y-90906816D01*
X141712993Y-90901004D01*
X141690471Y-90892946D01*
X141668847Y-90882718D01*
X141648330Y-90870421D01*
X141629117Y-90856171D01*
X141611393Y-90840107D01*
X141595329Y-90822383D01*
X141581079Y-90803170D01*
X141568782Y-90782653D01*
X141558554Y-90761029D01*
X141550496Y-90738507D01*
X141544684Y-90715303D01*
X141541174Y-90691642D01*
X141540000Y-90667750D01*
X141540000Y-90180250D01*
X141541174Y-90156358D01*
X141544684Y-90132697D01*
X141550496Y-90109493D01*
X141558554Y-90086971D01*
X141568782Y-90065347D01*
X141581079Y-90044830D01*
X141595329Y-90025617D01*
X141611393Y-90007893D01*
X141629117Y-89991829D01*
X141648330Y-89977579D01*
X141668847Y-89965282D01*
X141690471Y-89955054D01*
X141712993Y-89946996D01*
X141736197Y-89941184D01*
X141759858Y-89937674D01*
X141783750Y-89936500D01*
X142696250Y-89936500D01*
X142720142Y-89937674D01*
X142720142Y-89937674D01*
G37*
D11*
X142240000Y-90424000D03*
D12*
X157480000Y-74550000D03*
X157480000Y-77850000D03*
D13*
X153035000Y-65024000D03*
X145535000Y-65024000D03*
D14*
X141224000Y-77216000D03*
D15*
X143764000Y-77216000D03*
X146304000Y-77216000D03*
D14*
X151765000Y-88265000D03*
D15*
X151765000Y-90805000D03*
X149225000Y-88265000D03*
X149225000Y-90805000D03*
X146685000Y-88265000D03*
X146685000Y-90805000D03*
D14*
X141605000Y-85725000D03*
D15*
X141605000Y-83185000D03*
D13*
X152915000Y-111125000D03*
X145415000Y-111125000D03*
D16*
X155067000Y-75565000D03*
D10*
G36*
X154642000Y-74465000D02*
G01*
X155492000Y-75065000D01*
X155492000Y-76065000D01*
X154642000Y-76665000D01*
X154642000Y-74465000D01*
X154642000Y-74465000D01*
G37*
D17*
X150920000Y-74065000D03*
D18*
X151066500Y-75565000D03*
D17*
X150920000Y-77065000D03*
D19*
X153733500Y-75565000D03*
D20*
X152323800Y-75565000D03*
D10*
G36*
X152823800Y-76665000D02*
G01*
X151823800Y-75965000D01*
X151823800Y-75165000D01*
X152823800Y-74465000D01*
X152823800Y-76665000D01*
X152823800Y-76665000D01*
G37*
G36*
X157112642Y-88201174D02*
G01*
X157136303Y-88204684D01*
X157159507Y-88210496D01*
X157182029Y-88218554D01*
X157203653Y-88228782D01*
X157224170Y-88241079D01*
X157243383Y-88255329D01*
X157261107Y-88271393D01*
X157277171Y-88289117D01*
X157291421Y-88308330D01*
X157303718Y-88328847D01*
X157313946Y-88350471D01*
X157322004Y-88372993D01*
X157327816Y-88396197D01*
X157331326Y-88419858D01*
X157332500Y-88443750D01*
X157332500Y-89356250D01*
X157331326Y-89380142D01*
X157327816Y-89403803D01*
X157322004Y-89427007D01*
X157313946Y-89449529D01*
X157303718Y-89471153D01*
X157291421Y-89491670D01*
X157277171Y-89510883D01*
X157261107Y-89528607D01*
X157243383Y-89544671D01*
X157224170Y-89558921D01*
X157203653Y-89571218D01*
X157182029Y-89581446D01*
X157159507Y-89589504D01*
X157136303Y-89595316D01*
X157112642Y-89598826D01*
X157088750Y-89600000D01*
X156601250Y-89600000D01*
X156577358Y-89598826D01*
X156553697Y-89595316D01*
X156530493Y-89589504D01*
X156507971Y-89581446D01*
X156486347Y-89571218D01*
X156465830Y-89558921D01*
X156446617Y-89544671D01*
X156428893Y-89528607D01*
X156412829Y-89510883D01*
X156398579Y-89491670D01*
X156386282Y-89471153D01*
X156376054Y-89449529D01*
X156367996Y-89427007D01*
X156362184Y-89403803D01*
X156358674Y-89380142D01*
X156357500Y-89356250D01*
X156357500Y-88443750D01*
X156358674Y-88419858D01*
X156362184Y-88396197D01*
X156367996Y-88372993D01*
X156376054Y-88350471D01*
X156386282Y-88328847D01*
X156398579Y-88308330D01*
X156412829Y-88289117D01*
X156428893Y-88271393D01*
X156446617Y-88255329D01*
X156465830Y-88241079D01*
X156486347Y-88228782D01*
X156507971Y-88218554D01*
X156530493Y-88210496D01*
X156553697Y-88204684D01*
X156577358Y-88201174D01*
X156601250Y-88200000D01*
X157088750Y-88200000D01*
X157112642Y-88201174D01*
X157112642Y-88201174D01*
G37*
D11*
X156845000Y-88900000D03*
D10*
G36*
X155237642Y-88201174D02*
G01*
X155261303Y-88204684D01*
X155284507Y-88210496D01*
X155307029Y-88218554D01*
X155328653Y-88228782D01*
X155349170Y-88241079D01*
X155368383Y-88255329D01*
X155386107Y-88271393D01*
X155402171Y-88289117D01*
X155416421Y-88308330D01*
X155428718Y-88328847D01*
X155438946Y-88350471D01*
X155447004Y-88372993D01*
X155452816Y-88396197D01*
X155456326Y-88419858D01*
X155457500Y-88443750D01*
X155457500Y-89356250D01*
X155456326Y-89380142D01*
X155452816Y-89403803D01*
X155447004Y-89427007D01*
X155438946Y-89449529D01*
X155428718Y-89471153D01*
X155416421Y-89491670D01*
X155402171Y-89510883D01*
X155386107Y-89528607D01*
X155368383Y-89544671D01*
X155349170Y-89558921D01*
X155328653Y-89571218D01*
X155307029Y-89581446D01*
X155284507Y-89589504D01*
X155261303Y-89595316D01*
X155237642Y-89598826D01*
X155213750Y-89600000D01*
X154726250Y-89600000D01*
X154702358Y-89598826D01*
X154678697Y-89595316D01*
X154655493Y-89589504D01*
X154632971Y-89581446D01*
X154611347Y-89571218D01*
X154590830Y-89558921D01*
X154571617Y-89544671D01*
X154553893Y-89528607D01*
X154537829Y-89510883D01*
X154523579Y-89491670D01*
X154511282Y-89471153D01*
X154501054Y-89449529D01*
X154492996Y-89427007D01*
X154487184Y-89403803D01*
X154483674Y-89380142D01*
X154482500Y-89356250D01*
X154482500Y-88443750D01*
X154483674Y-88419858D01*
X154487184Y-88396197D01*
X154492996Y-88372993D01*
X154501054Y-88350471D01*
X154511282Y-88328847D01*
X154523579Y-88308330D01*
X154537829Y-88289117D01*
X154553893Y-88271393D01*
X154571617Y-88255329D01*
X154590830Y-88241079D01*
X154611347Y-88228782D01*
X154632971Y-88218554D01*
X154655493Y-88210496D01*
X154678697Y-88204684D01*
X154702358Y-88201174D01*
X154726250Y-88200000D01*
X155213750Y-88200000D01*
X155237642Y-88201174D01*
X155237642Y-88201174D01*
G37*
D11*
X154970000Y-88900000D03*
D10*
G36*
X159230142Y-83666174D02*
G01*
X159253803Y-83669684D01*
X159277007Y-83675496D01*
X159299529Y-83683554D01*
X159321153Y-83693782D01*
X159341670Y-83706079D01*
X159360883Y-83720329D01*
X159378607Y-83736393D01*
X159394671Y-83754117D01*
X159408921Y-83773330D01*
X159421218Y-83793847D01*
X159431446Y-83815471D01*
X159439504Y-83837993D01*
X159445316Y-83861197D01*
X159448826Y-83884858D01*
X159450000Y-83908750D01*
X159450000Y-84396250D01*
X159448826Y-84420142D01*
X159445316Y-84443803D01*
X159439504Y-84467007D01*
X159431446Y-84489529D01*
X159421218Y-84511153D01*
X159408921Y-84531670D01*
X159394671Y-84550883D01*
X159378607Y-84568607D01*
X159360883Y-84584671D01*
X159341670Y-84598921D01*
X159321153Y-84611218D01*
X159299529Y-84621446D01*
X159277007Y-84629504D01*
X159253803Y-84635316D01*
X159230142Y-84638826D01*
X159206250Y-84640000D01*
X158293750Y-84640000D01*
X158269858Y-84638826D01*
X158246197Y-84635316D01*
X158222993Y-84629504D01*
X158200471Y-84621446D01*
X158178847Y-84611218D01*
X158158330Y-84598921D01*
X158139117Y-84584671D01*
X158121393Y-84568607D01*
X158105329Y-84550883D01*
X158091079Y-84531670D01*
X158078782Y-84511153D01*
X158068554Y-84489529D01*
X158060496Y-84467007D01*
X158054684Y-84443803D01*
X158051174Y-84420142D01*
X158050000Y-84396250D01*
X158050000Y-83908750D01*
X158051174Y-83884858D01*
X158054684Y-83861197D01*
X158060496Y-83837993D01*
X158068554Y-83815471D01*
X158078782Y-83793847D01*
X158091079Y-83773330D01*
X158105329Y-83754117D01*
X158121393Y-83736393D01*
X158139117Y-83720329D01*
X158158330Y-83706079D01*
X158178847Y-83693782D01*
X158200471Y-83683554D01*
X158222993Y-83675496D01*
X158246197Y-83669684D01*
X158269858Y-83666174D01*
X158293750Y-83665000D01*
X159206250Y-83665000D01*
X159230142Y-83666174D01*
X159230142Y-83666174D01*
G37*
D11*
X158750000Y-84152500D03*
D10*
G36*
X159230142Y-85541174D02*
G01*
X159253803Y-85544684D01*
X159277007Y-85550496D01*
X159299529Y-85558554D01*
X159321153Y-85568782D01*
X159341670Y-85581079D01*
X159360883Y-85595329D01*
X159378607Y-85611393D01*
X159394671Y-85629117D01*
X159408921Y-85648330D01*
X159421218Y-85668847D01*
X159431446Y-85690471D01*
X159439504Y-85712993D01*
X159445316Y-85736197D01*
X159448826Y-85759858D01*
X159450000Y-85783750D01*
X159450000Y-86271250D01*
X159448826Y-86295142D01*
X159445316Y-86318803D01*
X159439504Y-86342007D01*
X159431446Y-86364529D01*
X159421218Y-86386153D01*
X159408921Y-86406670D01*
X159394671Y-86425883D01*
X159378607Y-86443607D01*
X159360883Y-86459671D01*
X159341670Y-86473921D01*
X159321153Y-86486218D01*
X159299529Y-86496446D01*
X159277007Y-86504504D01*
X159253803Y-86510316D01*
X159230142Y-86513826D01*
X159206250Y-86515000D01*
X158293750Y-86515000D01*
X158269858Y-86513826D01*
X158246197Y-86510316D01*
X158222993Y-86504504D01*
X158200471Y-86496446D01*
X158178847Y-86486218D01*
X158158330Y-86473921D01*
X158139117Y-86459671D01*
X158121393Y-86443607D01*
X158105329Y-86425883D01*
X158091079Y-86406670D01*
X158078782Y-86386153D01*
X158068554Y-86364529D01*
X158060496Y-86342007D01*
X158054684Y-86318803D01*
X158051174Y-86295142D01*
X158050000Y-86271250D01*
X158050000Y-85783750D01*
X158051174Y-85759858D01*
X158054684Y-85736197D01*
X158060496Y-85712993D01*
X158068554Y-85690471D01*
X158078782Y-85668847D01*
X158091079Y-85648330D01*
X158105329Y-85629117D01*
X158121393Y-85611393D01*
X158139117Y-85595329D01*
X158158330Y-85581079D01*
X158178847Y-85568782D01*
X158200471Y-85558554D01*
X158222993Y-85550496D01*
X158246197Y-85544684D01*
X158269858Y-85541174D01*
X158293750Y-85540000D01*
X159206250Y-85540000D01*
X159230142Y-85541174D01*
X159230142Y-85541174D01*
G37*
D11*
X158750000Y-86027500D03*
D10*
G36*
X143736142Y-94080174D02*
G01*
X143759803Y-94083684D01*
X143783007Y-94089496D01*
X143805529Y-94097554D01*
X143827153Y-94107782D01*
X143847670Y-94120079D01*
X143866883Y-94134329D01*
X143884607Y-94150393D01*
X143900671Y-94168117D01*
X143914921Y-94187330D01*
X143927218Y-94207847D01*
X143937446Y-94229471D01*
X143945504Y-94251993D01*
X143951316Y-94275197D01*
X143954826Y-94298858D01*
X143956000Y-94322750D01*
X143956000Y-94810250D01*
X143954826Y-94834142D01*
X143951316Y-94857803D01*
X143945504Y-94881007D01*
X143937446Y-94903529D01*
X143927218Y-94925153D01*
X143914921Y-94945670D01*
X143900671Y-94964883D01*
X143884607Y-94982607D01*
X143866883Y-94998671D01*
X143847670Y-95012921D01*
X143827153Y-95025218D01*
X143805529Y-95035446D01*
X143783007Y-95043504D01*
X143759803Y-95049316D01*
X143736142Y-95052826D01*
X143712250Y-95054000D01*
X142799750Y-95054000D01*
X142775858Y-95052826D01*
X142752197Y-95049316D01*
X142728993Y-95043504D01*
X142706471Y-95035446D01*
X142684847Y-95025218D01*
X142664330Y-95012921D01*
X142645117Y-94998671D01*
X142627393Y-94982607D01*
X142611329Y-94964883D01*
X142597079Y-94945670D01*
X142584782Y-94925153D01*
X142574554Y-94903529D01*
X142566496Y-94881007D01*
X142560684Y-94857803D01*
X142557174Y-94834142D01*
X142556000Y-94810250D01*
X142556000Y-94322750D01*
X142557174Y-94298858D01*
X142560684Y-94275197D01*
X142566496Y-94251993D01*
X142574554Y-94229471D01*
X142584782Y-94207847D01*
X142597079Y-94187330D01*
X142611329Y-94168117D01*
X142627393Y-94150393D01*
X142645117Y-94134329D01*
X142664330Y-94120079D01*
X142684847Y-94107782D01*
X142706471Y-94097554D01*
X142728993Y-94089496D01*
X142752197Y-94083684D01*
X142775858Y-94080174D01*
X142799750Y-94079000D01*
X143712250Y-94079000D01*
X143736142Y-94080174D01*
X143736142Y-94080174D01*
G37*
D11*
X143256000Y-94566500D03*
D10*
G36*
X143736142Y-95955174D02*
G01*
X143759803Y-95958684D01*
X143783007Y-95964496D01*
X143805529Y-95972554D01*
X143827153Y-95982782D01*
X143847670Y-95995079D01*
X143866883Y-96009329D01*
X143884607Y-96025393D01*
X143900671Y-96043117D01*
X143914921Y-96062330D01*
X143927218Y-96082847D01*
X143937446Y-96104471D01*
X143945504Y-96126993D01*
X143951316Y-96150197D01*
X143954826Y-96173858D01*
X143956000Y-96197750D01*
X143956000Y-96685250D01*
X143954826Y-96709142D01*
X143951316Y-96732803D01*
X143945504Y-96756007D01*
X143937446Y-96778529D01*
X143927218Y-96800153D01*
X143914921Y-96820670D01*
X143900671Y-96839883D01*
X143884607Y-96857607D01*
X143866883Y-96873671D01*
X143847670Y-96887921D01*
X143827153Y-96900218D01*
X143805529Y-96910446D01*
X143783007Y-96918504D01*
X143759803Y-96924316D01*
X143736142Y-96927826D01*
X143712250Y-96929000D01*
X142799750Y-96929000D01*
X142775858Y-96927826D01*
X142752197Y-96924316D01*
X142728993Y-96918504D01*
X142706471Y-96910446D01*
X142684847Y-96900218D01*
X142664330Y-96887921D01*
X142645117Y-96873671D01*
X142627393Y-96857607D01*
X142611329Y-96839883D01*
X142597079Y-96820670D01*
X142584782Y-96800153D01*
X142574554Y-96778529D01*
X142566496Y-96756007D01*
X142560684Y-96732803D01*
X142557174Y-96709142D01*
X142556000Y-96685250D01*
X142556000Y-96197750D01*
X142557174Y-96173858D01*
X142560684Y-96150197D01*
X142566496Y-96126993D01*
X142574554Y-96104471D01*
X142584782Y-96082847D01*
X142597079Y-96062330D01*
X142611329Y-96043117D01*
X142627393Y-96025393D01*
X142645117Y-96009329D01*
X142664330Y-95995079D01*
X142684847Y-95982782D01*
X142706471Y-95972554D01*
X142728993Y-95964496D01*
X142752197Y-95958684D01*
X142775858Y-95955174D01*
X142799750Y-95954000D01*
X143712250Y-95954000D01*
X143736142Y-95955174D01*
X143736142Y-95955174D01*
G37*
D11*
X143256000Y-96441500D03*
D10*
G36*
X157161142Y-91757174D02*
G01*
X157184803Y-91760684D01*
X157208007Y-91766496D01*
X157230529Y-91774554D01*
X157252153Y-91784782D01*
X157272670Y-91797079D01*
X157291883Y-91811329D01*
X157309607Y-91827393D01*
X157325671Y-91845117D01*
X157339921Y-91864330D01*
X157352218Y-91884847D01*
X157362446Y-91906471D01*
X157370504Y-91928993D01*
X157376316Y-91952197D01*
X157379826Y-91975858D01*
X157381000Y-91999750D01*
X157381000Y-92912250D01*
X157379826Y-92936142D01*
X157376316Y-92959803D01*
X157370504Y-92983007D01*
X157362446Y-93005529D01*
X157352218Y-93027153D01*
X157339921Y-93047670D01*
X157325671Y-93066883D01*
X157309607Y-93084607D01*
X157291883Y-93100671D01*
X157272670Y-93114921D01*
X157252153Y-93127218D01*
X157230529Y-93137446D01*
X157208007Y-93145504D01*
X157184803Y-93151316D01*
X157161142Y-93154826D01*
X157137250Y-93156000D01*
X156649750Y-93156000D01*
X156625858Y-93154826D01*
X156602197Y-93151316D01*
X156578993Y-93145504D01*
X156556471Y-93137446D01*
X156534847Y-93127218D01*
X156514330Y-93114921D01*
X156495117Y-93100671D01*
X156477393Y-93084607D01*
X156461329Y-93066883D01*
X156447079Y-93047670D01*
X156434782Y-93027153D01*
X156424554Y-93005529D01*
X156416496Y-92983007D01*
X156410684Y-92959803D01*
X156407174Y-92936142D01*
X156406000Y-92912250D01*
X156406000Y-91999750D01*
X156407174Y-91975858D01*
X156410684Y-91952197D01*
X156416496Y-91928993D01*
X156424554Y-91906471D01*
X156434782Y-91884847D01*
X156447079Y-91864330D01*
X156461329Y-91845117D01*
X156477393Y-91827393D01*
X156495117Y-91811329D01*
X156514330Y-91797079D01*
X156534847Y-91784782D01*
X156556471Y-91774554D01*
X156578993Y-91766496D01*
X156602197Y-91760684D01*
X156625858Y-91757174D01*
X156649750Y-91756000D01*
X157137250Y-91756000D01*
X157161142Y-91757174D01*
X157161142Y-91757174D01*
G37*
D11*
X156893500Y-92456000D03*
D10*
G36*
X155286142Y-91757174D02*
G01*
X155309803Y-91760684D01*
X155333007Y-91766496D01*
X155355529Y-91774554D01*
X155377153Y-91784782D01*
X155397670Y-91797079D01*
X155416883Y-91811329D01*
X155434607Y-91827393D01*
X155450671Y-91845117D01*
X155464921Y-91864330D01*
X155477218Y-91884847D01*
X155487446Y-91906471D01*
X155495504Y-91928993D01*
X155501316Y-91952197D01*
X155504826Y-91975858D01*
X155506000Y-91999750D01*
X155506000Y-92912250D01*
X155504826Y-92936142D01*
X155501316Y-92959803D01*
X155495504Y-92983007D01*
X155487446Y-93005529D01*
X155477218Y-93027153D01*
X155464921Y-93047670D01*
X155450671Y-93066883D01*
X155434607Y-93084607D01*
X155416883Y-93100671D01*
X155397670Y-93114921D01*
X155377153Y-93127218D01*
X155355529Y-93137446D01*
X155333007Y-93145504D01*
X155309803Y-93151316D01*
X155286142Y-93154826D01*
X155262250Y-93156000D01*
X154774750Y-93156000D01*
X154750858Y-93154826D01*
X154727197Y-93151316D01*
X154703993Y-93145504D01*
X154681471Y-93137446D01*
X154659847Y-93127218D01*
X154639330Y-93114921D01*
X154620117Y-93100671D01*
X154602393Y-93084607D01*
X154586329Y-93066883D01*
X154572079Y-93047670D01*
X154559782Y-93027153D01*
X154549554Y-93005529D01*
X154541496Y-92983007D01*
X154535684Y-92959803D01*
X154532174Y-92936142D01*
X154531000Y-92912250D01*
X154531000Y-91999750D01*
X154532174Y-91975858D01*
X154535684Y-91952197D01*
X154541496Y-91928993D01*
X154549554Y-91906471D01*
X154559782Y-91884847D01*
X154572079Y-91864330D01*
X154586329Y-91845117D01*
X154602393Y-91827393D01*
X154620117Y-91811329D01*
X154639330Y-91797079D01*
X154659847Y-91784782D01*
X154681471Y-91774554D01*
X154703993Y-91766496D01*
X154727197Y-91760684D01*
X154750858Y-91757174D01*
X154774750Y-91756000D01*
X155262250Y-91756000D01*
X155286142Y-91757174D01*
X155286142Y-91757174D01*
G37*
D11*
X155018500Y-92456000D03*
D10*
G36*
X156055142Y-84301174D02*
G01*
X156078803Y-84304684D01*
X156102007Y-84310496D01*
X156124529Y-84318554D01*
X156146153Y-84328782D01*
X156166670Y-84341079D01*
X156185883Y-84355329D01*
X156203607Y-84371393D01*
X156219671Y-84389117D01*
X156233921Y-84408330D01*
X156246218Y-84428847D01*
X156256446Y-84450471D01*
X156264504Y-84472993D01*
X156270316Y-84496197D01*
X156273826Y-84519858D01*
X156275000Y-84543750D01*
X156275000Y-85031250D01*
X156273826Y-85055142D01*
X156270316Y-85078803D01*
X156264504Y-85102007D01*
X156256446Y-85124529D01*
X156246218Y-85146153D01*
X156233921Y-85166670D01*
X156219671Y-85185883D01*
X156203607Y-85203607D01*
X156185883Y-85219671D01*
X156166670Y-85233921D01*
X156146153Y-85246218D01*
X156124529Y-85256446D01*
X156102007Y-85264504D01*
X156078803Y-85270316D01*
X156055142Y-85273826D01*
X156031250Y-85275000D01*
X155118750Y-85275000D01*
X155094858Y-85273826D01*
X155071197Y-85270316D01*
X155047993Y-85264504D01*
X155025471Y-85256446D01*
X155003847Y-85246218D01*
X154983330Y-85233921D01*
X154964117Y-85219671D01*
X154946393Y-85203607D01*
X154930329Y-85185883D01*
X154916079Y-85166670D01*
X154903782Y-85146153D01*
X154893554Y-85124529D01*
X154885496Y-85102007D01*
X154879684Y-85078803D01*
X154876174Y-85055142D01*
X154875000Y-85031250D01*
X154875000Y-84543750D01*
X154876174Y-84519858D01*
X154879684Y-84496197D01*
X154885496Y-84472993D01*
X154893554Y-84450471D01*
X154903782Y-84428847D01*
X154916079Y-84408330D01*
X154930329Y-84389117D01*
X154946393Y-84371393D01*
X154964117Y-84355329D01*
X154983330Y-84341079D01*
X155003847Y-84328782D01*
X155025471Y-84318554D01*
X155047993Y-84310496D01*
X155071197Y-84304684D01*
X155094858Y-84301174D01*
X155118750Y-84300000D01*
X156031250Y-84300000D01*
X156055142Y-84301174D01*
X156055142Y-84301174D01*
G37*
D11*
X155575000Y-84787500D03*
D10*
G36*
X156055142Y-86176174D02*
G01*
X156078803Y-86179684D01*
X156102007Y-86185496D01*
X156124529Y-86193554D01*
X156146153Y-86203782D01*
X156166670Y-86216079D01*
X156185883Y-86230329D01*
X156203607Y-86246393D01*
X156219671Y-86264117D01*
X156233921Y-86283330D01*
X156246218Y-86303847D01*
X156256446Y-86325471D01*
X156264504Y-86347993D01*
X156270316Y-86371197D01*
X156273826Y-86394858D01*
X156275000Y-86418750D01*
X156275000Y-86906250D01*
X156273826Y-86930142D01*
X156270316Y-86953803D01*
X156264504Y-86977007D01*
X156256446Y-86999529D01*
X156246218Y-87021153D01*
X156233921Y-87041670D01*
X156219671Y-87060883D01*
X156203607Y-87078607D01*
X156185883Y-87094671D01*
X156166670Y-87108921D01*
X156146153Y-87121218D01*
X156124529Y-87131446D01*
X156102007Y-87139504D01*
X156078803Y-87145316D01*
X156055142Y-87148826D01*
X156031250Y-87150000D01*
X155118750Y-87150000D01*
X155094858Y-87148826D01*
X155071197Y-87145316D01*
X155047993Y-87139504D01*
X155025471Y-87131446D01*
X155003847Y-87121218D01*
X154983330Y-87108921D01*
X154964117Y-87094671D01*
X154946393Y-87078607D01*
X154930329Y-87060883D01*
X154916079Y-87041670D01*
X154903782Y-87021153D01*
X154893554Y-86999529D01*
X154885496Y-86977007D01*
X154879684Y-86953803D01*
X154876174Y-86930142D01*
X154875000Y-86906250D01*
X154875000Y-86418750D01*
X154876174Y-86394858D01*
X154879684Y-86371197D01*
X154885496Y-86347993D01*
X154893554Y-86325471D01*
X154903782Y-86303847D01*
X154916079Y-86283330D01*
X154930329Y-86264117D01*
X154946393Y-86246393D01*
X154964117Y-86230329D01*
X154983330Y-86216079D01*
X155003847Y-86203782D01*
X155025471Y-86193554D01*
X155047993Y-86185496D01*
X155071197Y-86179684D01*
X155094858Y-86176174D01*
X155118750Y-86175000D01*
X156031250Y-86175000D01*
X156055142Y-86176174D01*
X156055142Y-86176174D01*
G37*
D11*
X155575000Y-86662500D03*
D10*
G36*
X148525142Y-72199174D02*
G01*
X148548803Y-72202684D01*
X148572007Y-72208496D01*
X148594529Y-72216554D01*
X148616153Y-72226782D01*
X148636670Y-72239079D01*
X148655883Y-72253329D01*
X148673607Y-72269393D01*
X148689671Y-72287117D01*
X148703921Y-72306330D01*
X148716218Y-72326847D01*
X148726446Y-72348471D01*
X148734504Y-72370993D01*
X148740316Y-72394197D01*
X148743826Y-72417858D01*
X148745000Y-72441750D01*
X148745000Y-73354250D01*
X148743826Y-73378142D01*
X148740316Y-73401803D01*
X148734504Y-73425007D01*
X148726446Y-73447529D01*
X148716218Y-73469153D01*
X148703921Y-73489670D01*
X148689671Y-73508883D01*
X148673607Y-73526607D01*
X148655883Y-73542671D01*
X148636670Y-73556921D01*
X148616153Y-73569218D01*
X148594529Y-73579446D01*
X148572007Y-73587504D01*
X148548803Y-73593316D01*
X148525142Y-73596826D01*
X148501250Y-73598000D01*
X148013750Y-73598000D01*
X147989858Y-73596826D01*
X147966197Y-73593316D01*
X147942993Y-73587504D01*
X147920471Y-73579446D01*
X147898847Y-73569218D01*
X147878330Y-73556921D01*
X147859117Y-73542671D01*
X147841393Y-73526607D01*
X147825329Y-73508883D01*
X147811079Y-73489670D01*
X147798782Y-73469153D01*
X147788554Y-73447529D01*
X147780496Y-73425007D01*
X147774684Y-73401803D01*
X147771174Y-73378142D01*
X147770000Y-73354250D01*
X147770000Y-72441750D01*
X147771174Y-72417858D01*
X147774684Y-72394197D01*
X147780496Y-72370993D01*
X147788554Y-72348471D01*
X147798782Y-72326847D01*
X147811079Y-72306330D01*
X147825329Y-72287117D01*
X147841393Y-72269393D01*
X147859117Y-72253329D01*
X147878330Y-72239079D01*
X147898847Y-72226782D01*
X147920471Y-72216554D01*
X147942993Y-72208496D01*
X147966197Y-72202684D01*
X147989858Y-72199174D01*
X148013750Y-72198000D01*
X148501250Y-72198000D01*
X148525142Y-72199174D01*
X148525142Y-72199174D01*
G37*
D11*
X148257500Y-72898000D03*
D10*
G36*
X146650142Y-72199174D02*
G01*
X146673803Y-72202684D01*
X146697007Y-72208496D01*
X146719529Y-72216554D01*
X146741153Y-72226782D01*
X146761670Y-72239079D01*
X146780883Y-72253329D01*
X146798607Y-72269393D01*
X146814671Y-72287117D01*
X146828921Y-72306330D01*
X146841218Y-72326847D01*
X146851446Y-72348471D01*
X146859504Y-72370993D01*
X146865316Y-72394197D01*
X146868826Y-72417858D01*
X146870000Y-72441750D01*
X146870000Y-73354250D01*
X146868826Y-73378142D01*
X146865316Y-73401803D01*
X146859504Y-73425007D01*
X146851446Y-73447529D01*
X146841218Y-73469153D01*
X146828921Y-73489670D01*
X146814671Y-73508883D01*
X146798607Y-73526607D01*
X146780883Y-73542671D01*
X146761670Y-73556921D01*
X146741153Y-73569218D01*
X146719529Y-73579446D01*
X146697007Y-73587504D01*
X146673803Y-73593316D01*
X146650142Y-73596826D01*
X146626250Y-73598000D01*
X146138750Y-73598000D01*
X146114858Y-73596826D01*
X146091197Y-73593316D01*
X146067993Y-73587504D01*
X146045471Y-73579446D01*
X146023847Y-73569218D01*
X146003330Y-73556921D01*
X145984117Y-73542671D01*
X145966393Y-73526607D01*
X145950329Y-73508883D01*
X145936079Y-73489670D01*
X145923782Y-73469153D01*
X145913554Y-73447529D01*
X145905496Y-73425007D01*
X145899684Y-73401803D01*
X145896174Y-73378142D01*
X145895000Y-73354250D01*
X145895000Y-72441750D01*
X145896174Y-72417858D01*
X145899684Y-72394197D01*
X145905496Y-72370993D01*
X145913554Y-72348471D01*
X145923782Y-72326847D01*
X145936079Y-72306330D01*
X145950329Y-72287117D01*
X145966393Y-72269393D01*
X145984117Y-72253329D01*
X146003330Y-72239079D01*
X146023847Y-72226782D01*
X146045471Y-72216554D01*
X146067993Y-72208496D01*
X146091197Y-72202684D01*
X146114858Y-72199174D01*
X146138750Y-72198000D01*
X146626250Y-72198000D01*
X146650142Y-72199174D01*
X146650142Y-72199174D01*
G37*
D11*
X146382500Y-72898000D03*
D21*
X152375000Y-97790000D03*
D22*
X146075000Y-97790000D03*
X146075000Y-100090000D03*
X146075000Y-95490000D03*
D23*
X145575000Y-80645000D03*
X145575000Y-81915000D03*
X145575000Y-83185000D03*
X145575000Y-84455000D03*
X152875000Y-84455000D03*
X152875000Y-83185000D03*
X152875000Y-81915000D03*
X152875000Y-80645000D03*
D10*
G36*
X156175142Y-80581174D02*
G01*
X156198803Y-80584684D01*
X156222007Y-80590496D01*
X156244529Y-80598554D01*
X156266153Y-80608782D01*
X156286670Y-80621079D01*
X156305883Y-80635329D01*
X156323607Y-80651393D01*
X156339671Y-80669117D01*
X156353921Y-80688330D01*
X156366218Y-80708847D01*
X156376446Y-80730471D01*
X156384504Y-80752993D01*
X156390316Y-80776197D01*
X156393826Y-80799858D01*
X156395000Y-80823750D01*
X156395000Y-81736250D01*
X156393826Y-81760142D01*
X156390316Y-81783803D01*
X156384504Y-81807007D01*
X156376446Y-81829529D01*
X156366218Y-81851153D01*
X156353921Y-81871670D01*
X156339671Y-81890883D01*
X156323607Y-81908607D01*
X156305883Y-81924671D01*
X156286670Y-81938921D01*
X156266153Y-81951218D01*
X156244529Y-81961446D01*
X156222007Y-81969504D01*
X156198803Y-81975316D01*
X156175142Y-81978826D01*
X156151250Y-81980000D01*
X155663750Y-81980000D01*
X155639858Y-81978826D01*
X155616197Y-81975316D01*
X155592993Y-81969504D01*
X155570471Y-81961446D01*
X155548847Y-81951218D01*
X155528330Y-81938921D01*
X155509117Y-81924671D01*
X155491393Y-81908607D01*
X155475329Y-81890883D01*
X155461079Y-81871670D01*
X155448782Y-81851153D01*
X155438554Y-81829529D01*
X155430496Y-81807007D01*
X155424684Y-81783803D01*
X155421174Y-81760142D01*
X155420000Y-81736250D01*
X155420000Y-80823750D01*
X155421174Y-80799858D01*
X155424684Y-80776197D01*
X155430496Y-80752993D01*
X155438554Y-80730471D01*
X155448782Y-80708847D01*
X155461079Y-80688330D01*
X155475329Y-80669117D01*
X155491393Y-80651393D01*
X155509117Y-80635329D01*
X155528330Y-80621079D01*
X155548847Y-80608782D01*
X155570471Y-80598554D01*
X155592993Y-80590496D01*
X155616197Y-80584684D01*
X155639858Y-80581174D01*
X155663750Y-80580000D01*
X156151250Y-80580000D01*
X156175142Y-80581174D01*
X156175142Y-80581174D01*
G37*
D11*
X155907500Y-81280000D03*
D10*
G36*
X158050142Y-80581174D02*
G01*
X158073803Y-80584684D01*
X158097007Y-80590496D01*
X158119529Y-80598554D01*
X158141153Y-80608782D01*
X158161670Y-80621079D01*
X158180883Y-80635329D01*
X158198607Y-80651393D01*
X158214671Y-80669117D01*
X158228921Y-80688330D01*
X158241218Y-80708847D01*
X158251446Y-80730471D01*
X158259504Y-80752993D01*
X158265316Y-80776197D01*
X158268826Y-80799858D01*
X158270000Y-80823750D01*
X158270000Y-81736250D01*
X158268826Y-81760142D01*
X158265316Y-81783803D01*
X158259504Y-81807007D01*
X158251446Y-81829529D01*
X158241218Y-81851153D01*
X158228921Y-81871670D01*
X158214671Y-81890883D01*
X158198607Y-81908607D01*
X158180883Y-81924671D01*
X158161670Y-81938921D01*
X158141153Y-81951218D01*
X158119529Y-81961446D01*
X158097007Y-81969504D01*
X158073803Y-81975316D01*
X158050142Y-81978826D01*
X158026250Y-81980000D01*
X157538750Y-81980000D01*
X157514858Y-81978826D01*
X157491197Y-81975316D01*
X157467993Y-81969504D01*
X157445471Y-81961446D01*
X157423847Y-81951218D01*
X157403330Y-81938921D01*
X157384117Y-81924671D01*
X157366393Y-81908607D01*
X157350329Y-81890883D01*
X157336079Y-81871670D01*
X157323782Y-81851153D01*
X157313554Y-81829529D01*
X157305496Y-81807007D01*
X157299684Y-81783803D01*
X157296174Y-81760142D01*
X157295000Y-81736250D01*
X157295000Y-80823750D01*
X157296174Y-80799858D01*
X157299684Y-80776197D01*
X157305496Y-80752993D01*
X157313554Y-80730471D01*
X157323782Y-80708847D01*
X157336079Y-80688330D01*
X157350329Y-80669117D01*
X157366393Y-80651393D01*
X157384117Y-80635329D01*
X157403330Y-80621079D01*
X157423847Y-80608782D01*
X157445471Y-80598554D01*
X157467993Y-80590496D01*
X157491197Y-80584684D01*
X157514858Y-80581174D01*
X157538750Y-80580000D01*
X158026250Y-80580000D01*
X158050142Y-80581174D01*
X158050142Y-80581174D01*
G37*
D11*
X157782500Y-81280000D03*
D24*
X157480000Y-76200000D03*
X148844000Y-100076000D03*
X148590000Y-103632000D03*
X152146000Y-74168000D03*
X147315347Y-84840653D03*
X144272000Y-90678000D03*
X145542000Y-86614000D03*
X153670000Y-86360000D03*
X143764000Y-102108000D03*
X144272000Y-98298000D03*
X156718000Y-82460000D03*
X153416000Y-89408000D03*
X142240000Y-88900000D03*
X144018000Y-84328000D03*
X151130000Y-85725000D03*
X151130000Y-83185000D03*
X154432000Y-82042000D03*
X154419299Y-87379395D03*
X147320000Y-83820000D03*
X149351964Y-85852000D03*
X146304000Y-74676000D03*
X149098000Y-83312000D03*
X151638000Y-92964000D03*
D25*
X145415000Y-107980000D02*
X145415000Y-111125000D01*
X149890000Y-103505000D02*
X145415000Y-107980000D01*
X157480000Y-69469000D02*
X153035000Y-65024000D01*
X157480000Y-74550000D02*
X157480000Y-69469000D01*
X157480000Y-74550000D02*
X157480000Y-76200000D01*
X146089000Y-100076000D02*
X146075000Y-100090000D01*
X148844000Y-100076000D02*
X146089000Y-100076000D01*
X149763000Y-103632000D02*
X149890000Y-103505000D01*
X148590000Y-103632000D02*
X149763000Y-103632000D01*
X144207500Y-95490000D02*
X146075000Y-95490000D01*
X143256000Y-96441500D02*
X144207500Y-95490000D01*
X143256000Y-99773500D02*
X143256000Y-96441500D01*
X146987500Y-103505000D02*
X143256000Y-99773500D01*
X147543737Y-102948763D02*
X146987500Y-103505000D01*
X148012510Y-102479990D02*
X147543737Y-102948763D01*
X151539990Y-102479990D02*
X148012510Y-102479990D01*
X151765000Y-102705000D02*
X151539990Y-102479990D01*
X151765000Y-103505000D02*
X151765000Y-102705000D01*
X151765000Y-109975000D02*
X152915000Y-111125000D01*
X151765000Y-103505000D02*
X151765000Y-109975000D01*
X156893500Y-92456000D02*
X158242000Y-91107500D01*
X150920000Y-74065000D02*
X152043000Y-74065000D01*
X152043000Y-74065000D02*
X152146000Y-74168000D01*
X146075000Y-91415000D02*
X146685000Y-90805000D01*
X146075000Y-95490000D02*
X146075000Y-91415000D01*
X146685000Y-90805000D02*
X144399000Y-90805000D01*
X144399000Y-90805000D02*
X144272000Y-90678000D01*
X158242000Y-87123000D02*
X158242000Y-89154000D01*
X158750000Y-86615000D02*
X158242000Y-87123000D01*
X158750000Y-86027500D02*
X158750000Y-86615000D01*
X158242000Y-91107500D02*
X158242000Y-89154000D01*
X155272500Y-86360000D02*
X155575000Y-86662500D01*
X153670000Y-86360000D02*
X155272500Y-86360000D01*
X155710987Y-86798487D02*
X155710987Y-87638987D01*
X155575000Y-86662500D02*
X155710987Y-86798487D01*
X158242000Y-88646000D02*
X158242000Y-89154000D01*
X157226000Y-87630000D02*
X158242000Y-88646000D01*
X155719974Y-87630000D02*
X157226000Y-87630000D01*
X154970000Y-88900000D02*
X154970000Y-88379974D01*
X154970000Y-88379974D02*
X155719974Y-87630000D01*
X145542000Y-84488000D02*
X145575000Y-84455000D01*
X145542000Y-85090000D02*
X145542000Y-84488000D01*
X146177000Y-85725000D02*
X145542000Y-85090000D01*
X145542000Y-86614000D02*
X145542000Y-86360000D01*
X145542000Y-86360000D02*
X146177000Y-85725000D01*
X146431000Y-85725000D02*
X146177000Y-85725000D01*
X147315347Y-84840653D02*
X146431000Y-85725000D01*
X141605000Y-86825000D02*
X141605000Y-85725000D01*
X144409999Y-89629999D02*
X141605000Y-86825000D01*
X148049999Y-89629999D02*
X144409999Y-89629999D01*
X149225000Y-90805000D02*
X148049999Y-89629999D01*
X140505000Y-85725000D02*
X138430000Y-83650000D01*
X141605000Y-85725000D02*
X140505000Y-85725000D01*
X138430000Y-83650000D02*
X138430000Y-78740000D01*
X139954000Y-77216000D02*
X141224000Y-77216000D01*
X138430000Y-78740000D02*
X139954000Y-77216000D01*
X145112500Y-103505000D02*
X145112500Y-103456500D01*
X145112500Y-103456500D02*
X143764000Y-102108000D01*
X145567000Y-98298000D02*
X146075000Y-97790000D01*
X144272000Y-98298000D02*
X145567000Y-98298000D01*
X152375000Y-97790000D02*
X146075000Y-97790000D01*
X149225000Y-92007081D02*
X149225000Y-90805000D01*
X149225000Y-94675002D02*
X149225000Y-92007081D01*
X147335001Y-96565001D02*
X149225000Y-94675002D01*
X146299999Y-96565001D02*
X147335001Y-96565001D01*
X146075000Y-96790000D02*
X146299999Y-96565001D01*
X146075000Y-97790000D02*
X146075000Y-96790000D01*
X150074999Y-89955001D02*
X149225000Y-90805000D01*
X150400001Y-89629999D02*
X150074999Y-89955001D01*
X152628316Y-89629999D02*
X150400001Y-89629999D01*
X152850315Y-89408000D02*
X152628316Y-89629999D01*
X153416000Y-89408000D02*
X152850315Y-89408000D01*
X156628000Y-82550000D02*
X156718000Y-82460000D01*
X157226000Y-82550000D02*
X156628000Y-82550000D01*
X157782500Y-81280000D02*
X157782500Y-81993500D01*
X157782500Y-81993500D02*
X157226000Y-82550000D01*
X143256000Y-93315000D02*
X143256000Y-94566500D01*
X142240000Y-92299000D02*
X143256000Y-93315000D01*
X142240000Y-90424000D02*
X142240000Y-88900000D01*
X145161000Y-83185000D02*
X145575000Y-83185000D01*
X144018000Y-84328000D02*
X145161000Y-83185000D01*
X145535000Y-65024000D02*
X149352000Y-68841000D01*
X150666500Y-75565000D02*
X151066500Y-75565000D01*
X149352000Y-74250500D02*
X150666500Y-75565000D01*
X149352000Y-68841000D02*
X149352000Y-74250500D01*
X155067000Y-75587000D02*
X155067000Y-75565000D01*
X157330000Y-77850000D02*
X155067000Y-75587000D01*
X157480000Y-77850000D02*
X157330000Y-77850000D01*
X151765000Y-88265000D02*
X151765000Y-86360000D01*
X151765000Y-86360000D02*
X151130000Y-85725000D01*
X151130000Y-83185000D02*
X152875000Y-83185000D01*
X150730001Y-82785001D02*
X151130000Y-83185000D01*
X146939000Y-78994000D02*
X150730001Y-82785001D01*
X143764000Y-77216000D02*
X145542000Y-78994000D01*
X145542000Y-78994000D02*
X146939000Y-78994000D01*
X156591000Y-83185000D02*
X152875000Y-83185000D01*
X158750000Y-84152500D02*
X157558500Y-84152500D01*
X157558500Y-84152500D02*
X156591000Y-83185000D01*
X154940000Y-90805000D02*
X156845000Y-88900000D01*
X151003000Y-81915000D02*
X152875000Y-81915000D01*
X146304000Y-77216000D02*
X151003000Y-81915000D01*
X152875000Y-81915000D02*
X154305000Y-81915000D01*
X154305000Y-81915000D02*
X154432000Y-82042000D01*
X151765000Y-90805000D02*
X154051000Y-90805000D01*
X154051000Y-90805000D02*
X154940000Y-90805000D01*
X154141001Y-90460999D02*
X154051000Y-90805000D01*
X154141001Y-88224649D02*
X154141001Y-90460999D01*
X154419299Y-87379395D02*
X154419299Y-87946351D01*
X154419299Y-87946351D02*
X154141001Y-88224649D01*
X146100000Y-80645000D02*
X145575000Y-80645000D01*
X147320000Y-81865000D02*
X146100000Y-80645000D01*
X147320000Y-83820000D02*
X147320000Y-81865000D01*
X149225000Y-85978964D02*
X149351964Y-85852000D01*
X149225000Y-88265000D02*
X149225000Y-85978964D01*
X150495000Y-84455000D02*
X152875000Y-84455000D01*
X153207500Y-84787500D02*
X152875000Y-84455000D01*
X155575000Y-84787500D02*
X153207500Y-84787500D01*
X146382500Y-72898000D02*
X146382500Y-74597500D01*
X146382500Y-74597500D02*
X146304000Y-74676000D01*
X150056315Y-84836000D02*
X150114000Y-84836000D01*
X149098000Y-83877685D02*
X150056315Y-84836000D01*
X149098000Y-83312000D02*
X149098000Y-83877685D01*
X150114000Y-84836000D02*
X150495000Y-84455000D01*
X146685000Y-87062919D02*
X148911919Y-84836000D01*
X146685000Y-88265000D02*
X146685000Y-87062919D01*
X148911919Y-84836000D02*
X150114000Y-84836000D01*
X141605000Y-83185000D02*
X142875000Y-81915000D01*
X142875000Y-81915000D02*
X143891000Y-81915000D01*
X143891000Y-81915000D02*
X145575000Y-81915000D01*
X151638000Y-92964000D02*
X153416000Y-92964000D01*
X153924000Y-92456000D02*
X155018500Y-92456000D01*
X153416000Y-92964000D02*
X153924000Y-92456000D01*
X149920000Y-77065000D02*
X150920000Y-77065000D01*
X148257500Y-75402500D02*
X149920000Y-77065000D01*
X148257500Y-72898000D02*
X148257500Y-75402500D01*
X153975000Y-80645000D02*
X152875000Y-80645000D01*
X154685000Y-80645000D02*
X153975000Y-80645000D01*
X155320000Y-81280000D02*
X154685000Y-80645000D01*
X155907500Y-81280000D02*
X155320000Y-81280000D01*
M02*
