G04 #@! TF.GenerationSoftware,KiCad,Pcbnew,(5.1.4)-1*
G04 #@! TF.CreationDate,2019-08-21T20:44:27-04:00*
G04 #@! TF.ProjectId,CABR_Schematic,43414252-5f53-4636-9865-6d617469632e,rev?*
G04 #@! TF.SameCoordinates,Original*
G04 #@! TF.FileFunction,Soldermask,Bot*
G04 #@! TF.FilePolarity,Negative*
%FSLAX46Y46*%
G04 Gerber Fmt 4.6, Leading zero omitted, Abs format (unit mm)*
G04 Created by KiCad (PCBNEW (5.1.4)-1) date 2019-08-21 20:44:27*
%MOMM*%
%LPD*%
G04 APERTURE LIST*
%ADD10C,0.100000*%
G04 APERTURE END LIST*
D10*
G36*
X153677943Y-104254248D02*
G01*
X154233189Y-104484238D01*
X154233190Y-104484239D01*
X154732899Y-104818134D01*
X155157866Y-105243101D01*
X155157867Y-105243103D01*
X155491762Y-105742811D01*
X155721752Y-106298057D01*
X155839000Y-106887501D01*
X155839000Y-107488499D01*
X155721752Y-108077943D01*
X155491762Y-108633189D01*
X155491761Y-108633190D01*
X155157866Y-109132899D01*
X154732899Y-109557866D01*
X154481347Y-109725948D01*
X154233189Y-109891762D01*
X153677943Y-110121752D01*
X153088499Y-110239000D01*
X152487501Y-110239000D01*
X151898057Y-110121752D01*
X151342811Y-109891762D01*
X151094653Y-109725948D01*
X150843101Y-109557866D01*
X150418134Y-109132899D01*
X150084239Y-108633190D01*
X150084238Y-108633189D01*
X149854248Y-108077943D01*
X149737000Y-107488499D01*
X149737000Y-106887501D01*
X149854248Y-106298057D01*
X150084238Y-105742811D01*
X150418133Y-105243103D01*
X150418134Y-105243101D01*
X150843101Y-104818134D01*
X151342810Y-104484239D01*
X151342811Y-104484238D01*
X151898057Y-104254248D01*
X152487501Y-104137000D01*
X153088499Y-104137000D01*
X153677943Y-104254248D01*
X153677943Y-104254248D01*
G37*
G36*
X146177943Y-104254248D02*
G01*
X146733189Y-104484238D01*
X146733190Y-104484239D01*
X147232899Y-104818134D01*
X147657866Y-105243101D01*
X147657867Y-105243103D01*
X147991762Y-105742811D01*
X148221752Y-106298057D01*
X148339000Y-106887501D01*
X148339000Y-107488499D01*
X148221752Y-108077943D01*
X147991762Y-108633189D01*
X147991761Y-108633190D01*
X147657866Y-109132899D01*
X147232899Y-109557866D01*
X146981347Y-109725948D01*
X146733189Y-109891762D01*
X146177943Y-110121752D01*
X145588499Y-110239000D01*
X144987501Y-110239000D01*
X144398057Y-110121752D01*
X143842811Y-109891762D01*
X143594653Y-109725948D01*
X143343101Y-109557866D01*
X142918134Y-109132899D01*
X142584239Y-108633190D01*
X142584238Y-108633189D01*
X142354248Y-108077943D01*
X142237000Y-107488499D01*
X142237000Y-106887501D01*
X142354248Y-106298057D01*
X142584238Y-105742811D01*
X142918133Y-105243103D01*
X142918134Y-105243101D01*
X143343101Y-104818134D01*
X143842810Y-104484239D01*
X143842811Y-104484238D01*
X144398057Y-104254248D01*
X144987501Y-104137000D01*
X145588499Y-104137000D01*
X146177943Y-104254248D01*
X146177943Y-104254248D01*
G37*
G36*
X146922443Y-89783519D02*
G01*
X146988627Y-89790037D01*
X147158466Y-89841557D01*
X147314991Y-89925222D01*
X147350729Y-89954552D01*
X147452186Y-90037814D01*
X147535448Y-90139271D01*
X147564778Y-90175009D01*
X147648443Y-90331534D01*
X147699963Y-90501373D01*
X147717359Y-90678000D01*
X147699963Y-90854627D01*
X147648443Y-91024466D01*
X147564778Y-91180991D01*
X147535448Y-91216729D01*
X147452186Y-91318186D01*
X147350729Y-91401448D01*
X147314991Y-91430778D01*
X147158466Y-91514443D01*
X146988627Y-91565963D01*
X146922443Y-91572481D01*
X146856260Y-91579000D01*
X146767740Y-91579000D01*
X146701557Y-91572481D01*
X146635373Y-91565963D01*
X146465534Y-91514443D01*
X146309009Y-91430778D01*
X146273271Y-91401448D01*
X146171814Y-91318186D01*
X146088552Y-91216729D01*
X146059222Y-91180991D01*
X145975557Y-91024466D01*
X145924037Y-90854627D01*
X145906641Y-90678000D01*
X145924037Y-90501373D01*
X145975557Y-90331534D01*
X146059222Y-90175009D01*
X146088552Y-90139271D01*
X146171814Y-90037814D01*
X146273271Y-89954552D01*
X146309009Y-89925222D01*
X146465534Y-89841557D01*
X146635373Y-89790037D01*
X146701557Y-89783519D01*
X146767740Y-89777000D01*
X146856260Y-89777000D01*
X146922443Y-89783519D01*
X146922443Y-89783519D01*
G37*
G36*
X152002443Y-89783519D02*
G01*
X152068627Y-89790037D01*
X152238466Y-89841557D01*
X152394991Y-89925222D01*
X152430729Y-89954552D01*
X152532186Y-90037814D01*
X152615448Y-90139271D01*
X152644778Y-90175009D01*
X152728443Y-90331534D01*
X152779963Y-90501373D01*
X152797359Y-90678000D01*
X152779963Y-90854627D01*
X152728443Y-91024466D01*
X152644778Y-91180991D01*
X152615448Y-91216729D01*
X152532186Y-91318186D01*
X152430729Y-91401448D01*
X152394991Y-91430778D01*
X152238466Y-91514443D01*
X152068627Y-91565963D01*
X152002443Y-91572481D01*
X151936260Y-91579000D01*
X151847740Y-91579000D01*
X151781557Y-91572481D01*
X151715373Y-91565963D01*
X151545534Y-91514443D01*
X151389009Y-91430778D01*
X151353271Y-91401448D01*
X151251814Y-91318186D01*
X151168552Y-91216729D01*
X151139222Y-91180991D01*
X151055557Y-91024466D01*
X151004037Y-90854627D01*
X150986641Y-90678000D01*
X151004037Y-90501373D01*
X151055557Y-90331534D01*
X151139222Y-90175009D01*
X151168552Y-90139271D01*
X151251814Y-90037814D01*
X151353271Y-89954552D01*
X151389009Y-89925222D01*
X151545534Y-89841557D01*
X151715373Y-89790037D01*
X151781557Y-89783519D01*
X151847740Y-89777000D01*
X151936260Y-89777000D01*
X152002443Y-89783519D01*
X152002443Y-89783519D01*
G37*
G36*
X149462443Y-89783519D02*
G01*
X149528627Y-89790037D01*
X149698466Y-89841557D01*
X149854991Y-89925222D01*
X149890729Y-89954552D01*
X149992186Y-90037814D01*
X150075448Y-90139271D01*
X150104778Y-90175009D01*
X150188443Y-90331534D01*
X150239963Y-90501373D01*
X150257359Y-90678000D01*
X150239963Y-90854627D01*
X150188443Y-91024466D01*
X150104778Y-91180991D01*
X150075448Y-91216729D01*
X149992186Y-91318186D01*
X149890729Y-91401448D01*
X149854991Y-91430778D01*
X149698466Y-91514443D01*
X149528627Y-91565963D01*
X149462443Y-91572481D01*
X149396260Y-91579000D01*
X149307740Y-91579000D01*
X149241557Y-91572481D01*
X149175373Y-91565963D01*
X149005534Y-91514443D01*
X148849009Y-91430778D01*
X148813271Y-91401448D01*
X148711814Y-91318186D01*
X148628552Y-91216729D01*
X148599222Y-91180991D01*
X148515557Y-91024466D01*
X148464037Y-90854627D01*
X148446641Y-90678000D01*
X148464037Y-90501373D01*
X148515557Y-90331534D01*
X148599222Y-90175009D01*
X148628552Y-90139271D01*
X148711814Y-90037814D01*
X148813271Y-89954552D01*
X148849009Y-89925222D01*
X149005534Y-89841557D01*
X149175373Y-89790037D01*
X149241557Y-89783519D01*
X149307740Y-89777000D01*
X149396260Y-89777000D01*
X149462443Y-89783519D01*
X149462443Y-89783519D01*
G37*
G36*
X146922442Y-87243518D02*
G01*
X146988627Y-87250037D01*
X147158466Y-87301557D01*
X147314991Y-87385222D01*
X147350729Y-87414552D01*
X147452186Y-87497814D01*
X147535448Y-87599271D01*
X147564778Y-87635009D01*
X147648443Y-87791534D01*
X147699963Y-87961373D01*
X147717359Y-88138000D01*
X147699963Y-88314627D01*
X147648443Y-88484466D01*
X147564778Y-88640991D01*
X147535448Y-88676729D01*
X147452186Y-88778186D01*
X147350729Y-88861448D01*
X147314991Y-88890778D01*
X147158466Y-88974443D01*
X146988627Y-89025963D01*
X146922443Y-89032481D01*
X146856260Y-89039000D01*
X146767740Y-89039000D01*
X146701557Y-89032481D01*
X146635373Y-89025963D01*
X146465534Y-88974443D01*
X146309009Y-88890778D01*
X146273271Y-88861448D01*
X146171814Y-88778186D01*
X146088552Y-88676729D01*
X146059222Y-88640991D01*
X145975557Y-88484466D01*
X145924037Y-88314627D01*
X145906641Y-88138000D01*
X145924037Y-87961373D01*
X145975557Y-87791534D01*
X146059222Y-87635009D01*
X146088552Y-87599271D01*
X146171814Y-87497814D01*
X146273271Y-87414552D01*
X146309009Y-87385222D01*
X146465534Y-87301557D01*
X146635373Y-87250037D01*
X146701558Y-87243518D01*
X146767740Y-87237000D01*
X146856260Y-87237000D01*
X146922442Y-87243518D01*
X146922442Y-87243518D01*
G37*
G36*
X152793000Y-89039000D02*
G01*
X150991000Y-89039000D01*
X150991000Y-87237000D01*
X152793000Y-87237000D01*
X152793000Y-89039000D01*
X152793000Y-89039000D01*
G37*
G36*
X149462442Y-87243518D02*
G01*
X149528627Y-87250037D01*
X149698466Y-87301557D01*
X149854991Y-87385222D01*
X149890729Y-87414552D01*
X149992186Y-87497814D01*
X150075448Y-87599271D01*
X150104778Y-87635009D01*
X150188443Y-87791534D01*
X150239963Y-87961373D01*
X150257359Y-88138000D01*
X150239963Y-88314627D01*
X150188443Y-88484466D01*
X150104778Y-88640991D01*
X150075448Y-88676729D01*
X149992186Y-88778186D01*
X149890729Y-88861448D01*
X149854991Y-88890778D01*
X149698466Y-88974443D01*
X149528627Y-89025963D01*
X149462443Y-89032481D01*
X149396260Y-89039000D01*
X149307740Y-89039000D01*
X149241557Y-89032481D01*
X149175373Y-89025963D01*
X149005534Y-88974443D01*
X148849009Y-88890778D01*
X148813271Y-88861448D01*
X148711814Y-88778186D01*
X148628552Y-88676729D01*
X148599222Y-88640991D01*
X148515557Y-88484466D01*
X148464037Y-88314627D01*
X148446641Y-88138000D01*
X148464037Y-87961373D01*
X148515557Y-87791534D01*
X148599222Y-87635009D01*
X148628552Y-87599271D01*
X148711814Y-87497814D01*
X148813271Y-87414552D01*
X148849009Y-87385222D01*
X149005534Y-87301557D01*
X149175373Y-87250037D01*
X149241558Y-87243518D01*
X149307740Y-87237000D01*
X149396260Y-87237000D01*
X149462442Y-87243518D01*
X149462442Y-87243518D01*
G37*
G36*
X142506000Y-86626000D02*
G01*
X140704000Y-86626000D01*
X140704000Y-84824000D01*
X142506000Y-84824000D01*
X142506000Y-86626000D01*
X142506000Y-86626000D01*
G37*
G36*
X141715443Y-82290519D02*
G01*
X141781627Y-82297037D01*
X141951466Y-82348557D01*
X142107991Y-82432222D01*
X142143729Y-82461552D01*
X142245186Y-82544814D01*
X142328448Y-82646271D01*
X142357778Y-82682009D01*
X142441443Y-82838534D01*
X142492963Y-83008373D01*
X142510359Y-83185000D01*
X142492963Y-83361627D01*
X142441443Y-83531466D01*
X142357778Y-83687991D01*
X142328448Y-83723729D01*
X142245186Y-83825186D01*
X142143729Y-83908448D01*
X142107991Y-83937778D01*
X141951466Y-84021443D01*
X141781627Y-84072963D01*
X141715443Y-84079481D01*
X141649260Y-84086000D01*
X141560740Y-84086000D01*
X141494557Y-84079481D01*
X141428373Y-84072963D01*
X141258534Y-84021443D01*
X141102009Y-83937778D01*
X141066271Y-83908448D01*
X140964814Y-83825186D01*
X140881552Y-83723729D01*
X140852222Y-83687991D01*
X140768557Y-83531466D01*
X140717037Y-83361627D01*
X140699641Y-83185000D01*
X140717037Y-83008373D01*
X140768557Y-82838534D01*
X140852222Y-82682009D01*
X140881552Y-82646271D01*
X140964814Y-82544814D01*
X141066271Y-82461552D01*
X141102009Y-82432222D01*
X141258534Y-82348557D01*
X141428373Y-82297037D01*
X141494557Y-82290519D01*
X141560740Y-82284000D01*
X141649260Y-82284000D01*
X141715443Y-82290519D01*
X141715443Y-82290519D01*
G37*
G36*
X142125000Y-78117000D02*
G01*
X140323000Y-78117000D01*
X140323000Y-76315000D01*
X142125000Y-76315000D01*
X142125000Y-78117000D01*
X142125000Y-78117000D01*
G37*
G36*
X146414442Y-76321518D02*
G01*
X146480627Y-76328037D01*
X146650466Y-76379557D01*
X146806991Y-76463222D01*
X146842729Y-76492552D01*
X146944186Y-76575814D01*
X147027448Y-76677271D01*
X147056778Y-76713009D01*
X147140443Y-76869534D01*
X147191963Y-77039373D01*
X147209359Y-77216000D01*
X147191963Y-77392627D01*
X147140443Y-77562466D01*
X147056778Y-77718991D01*
X147027448Y-77754729D01*
X146944186Y-77856186D01*
X146842729Y-77939448D01*
X146806991Y-77968778D01*
X146650466Y-78052443D01*
X146480627Y-78103963D01*
X146414442Y-78110482D01*
X146348260Y-78117000D01*
X146259740Y-78117000D01*
X146193558Y-78110482D01*
X146127373Y-78103963D01*
X145957534Y-78052443D01*
X145801009Y-77968778D01*
X145765271Y-77939448D01*
X145663814Y-77856186D01*
X145580552Y-77754729D01*
X145551222Y-77718991D01*
X145467557Y-77562466D01*
X145416037Y-77392627D01*
X145398641Y-77216000D01*
X145416037Y-77039373D01*
X145467557Y-76869534D01*
X145551222Y-76713009D01*
X145580552Y-76677271D01*
X145663814Y-76575814D01*
X145765271Y-76492552D01*
X145801009Y-76463222D01*
X145957534Y-76379557D01*
X146127373Y-76328037D01*
X146193558Y-76321518D01*
X146259740Y-76315000D01*
X146348260Y-76315000D01*
X146414442Y-76321518D01*
X146414442Y-76321518D01*
G37*
G36*
X143874442Y-76321518D02*
G01*
X143940627Y-76328037D01*
X144110466Y-76379557D01*
X144266991Y-76463222D01*
X144302729Y-76492552D01*
X144404186Y-76575814D01*
X144487448Y-76677271D01*
X144516778Y-76713009D01*
X144600443Y-76869534D01*
X144651963Y-77039373D01*
X144669359Y-77216000D01*
X144651963Y-77392627D01*
X144600443Y-77562466D01*
X144516778Y-77718991D01*
X144487448Y-77754729D01*
X144404186Y-77856186D01*
X144302729Y-77939448D01*
X144266991Y-77968778D01*
X144110466Y-78052443D01*
X143940627Y-78103963D01*
X143874442Y-78110482D01*
X143808260Y-78117000D01*
X143719740Y-78117000D01*
X143653558Y-78110482D01*
X143587373Y-78103963D01*
X143417534Y-78052443D01*
X143261009Y-77968778D01*
X143225271Y-77939448D01*
X143123814Y-77856186D01*
X143040552Y-77754729D01*
X143011222Y-77718991D01*
X142927557Y-77562466D01*
X142876037Y-77392627D01*
X142858641Y-77216000D01*
X142876037Y-77039373D01*
X142927557Y-76869534D01*
X143011222Y-76713009D01*
X143040552Y-76677271D01*
X143123814Y-76575814D01*
X143225271Y-76492552D01*
X143261009Y-76463222D01*
X143417534Y-76379557D01*
X143587373Y-76328037D01*
X143653558Y-76321518D01*
X143719740Y-76315000D01*
X143808260Y-76315000D01*
X143874442Y-76321518D01*
X143874442Y-76321518D01*
G37*
G36*
X143643219Y-72179020D02*
G01*
X143832380Y-72236401D01*
X143832383Y-72236402D01*
X143924833Y-72285818D01*
X144006712Y-72329583D01*
X144159515Y-72454985D01*
X144284917Y-72607788D01*
X144378099Y-72782119D01*
X144435480Y-72971280D01*
X144450000Y-73118706D01*
X144450000Y-73312293D01*
X144435480Y-73459719D01*
X144378099Y-73648880D01*
X144378098Y-73648883D01*
X144328682Y-73741333D01*
X144284917Y-73823212D01*
X144159515Y-73976015D01*
X144006712Y-74101417D01*
X143832381Y-74194599D01*
X143643220Y-74251980D01*
X143446500Y-74271355D01*
X143249781Y-74251980D01*
X143060620Y-74194599D01*
X142886288Y-74101417D01*
X142733485Y-73976015D01*
X142608083Y-73823212D01*
X142514901Y-73648881D01*
X142457520Y-73459720D01*
X142443000Y-73312294D01*
X142443000Y-73118707D01*
X142457520Y-72971281D01*
X142514901Y-72782120D01*
X142514902Y-72782117D01*
X142564318Y-72689667D01*
X142608083Y-72607788D01*
X142733485Y-72454985D01*
X142886288Y-72329583D01*
X143060619Y-72236401D01*
X143249780Y-72179020D01*
X143446500Y-72159645D01*
X143643219Y-72179020D01*
X143643219Y-72179020D01*
G37*
G36*
X146183219Y-72179020D02*
G01*
X146372380Y-72236401D01*
X146372383Y-72236402D01*
X146464833Y-72285818D01*
X146546712Y-72329583D01*
X146699515Y-72454985D01*
X146824917Y-72607788D01*
X146918099Y-72782119D01*
X146975480Y-72971280D01*
X146990000Y-73118706D01*
X146990000Y-73312293D01*
X146975480Y-73459719D01*
X146918099Y-73648880D01*
X146918098Y-73648883D01*
X146868682Y-73741333D01*
X146824917Y-73823212D01*
X146699515Y-73976015D01*
X146546712Y-74101417D01*
X146372381Y-74194599D01*
X146183220Y-74251980D01*
X145986500Y-74271355D01*
X145789781Y-74251980D01*
X145600620Y-74194599D01*
X145426288Y-74101417D01*
X145273485Y-73976015D01*
X145148083Y-73823212D01*
X145054901Y-73648881D01*
X144997520Y-73459720D01*
X144983000Y-73312294D01*
X144983000Y-73118707D01*
X144997520Y-72971281D01*
X145054901Y-72782120D01*
X145054902Y-72782117D01*
X145104318Y-72689667D01*
X145148083Y-72607788D01*
X145273485Y-72454985D01*
X145426288Y-72329583D01*
X145600619Y-72236401D01*
X145789780Y-72179020D01*
X145986500Y-72159645D01*
X146183219Y-72179020D01*
X146183219Y-72179020D01*
G37*
G36*
X141910000Y-74266500D02*
G01*
X139903000Y-74266500D01*
X139903000Y-72164500D01*
X141910000Y-72164500D01*
X141910000Y-74266500D01*
X141910000Y-74266500D01*
G37*
G36*
X153924943Y-62090248D02*
G01*
X154480189Y-62320238D01*
X154480190Y-62320239D01*
X154979899Y-62654134D01*
X155404866Y-63079101D01*
X155404867Y-63079103D01*
X155738762Y-63578811D01*
X155968752Y-64134057D01*
X156086000Y-64723501D01*
X156086000Y-65324499D01*
X155968752Y-65913943D01*
X155738762Y-66469189D01*
X155738761Y-66469190D01*
X155404866Y-66968899D01*
X154979899Y-67393866D01*
X154728347Y-67561948D01*
X154480189Y-67727762D01*
X153924943Y-67957752D01*
X153335499Y-68075000D01*
X152734501Y-68075000D01*
X152145057Y-67957752D01*
X151589811Y-67727762D01*
X151341653Y-67561948D01*
X151090101Y-67393866D01*
X150665134Y-66968899D01*
X150331239Y-66469190D01*
X150331238Y-66469189D01*
X150101248Y-65913943D01*
X149984000Y-65324499D01*
X149984000Y-64723501D01*
X150101248Y-64134057D01*
X150331238Y-63578811D01*
X150665133Y-63079103D01*
X150665134Y-63079101D01*
X151090101Y-62654134D01*
X151589810Y-62320239D01*
X151589811Y-62320238D01*
X152145057Y-62090248D01*
X152734501Y-61973000D01*
X153335499Y-61973000D01*
X153924943Y-62090248D01*
X153924943Y-62090248D01*
G37*
G36*
X146424943Y-62090248D02*
G01*
X146980189Y-62320238D01*
X146980190Y-62320239D01*
X147479899Y-62654134D01*
X147904866Y-63079101D01*
X147904867Y-63079103D01*
X148238762Y-63578811D01*
X148468752Y-64134057D01*
X148586000Y-64723501D01*
X148586000Y-65324499D01*
X148468752Y-65913943D01*
X148238762Y-66469189D01*
X148238761Y-66469190D01*
X147904866Y-66968899D01*
X147479899Y-67393866D01*
X147228347Y-67561948D01*
X146980189Y-67727762D01*
X146424943Y-67957752D01*
X145835499Y-68075000D01*
X145234501Y-68075000D01*
X144645057Y-67957752D01*
X144089811Y-67727762D01*
X143841653Y-67561948D01*
X143590101Y-67393866D01*
X143165134Y-66968899D01*
X142831239Y-66469190D01*
X142831238Y-66469189D01*
X142601248Y-65913943D01*
X142484000Y-65324499D01*
X142484000Y-64723501D01*
X142601248Y-64134057D01*
X142831238Y-63578811D01*
X143165133Y-63079103D01*
X143165134Y-63079101D01*
X143590101Y-62654134D01*
X144089810Y-62320239D01*
X144089811Y-62320238D01*
X144645057Y-62090248D01*
X145234501Y-61973000D01*
X145835499Y-61973000D01*
X146424943Y-62090248D01*
X146424943Y-62090248D01*
G37*
M02*
