M48
; DRILL file {KiCad (5.1.2)-2} date 7/24/2019 11:52:04 AM
; FORMAT={-:-/ absolute / inch / decimal}
; #@! TF.CreationDate,2019-07-24T11:52:04-04:00
; #@! TF.GenerationSoftware,Kicad,Pcbnew,(5.1.2)-2
; #@! TF.FileFunction,Plated,1,2,PTH
FMAT,2
INCH
T1C0.0157
T2C0.0394
T3C0.1772
%
G90
G05
T1
X5.6Y-3.5
X5.66Y-4.02
X5.67Y-3.32
X5.68Y-3.57
X5.68Y-3.87
X5.73Y-3.41
X5.76Y-2.94
X5.7998Y-3.3402
X5.8Y-3.3
X5.85Y-4.08
X5.86Y-3.94
X5.87Y-3.28
X5.88Y-3.38
X5.95Y-3.275
X5.95Y-3.375
X5.97Y-3.66
X5.99Y-2.92
X6.04Y-3.52
X6.05Y-3.4
X6.0795Y-3.4401
X6.08Y-3.23
X6.17Y-3.2465
X6.2Y-3.0
T2
X5.775Y-3.475
X5.775Y-3.575
X5.875Y-3.475
X5.875Y-3.575
X5.975Y-3.475
X5.975Y-3.575
X5.56Y-3.04
X5.66Y-3.04
X5.76Y-3.04
X5.575Y-3.275
X5.575Y-3.375
T3
X5.725Y-4.375
X6.0203Y-4.375
X5.7297Y-2.56
X6.025Y-2.56
T0
M30
