G04 #@! TF.GenerationSoftware,KiCad,Pcbnew,(5.1.4)-1*
G04 #@! TF.CreationDate,2019-08-21T20:44:27-04:00*
G04 #@! TF.ProjectId,CABR_Schematic,43414252-5f53-4636-9865-6d617469632e,rev?*
G04 #@! TF.SameCoordinates,Original*
G04 #@! TF.FileFunction,Legend,Bot*
G04 #@! TF.FilePolarity,Positive*
%FSLAX46Y46*%
G04 Gerber Fmt 4.6, Leading zero omitted, Abs format (unit mm)*
G04 Created by KiCad (PCBNEW (5.1.4)-1) date 2019-08-21 20:44:27*
%MOMM*%
%LPD*%
G04 APERTURE LIST*
%ADD10C,0.150000*%
G04 APERTURE END LIST*
D10*
X155876523Y-72422619D02*
X155971761Y-72232142D01*
X155971761Y-71851190D01*
X155876523Y-71660714D01*
X155781285Y-71565476D01*
X155590809Y-71470238D01*
X155019380Y-71470238D01*
X154828904Y-71565476D01*
X154733666Y-71660714D01*
X154638428Y-71851190D01*
X154638428Y-72232142D01*
X154733666Y-72422619D01*
X155971761Y-73279761D02*
X153971761Y-73279761D01*
X155971761Y-74136904D02*
X154924142Y-74136904D01*
X154733666Y-74041666D01*
X154638428Y-73851190D01*
X154638428Y-73565476D01*
X154733666Y-73375000D01*
X154828904Y-73279761D01*
X155971761Y-75946428D02*
X154924142Y-75946428D01*
X154733666Y-75851190D01*
X154638428Y-75660714D01*
X154638428Y-75279761D01*
X154733666Y-75089285D01*
X155876523Y-75946428D02*
X155971761Y-75755952D01*
X155971761Y-75279761D01*
X155876523Y-75089285D01*
X155686047Y-74994047D01*
X155495571Y-74994047D01*
X155305095Y-75089285D01*
X155209857Y-75279761D01*
X155209857Y-75755952D01*
X155114619Y-75946428D01*
X154638428Y-76898809D02*
X155971761Y-76898809D01*
X154828904Y-76898809D02*
X154733666Y-76994047D01*
X154638428Y-77184523D01*
X154638428Y-77470238D01*
X154733666Y-77660714D01*
X154924142Y-77755952D01*
X155971761Y-77755952D01*
X155971761Y-79565476D02*
X153971761Y-79565476D01*
X155876523Y-79565476D02*
X155971761Y-79375000D01*
X155971761Y-78994047D01*
X155876523Y-78803571D01*
X155781285Y-78708333D01*
X155590809Y-78613095D01*
X155019380Y-78613095D01*
X154828904Y-78708333D01*
X154733666Y-78803571D01*
X154638428Y-78994047D01*
X154638428Y-79375000D01*
X154733666Y-79565476D01*
X155971761Y-81565476D02*
X155971761Y-80422619D01*
X155971761Y-80994047D02*
X153971761Y-80994047D01*
X154257476Y-80803571D01*
X154447952Y-80613095D01*
X154543190Y-80422619D01*
X153971761Y-82803571D02*
X153971761Y-82994047D01*
X154067000Y-83184523D01*
X154162238Y-83279761D01*
X154352714Y-83375000D01*
X154733666Y-83470238D01*
X155209857Y-83470238D01*
X155590809Y-83375000D01*
X155781285Y-83279761D01*
X155876523Y-83184523D01*
X155971761Y-82994047D01*
X155971761Y-82803571D01*
X155876523Y-82613095D01*
X155781285Y-82517857D01*
X155590809Y-82422619D01*
X155209857Y-82327380D01*
X154733666Y-82327380D01*
X154352714Y-82422619D01*
X154162238Y-82517857D01*
X154067000Y-82613095D01*
X153971761Y-82803571D01*
X155971761Y-85375000D02*
X155971761Y-84232142D01*
X155971761Y-84803571D02*
X153971761Y-84803571D01*
X154257476Y-84613095D01*
X154447952Y-84422619D01*
X154543190Y-84232142D01*
X154162238Y-86136904D02*
X154067000Y-86232142D01*
X153971761Y-86422619D01*
X153971761Y-86898809D01*
X154067000Y-87089285D01*
X154162238Y-87184523D01*
X154352714Y-87279761D01*
X154543190Y-87279761D01*
X154828904Y-87184523D01*
X155971761Y-86041666D01*
X155971761Y-87279761D01*
M02*
