G04 #@! TF.GenerationSoftware,KiCad,Pcbnew,(5.1.2)-2*
G04 #@! TF.CreationDate,2019-07-24T11:52:09-04:00*
G04 #@! TF.ProjectId,CABR_Schematic,43414252-5f53-4636-9865-6d617469632e,rev?*
G04 #@! TF.SameCoordinates,Original*
G04 #@! TF.FileFunction,Legend,Top*
G04 #@! TF.FilePolarity,Positive*
%FSLAX46Y46*%
G04 Gerber Fmt 4.6, Leading zero omitted, Abs format (unit mm)*
G04 Created by KiCad (PCBNEW (5.1.2)-2) date 2019-07-24 11:52:09*
%MOMM*%
%LPD*%
G04 APERTURE LIST*
%ADD10C,0.150000*%
%ADD11C,0.120000*%
%ADD12C,0.100000*%
G04 APERTURE END LIST*
D10*
X151693809Y-117292380D02*
X151693809Y-116292380D01*
X152074761Y-116292380D01*
X152170000Y-116340000D01*
X152217619Y-116387619D01*
X152265238Y-116482857D01*
X152265238Y-116625714D01*
X152217619Y-116720952D01*
X152170000Y-116768571D01*
X152074761Y-116816190D01*
X151693809Y-116816190D01*
X152836666Y-117292380D02*
X152741428Y-117244761D01*
X152693809Y-117197142D01*
X152646190Y-117101904D01*
X152646190Y-116816190D01*
X152693809Y-116720952D01*
X152741428Y-116673333D01*
X152836666Y-116625714D01*
X152979523Y-116625714D01*
X153074761Y-116673333D01*
X153122380Y-116720952D01*
X153170000Y-116816190D01*
X153170000Y-117101904D01*
X153122380Y-117197142D01*
X153074761Y-117244761D01*
X152979523Y-117292380D01*
X152836666Y-117292380D01*
X153503333Y-116625714D02*
X153693809Y-117292380D01*
X153884285Y-116816190D01*
X154074761Y-117292380D01*
X154265238Y-116625714D01*
X155027142Y-117244761D02*
X154931904Y-117292380D01*
X154741428Y-117292380D01*
X154646190Y-117244761D01*
X154598571Y-117149523D01*
X154598571Y-116768571D01*
X154646190Y-116673333D01*
X154741428Y-116625714D01*
X154931904Y-116625714D01*
X155027142Y-116673333D01*
X155074761Y-116768571D01*
X155074761Y-116863809D01*
X154598571Y-116959047D01*
X155503333Y-117292380D02*
X155503333Y-116625714D01*
X155503333Y-116816190D02*
X155550952Y-116720952D01*
X155598571Y-116673333D01*
X155693809Y-116625714D01*
X155789047Y-116625714D01*
D11*
X150568922Y-102795000D02*
X151086078Y-102795000D01*
X150568922Y-104215000D02*
X151086078Y-104215000D01*
X145791422Y-104215000D02*
X146308578Y-104215000D01*
X145791422Y-102795000D02*
X146308578Y-102795000D01*
X141280000Y-90361500D02*
X141280000Y-93046500D01*
X141280000Y-93046500D02*
X143200000Y-93046500D01*
X143200000Y-93046500D02*
X143200000Y-90361500D01*
X158480000Y-73950000D02*
X156480000Y-73950000D01*
X156480000Y-73950000D02*
X156480000Y-77850000D01*
X158480000Y-73950000D02*
X158480000Y-77850000D01*
D12*
X145835000Y-61024000D02*
X141135000Y-61024000D01*
X141135000Y-61024000D02*
X141135000Y-62624000D01*
X145535000Y-69024000D02*
X141335000Y-69024000D01*
X141335000Y-69024000D02*
X141235000Y-69024000D01*
X141235000Y-69024000D02*
X141135000Y-69024000D01*
X141135000Y-69024000D02*
X141135000Y-65024000D01*
X155435000Y-61024000D02*
X157435000Y-63724000D01*
X155435000Y-69024000D02*
X157435000Y-66324000D01*
X157435000Y-65024000D02*
X157435000Y-63774000D01*
X157435000Y-65024000D02*
X157435000Y-66274000D01*
X153035000Y-61024000D02*
X155435000Y-61024000D01*
X150035000Y-61024000D02*
X153035000Y-61024000D01*
X153035000Y-69024000D02*
X155435000Y-69024000D01*
X149935000Y-69024000D02*
X153035000Y-69024000D01*
X157435000Y-65124000D02*
X157435000Y-64824000D01*
X141135000Y-65024000D02*
X141135000Y-62624000D01*
X145535000Y-69024000D02*
X149935000Y-69024000D01*
X145835000Y-61024000D02*
X150035000Y-61024000D01*
D11*
X147634000Y-78546000D02*
X147634000Y-75886000D01*
X142494000Y-78546000D02*
X147634000Y-78546000D01*
X142494000Y-75886000D02*
X147634000Y-75886000D01*
X142494000Y-78546000D02*
X142494000Y-75886000D01*
X141224000Y-78546000D02*
X139894000Y-78546000D01*
X139894000Y-78546000D02*
X139894000Y-77216000D01*
X145355000Y-86935000D02*
X145355000Y-92135000D01*
X150495000Y-86935000D02*
X145355000Y-86935000D01*
X153095000Y-92135000D02*
X145355000Y-92135000D01*
X150495000Y-86935000D02*
X150495000Y-89535000D01*
X150495000Y-89535000D02*
X153095000Y-89535000D01*
X153095000Y-89535000D02*
X153095000Y-92135000D01*
X151765000Y-86935000D02*
X153095000Y-86935000D01*
X153095000Y-86935000D02*
X153095000Y-88265000D01*
X142935000Y-81855000D02*
X140275000Y-81855000D01*
X142935000Y-84455000D02*
X142935000Y-81855000D01*
X140275000Y-84455000D02*
X140275000Y-81855000D01*
X142935000Y-84455000D02*
X140275000Y-84455000D01*
X142935000Y-85725000D02*
X142935000Y-87055000D01*
X142935000Y-87055000D02*
X141605000Y-87055000D01*
D12*
X152615000Y-115125000D02*
X148415000Y-115125000D01*
X152915000Y-107125000D02*
X148515000Y-107125000D01*
X157315000Y-111125000D02*
X157315000Y-113525000D01*
X141015000Y-111025000D02*
X141015000Y-111325000D01*
X148515000Y-107125000D02*
X145415000Y-107125000D01*
X145415000Y-107125000D02*
X143015000Y-107125000D01*
X148415000Y-115125000D02*
X145415000Y-115125000D01*
X145415000Y-115125000D02*
X143015000Y-115125000D01*
X141015000Y-111125000D02*
X141015000Y-109875000D01*
X141015000Y-111125000D02*
X141015000Y-112375000D01*
X143015000Y-107125000D02*
X141015000Y-109825000D01*
X143015000Y-115125000D02*
X141015000Y-112425000D01*
X157315000Y-107125000D02*
X157315000Y-111125000D01*
X157215000Y-107125000D02*
X157315000Y-107125000D01*
X157115000Y-107125000D02*
X157215000Y-107125000D01*
X152915000Y-107125000D02*
X157115000Y-107125000D01*
X157315000Y-115125000D02*
X157315000Y-113525000D01*
X152615000Y-115125000D02*
X157315000Y-115125000D01*
D11*
X154180000Y-76765000D02*
X154180000Y-77965000D01*
X154180000Y-77965000D02*
X151480000Y-77965000D01*
X150180000Y-73165000D02*
X154180000Y-73165000D01*
X154180000Y-73165000D02*
X154180000Y-74365000D01*
X155648922Y-89610000D02*
X156166078Y-89610000D01*
X155648922Y-88190000D02*
X156166078Y-88190000D01*
X159460000Y-84831422D02*
X159460000Y-85348578D01*
X158040000Y-84831422D02*
X158040000Y-85348578D01*
X143966000Y-95245422D02*
X143966000Y-95762578D01*
X142546000Y-95245422D02*
X142546000Y-95762578D01*
X155697422Y-93166000D02*
X156214578Y-93166000D01*
X155697422Y-91746000D02*
X156214578Y-91746000D01*
X156285000Y-85983578D02*
X156285000Y-85466422D01*
X154865000Y-85983578D02*
X154865000Y-85466422D01*
X147578578Y-73608000D02*
X147061422Y-73608000D01*
X147578578Y-72188000D02*
X147061422Y-72188000D01*
X151135000Y-101200000D02*
X151135000Y-99940000D01*
X151135000Y-94380000D02*
X151135000Y-95640000D01*
X147375000Y-101200000D02*
X151135000Y-101200000D01*
X145125000Y-94380000D02*
X151135000Y-94380000D01*
D10*
X146475000Y-79795000D02*
X146475000Y-80000000D01*
X151975000Y-79795000D02*
X151975000Y-80095000D01*
X151975000Y-85305000D02*
X151975000Y-85005000D01*
X146475000Y-85305000D02*
X146475000Y-85005000D01*
X146475000Y-79795000D02*
X151975000Y-79795000D01*
X146475000Y-85305000D02*
X151975000Y-85305000D01*
X146475000Y-80000000D02*
X144725000Y-80000000D01*
D11*
X156586422Y-80570000D02*
X157103578Y-80570000D01*
X156586422Y-81990000D02*
X157103578Y-81990000D01*
D10*
X150660833Y-102212142D02*
X150613214Y-102259761D01*
X150470357Y-102307380D01*
X150375119Y-102307380D01*
X150232261Y-102259761D01*
X150137023Y-102164523D01*
X150089404Y-102069285D01*
X150041785Y-101878809D01*
X150041785Y-101735952D01*
X150089404Y-101545476D01*
X150137023Y-101450238D01*
X150232261Y-101355000D01*
X150375119Y-101307380D01*
X150470357Y-101307380D01*
X150613214Y-101355000D01*
X150660833Y-101402619D01*
X151613214Y-102307380D02*
X151041785Y-102307380D01*
X151327500Y-102307380D02*
X151327500Y-101307380D01*
X151232261Y-101450238D01*
X151137023Y-101545476D01*
X151041785Y-101593095D01*
X145883333Y-102212142D02*
X145835714Y-102259761D01*
X145692857Y-102307380D01*
X145597619Y-102307380D01*
X145454761Y-102259761D01*
X145359523Y-102164523D01*
X145311904Y-102069285D01*
X145264285Y-101878809D01*
X145264285Y-101735952D01*
X145311904Y-101545476D01*
X145359523Y-101450238D01*
X145454761Y-101355000D01*
X145597619Y-101307380D01*
X145692857Y-101307380D01*
X145835714Y-101355000D01*
X145883333Y-101402619D01*
X146264285Y-101402619D02*
X146311904Y-101355000D01*
X146407142Y-101307380D01*
X146645238Y-101307380D01*
X146740476Y-101355000D01*
X146788095Y-101402619D01*
X146835714Y-101497857D01*
X146835714Y-101593095D01*
X146788095Y-101735952D01*
X146216666Y-102307380D01*
X146835714Y-102307380D01*
X141042380Y-92099595D02*
X140042380Y-92099595D01*
X140042380Y-91861500D01*
X140090000Y-91718642D01*
X140185238Y-91623404D01*
X140280476Y-91575785D01*
X140470952Y-91528166D01*
X140613809Y-91528166D01*
X140804285Y-91575785D01*
X140899523Y-91623404D01*
X140994761Y-91718642D01*
X141042380Y-91861500D01*
X141042380Y-92099595D01*
X141042380Y-90575785D02*
X141042380Y-91147214D01*
X141042380Y-90861500D02*
X140042380Y-90861500D01*
X140185238Y-90956738D01*
X140280476Y-91051976D01*
X140328095Y-91147214D01*
X159932380Y-76938095D02*
X158932380Y-76938095D01*
X158932380Y-76700000D01*
X158980000Y-76557142D01*
X159075238Y-76461904D01*
X159170476Y-76414285D01*
X159360952Y-76366666D01*
X159503809Y-76366666D01*
X159694285Y-76414285D01*
X159789523Y-76461904D01*
X159884761Y-76557142D01*
X159932380Y-76700000D01*
X159932380Y-76938095D01*
X159027619Y-75985714D02*
X158980000Y-75938095D01*
X158932380Y-75842857D01*
X158932380Y-75604761D01*
X158980000Y-75509523D01*
X159027619Y-75461904D01*
X159122857Y-75414285D01*
X159218095Y-75414285D01*
X159360952Y-75461904D01*
X159932380Y-76033333D01*
X159932380Y-75414285D01*
X146351666Y-69937380D02*
X146351666Y-70651666D01*
X146304047Y-70794523D01*
X146208809Y-70889761D01*
X146065952Y-70937380D01*
X145970714Y-70937380D01*
X147351666Y-70937380D02*
X146780238Y-70937380D01*
X147065952Y-70937380D02*
X147065952Y-69937380D01*
X146970714Y-70080238D01*
X146875476Y-70175476D01*
X146780238Y-70223095D01*
X138346380Y-77549333D02*
X139060666Y-77549333D01*
X139203523Y-77596952D01*
X139298761Y-77692190D01*
X139346380Y-77835047D01*
X139346380Y-77930285D01*
X138441619Y-77120761D02*
X138394000Y-77073142D01*
X138346380Y-76977904D01*
X138346380Y-76739809D01*
X138394000Y-76644571D01*
X138441619Y-76596952D01*
X138536857Y-76549333D01*
X138632095Y-76549333D01*
X138774952Y-76596952D01*
X139346380Y-77168380D01*
X139346380Y-76549333D01*
X153547380Y-89868333D02*
X154261666Y-89868333D01*
X154404523Y-89915952D01*
X154499761Y-90011190D01*
X154547380Y-90154047D01*
X154547380Y-90249285D01*
X153547380Y-89487380D02*
X153547380Y-88868333D01*
X153928333Y-89201666D01*
X153928333Y-89058809D01*
X153975952Y-88963571D01*
X154023571Y-88915952D01*
X154118809Y-88868333D01*
X154356904Y-88868333D01*
X154452142Y-88915952D01*
X154499761Y-88963571D01*
X154547380Y-89058809D01*
X154547380Y-89344523D01*
X154499761Y-89439761D01*
X154452142Y-89487380D01*
X141271666Y-87507380D02*
X141271666Y-88221666D01*
X141224047Y-88364523D01*
X141128809Y-88459761D01*
X140985952Y-88507380D01*
X140890714Y-88507380D01*
X142176428Y-87840714D02*
X142176428Y-88507380D01*
X141938333Y-87459761D02*
X141700238Y-88174047D01*
X142319285Y-88174047D01*
X148637666Y-116673380D02*
X148637666Y-117387666D01*
X148590047Y-117530523D01*
X148494809Y-117625761D01*
X148351952Y-117673380D01*
X148256714Y-117673380D01*
X149590047Y-116673380D02*
X149113857Y-116673380D01*
X149066238Y-117149571D01*
X149113857Y-117101952D01*
X149209095Y-117054333D01*
X149447190Y-117054333D01*
X149542428Y-117101952D01*
X149590047Y-117149571D01*
X149637666Y-117244809D01*
X149637666Y-117482904D01*
X149590047Y-117578142D01*
X149542428Y-117625761D01*
X149447190Y-117673380D01*
X149209095Y-117673380D01*
X149113857Y-117625761D01*
X149066238Y-117578142D01*
X152754761Y-72912619D02*
X152659523Y-72865000D01*
X152564285Y-72769761D01*
X152421428Y-72626904D01*
X152326190Y-72579285D01*
X152230952Y-72579285D01*
X152278571Y-72817380D02*
X152183333Y-72769761D01*
X152088095Y-72674523D01*
X152040476Y-72484047D01*
X152040476Y-72150714D01*
X152088095Y-71960238D01*
X152183333Y-71865000D01*
X152278571Y-71817380D01*
X152469047Y-71817380D01*
X152564285Y-71865000D01*
X152659523Y-71960238D01*
X152707142Y-72150714D01*
X152707142Y-72484047D01*
X152659523Y-72674523D01*
X152564285Y-72769761D01*
X152469047Y-72817380D01*
X152278571Y-72817380D01*
X153659523Y-72817380D02*
X153088095Y-72817380D01*
X153373809Y-72817380D02*
X153373809Y-71817380D01*
X153278571Y-71960238D01*
X153183333Y-72055476D01*
X153088095Y-72103095D01*
X155740833Y-87702380D02*
X155407500Y-87226190D01*
X155169404Y-87702380D02*
X155169404Y-86702380D01*
X155550357Y-86702380D01*
X155645595Y-86750000D01*
X155693214Y-86797619D01*
X155740833Y-86892857D01*
X155740833Y-87035714D01*
X155693214Y-87130952D01*
X155645595Y-87178571D01*
X155550357Y-87226190D01*
X155169404Y-87226190D01*
X156693214Y-87702380D02*
X156121785Y-87702380D01*
X156407500Y-87702380D02*
X156407500Y-86702380D01*
X156312261Y-86845238D01*
X156217023Y-86940476D01*
X156121785Y-86988095D01*
X159964380Y-88558666D02*
X159488190Y-88892000D01*
X159964380Y-89130095D02*
X158964380Y-89130095D01*
X158964380Y-88749142D01*
X159012000Y-88653904D01*
X159059619Y-88606285D01*
X159154857Y-88558666D01*
X159297714Y-88558666D01*
X159392952Y-88606285D01*
X159440571Y-88653904D01*
X159488190Y-88749142D01*
X159488190Y-89130095D01*
X159059619Y-88177714D02*
X159012000Y-88130095D01*
X158964380Y-88034857D01*
X158964380Y-87796761D01*
X159012000Y-87701523D01*
X159059619Y-87653904D01*
X159154857Y-87606285D01*
X159250095Y-87606285D01*
X159392952Y-87653904D01*
X159964380Y-88225333D01*
X159964380Y-87606285D01*
X145358380Y-95670666D02*
X144882190Y-96004000D01*
X145358380Y-96242095D02*
X144358380Y-96242095D01*
X144358380Y-95861142D01*
X144406000Y-95765904D01*
X144453619Y-95718285D01*
X144548857Y-95670666D01*
X144691714Y-95670666D01*
X144786952Y-95718285D01*
X144834571Y-95765904D01*
X144882190Y-95861142D01*
X144882190Y-96242095D01*
X144358380Y-95337333D02*
X144358380Y-94718285D01*
X144739333Y-95051619D01*
X144739333Y-94908761D01*
X144786952Y-94813523D01*
X144834571Y-94765904D01*
X144929809Y-94718285D01*
X145167904Y-94718285D01*
X145263142Y-94765904D01*
X145310761Y-94813523D01*
X145358380Y-94908761D01*
X145358380Y-95194476D01*
X145310761Y-95289714D01*
X145263142Y-95337333D01*
X155789333Y-91258380D02*
X155456000Y-90782190D01*
X155217904Y-91258380D02*
X155217904Y-90258380D01*
X155598857Y-90258380D01*
X155694095Y-90306000D01*
X155741714Y-90353619D01*
X155789333Y-90448857D01*
X155789333Y-90591714D01*
X155741714Y-90686952D01*
X155694095Y-90734571D01*
X155598857Y-90782190D01*
X155217904Y-90782190D01*
X156646476Y-90591714D02*
X156646476Y-91258380D01*
X156408380Y-90210761D02*
X156170285Y-90925047D01*
X156789333Y-90925047D01*
X154377380Y-85891666D02*
X153901190Y-86225000D01*
X154377380Y-86463095D02*
X153377380Y-86463095D01*
X153377380Y-86082142D01*
X153425000Y-85986904D01*
X153472619Y-85939285D01*
X153567857Y-85891666D01*
X153710714Y-85891666D01*
X153805952Y-85939285D01*
X153853571Y-85986904D01*
X153901190Y-86082142D01*
X153901190Y-86463095D01*
X153377380Y-84986904D02*
X153377380Y-85463095D01*
X153853571Y-85510714D01*
X153805952Y-85463095D01*
X153758333Y-85367857D01*
X153758333Y-85129761D01*
X153805952Y-85034523D01*
X153853571Y-84986904D01*
X153948809Y-84939285D01*
X154186904Y-84939285D01*
X154282142Y-84986904D01*
X154329761Y-85034523D01*
X154377380Y-85129761D01*
X154377380Y-85367857D01*
X154329761Y-85463095D01*
X154282142Y-85510714D01*
X147153333Y-75000380D02*
X146820000Y-74524190D01*
X146581904Y-75000380D02*
X146581904Y-74000380D01*
X146962857Y-74000380D01*
X147058095Y-74048000D01*
X147105714Y-74095619D01*
X147153333Y-74190857D01*
X147153333Y-74333714D01*
X147105714Y-74428952D01*
X147058095Y-74476571D01*
X146962857Y-74524190D01*
X146581904Y-74524190D01*
X148010476Y-74000380D02*
X147820000Y-74000380D01*
X147724761Y-74048000D01*
X147677142Y-74095619D01*
X147581904Y-74238476D01*
X147534285Y-74428952D01*
X147534285Y-74809904D01*
X147581904Y-74905142D01*
X147629523Y-74952761D01*
X147724761Y-75000380D01*
X147915238Y-75000380D01*
X148010476Y-74952761D01*
X148058095Y-74905142D01*
X148105714Y-74809904D01*
X148105714Y-74571809D01*
X148058095Y-74476571D01*
X148010476Y-74428952D01*
X147915238Y-74381333D01*
X147724761Y-74381333D01*
X147629523Y-74428952D01*
X147581904Y-74476571D01*
X147534285Y-74571809D01*
X148463095Y-92742380D02*
X148463095Y-93551904D01*
X148510714Y-93647142D01*
X148558333Y-93694761D01*
X148653571Y-93742380D01*
X148844047Y-93742380D01*
X148939285Y-93694761D01*
X148986904Y-93647142D01*
X149034523Y-93551904D01*
X149034523Y-92742380D01*
X150034523Y-93742380D02*
X149463095Y-93742380D01*
X149748809Y-93742380D02*
X149748809Y-92742380D01*
X149653571Y-92885238D01*
X149558333Y-92980476D01*
X149463095Y-93028095D01*
X148463095Y-78322380D02*
X148463095Y-79131904D01*
X148510714Y-79227142D01*
X148558333Y-79274761D01*
X148653571Y-79322380D01*
X148844047Y-79322380D01*
X148939285Y-79274761D01*
X148986904Y-79227142D01*
X149034523Y-79131904D01*
X149034523Y-78322380D01*
X149463095Y-78417619D02*
X149510714Y-78370000D01*
X149605952Y-78322380D01*
X149844047Y-78322380D01*
X149939285Y-78370000D01*
X149986904Y-78417619D01*
X150034523Y-78512857D01*
X150034523Y-78608095D01*
X149986904Y-78750952D01*
X149415476Y-79322380D01*
X150034523Y-79322380D01*
X156678333Y-79987142D02*
X156630714Y-80034761D01*
X156487857Y-80082380D01*
X156392619Y-80082380D01*
X156249761Y-80034761D01*
X156154523Y-79939523D01*
X156106904Y-79844285D01*
X156059285Y-79653809D01*
X156059285Y-79510952D01*
X156106904Y-79320476D01*
X156154523Y-79225238D01*
X156249761Y-79130000D01*
X156392619Y-79082380D01*
X156487857Y-79082380D01*
X156630714Y-79130000D01*
X156678333Y-79177619D01*
X157011666Y-79082380D02*
X157630714Y-79082380D01*
X157297380Y-79463333D01*
X157440238Y-79463333D01*
X157535476Y-79510952D01*
X157583095Y-79558571D01*
X157630714Y-79653809D01*
X157630714Y-79891904D01*
X157583095Y-79987142D01*
X157535476Y-80034761D01*
X157440238Y-80082380D01*
X157154523Y-80082380D01*
X157059285Y-80034761D01*
X157011666Y-79987142D01*
M02*
