G04 #@! TF.GenerationSoftware,KiCad,Pcbnew,(5.1.2)-2*
G04 #@! TF.CreationDate,2019-07-24T11:52:09-04:00*
G04 #@! TF.ProjectId,CABR_Schematic,43414252-5f53-4636-9865-6d617469632e,rev?*
G04 #@! TF.SameCoordinates,Original*
G04 #@! TF.FileFunction,Copper,L2,Bot*
G04 #@! TF.FilePolarity,Positive*
%FSLAX46Y46*%
G04 Gerber Fmt 4.6, Leading zero omitted, Abs format (unit mm)*
G04 Created by KiCad (PCBNEW (5.1.2)-2) date 2019-07-24 11:52:09*
%MOMM*%
%LPD*%
G04 APERTURE LIST*
%ADD10C,6.000000*%
%ADD11R,1.700000X1.700000*%
%ADD12O,1.700000X1.700000*%
%ADD13C,0.800000*%
%ADD14C,0.250000*%
G04 APERTURE END LIST*
D10*
X153035000Y-65024000D03*
X145535000Y-65024000D03*
D11*
X141224000Y-77216000D03*
D12*
X143764000Y-77216000D03*
X146304000Y-77216000D03*
D11*
X151765000Y-88265000D03*
D12*
X151765000Y-90805000D03*
X149225000Y-88265000D03*
X149225000Y-90805000D03*
X146685000Y-88265000D03*
X146685000Y-90805000D03*
D11*
X141605000Y-85725000D03*
D12*
X141605000Y-83185000D03*
D10*
X152915000Y-111125000D03*
X145415000Y-111125000D03*
D13*
X157480000Y-76200000D03*
X148844000Y-100076000D03*
X148590000Y-103632000D03*
X152146000Y-74168000D03*
X147315347Y-84840653D03*
X144272000Y-90678000D03*
X145542000Y-86614000D03*
X153670000Y-86360000D03*
X143764000Y-102108000D03*
X144272000Y-98298000D03*
X156718000Y-82460000D03*
X153416000Y-89408000D03*
X142240000Y-88900000D03*
X144018000Y-84328000D03*
X151130000Y-85725000D03*
X151130000Y-83185000D03*
X154432000Y-82042000D03*
X154419299Y-87379395D03*
X147320000Y-83820000D03*
X149351964Y-85852000D03*
X146304000Y-74676000D03*
X149098000Y-83312000D03*
X151638000Y-92964000D03*
D14*
X157480000Y-76200000D02*
X157480000Y-91440000D01*
X157480000Y-91440000D02*
X148844000Y-100076000D01*
X148844000Y-100076000D02*
X148844000Y-103378000D01*
X148844000Y-103378000D02*
X148590000Y-103632000D01*
X144272000Y-90678000D02*
X144272000Y-87884000D01*
X144272000Y-87884000D02*
X145542000Y-86614000D01*
X146915348Y-84440654D02*
X147315347Y-84840653D01*
X146594999Y-84120305D02*
X146915348Y-84440654D01*
X146594999Y-78957001D02*
X146594999Y-84120305D01*
X147828000Y-77724000D02*
X146594999Y-78957001D01*
X147828000Y-76708000D02*
X147828000Y-77724000D01*
X151746001Y-73768001D02*
X146138997Y-73768001D01*
X152146000Y-74168000D02*
X151746001Y-73768001D01*
X146138997Y-73768001D02*
X145578999Y-74327999D01*
X145578999Y-74327999D02*
X145578999Y-75024001D01*
X145578999Y-75024001D02*
X145955999Y-75401001D01*
X146521001Y-75401001D02*
X147828000Y-76708000D01*
X145955999Y-75401001D02*
X146521001Y-75401001D01*
X153104315Y-86360000D02*
X153670000Y-86360000D01*
X152887314Y-86577001D02*
X153104315Y-86360000D01*
X149003963Y-86577001D02*
X152887314Y-86577001D01*
X147315347Y-84888385D02*
X149003963Y-86577001D01*
X147315347Y-84840653D02*
X147315347Y-84888385D01*
X143764000Y-102108000D02*
X144272000Y-101600000D01*
X144272000Y-101600000D02*
X144272000Y-98298000D01*
X156318001Y-82859999D02*
X156318001Y-86505999D01*
X156718000Y-82460000D02*
X156318001Y-82859999D01*
X156318001Y-86505999D02*
X153416000Y-89408000D01*
X142240000Y-88900000D02*
X144018000Y-87122000D01*
X144018000Y-87122000D02*
X144018000Y-84328000D01*
X151130000Y-85725000D02*
X151130000Y-83185000D01*
X154432000Y-82042000D02*
X154432000Y-87366694D01*
X154432000Y-87366694D02*
X154419299Y-87379395D01*
X147320000Y-83820000D02*
X149351964Y-85851964D01*
X149351964Y-85851964D02*
X149351964Y-85852000D01*
X149098000Y-82746315D02*
X149098000Y-83312000D01*
X146304000Y-74676000D02*
X146558000Y-74676000D01*
X149098000Y-77216000D02*
X149098000Y-82746315D01*
X146558000Y-74676000D02*
X149098000Y-77216000D01*
X140429999Y-88163001D02*
X145230998Y-92964000D01*
X141605000Y-83185000D02*
X140429999Y-84360001D01*
X140429999Y-84360001D02*
X140429999Y-88163001D01*
X145230998Y-92964000D02*
X151638000Y-92964000D01*
M02*
