G04 #@! TF.GenerationSoftware,KiCad,Pcbnew,(5.1.2)-2*
G04 #@! TF.CreationDate,2019-07-25T14:33:16-04:00*
G04 #@! TF.ProjectId,CABR_Schematic,43414252-5f53-4636-9865-6d617469632e,rev?*
G04 #@! TF.SameCoordinates,Original*
G04 #@! TF.FileFunction,Other,Fab,Top*
%FSLAX46Y46*%
G04 Gerber Fmt 4.6, Leading zero omitted, Abs format (unit mm)*
G04 Created by KiCad (PCBNEW (5.1.2)-2) date 2019-07-25 14:33:16*
%MOMM*%
%LPD*%
G04 APERTURE LIST*
%ADD10C,0.100000*%
%ADD11C,0.150000*%
%ADD12C,0.080000*%
%ADD13C,0.090000*%
%ADD14C,0.120000*%
G04 APERTURE END LIST*
D10*
X149827500Y-104105000D02*
X149827500Y-102905000D01*
X149827500Y-102905000D02*
X151827500Y-102905000D01*
X151827500Y-102905000D02*
X151827500Y-104105000D01*
X151827500Y-104105000D02*
X149827500Y-104105000D01*
X147050000Y-104105000D02*
X145050000Y-104105000D01*
X147050000Y-102905000D02*
X147050000Y-104105000D01*
X145050000Y-102905000D02*
X147050000Y-102905000D01*
X145050000Y-104105000D02*
X145050000Y-102905000D01*
X141640000Y-90361500D02*
X141640000Y-92061500D01*
X141640000Y-92061500D02*
X141940000Y-92361500D01*
X141940000Y-92361500D02*
X142840000Y-92361500D01*
X142840000Y-92361500D02*
X142840000Y-90361500D01*
X142840000Y-90361500D02*
X141640000Y-90361500D01*
X157480000Y-76450000D02*
X157480000Y-76950000D01*
X157080000Y-76450000D02*
X157480000Y-75850000D01*
X157880000Y-76450000D02*
X157080000Y-76450000D01*
X157480000Y-75850000D02*
X157880000Y-76450000D01*
X157480000Y-75850000D02*
X156930000Y-75850000D01*
X157480000Y-75850000D02*
X158030000Y-75850000D01*
X157480000Y-75450000D02*
X157480000Y-75850000D01*
X156580000Y-74800000D02*
X158380000Y-74800000D01*
X156580000Y-77600000D02*
X156580000Y-74800000D01*
X158380000Y-77600000D02*
X156580000Y-77600000D01*
X158380000Y-74800000D02*
X158380000Y-77600000D01*
X139954000Y-77851000D02*
X139954000Y-75946000D01*
X139954000Y-75946000D02*
X147574000Y-75946000D01*
X147574000Y-75946000D02*
X147574000Y-78486000D01*
X147574000Y-78486000D02*
X140589000Y-78486000D01*
X140589000Y-78486000D02*
X139954000Y-77851000D01*
X153035000Y-88265000D02*
X153035000Y-92075000D01*
X153035000Y-92075000D02*
X145415000Y-92075000D01*
X145415000Y-92075000D02*
X145415000Y-86995000D01*
X145415000Y-86995000D02*
X151765000Y-86995000D01*
X151765000Y-86995000D02*
X153035000Y-88265000D01*
X142240000Y-86995000D02*
X140335000Y-86995000D01*
X140335000Y-86995000D02*
X140335000Y-81915000D01*
X140335000Y-81915000D02*
X142875000Y-81915000D01*
X142875000Y-81915000D02*
X142875000Y-86360000D01*
X142875000Y-86360000D02*
X142240000Y-86995000D01*
X151480000Y-74055000D02*
X152270000Y-73265000D01*
X154080000Y-73265000D02*
X154080000Y-77865000D01*
X154080000Y-77865000D02*
X151480000Y-77865000D01*
X151480000Y-77865000D02*
X151480000Y-74055000D01*
X152270000Y-73265000D02*
X154080000Y-73265000D01*
X156907500Y-89500000D02*
X154907500Y-89500000D01*
X156907500Y-88300000D02*
X156907500Y-89500000D01*
X154907500Y-88300000D02*
X156907500Y-88300000D01*
X154907500Y-89500000D02*
X154907500Y-88300000D01*
X158150000Y-84090000D02*
X159350000Y-84090000D01*
X159350000Y-84090000D02*
X159350000Y-86090000D01*
X159350000Y-86090000D02*
X158150000Y-86090000D01*
X158150000Y-86090000D02*
X158150000Y-84090000D01*
X142656000Y-94504000D02*
X143856000Y-94504000D01*
X143856000Y-94504000D02*
X143856000Y-96504000D01*
X143856000Y-96504000D02*
X142656000Y-96504000D01*
X142656000Y-96504000D02*
X142656000Y-94504000D01*
X156956000Y-93056000D02*
X154956000Y-93056000D01*
X156956000Y-91856000D02*
X156956000Y-93056000D01*
X154956000Y-91856000D02*
X156956000Y-91856000D01*
X154956000Y-93056000D02*
X154956000Y-91856000D01*
X156175000Y-84725000D02*
X156175000Y-86725000D01*
X154975000Y-84725000D02*
X156175000Y-84725000D01*
X154975000Y-86725000D02*
X154975000Y-84725000D01*
X156175000Y-86725000D02*
X154975000Y-86725000D01*
X148320000Y-72298000D02*
X148320000Y-73498000D01*
X148320000Y-73498000D02*
X146320000Y-73498000D01*
X146320000Y-73498000D02*
X146320000Y-72298000D01*
X146320000Y-72298000D02*
X148320000Y-72298000D01*
X147375000Y-95440000D02*
X148375000Y-94440000D01*
X147375000Y-95440000D02*
X147375000Y-101140000D01*
X148375000Y-94440000D02*
X151075000Y-94440000D01*
X147375000Y-101140000D02*
X151075000Y-101140000D01*
X151075000Y-94440000D02*
X151075000Y-101140000D01*
D11*
X147575000Y-79900000D02*
X151875000Y-79900000D01*
X151875000Y-79900000D02*
X151875000Y-85200000D01*
X151875000Y-85200000D02*
X146575000Y-85200000D01*
X146575000Y-85200000D02*
X146575000Y-80900000D01*
X146575000Y-80900000D02*
X147575000Y-79900000D01*
D10*
X155845000Y-81880000D02*
X155845000Y-80680000D01*
X155845000Y-80680000D02*
X157845000Y-80680000D01*
X157845000Y-80680000D02*
X157845000Y-81880000D01*
X157845000Y-81880000D02*
X155845000Y-81880000D01*
D11*
X149756071Y-105607380D02*
X149184642Y-105607380D01*
X149470357Y-105607380D02*
X149470357Y-104607380D01*
X149375119Y-104750238D01*
X149279880Y-104845476D01*
X149184642Y-104893095D01*
X150375119Y-104607380D02*
X150470357Y-104607380D01*
X150565595Y-104655000D01*
X150613214Y-104702619D01*
X150660833Y-104797857D01*
X150708452Y-104988333D01*
X150708452Y-105226428D01*
X150660833Y-105416904D01*
X150613214Y-105512142D01*
X150565595Y-105559761D01*
X150470357Y-105607380D01*
X150375119Y-105607380D01*
X150279880Y-105559761D01*
X150232261Y-105512142D01*
X150184642Y-105416904D01*
X150137023Y-105226428D01*
X150137023Y-104988333D01*
X150184642Y-104797857D01*
X150232261Y-104702619D01*
X150279880Y-104655000D01*
X150375119Y-104607380D01*
X151565595Y-104940714D02*
X151565595Y-105607380D01*
X151137023Y-104940714D02*
X151137023Y-105464523D01*
X151184642Y-105559761D01*
X151279880Y-105607380D01*
X151422738Y-105607380D01*
X151517976Y-105559761D01*
X151565595Y-105512142D01*
X152375119Y-105083571D02*
X152041785Y-105083571D01*
X152041785Y-105607380D02*
X152041785Y-104607380D01*
X152517976Y-104607380D01*
D12*
X150744166Y-103683571D02*
X150720357Y-103707380D01*
X150648928Y-103731190D01*
X150601309Y-103731190D01*
X150529880Y-103707380D01*
X150482261Y-103659761D01*
X150458452Y-103612142D01*
X150434642Y-103516904D01*
X150434642Y-103445476D01*
X150458452Y-103350238D01*
X150482261Y-103302619D01*
X150529880Y-103255000D01*
X150601309Y-103231190D01*
X150648928Y-103231190D01*
X150720357Y-103255000D01*
X150744166Y-103278809D01*
X151220357Y-103731190D02*
X150934642Y-103731190D01*
X151077500Y-103731190D02*
X151077500Y-103231190D01*
X151029880Y-103302619D01*
X150982261Y-103350238D01*
X150934642Y-103374047D01*
D11*
X144978571Y-105607380D02*
X144407142Y-105607380D01*
X144692857Y-105607380D02*
X144692857Y-104607380D01*
X144597619Y-104750238D01*
X144502380Y-104845476D01*
X144407142Y-104893095D01*
X145597619Y-104607380D02*
X145692857Y-104607380D01*
X145788095Y-104655000D01*
X145835714Y-104702619D01*
X145883333Y-104797857D01*
X145930952Y-104988333D01*
X145930952Y-105226428D01*
X145883333Y-105416904D01*
X145835714Y-105512142D01*
X145788095Y-105559761D01*
X145692857Y-105607380D01*
X145597619Y-105607380D01*
X145502380Y-105559761D01*
X145454761Y-105512142D01*
X145407142Y-105416904D01*
X145359523Y-105226428D01*
X145359523Y-104988333D01*
X145407142Y-104797857D01*
X145454761Y-104702619D01*
X145502380Y-104655000D01*
X145597619Y-104607380D01*
X146788095Y-104940714D02*
X146788095Y-105607380D01*
X146359523Y-104940714D02*
X146359523Y-105464523D01*
X146407142Y-105559761D01*
X146502380Y-105607380D01*
X146645238Y-105607380D01*
X146740476Y-105559761D01*
X146788095Y-105512142D01*
X147597619Y-105083571D02*
X147264285Y-105083571D01*
X147264285Y-105607380D02*
X147264285Y-104607380D01*
X147740476Y-104607380D01*
D12*
X145966666Y-103683571D02*
X145942857Y-103707380D01*
X145871428Y-103731190D01*
X145823809Y-103731190D01*
X145752380Y-103707380D01*
X145704761Y-103659761D01*
X145680952Y-103612142D01*
X145657142Y-103516904D01*
X145657142Y-103445476D01*
X145680952Y-103350238D01*
X145704761Y-103302619D01*
X145752380Y-103255000D01*
X145823809Y-103231190D01*
X145871428Y-103231190D01*
X145942857Y-103255000D01*
X145966666Y-103278809D01*
X146157142Y-103278809D02*
X146180952Y-103255000D01*
X146228571Y-103231190D01*
X146347619Y-103231190D01*
X146395238Y-103255000D01*
X146419047Y-103278809D01*
X146442857Y-103326428D01*
X146442857Y-103374047D01*
X146419047Y-103445476D01*
X146133333Y-103731190D01*
X146442857Y-103731190D01*
D11*
X138692000Y-91273142D02*
X138644380Y-91368380D01*
X138644380Y-91511238D01*
X138692000Y-91654095D01*
X138787238Y-91749333D01*
X138882476Y-91796952D01*
X139072952Y-91844571D01*
X139215809Y-91844571D01*
X139406285Y-91796952D01*
X139501523Y-91749333D01*
X139596761Y-91654095D01*
X139644380Y-91511238D01*
X139644380Y-91416000D01*
X139596761Y-91273142D01*
X139549142Y-91225523D01*
X139215809Y-91225523D01*
X139215809Y-91416000D01*
X139644380Y-90796952D02*
X138977714Y-90796952D01*
X139168190Y-90796952D02*
X139072952Y-90749333D01*
X139025333Y-90701714D01*
X138977714Y-90606476D01*
X138977714Y-90511238D01*
X139596761Y-89796952D02*
X139644380Y-89892190D01*
X139644380Y-90082666D01*
X139596761Y-90177904D01*
X139501523Y-90225523D01*
X139120571Y-90225523D01*
X139025333Y-90177904D01*
X138977714Y-90082666D01*
X138977714Y-89892190D01*
X139025333Y-89796952D01*
X139120571Y-89749333D01*
X139215809Y-89749333D01*
X139311047Y-90225523D01*
X139596761Y-88939809D02*
X139644380Y-89035047D01*
X139644380Y-89225523D01*
X139596761Y-89320761D01*
X139501523Y-89368380D01*
X139120571Y-89368380D01*
X139025333Y-89320761D01*
X138977714Y-89225523D01*
X138977714Y-89035047D01*
X139025333Y-88939809D01*
X139120571Y-88892190D01*
X139215809Y-88892190D01*
X139311047Y-89368380D01*
X138977714Y-88463619D02*
X139644380Y-88463619D01*
X139072952Y-88463619D02*
X139025333Y-88416000D01*
X138977714Y-88320761D01*
X138977714Y-88177904D01*
X139025333Y-88082666D01*
X139120571Y-88035047D01*
X139644380Y-88035047D01*
D12*
X142466190Y-91857547D02*
X141966190Y-91857547D01*
X141966190Y-91738500D01*
X141990000Y-91667071D01*
X142037619Y-91619452D01*
X142085238Y-91595642D01*
X142180476Y-91571833D01*
X142251904Y-91571833D01*
X142347142Y-91595642D01*
X142394761Y-91619452D01*
X142442380Y-91667071D01*
X142466190Y-91738500D01*
X142466190Y-91857547D01*
X142466190Y-91095642D02*
X142466190Y-91381357D01*
X142466190Y-91238500D02*
X141966190Y-91238500D01*
X142037619Y-91286119D01*
X142085238Y-91333738D01*
X142109047Y-91381357D01*
D11*
X161234380Y-77786857D02*
X160234380Y-77786857D01*
X160948666Y-77453523D01*
X160234380Y-77120190D01*
X161234380Y-77120190D01*
X161234380Y-76644000D02*
X160234380Y-76644000D01*
X160948666Y-76310666D01*
X160234380Y-75977333D01*
X161234380Y-75977333D01*
X161186761Y-75548761D02*
X161234380Y-75405904D01*
X161234380Y-75167809D01*
X161186761Y-75072571D01*
X161139142Y-75024952D01*
X161043904Y-74977333D01*
X160948666Y-74977333D01*
X160853428Y-75024952D01*
X160805809Y-75072571D01*
X160758190Y-75167809D01*
X160710571Y-75358285D01*
X160662952Y-75453523D01*
X160615333Y-75501142D01*
X160520095Y-75548761D01*
X160424857Y-75548761D01*
X160329619Y-75501142D01*
X160282000Y-75453523D01*
X160234380Y-75358285D01*
X160234380Y-75120190D01*
X160282000Y-74977333D01*
X161234380Y-74548761D02*
X160234380Y-74548761D01*
X160234380Y-74310666D01*
X160282000Y-74167809D01*
X160377238Y-74072571D01*
X160472476Y-74024952D01*
X160662952Y-73977333D01*
X160805809Y-73977333D01*
X160996285Y-74024952D01*
X161091523Y-74072571D01*
X161186761Y-74167809D01*
X161234380Y-74310666D01*
X161234380Y-74548761D01*
X160567714Y-73120190D02*
X161234380Y-73120190D01*
X160186761Y-73358285D02*
X160901047Y-73596380D01*
X160901047Y-72977333D01*
X161234380Y-72072571D02*
X161234380Y-72644000D01*
X161234380Y-72358285D02*
X160234380Y-72358285D01*
X160377238Y-72453523D01*
X160472476Y-72548761D01*
X160520095Y-72644000D01*
X160567714Y-71215428D02*
X161234380Y-71215428D01*
X160186761Y-71453523D02*
X160901047Y-71691619D01*
X160901047Y-71072571D01*
X160662952Y-70548761D02*
X160615333Y-70644000D01*
X160567714Y-70691619D01*
X160472476Y-70739238D01*
X160424857Y-70739238D01*
X160329619Y-70691619D01*
X160282000Y-70644000D01*
X160234380Y-70548761D01*
X160234380Y-70358285D01*
X160282000Y-70263047D01*
X160329619Y-70215428D01*
X160424857Y-70167809D01*
X160472476Y-70167809D01*
X160567714Y-70215428D01*
X160615333Y-70263047D01*
X160662952Y-70358285D01*
X160662952Y-70548761D01*
X160710571Y-70644000D01*
X160758190Y-70691619D01*
X160853428Y-70739238D01*
X161043904Y-70739238D01*
X161139142Y-70691619D01*
X161186761Y-70644000D01*
X161234380Y-70548761D01*
X161234380Y-70358285D01*
X161186761Y-70263047D01*
X161139142Y-70215428D01*
X161043904Y-70167809D01*
X160853428Y-70167809D01*
X160758190Y-70215428D01*
X160710571Y-70263047D01*
X160662952Y-70358285D01*
X160234380Y-69882095D02*
X160234380Y-69310666D01*
X161234380Y-69596380D02*
X160234380Y-69596380D01*
X160234380Y-69072571D02*
X160234380Y-68453523D01*
X160615333Y-68786857D01*
X160615333Y-68644000D01*
X160662952Y-68548761D01*
X160710571Y-68501142D01*
X160805809Y-68453523D01*
X161043904Y-68453523D01*
X161139142Y-68501142D01*
X161186761Y-68548761D01*
X161234380Y-68644000D01*
X161234380Y-68929714D01*
X161186761Y-69024952D01*
X161139142Y-69072571D01*
X160282000Y-67501142D02*
X160234380Y-67596380D01*
X160234380Y-67739238D01*
X160282000Y-67882095D01*
X160377238Y-67977333D01*
X160472476Y-68024952D01*
X160662952Y-68072571D01*
X160805809Y-68072571D01*
X160996285Y-68024952D01*
X161091523Y-67977333D01*
X161186761Y-67882095D01*
X161234380Y-67739238D01*
X161234380Y-67644000D01*
X161186761Y-67501142D01*
X161139142Y-67453523D01*
X160805809Y-67453523D01*
X160805809Y-67644000D01*
X159932380Y-76938095D02*
X158932380Y-76938095D01*
X158932380Y-76700000D01*
X158980000Y-76557142D01*
X159075238Y-76461904D01*
X159170476Y-76414285D01*
X159360952Y-76366666D01*
X159503809Y-76366666D01*
X159694285Y-76414285D01*
X159789523Y-76461904D01*
X159884761Y-76557142D01*
X159932380Y-76700000D01*
X159932380Y-76938095D01*
X159027619Y-75985714D02*
X158980000Y-75938095D01*
X158932380Y-75842857D01*
X158932380Y-75604761D01*
X158980000Y-75509523D01*
X159027619Y-75461904D01*
X159122857Y-75414285D01*
X159218095Y-75414285D01*
X159360952Y-75461904D01*
X159932380Y-76033333D01*
X159932380Y-75414285D01*
X141596904Y-71328761D02*
X141739761Y-71376380D01*
X141977857Y-71376380D01*
X142073095Y-71328761D01*
X142120714Y-71281142D01*
X142168333Y-71185904D01*
X142168333Y-71090666D01*
X142120714Y-70995428D01*
X142073095Y-70947809D01*
X141977857Y-70900190D01*
X141787380Y-70852571D01*
X141692142Y-70804952D01*
X141644523Y-70757333D01*
X141596904Y-70662095D01*
X141596904Y-70566857D01*
X141644523Y-70471619D01*
X141692142Y-70424000D01*
X141787380Y-70376380D01*
X142025476Y-70376380D01*
X142168333Y-70424000D01*
X143025476Y-71328761D02*
X142930238Y-71376380D01*
X142739761Y-71376380D01*
X142644523Y-71328761D01*
X142596904Y-71281142D01*
X142549285Y-71185904D01*
X142549285Y-70900190D01*
X142596904Y-70804952D01*
X142644523Y-70757333D01*
X142739761Y-70709714D01*
X142930238Y-70709714D01*
X143025476Y-70757333D01*
X143454047Y-71376380D02*
X143454047Y-70709714D01*
X143454047Y-70900190D02*
X143501666Y-70804952D01*
X143549285Y-70757333D01*
X143644523Y-70709714D01*
X143739761Y-70709714D01*
X144454047Y-71328761D02*
X144358809Y-71376380D01*
X144168333Y-71376380D01*
X144073095Y-71328761D01*
X144025476Y-71233523D01*
X144025476Y-70852571D01*
X144073095Y-70757333D01*
X144168333Y-70709714D01*
X144358809Y-70709714D01*
X144454047Y-70757333D01*
X144501666Y-70852571D01*
X144501666Y-70947809D01*
X144025476Y-71043047D01*
X144835000Y-70709714D02*
X145025476Y-71376380D01*
X145215952Y-70900190D01*
X145406428Y-71376380D01*
X145596904Y-70709714D01*
X145739761Y-71471619D02*
X146501666Y-71471619D01*
X146596904Y-70376380D02*
X147168333Y-70376380D01*
X146882619Y-71376380D02*
X146882619Y-70376380D01*
X147882619Y-71328761D02*
X147787380Y-71376380D01*
X147596904Y-71376380D01*
X147501666Y-71328761D01*
X147454047Y-71233523D01*
X147454047Y-70852571D01*
X147501666Y-70757333D01*
X147596904Y-70709714D01*
X147787380Y-70709714D01*
X147882619Y-70757333D01*
X147930238Y-70852571D01*
X147930238Y-70947809D01*
X147454047Y-71043047D01*
X148358809Y-71376380D02*
X148358809Y-70709714D01*
X148358809Y-70900190D02*
X148406428Y-70804952D01*
X148454047Y-70757333D01*
X148549285Y-70709714D01*
X148644523Y-70709714D01*
X148977857Y-71376380D02*
X148977857Y-70709714D01*
X148977857Y-70804952D02*
X149025476Y-70757333D01*
X149120714Y-70709714D01*
X149263571Y-70709714D01*
X149358809Y-70757333D01*
X149406428Y-70852571D01*
X149406428Y-71376380D01*
X149406428Y-70852571D02*
X149454047Y-70757333D01*
X149549285Y-70709714D01*
X149692142Y-70709714D01*
X149787380Y-70757333D01*
X149835000Y-70852571D01*
X149835000Y-71376380D01*
X150311190Y-71376380D02*
X150311190Y-70709714D01*
X150311190Y-70376380D02*
X150263571Y-70424000D01*
X150311190Y-70471619D01*
X150358809Y-70424000D01*
X150311190Y-70376380D01*
X150311190Y-70471619D01*
X150787380Y-70709714D02*
X150787380Y-71376380D01*
X150787380Y-70804952D02*
X150835000Y-70757333D01*
X150930238Y-70709714D01*
X151073095Y-70709714D01*
X151168333Y-70757333D01*
X151215952Y-70852571D01*
X151215952Y-71376380D01*
X152120714Y-71376380D02*
X152120714Y-70852571D01*
X152073095Y-70757333D01*
X151977857Y-70709714D01*
X151787380Y-70709714D01*
X151692142Y-70757333D01*
X152120714Y-71328761D02*
X152025476Y-71376380D01*
X151787380Y-71376380D01*
X151692142Y-71328761D01*
X151644523Y-71233523D01*
X151644523Y-71138285D01*
X151692142Y-71043047D01*
X151787380Y-70995428D01*
X152025476Y-70995428D01*
X152120714Y-70947809D01*
X152739761Y-71376380D02*
X152644523Y-71328761D01*
X152596904Y-71233523D01*
X152596904Y-70376380D01*
X152882619Y-71471619D02*
X153644523Y-71471619D01*
X154073095Y-70376380D02*
X154168333Y-70376380D01*
X154263571Y-70424000D01*
X154311190Y-70471619D01*
X154358809Y-70566857D01*
X154406428Y-70757333D01*
X154406428Y-70995428D01*
X154358809Y-71185904D01*
X154311190Y-71281142D01*
X154263571Y-71328761D01*
X154168333Y-71376380D01*
X154073095Y-71376380D01*
X153977857Y-71328761D01*
X153930238Y-71281142D01*
X153882619Y-71185904D01*
X153835000Y-70995428D01*
X153835000Y-70757333D01*
X153882619Y-70566857D01*
X153930238Y-70471619D01*
X153977857Y-70424000D01*
X154073095Y-70376380D01*
X155358809Y-71376380D02*
X154787380Y-71376380D01*
X155073095Y-71376380D02*
X155073095Y-70376380D01*
X154977857Y-70519238D01*
X154882619Y-70614476D01*
X154787380Y-70662095D01*
X155692142Y-71376380D02*
X156215952Y-70709714D01*
X155692142Y-70709714D02*
X156215952Y-71376380D01*
X156787380Y-70376380D02*
X156882619Y-70376380D01*
X156977857Y-70424000D01*
X157025476Y-70471619D01*
X157073095Y-70566857D01*
X157120714Y-70757333D01*
X157120714Y-70995428D01*
X157073095Y-71185904D01*
X157025476Y-71281142D01*
X156977857Y-71328761D01*
X156882619Y-71376380D01*
X156787380Y-71376380D01*
X156692142Y-71328761D01*
X156644523Y-71281142D01*
X156596904Y-71185904D01*
X156549285Y-70995428D01*
X156549285Y-70757333D01*
X156596904Y-70566857D01*
X156644523Y-70471619D01*
X156692142Y-70424000D01*
X156787380Y-70376380D01*
X157501666Y-70471619D02*
X157549285Y-70424000D01*
X157644523Y-70376380D01*
X157882619Y-70376380D01*
X157977857Y-70424000D01*
X158025476Y-70471619D01*
X158073095Y-70566857D01*
X158073095Y-70662095D01*
X158025476Y-70804952D01*
X157454047Y-71376380D01*
X158073095Y-71376380D01*
X139771952Y-74001380D02*
X139867190Y-74001380D01*
X139962428Y-74049000D01*
X140010047Y-74096619D01*
X140057666Y-74191857D01*
X140105285Y-74382333D01*
X140105285Y-74620428D01*
X140057666Y-74810904D01*
X140010047Y-74906142D01*
X139962428Y-74953761D01*
X139867190Y-75001380D01*
X139771952Y-75001380D01*
X139676714Y-74953761D01*
X139629095Y-74906142D01*
X139581476Y-74810904D01*
X139533857Y-74620428D01*
X139533857Y-74382333D01*
X139581476Y-74191857D01*
X139629095Y-74096619D01*
X139676714Y-74049000D01*
X139771952Y-74001380D01*
X140533857Y-74906142D02*
X140581476Y-74953761D01*
X140533857Y-75001380D01*
X140486238Y-74953761D01*
X140533857Y-74906142D01*
X140533857Y-75001380D01*
X141533857Y-75001380D02*
X140962428Y-75001380D01*
X141248142Y-75001380D02*
X141248142Y-74001380D01*
X141152904Y-74144238D01*
X141057666Y-74239476D01*
X140962428Y-74287095D01*
X141914809Y-74001380D02*
X141914809Y-74191857D01*
X142295761Y-74001380D02*
X142295761Y-74191857D01*
X143486238Y-75001380D02*
X143486238Y-74001380D01*
X143486238Y-74477571D02*
X144057666Y-74477571D01*
X144057666Y-75001380D02*
X144057666Y-74001380D01*
X144914809Y-74953761D02*
X144819571Y-75001380D01*
X144629095Y-75001380D01*
X144533857Y-74953761D01*
X144486238Y-74858523D01*
X144486238Y-74477571D01*
X144533857Y-74382333D01*
X144629095Y-74334714D01*
X144819571Y-74334714D01*
X144914809Y-74382333D01*
X144962428Y-74477571D01*
X144962428Y-74572809D01*
X144486238Y-74668047D01*
X145819571Y-75001380D02*
X145819571Y-74477571D01*
X145771952Y-74382333D01*
X145676714Y-74334714D01*
X145486238Y-74334714D01*
X145391000Y-74382333D01*
X145819571Y-74953761D02*
X145724333Y-75001380D01*
X145486238Y-75001380D01*
X145391000Y-74953761D01*
X145343380Y-74858523D01*
X145343380Y-74763285D01*
X145391000Y-74668047D01*
X145486238Y-74620428D01*
X145724333Y-74620428D01*
X145819571Y-74572809D01*
X146724333Y-75001380D02*
X146724333Y-74001380D01*
X146724333Y-74953761D02*
X146629095Y-75001380D01*
X146438619Y-75001380D01*
X146343380Y-74953761D01*
X146295761Y-74906142D01*
X146248142Y-74810904D01*
X146248142Y-74525190D01*
X146295761Y-74429952D01*
X146343380Y-74382333D01*
X146438619Y-74334714D01*
X146629095Y-74334714D01*
X146724333Y-74382333D01*
X147581476Y-74953761D02*
X147486238Y-75001380D01*
X147295761Y-75001380D01*
X147200523Y-74953761D01*
X147152904Y-74858523D01*
X147152904Y-74477571D01*
X147200523Y-74382333D01*
X147295761Y-74334714D01*
X147486238Y-74334714D01*
X147581476Y-74382333D01*
X147629095Y-74477571D01*
X147629095Y-74572809D01*
X147152904Y-74668047D01*
X148057666Y-75001380D02*
X148057666Y-74334714D01*
X148057666Y-74525190D02*
X148105285Y-74429952D01*
X148152904Y-74382333D01*
X148248142Y-74334714D01*
X148343380Y-74334714D01*
X143430666Y-76668380D02*
X143430666Y-77382666D01*
X143383047Y-77525523D01*
X143287809Y-77620761D01*
X143144952Y-77668380D01*
X143049714Y-77668380D01*
X143859238Y-76763619D02*
X143906857Y-76716000D01*
X144002095Y-76668380D01*
X144240190Y-76668380D01*
X144335428Y-76716000D01*
X144383047Y-76763619D01*
X144430666Y-76858857D01*
X144430666Y-76954095D01*
X144383047Y-77096952D01*
X143811619Y-77668380D01*
X144430666Y-77668380D01*
X144807380Y-95415952D02*
X143807380Y-95415952D01*
X143807380Y-95035000D01*
X143855000Y-94939761D01*
X143902619Y-94892142D01*
X143997857Y-94844523D01*
X144140714Y-94844523D01*
X144235952Y-94892142D01*
X144283571Y-94939761D01*
X144331190Y-95035000D01*
X144331190Y-95415952D01*
X144807380Y-94415952D02*
X144140714Y-94415952D01*
X144331190Y-94415952D02*
X144235952Y-94368333D01*
X144188333Y-94320714D01*
X144140714Y-94225476D01*
X144140714Y-94130238D01*
X144807380Y-93654047D02*
X144759761Y-93749285D01*
X144712142Y-93796904D01*
X144616904Y-93844523D01*
X144331190Y-93844523D01*
X144235952Y-93796904D01*
X144188333Y-93749285D01*
X144140714Y-93654047D01*
X144140714Y-93511190D01*
X144188333Y-93415952D01*
X144235952Y-93368333D01*
X144331190Y-93320714D01*
X144616904Y-93320714D01*
X144712142Y-93368333D01*
X144759761Y-93415952D01*
X144807380Y-93511190D01*
X144807380Y-93654047D01*
X144140714Y-92463571D02*
X144950238Y-92463571D01*
X145045476Y-92511190D01*
X145093095Y-92558809D01*
X145140714Y-92654047D01*
X145140714Y-92796904D01*
X145093095Y-92892142D01*
X144759761Y-92463571D02*
X144807380Y-92558809D01*
X144807380Y-92749285D01*
X144759761Y-92844523D01*
X144712142Y-92892142D01*
X144616904Y-92939761D01*
X144331190Y-92939761D01*
X144235952Y-92892142D01*
X144188333Y-92844523D01*
X144140714Y-92749285D01*
X144140714Y-92558809D01*
X144188333Y-92463571D01*
X144807380Y-91987380D02*
X144140714Y-91987380D01*
X144331190Y-91987380D02*
X144235952Y-91939761D01*
X144188333Y-91892142D01*
X144140714Y-91796904D01*
X144140714Y-91701666D01*
X144807380Y-90939761D02*
X144283571Y-90939761D01*
X144188333Y-90987380D01*
X144140714Y-91082619D01*
X144140714Y-91273095D01*
X144188333Y-91368333D01*
X144759761Y-90939761D02*
X144807380Y-91035000D01*
X144807380Y-91273095D01*
X144759761Y-91368333D01*
X144664523Y-91415952D01*
X144569285Y-91415952D01*
X144474047Y-91368333D01*
X144426428Y-91273095D01*
X144426428Y-91035000D01*
X144378809Y-90939761D01*
X144807380Y-90463571D02*
X144140714Y-90463571D01*
X144235952Y-90463571D02*
X144188333Y-90415952D01*
X144140714Y-90320714D01*
X144140714Y-90177857D01*
X144188333Y-90082619D01*
X144283571Y-90035000D01*
X144807380Y-90035000D01*
X144283571Y-90035000D02*
X144188333Y-89987380D01*
X144140714Y-89892142D01*
X144140714Y-89749285D01*
X144188333Y-89654047D01*
X144283571Y-89606428D01*
X144807380Y-89606428D01*
X144807380Y-88368333D02*
X143807380Y-88368333D01*
X144283571Y-88368333D02*
X144283571Y-87796904D01*
X144807380Y-87796904D02*
X143807380Y-87796904D01*
X144759761Y-86939761D02*
X144807380Y-87035000D01*
X144807380Y-87225476D01*
X144759761Y-87320714D01*
X144664523Y-87368333D01*
X144283571Y-87368333D01*
X144188333Y-87320714D01*
X144140714Y-87225476D01*
X144140714Y-87035000D01*
X144188333Y-86939761D01*
X144283571Y-86892142D01*
X144378809Y-86892142D01*
X144474047Y-87368333D01*
X144807380Y-86035000D02*
X144283571Y-86035000D01*
X144188333Y-86082619D01*
X144140714Y-86177857D01*
X144140714Y-86368333D01*
X144188333Y-86463571D01*
X144759761Y-86035000D02*
X144807380Y-86130238D01*
X144807380Y-86368333D01*
X144759761Y-86463571D01*
X144664523Y-86511190D01*
X144569285Y-86511190D01*
X144474047Y-86463571D01*
X144426428Y-86368333D01*
X144426428Y-86130238D01*
X144378809Y-86035000D01*
X144807380Y-85130238D02*
X143807380Y-85130238D01*
X144759761Y-85130238D02*
X144807380Y-85225476D01*
X144807380Y-85415952D01*
X144759761Y-85511190D01*
X144712142Y-85558809D01*
X144616904Y-85606428D01*
X144331190Y-85606428D01*
X144235952Y-85558809D01*
X144188333Y-85511190D01*
X144140714Y-85415952D01*
X144140714Y-85225476D01*
X144188333Y-85130238D01*
X144759761Y-84273095D02*
X144807380Y-84368333D01*
X144807380Y-84558809D01*
X144759761Y-84654047D01*
X144664523Y-84701666D01*
X144283571Y-84701666D01*
X144188333Y-84654047D01*
X144140714Y-84558809D01*
X144140714Y-84368333D01*
X144188333Y-84273095D01*
X144283571Y-84225476D01*
X144378809Y-84225476D01*
X144474047Y-84701666D01*
X144807380Y-83796904D02*
X144140714Y-83796904D01*
X144331190Y-83796904D02*
X144235952Y-83749285D01*
X144188333Y-83701666D01*
X144140714Y-83606428D01*
X144140714Y-83511190D01*
X148891666Y-88987380D02*
X148891666Y-89701666D01*
X148844047Y-89844523D01*
X148748809Y-89939761D01*
X148605952Y-89987380D01*
X148510714Y-89987380D01*
X149272619Y-88987380D02*
X149891666Y-88987380D01*
X149558333Y-89368333D01*
X149701190Y-89368333D01*
X149796428Y-89415952D01*
X149844047Y-89463571D01*
X149891666Y-89558809D01*
X149891666Y-89796904D01*
X149844047Y-89892142D01*
X149796428Y-89939761D01*
X149701190Y-89987380D01*
X149415476Y-89987380D01*
X149320238Y-89939761D01*
X149272619Y-89892142D01*
X138374380Y-88240666D02*
X137374380Y-88240666D01*
X138088666Y-87907333D01*
X137374380Y-87574000D01*
X138374380Y-87574000D01*
X138374380Y-87097809D02*
X137707714Y-87097809D01*
X137374380Y-87097809D02*
X137422000Y-87145428D01*
X137469619Y-87097809D01*
X137422000Y-87050190D01*
X137374380Y-87097809D01*
X137469619Y-87097809D01*
X138326761Y-86193047D02*
X138374380Y-86288285D01*
X138374380Y-86478761D01*
X138326761Y-86574000D01*
X138279142Y-86621619D01*
X138183904Y-86669238D01*
X137898190Y-86669238D01*
X137802952Y-86621619D01*
X137755333Y-86574000D01*
X137707714Y-86478761D01*
X137707714Y-86288285D01*
X137755333Y-86193047D01*
X138374380Y-85764476D02*
X137707714Y-85764476D01*
X137898190Y-85764476D02*
X137802952Y-85716857D01*
X137755333Y-85669238D01*
X137707714Y-85574000D01*
X137707714Y-85478761D01*
X138374380Y-85002571D02*
X138326761Y-85097809D01*
X138279142Y-85145428D01*
X138183904Y-85193047D01*
X137898190Y-85193047D01*
X137802952Y-85145428D01*
X137755333Y-85097809D01*
X137707714Y-85002571D01*
X137707714Y-84859714D01*
X137755333Y-84764476D01*
X137802952Y-84716857D01*
X137898190Y-84669238D01*
X138183904Y-84669238D01*
X138279142Y-84716857D01*
X138326761Y-84764476D01*
X138374380Y-84859714D01*
X138374380Y-85002571D01*
X138326761Y-84288285D02*
X138374380Y-84145428D01*
X138374380Y-83907333D01*
X138326761Y-83812095D01*
X138279142Y-83764476D01*
X138183904Y-83716857D01*
X138088666Y-83716857D01*
X137993428Y-83764476D01*
X137945809Y-83812095D01*
X137898190Y-83907333D01*
X137850571Y-84097809D01*
X137802952Y-84193047D01*
X137755333Y-84240666D01*
X137660095Y-84288285D01*
X137564857Y-84288285D01*
X137469619Y-84240666D01*
X137422000Y-84193047D01*
X137374380Y-84097809D01*
X137374380Y-83859714D01*
X137422000Y-83716857D01*
X137707714Y-83383523D02*
X138374380Y-83193047D01*
X137898190Y-83002571D01*
X138374380Y-82812095D01*
X137707714Y-82621619D01*
X138374380Y-82240666D02*
X137707714Y-82240666D01*
X137374380Y-82240666D02*
X137422000Y-82288285D01*
X137469619Y-82240666D01*
X137422000Y-82193047D01*
X137374380Y-82240666D01*
X137469619Y-82240666D01*
X137707714Y-81907333D02*
X137707714Y-81526380D01*
X137374380Y-81764476D02*
X138231523Y-81764476D01*
X138326761Y-81716857D01*
X138374380Y-81621619D01*
X138374380Y-81526380D01*
X138326761Y-80764476D02*
X138374380Y-80859714D01*
X138374380Y-81050190D01*
X138326761Y-81145428D01*
X138279142Y-81193047D01*
X138183904Y-81240666D01*
X137898190Y-81240666D01*
X137802952Y-81193047D01*
X137755333Y-81145428D01*
X137707714Y-81050190D01*
X137707714Y-80859714D01*
X137755333Y-80764476D01*
X138374380Y-80335904D02*
X137374380Y-80335904D01*
X138374380Y-79907333D02*
X137850571Y-79907333D01*
X137755333Y-79954952D01*
X137707714Y-80050190D01*
X137707714Y-80193047D01*
X137755333Y-80288285D01*
X137802952Y-80335904D01*
X141057380Y-84788333D02*
X141771666Y-84788333D01*
X141914523Y-84835952D01*
X142009761Y-84931190D01*
X142057380Y-85074047D01*
X142057380Y-85169285D01*
X141390714Y-83883571D02*
X142057380Y-83883571D01*
X141009761Y-84121666D02*
X141724047Y-84359761D01*
X141724047Y-83740714D01*
X135017904Y-71524761D02*
X135160761Y-71572380D01*
X135398857Y-71572380D01*
X135494095Y-71524761D01*
X135541714Y-71477142D01*
X135589333Y-71381904D01*
X135589333Y-71286666D01*
X135541714Y-71191428D01*
X135494095Y-71143809D01*
X135398857Y-71096190D01*
X135208380Y-71048571D01*
X135113142Y-71000952D01*
X135065523Y-70953333D01*
X135017904Y-70858095D01*
X135017904Y-70762857D01*
X135065523Y-70667619D01*
X135113142Y-70620000D01*
X135208380Y-70572380D01*
X135446476Y-70572380D01*
X135589333Y-70620000D01*
X136446476Y-71524761D02*
X136351238Y-71572380D01*
X136160761Y-71572380D01*
X136065523Y-71524761D01*
X136017904Y-71477142D01*
X135970285Y-71381904D01*
X135970285Y-71096190D01*
X136017904Y-71000952D01*
X136065523Y-70953333D01*
X136160761Y-70905714D01*
X136351238Y-70905714D01*
X136446476Y-70953333D01*
X136875047Y-71572380D02*
X136875047Y-70905714D01*
X136875047Y-71096190D02*
X136922666Y-71000952D01*
X136970285Y-70953333D01*
X137065523Y-70905714D01*
X137160761Y-70905714D01*
X137875047Y-71524761D02*
X137779809Y-71572380D01*
X137589333Y-71572380D01*
X137494095Y-71524761D01*
X137446476Y-71429523D01*
X137446476Y-71048571D01*
X137494095Y-70953333D01*
X137589333Y-70905714D01*
X137779809Y-70905714D01*
X137875047Y-70953333D01*
X137922666Y-71048571D01*
X137922666Y-71143809D01*
X137446476Y-71239047D01*
X138256000Y-70905714D02*
X138446476Y-71572380D01*
X138636952Y-71096190D01*
X138827428Y-71572380D01*
X139017904Y-70905714D01*
X139160761Y-71667619D02*
X139922666Y-71667619D01*
X140017904Y-70572380D02*
X140589333Y-70572380D01*
X140303619Y-71572380D02*
X140303619Y-70572380D01*
X141303619Y-71524761D02*
X141208380Y-71572380D01*
X141017904Y-71572380D01*
X140922666Y-71524761D01*
X140875047Y-71429523D01*
X140875047Y-71048571D01*
X140922666Y-70953333D01*
X141017904Y-70905714D01*
X141208380Y-70905714D01*
X141303619Y-70953333D01*
X141351238Y-71048571D01*
X141351238Y-71143809D01*
X140875047Y-71239047D01*
X141779809Y-71572380D02*
X141779809Y-70905714D01*
X141779809Y-71096190D02*
X141827428Y-71000952D01*
X141875047Y-70953333D01*
X141970285Y-70905714D01*
X142065523Y-70905714D01*
X142398857Y-71572380D02*
X142398857Y-70905714D01*
X142398857Y-71000952D02*
X142446476Y-70953333D01*
X142541714Y-70905714D01*
X142684571Y-70905714D01*
X142779809Y-70953333D01*
X142827428Y-71048571D01*
X142827428Y-71572380D01*
X142827428Y-71048571D02*
X142875047Y-70953333D01*
X142970285Y-70905714D01*
X143113142Y-70905714D01*
X143208380Y-70953333D01*
X143256000Y-71048571D01*
X143256000Y-71572380D01*
X143732190Y-71572380D02*
X143732190Y-70905714D01*
X143732190Y-70572380D02*
X143684571Y-70620000D01*
X143732190Y-70667619D01*
X143779809Y-70620000D01*
X143732190Y-70572380D01*
X143732190Y-70667619D01*
X144208380Y-70905714D02*
X144208380Y-71572380D01*
X144208380Y-71000952D02*
X144256000Y-70953333D01*
X144351238Y-70905714D01*
X144494095Y-70905714D01*
X144589333Y-70953333D01*
X144636952Y-71048571D01*
X144636952Y-71572380D01*
X145541714Y-71572380D02*
X145541714Y-71048571D01*
X145494095Y-70953333D01*
X145398857Y-70905714D01*
X145208380Y-70905714D01*
X145113142Y-70953333D01*
X145541714Y-71524761D02*
X145446476Y-71572380D01*
X145208380Y-71572380D01*
X145113142Y-71524761D01*
X145065523Y-71429523D01*
X145065523Y-71334285D01*
X145113142Y-71239047D01*
X145208380Y-71191428D01*
X145446476Y-71191428D01*
X145541714Y-71143809D01*
X146160761Y-71572380D02*
X146065523Y-71524761D01*
X146017904Y-71429523D01*
X146017904Y-70572380D01*
X146303619Y-71667619D02*
X147065523Y-71667619D01*
X147494095Y-70572380D02*
X147589333Y-70572380D01*
X147684571Y-70620000D01*
X147732190Y-70667619D01*
X147779809Y-70762857D01*
X147827428Y-70953333D01*
X147827428Y-71191428D01*
X147779809Y-71381904D01*
X147732190Y-71477142D01*
X147684571Y-71524761D01*
X147589333Y-71572380D01*
X147494095Y-71572380D01*
X147398857Y-71524761D01*
X147351238Y-71477142D01*
X147303619Y-71381904D01*
X147256000Y-71191428D01*
X147256000Y-70953333D01*
X147303619Y-70762857D01*
X147351238Y-70667619D01*
X147398857Y-70620000D01*
X147494095Y-70572380D01*
X148779809Y-71572380D02*
X148208380Y-71572380D01*
X148494095Y-71572380D02*
X148494095Y-70572380D01*
X148398857Y-70715238D01*
X148303619Y-70810476D01*
X148208380Y-70858095D01*
X149113142Y-71572380D02*
X149636952Y-70905714D01*
X149113142Y-70905714D02*
X149636952Y-71572380D01*
X150208380Y-70572380D02*
X150303619Y-70572380D01*
X150398857Y-70620000D01*
X150446476Y-70667619D01*
X150494095Y-70762857D01*
X150541714Y-70953333D01*
X150541714Y-71191428D01*
X150494095Y-71381904D01*
X150446476Y-71477142D01*
X150398857Y-71524761D01*
X150303619Y-71572380D01*
X150208380Y-71572380D01*
X150113142Y-71524761D01*
X150065523Y-71477142D01*
X150017904Y-71381904D01*
X149970285Y-71191428D01*
X149970285Y-70953333D01*
X150017904Y-70762857D01*
X150065523Y-70667619D01*
X150113142Y-70620000D01*
X150208380Y-70572380D01*
X150922666Y-70667619D02*
X150970285Y-70620000D01*
X151065523Y-70572380D01*
X151303619Y-70572380D01*
X151398857Y-70620000D01*
X151446476Y-70667619D01*
X151494095Y-70762857D01*
X151494095Y-70858095D01*
X151446476Y-71000952D01*
X150875047Y-71572380D01*
X151494095Y-71572380D01*
X158972761Y-83256380D02*
X158972761Y-82256380D01*
X159353714Y-82256380D01*
X159448952Y-82304000D01*
X159496571Y-82351619D01*
X159544190Y-82446857D01*
X159544190Y-82589714D01*
X159496571Y-82684952D01*
X159448952Y-82732571D01*
X159353714Y-82780190D01*
X158972761Y-82780190D01*
X160306095Y-82732571D02*
X160448952Y-82780190D01*
X160496571Y-82827809D01*
X160544190Y-82923047D01*
X160544190Y-83065904D01*
X160496571Y-83161142D01*
X160448952Y-83208761D01*
X160353714Y-83256380D01*
X159972761Y-83256380D01*
X159972761Y-82256380D01*
X160306095Y-82256380D01*
X160401333Y-82304000D01*
X160448952Y-82351619D01*
X160496571Y-82446857D01*
X160496571Y-82542095D01*
X160448952Y-82637333D01*
X160401333Y-82684952D01*
X160306095Y-82732571D01*
X159972761Y-82732571D01*
X160925142Y-83208761D02*
X161068000Y-83256380D01*
X161306095Y-83256380D01*
X161401333Y-83208761D01*
X161448952Y-83161142D01*
X161496571Y-83065904D01*
X161496571Y-82970666D01*
X161448952Y-82875428D01*
X161401333Y-82827809D01*
X161306095Y-82780190D01*
X161115619Y-82732571D01*
X161020380Y-82684952D01*
X160972761Y-82637333D01*
X160925142Y-82542095D01*
X160925142Y-82446857D01*
X160972761Y-82351619D01*
X161020380Y-82304000D01*
X161115619Y-82256380D01*
X161353714Y-82256380D01*
X161496571Y-82304000D01*
X161877523Y-83208761D02*
X162020380Y-83256380D01*
X162258476Y-83256380D01*
X162353714Y-83208761D01*
X162401333Y-83161142D01*
X162448952Y-83065904D01*
X162448952Y-82970666D01*
X162401333Y-82875428D01*
X162353714Y-82827809D01*
X162258476Y-82780190D01*
X162068000Y-82732571D01*
X161972761Y-82684952D01*
X161925142Y-82637333D01*
X161877523Y-82542095D01*
X161877523Y-82446857D01*
X161925142Y-82351619D01*
X161972761Y-82304000D01*
X162068000Y-82256380D01*
X162306095Y-82256380D01*
X162448952Y-82304000D01*
X163306095Y-82589714D02*
X163306095Y-83256380D01*
X163068000Y-82208761D02*
X162829904Y-82923047D01*
X163448952Y-82923047D01*
X163782285Y-82351619D02*
X163829904Y-82304000D01*
X163925142Y-82256380D01*
X164163238Y-82256380D01*
X164258476Y-82304000D01*
X164306095Y-82351619D01*
X164353714Y-82446857D01*
X164353714Y-82542095D01*
X164306095Y-82684952D01*
X163734666Y-83256380D01*
X164353714Y-83256380D01*
X165258476Y-82256380D02*
X164782285Y-82256380D01*
X164734666Y-82732571D01*
X164782285Y-82684952D01*
X164877523Y-82637333D01*
X165115619Y-82637333D01*
X165210857Y-82684952D01*
X165258476Y-82732571D01*
X165306095Y-82827809D01*
X165306095Y-83065904D01*
X165258476Y-83161142D01*
X165210857Y-83208761D01*
X165115619Y-83256380D01*
X164877523Y-83256380D01*
X164782285Y-83208761D01*
X164734666Y-83161142D01*
X165925142Y-82256380D02*
X166020380Y-82256380D01*
X166115619Y-82304000D01*
X166163238Y-82351619D01*
X166210857Y-82446857D01*
X166258476Y-82637333D01*
X166258476Y-82875428D01*
X166210857Y-83065904D01*
X166163238Y-83161142D01*
X166115619Y-83208761D01*
X166020380Y-83256380D01*
X165925142Y-83256380D01*
X165829904Y-83208761D01*
X165782285Y-83161142D01*
X165734666Y-83065904D01*
X165687047Y-82875428D01*
X165687047Y-82637333D01*
X165734666Y-82446857D01*
X165782285Y-82351619D01*
X165829904Y-82304000D01*
X165925142Y-82256380D01*
X166591809Y-82256380D02*
X167258476Y-83256380D01*
X167258476Y-82256380D02*
X166591809Y-83256380D01*
D13*
X153108571Y-75622142D02*
X153080000Y-75679285D01*
X153022857Y-75736428D01*
X152937142Y-75822142D01*
X152908571Y-75879285D01*
X152908571Y-75936428D01*
X153051428Y-75907857D02*
X153022857Y-75965000D01*
X152965714Y-76022142D01*
X152851428Y-76050714D01*
X152651428Y-76050714D01*
X152537142Y-76022142D01*
X152480000Y-75965000D01*
X152451428Y-75907857D01*
X152451428Y-75793571D01*
X152480000Y-75736428D01*
X152537142Y-75679285D01*
X152651428Y-75650714D01*
X152851428Y-75650714D01*
X152965714Y-75679285D01*
X153022857Y-75736428D01*
X153051428Y-75793571D01*
X153051428Y-75907857D01*
X153051428Y-75079285D02*
X153051428Y-75422142D01*
X153051428Y-75250714D02*
X152451428Y-75250714D01*
X152537142Y-75307857D01*
X152594285Y-75365000D01*
X152622857Y-75422142D01*
D11*
X158408761Y-89860380D02*
X157837333Y-89860380D01*
X158123047Y-89860380D02*
X158123047Y-88860380D01*
X158027809Y-89003238D01*
X157932571Y-89098476D01*
X157837333Y-89146095D01*
X159027809Y-88860380D02*
X159123047Y-88860380D01*
X159218285Y-88908000D01*
X159265904Y-88955619D01*
X159313523Y-89050857D01*
X159361142Y-89241333D01*
X159361142Y-89479428D01*
X159313523Y-89669904D01*
X159265904Y-89765142D01*
X159218285Y-89812761D01*
X159123047Y-89860380D01*
X159027809Y-89860380D01*
X158932571Y-89812761D01*
X158884952Y-89765142D01*
X158837333Y-89669904D01*
X158789714Y-89479428D01*
X158789714Y-89241333D01*
X158837333Y-89050857D01*
X158884952Y-88955619D01*
X158932571Y-88908000D01*
X159027809Y-88860380D01*
X159789714Y-89860380D02*
X159789714Y-88860380D01*
X159884952Y-89479428D02*
X160170666Y-89860380D01*
X160170666Y-89193714D02*
X159789714Y-89574666D01*
D12*
X155824166Y-89126190D02*
X155657500Y-88888095D01*
X155538452Y-89126190D02*
X155538452Y-88626190D01*
X155728928Y-88626190D01*
X155776547Y-88650000D01*
X155800357Y-88673809D01*
X155824166Y-88721428D01*
X155824166Y-88792857D01*
X155800357Y-88840476D01*
X155776547Y-88864285D01*
X155728928Y-88888095D01*
X155538452Y-88888095D01*
X156300357Y-89126190D02*
X156014642Y-89126190D01*
X156157500Y-89126190D02*
X156157500Y-88626190D01*
X156109880Y-88697619D01*
X156062261Y-88745238D01*
X156014642Y-88769047D01*
D11*
X157552380Y-85685238D02*
X157552380Y-86256666D01*
X157552380Y-85970952D02*
X156552380Y-85970952D01*
X156695238Y-86066190D01*
X156790476Y-86161428D01*
X156838095Y-86256666D01*
X156552380Y-85066190D02*
X156552380Y-84970952D01*
X156600000Y-84875714D01*
X156647619Y-84828095D01*
X156742857Y-84780476D01*
X156933333Y-84732857D01*
X157171428Y-84732857D01*
X157361904Y-84780476D01*
X157457142Y-84828095D01*
X157504761Y-84875714D01*
X157552380Y-84970952D01*
X157552380Y-85066190D01*
X157504761Y-85161428D01*
X157457142Y-85209047D01*
X157361904Y-85256666D01*
X157171428Y-85304285D01*
X156933333Y-85304285D01*
X156742857Y-85256666D01*
X156647619Y-85209047D01*
X156600000Y-85161428D01*
X156552380Y-85066190D01*
X157552380Y-84304285D02*
X156552380Y-84304285D01*
X157171428Y-84209047D02*
X157552380Y-83923333D01*
X156885714Y-83923333D02*
X157266666Y-84304285D01*
D12*
X158976190Y-85173333D02*
X158738095Y-85340000D01*
X158976190Y-85459047D02*
X158476190Y-85459047D01*
X158476190Y-85268571D01*
X158500000Y-85220952D01*
X158523809Y-85197142D01*
X158571428Y-85173333D01*
X158642857Y-85173333D01*
X158690476Y-85197142D01*
X158714285Y-85220952D01*
X158738095Y-85268571D01*
X158738095Y-85459047D01*
X158523809Y-84982857D02*
X158500000Y-84959047D01*
X158476190Y-84911428D01*
X158476190Y-84792380D01*
X158500000Y-84744761D01*
X158523809Y-84720952D01*
X158571428Y-84697142D01*
X158619047Y-84697142D01*
X158690476Y-84720952D01*
X158976190Y-85006666D01*
X158976190Y-84697142D01*
D11*
X141153619Y-96908761D02*
X141106000Y-96861142D01*
X141058380Y-96765904D01*
X141058380Y-96527809D01*
X141106000Y-96432571D01*
X141153619Y-96384952D01*
X141248857Y-96337333D01*
X141344095Y-96337333D01*
X141486952Y-96384952D01*
X142058380Y-96956380D01*
X142058380Y-96337333D01*
X141963142Y-95908761D02*
X142010761Y-95861142D01*
X142058380Y-95908761D01*
X142010761Y-95956380D01*
X141963142Y-95908761D01*
X142058380Y-95908761D01*
X141058380Y-95527809D02*
X141058380Y-94861142D01*
X142058380Y-95289714D01*
X142058380Y-94480190D02*
X141058380Y-94480190D01*
X141677428Y-94384952D02*
X142058380Y-94099238D01*
X141391714Y-94099238D02*
X141772666Y-94480190D01*
D12*
X143482190Y-95587333D02*
X143244095Y-95754000D01*
X143482190Y-95873047D02*
X142982190Y-95873047D01*
X142982190Y-95682571D01*
X143006000Y-95634952D01*
X143029809Y-95611142D01*
X143077428Y-95587333D01*
X143148857Y-95587333D01*
X143196476Y-95611142D01*
X143220285Y-95634952D01*
X143244095Y-95682571D01*
X143244095Y-95873047D01*
X142982190Y-95420666D02*
X142982190Y-95111142D01*
X143172666Y-95277809D01*
X143172666Y-95206380D01*
X143196476Y-95158761D01*
X143220285Y-95134952D01*
X143267904Y-95111142D01*
X143386952Y-95111142D01*
X143434571Y-95134952D01*
X143458380Y-95158761D01*
X143482190Y-95206380D01*
X143482190Y-95349238D01*
X143458380Y-95396857D01*
X143434571Y-95420666D01*
D11*
X158408761Y-92908380D02*
X157837333Y-92908380D01*
X158123047Y-92908380D02*
X158123047Y-91908380D01*
X158027809Y-92051238D01*
X157932571Y-92146476D01*
X157837333Y-92194095D01*
X159027809Y-91908380D02*
X159123047Y-91908380D01*
X159218285Y-91956000D01*
X159265904Y-92003619D01*
X159313523Y-92098857D01*
X159361142Y-92289333D01*
X159361142Y-92527428D01*
X159313523Y-92717904D01*
X159265904Y-92813142D01*
X159218285Y-92860761D01*
X159123047Y-92908380D01*
X159027809Y-92908380D01*
X158932571Y-92860761D01*
X158884952Y-92813142D01*
X158837333Y-92717904D01*
X158789714Y-92527428D01*
X158789714Y-92289333D01*
X158837333Y-92098857D01*
X158884952Y-92003619D01*
X158932571Y-91956000D01*
X159027809Y-91908380D01*
X159789714Y-92908380D02*
X159789714Y-91908380D01*
X159884952Y-92527428D02*
X160170666Y-92908380D01*
X160170666Y-92241714D02*
X159789714Y-92622666D01*
D12*
X155872666Y-92682190D02*
X155706000Y-92444095D01*
X155586952Y-92682190D02*
X155586952Y-92182190D01*
X155777428Y-92182190D01*
X155825047Y-92206000D01*
X155848857Y-92229809D01*
X155872666Y-92277428D01*
X155872666Y-92348857D01*
X155848857Y-92396476D01*
X155825047Y-92420285D01*
X155777428Y-92444095D01*
X155586952Y-92444095D01*
X156301238Y-92348857D02*
X156301238Y-92682190D01*
X156182190Y-92158380D02*
X156063142Y-92515523D01*
X156372666Y-92515523D01*
D11*
X157677380Y-86320238D02*
X157677380Y-86891666D01*
X157677380Y-86605952D02*
X156677380Y-86605952D01*
X156820238Y-86701190D01*
X156915476Y-86796428D01*
X156963095Y-86891666D01*
X156677380Y-85701190D02*
X156677380Y-85605952D01*
X156725000Y-85510714D01*
X156772619Y-85463095D01*
X156867857Y-85415476D01*
X157058333Y-85367857D01*
X157296428Y-85367857D01*
X157486904Y-85415476D01*
X157582142Y-85463095D01*
X157629761Y-85510714D01*
X157677380Y-85605952D01*
X157677380Y-85701190D01*
X157629761Y-85796428D01*
X157582142Y-85844047D01*
X157486904Y-85891666D01*
X157296428Y-85939285D01*
X157058333Y-85939285D01*
X156867857Y-85891666D01*
X156772619Y-85844047D01*
X156725000Y-85796428D01*
X156677380Y-85701190D01*
X157677380Y-84939285D02*
X156677380Y-84939285D01*
X157296428Y-84844047D02*
X157677380Y-84558333D01*
X157010714Y-84558333D02*
X157391666Y-84939285D01*
D12*
X155801190Y-85808333D02*
X155563095Y-85975000D01*
X155801190Y-86094047D02*
X155301190Y-86094047D01*
X155301190Y-85903571D01*
X155325000Y-85855952D01*
X155348809Y-85832142D01*
X155396428Y-85808333D01*
X155467857Y-85808333D01*
X155515476Y-85832142D01*
X155539285Y-85855952D01*
X155563095Y-85903571D01*
X155563095Y-86094047D01*
X155301190Y-85355952D02*
X155301190Y-85594047D01*
X155539285Y-85617857D01*
X155515476Y-85594047D01*
X155491666Y-85546428D01*
X155491666Y-85427380D01*
X155515476Y-85379761D01*
X155539285Y-85355952D01*
X155586904Y-85332142D01*
X155705952Y-85332142D01*
X155753571Y-85355952D01*
X155777380Y-85379761D01*
X155801190Y-85427380D01*
X155801190Y-85546428D01*
X155777380Y-85594047D01*
X155753571Y-85617857D01*
D11*
X147200952Y-71700380D02*
X146629523Y-71700380D01*
X146915238Y-71700380D02*
X146915238Y-70700380D01*
X146820000Y-70843238D01*
X146724761Y-70938476D01*
X146629523Y-70986095D01*
X147629523Y-71700380D02*
X147629523Y-70700380D01*
X147724761Y-71319428D02*
X148010476Y-71700380D01*
X148010476Y-71033714D02*
X147629523Y-71414666D01*
D12*
X147236666Y-73124190D02*
X147070000Y-72886095D01*
X146950952Y-73124190D02*
X146950952Y-72624190D01*
X147141428Y-72624190D01*
X147189047Y-72648000D01*
X147212857Y-72671809D01*
X147236666Y-72719428D01*
X147236666Y-72790857D01*
X147212857Y-72838476D01*
X147189047Y-72862285D01*
X147141428Y-72886095D01*
X146950952Y-72886095D01*
X147665238Y-72624190D02*
X147570000Y-72624190D01*
X147522380Y-72648000D01*
X147498571Y-72671809D01*
X147450952Y-72743238D01*
X147427142Y-72838476D01*
X147427142Y-73028952D01*
X147450952Y-73076571D01*
X147474761Y-73100380D01*
X147522380Y-73124190D01*
X147617619Y-73124190D01*
X147665238Y-73100380D01*
X147689047Y-73076571D01*
X147712857Y-73028952D01*
X147712857Y-72909904D01*
X147689047Y-72862285D01*
X147665238Y-72838476D01*
X147617619Y-72814666D01*
X147522380Y-72814666D01*
X147474761Y-72838476D01*
X147450952Y-72862285D01*
X147427142Y-72909904D01*
D11*
X144796428Y-102456666D02*
X145272619Y-102456666D01*
X144701190Y-102742380D02*
X145034523Y-101742380D01*
X145367857Y-102742380D01*
X145605952Y-101742380D02*
X146272619Y-101742380D01*
X145605952Y-102742380D01*
X146272619Y-102742380D01*
X147177380Y-102742380D02*
X146605952Y-102742380D01*
X146891666Y-102742380D02*
X146891666Y-101742380D01*
X146796428Y-101885238D01*
X146701190Y-101980476D01*
X146605952Y-102028095D01*
X148129761Y-102742380D02*
X147558333Y-102742380D01*
X147844047Y-102742380D02*
X147844047Y-101742380D01*
X147748809Y-101885238D01*
X147653571Y-101980476D01*
X147558333Y-102028095D01*
X149082142Y-102742380D02*
X148510714Y-102742380D01*
X148796428Y-102742380D02*
X148796428Y-101742380D01*
X148701190Y-101885238D01*
X148605952Y-101980476D01*
X148510714Y-102028095D01*
X149415476Y-101742380D02*
X150082142Y-101742380D01*
X149653571Y-102742380D01*
X150463095Y-102361428D02*
X151225000Y-102361428D01*
X152177380Y-101742380D02*
X151701190Y-101742380D01*
X151653571Y-102218571D01*
X151701190Y-102170952D01*
X151796428Y-102123333D01*
X152034523Y-102123333D01*
X152129761Y-102170952D01*
X152177380Y-102218571D01*
X152225000Y-102313809D01*
X152225000Y-102551904D01*
X152177380Y-102647142D01*
X152129761Y-102694761D01*
X152034523Y-102742380D01*
X151796428Y-102742380D01*
X151701190Y-102694761D01*
X151653571Y-102647142D01*
X152653571Y-102647142D02*
X152701190Y-102694761D01*
X152653571Y-102742380D01*
X152605952Y-102694761D01*
X152653571Y-102647142D01*
X152653571Y-102742380D01*
X153320238Y-101742380D02*
X153415476Y-101742380D01*
X153510714Y-101790000D01*
X153558333Y-101837619D01*
X153605952Y-101932857D01*
X153653571Y-102123333D01*
X153653571Y-102361428D01*
X153605952Y-102551904D01*
X153558333Y-102647142D01*
X153510714Y-102694761D01*
X153415476Y-102742380D01*
X153320238Y-102742380D01*
X153225000Y-102694761D01*
X153177380Y-102647142D01*
X153129761Y-102551904D01*
X153082142Y-102361428D01*
X153082142Y-102123333D01*
X153129761Y-101932857D01*
X153177380Y-101837619D01*
X153225000Y-101790000D01*
X153320238Y-101742380D01*
D14*
X148786904Y-98399523D02*
X149434523Y-98399523D01*
X149510714Y-98361428D01*
X149548809Y-98323333D01*
X149586904Y-98247142D01*
X149586904Y-98094761D01*
X149548809Y-98018571D01*
X149510714Y-97980476D01*
X149434523Y-97942380D01*
X148786904Y-97942380D01*
X149586904Y-97142380D02*
X149586904Y-97599523D01*
X149586904Y-97370952D02*
X148786904Y-97370952D01*
X148901190Y-97447142D01*
X148977380Y-97523333D01*
X149015476Y-97599523D01*
D11*
X143725000Y-86396666D02*
X144201190Y-86396666D01*
X143629761Y-86682380D02*
X143963095Y-85682380D01*
X144296428Y-86682380D01*
X144486904Y-85682380D02*
X145058333Y-85682380D01*
X144772619Y-86682380D02*
X144772619Y-85682380D01*
X145248809Y-86015714D02*
X145629761Y-86015714D01*
X145391666Y-85682380D02*
X145391666Y-86539523D01*
X145439285Y-86634761D01*
X145534523Y-86682380D01*
X145629761Y-86682380D01*
X145963095Y-86682380D02*
X145963095Y-86015714D01*
X145963095Y-85682380D02*
X145915476Y-85730000D01*
X145963095Y-85777619D01*
X146010714Y-85730000D01*
X145963095Y-85682380D01*
X145963095Y-85777619D01*
X146439285Y-86015714D02*
X146439285Y-86682380D01*
X146439285Y-86110952D02*
X146486904Y-86063333D01*
X146582142Y-86015714D01*
X146725000Y-86015714D01*
X146820238Y-86063333D01*
X146867857Y-86158571D01*
X146867857Y-86682380D01*
X147248809Y-86015714D02*
X147486904Y-86682380D01*
X147725000Y-86015714D02*
X147486904Y-86682380D01*
X147391666Y-86920476D01*
X147344047Y-86968095D01*
X147248809Y-87015714D01*
X148248809Y-86110952D02*
X148153571Y-86063333D01*
X148105952Y-86015714D01*
X148058333Y-85920476D01*
X148058333Y-85872857D01*
X148105952Y-85777619D01*
X148153571Y-85730000D01*
X148248809Y-85682380D01*
X148439285Y-85682380D01*
X148534523Y-85730000D01*
X148582142Y-85777619D01*
X148629761Y-85872857D01*
X148629761Y-85920476D01*
X148582142Y-86015714D01*
X148534523Y-86063333D01*
X148439285Y-86110952D01*
X148248809Y-86110952D01*
X148153571Y-86158571D01*
X148105952Y-86206190D01*
X148058333Y-86301428D01*
X148058333Y-86491904D01*
X148105952Y-86587142D01*
X148153571Y-86634761D01*
X148248809Y-86682380D01*
X148439285Y-86682380D01*
X148534523Y-86634761D01*
X148582142Y-86587142D01*
X148629761Y-86491904D01*
X148629761Y-86301428D01*
X148582142Y-86206190D01*
X148534523Y-86158571D01*
X148439285Y-86110952D01*
X149534523Y-85682380D02*
X149058333Y-85682380D01*
X149010714Y-86158571D01*
X149058333Y-86110952D01*
X149153571Y-86063333D01*
X149391666Y-86063333D01*
X149486904Y-86110952D01*
X149534523Y-86158571D01*
X149582142Y-86253809D01*
X149582142Y-86491904D01*
X149534523Y-86587142D01*
X149486904Y-86634761D01*
X149391666Y-86682380D01*
X149153571Y-86682380D01*
X149058333Y-86634761D01*
X149010714Y-86587142D01*
X150010714Y-86301428D02*
X150772619Y-86301428D01*
X151201190Y-85777619D02*
X151248809Y-85730000D01*
X151344047Y-85682380D01*
X151582142Y-85682380D01*
X151677380Y-85730000D01*
X151725000Y-85777619D01*
X151772619Y-85872857D01*
X151772619Y-85968095D01*
X151725000Y-86110952D01*
X151153571Y-86682380D01*
X151772619Y-86682380D01*
X152391666Y-85682380D02*
X152486904Y-85682380D01*
X152582142Y-85730000D01*
X152629761Y-85777619D01*
X152677380Y-85872857D01*
X152725000Y-86063333D01*
X152725000Y-86301428D01*
X152677380Y-86491904D01*
X152629761Y-86587142D01*
X152582142Y-86634761D01*
X152486904Y-86682380D01*
X152391666Y-86682380D01*
X152296428Y-86634761D01*
X152248809Y-86587142D01*
X152201190Y-86491904D01*
X152153571Y-86301428D01*
X152153571Y-86063333D01*
X152201190Y-85872857D01*
X152248809Y-85777619D01*
X152296428Y-85730000D01*
X152391666Y-85682380D01*
X153105952Y-86634761D02*
X153248809Y-86682380D01*
X153486904Y-86682380D01*
X153582142Y-86634761D01*
X153629761Y-86587142D01*
X153677380Y-86491904D01*
X153677380Y-86396666D01*
X153629761Y-86301428D01*
X153582142Y-86253809D01*
X153486904Y-86206190D01*
X153296428Y-86158571D01*
X153201190Y-86110952D01*
X153153571Y-86063333D01*
X153105952Y-85968095D01*
X153105952Y-85872857D01*
X153153571Y-85777619D01*
X153201190Y-85730000D01*
X153296428Y-85682380D01*
X153534523Y-85682380D01*
X153677380Y-85730000D01*
X154105952Y-85682380D02*
X154105952Y-86491904D01*
X154153571Y-86587142D01*
X154201190Y-86634761D01*
X154296428Y-86682380D01*
X154486904Y-86682380D01*
X154582142Y-86634761D01*
X154629761Y-86587142D01*
X154677380Y-86491904D01*
X154677380Y-85682380D01*
X148463095Y-82002380D02*
X148463095Y-82811904D01*
X148510714Y-82907142D01*
X148558333Y-82954761D01*
X148653571Y-83002380D01*
X148844047Y-83002380D01*
X148939285Y-82954761D01*
X148986904Y-82907142D01*
X149034523Y-82811904D01*
X149034523Y-82002380D01*
X149463095Y-82097619D02*
X149510714Y-82050000D01*
X149605952Y-82002380D01*
X149844047Y-82002380D01*
X149939285Y-82050000D01*
X149986904Y-82097619D01*
X150034523Y-82192857D01*
X150034523Y-82288095D01*
X149986904Y-82430952D01*
X149415476Y-83002380D01*
X150034523Y-83002380D01*
X155202142Y-82382380D02*
X155297380Y-82382380D01*
X155392619Y-82430000D01*
X155440238Y-82477619D01*
X155487857Y-82572857D01*
X155535476Y-82763333D01*
X155535476Y-83001428D01*
X155487857Y-83191904D01*
X155440238Y-83287142D01*
X155392619Y-83334761D01*
X155297380Y-83382380D01*
X155202142Y-83382380D01*
X155106904Y-83334761D01*
X155059285Y-83287142D01*
X155011666Y-83191904D01*
X154964047Y-83001428D01*
X154964047Y-82763333D01*
X155011666Y-82572857D01*
X155059285Y-82477619D01*
X155106904Y-82430000D01*
X155202142Y-82382380D01*
X155964047Y-83287142D02*
X156011666Y-83334761D01*
X155964047Y-83382380D01*
X155916428Y-83334761D01*
X155964047Y-83287142D01*
X155964047Y-83382380D01*
X156964047Y-83382380D02*
X156392619Y-83382380D01*
X156678333Y-83382380D02*
X156678333Y-82382380D01*
X156583095Y-82525238D01*
X156487857Y-82620476D01*
X156392619Y-82668095D01*
X157821190Y-82715714D02*
X157821190Y-83382380D01*
X157392619Y-82715714D02*
X157392619Y-83239523D01*
X157440238Y-83334761D01*
X157535476Y-83382380D01*
X157678333Y-83382380D01*
X157773571Y-83334761D01*
X157821190Y-83287142D01*
X158630714Y-82858571D02*
X158297380Y-82858571D01*
X158297380Y-83382380D02*
X158297380Y-82382380D01*
X158773571Y-82382380D01*
D12*
X156761666Y-81458571D02*
X156737857Y-81482380D01*
X156666428Y-81506190D01*
X156618809Y-81506190D01*
X156547380Y-81482380D01*
X156499761Y-81434761D01*
X156475952Y-81387142D01*
X156452142Y-81291904D01*
X156452142Y-81220476D01*
X156475952Y-81125238D01*
X156499761Y-81077619D01*
X156547380Y-81030000D01*
X156618809Y-81006190D01*
X156666428Y-81006190D01*
X156737857Y-81030000D01*
X156761666Y-81053809D01*
X156928333Y-81006190D02*
X157237857Y-81006190D01*
X157071190Y-81196666D01*
X157142619Y-81196666D01*
X157190238Y-81220476D01*
X157214047Y-81244285D01*
X157237857Y-81291904D01*
X157237857Y-81410952D01*
X157214047Y-81458571D01*
X157190238Y-81482380D01*
X157142619Y-81506190D01*
X156999761Y-81506190D01*
X156952142Y-81482380D01*
X156928333Y-81458571D01*
M02*
